<?xml version="1.0" standalone="no"?>
<!DOCTYPE svg PUBLIC "-//W3C//DTD SVG 20010904//EN"
 "http://www.w3.org/TR/2001/REC-SVG-20010904/DTD/svg10.dtd">
<svg version="1.0" xmlns="http://www.w3.org/2000/svg"
 width="700.000000pt" height="700.000000pt" viewBox="0 0 700.000000 700.000000"
 preserveAspectRatio="xMidYMid meet">
<metadata>
Created by potrace 1.14, written by Peter Selinger 2001-2017
</metadata>
<g transform="translate(0.000000,700.000000) scale(0.100000,-0.100000)"
fill="#000000" stroke="none">
<path d="M5065 6164 c-176 -35 -321 -64 -322 -64 -6 0 -3 -31 8 -80 9 -41 14
-50 28 -45 15 4 20 -5 30 -52 34 -158 106 -327 181 -421 l41 -53 -21 -82 c-29
-117 -35 -249 -16 -387 14 -104 14 -116 0 -127 -22 -16 0 -136 25 -129 9 3
157 32 330 66 173 33 315 61 317 62 1 2 -3 30 -10 63 -9 46 -16 59 -29 57 -11
-2 -19 9 -26 35 -6 21 -11 44 -11 52 0 30 -73 230 -106 291 -20 36 -54 86 -75
112 l-40 48 21 67 c30 92 38 293 17 418 -14 88 -13 96 15 107 10 4 -16 121
-27 124 -6 1 -154 -27 -330 -62z m289 -201 c11 -68 6 -226 -9 -298 -8 -38 -27
-92 -41 -120 l-26 -50 39 -35 c59 -53 100 -110 142 -202 37 -78 78 -205 70
-212 -6 -5 -435 -86 -457 -86 -18 0 -21 9 -27 94 -11 148 18 315 67 385 15 21
12 25 -51 89 -70 70 -120 157 -159 277 -39 117 -57 102 188 151 118 23 225 43
236 43 17 1 23 -6 28 -36z"/>
<path d="M5105 5888 c-82 -16 -152 -32 -154 -34 -7 -7 22 -99 54 -169 34 -75
84 -140 116 -150 26 -9 64 -85 95 -195 l26 -91 -23 -18 c-33 -26 -88 -137 -95
-194 l-7 -47 34 6 c158 30 311 63 317 68 20 21 -138 186 -179 186 -21 0 -25
11 -38 113 -16 116 -14 165 9 202 40 64 60 215 44 318 -8 45 1 45 -199 5z"/>
<path d="M6010 6034 c-130 -19 -217 -53 -279 -110 -67 -60 -86 -104 -86 -204
0 -212 76 -280 370 -329 167 -29 218 -45 249 -82 77 -92 -12 -183 -200 -205
-68 -8 -173 11 -257 46 -84 35 -88 29 -52 -73 l27 -75 71 -33 c118 -54 276
-51 422 7 126 51 195 142 195 260 0 176 -95 283 -277 313 -37 6 -110 18 -162
26 -161 26 -211 62 -211 151 0 49 48 94 125 118 79 25 222 19 286 -12 25 -12
51 -22 57 -22 8 0 12 27 12 89 l0 89 -38 15 c-73 29 -176 42 -252 31z"/>
<path d="M3747 5585 c-229 -58 -329 -211 -314 -483 15 -274 127 -512 274 -583
138 -66 444 -10 581 106 l42 37 0 78 c0 43 -5 82 -10 85 -6 3 -29 -9 -53 -29
-135 -110 -378 -164 -485 -108 -50 27 -91 85 -117 167 -9 31 -16 57 -14 59 2
2 143 30 313 64 170 34 310 63 312 65 2 1 4 43 5 93 2 106 -20 185 -77 280
-46 77 -84 115 -147 150 -46 25 -64 29 -152 31 -63 1 -122 -3 -158 -12z m221
-176 c30 -15 54 -37 73 -68 29 -45 74 -169 65 -178 -3 -3 -112 -27 -242 -54
-183 -38 -240 -46 -246 -36 -4 6 -8 53 -8 102 0 144 36 197 158 236 78 25 146
24 200 -2z"/>
<path d="M1363 5445 c-65 -28 -89 -109 -47 -156 66 -73 214 -22 214 72 0 78
-85 120 -167 84z"/>
<path d="M2782 5371 c-71 -25 -156 -85 -194 -137 l-31 -43 -40 35 c-51 43
-104 58 -189 52 -88 -7 -182 -51 -248 -117 l-50 -50 -21 42 c-12 23 -23 43
-24 45 -7 8 -138 -23 -142 -33 -2 -7 9 -66 26 -131 34 -138 144 -688 162 -816
7 -49 15 -88 18 -88 17 1 182 38 186 41 2 2 -14 74 -34 159 -21 85 -60 266
-87 402 l-48 248 34 35 c19 20 61 49 94 65 107 54 198 33 236 -53 19 -44 120
-537 141 -694 7 -51 16 -93 19 -93 12 0 182 39 185 42 2 2 -11 67 -29 143 -19
77 -57 257 -86 399 -59 296 -61 277 34 343 117 80 233 68 276 -30 19 -42 118
-528 141 -687 7 -47 15 -88 19 -93 7 -8 170 21 183 33 4 4 -8 70 -27 146 -19
76 -55 245 -81 374 -25 129 -55 263 -66 296 -24 73 -73 135 -132 163 -55 27
-151 27 -225 2z"/>
<path d="M670 5209 c-212 -43 -388 -78 -392 -79 -5 0 -8 -41 -8 -90 0 -67 4
-92 13 -96 8 -3 45 7 83 21 69 26 253 69 262 61 8 -8 172 -829 196 -979 13
-81 25 -150 28 -153 5 -4 187 32 194 39 2 1 -10 54 -27 117 -24 95 -209 987
-209 1010 0 11 164 41 261 47 49 3 92 9 94 13 3 5 -1 23 -8 41 -8 19 -22 55
-31 82 -15 40 -21 47 -44 46 -15 0 -200 -36 -412 -80z"/>
<path d="M1466 5098 c-49 -10 -91 -20 -93 -22 -2 -2 10 -61 27 -132 42 -175
134 -633 155 -774 10 -63 21 -119 25 -123 10 -11 190 24 190 37 0 6 -12 54
-26 106 -32 121 -149 696 -164 815 -7 50 -15 95 -19 101 -4 7 -33 5 -95 -8z"/>
<path d="M4723 4197 c-71 -14 -103 -25 -103 -35 0 -7 17 -77 39 -155 21 -78
72 -280 112 -449 61 -254 77 -308 91 -308 9 0 40 5 68 11 36 8 50 15 50 27 0
9 -24 168 -54 352 -30 184 -59 378 -66 430 -14 119 -20 150 -28 149 -4 -1 -53
-11 -109 -22z"/>
<path d="M3140 3877 c-52 -10 -97 -20 -98 -22 -2 -2 14 -81 37 -177 22 -95 65
-301 96 -458 66 -330 69 -397 21 -470 -50 -76 -194 -122 -298 -95 -65 16 -128
80 -152 153 -20 60 -140 656 -165 820 -11 68 -21 125 -23 127 -4 4 -189 -33
-195 -39 -2 -2 8 -49 22 -104 14 -56 57 -257 95 -449 39 -191 78 -370 87 -398
71 -224 225 -326 445 -295 133 19 222 56 295 123 81 74 122 197 109 326 -4 35
-36 208 -72 385 -35 176 -74 382 -85 456 -11 74 -21 135 -22 136 -1 0 -45 -8
-97 -19z"/>
<path d="M3999 3799 c-77 -11 -155 -43 -216 -90 l-53 -39 -6 25 c-7 28 -13 29
-64 16 -19 -5 -51 -12 -71 -15 l-37 -6 24 -93 c35 -135 209 -989 234 -1152 12
-77 23 -141 24 -143 4 -3 186 34 191 40 2 2 -7 46 -20 98 -27 103 -75 323 -75
342 0 7 7 5 18 -4 64 -57 158 -76 257 -53 125 29 211 100 255 212 32 81 39
244 15 368 -46 245 -133 407 -253 469 -26 13 -134 37 -156 35 -6 -1 -36 -5
-67 -10z m112 -180 c76 -26 123 -98 165 -256 31 -118 42 -277 24 -343 -15 -56
-70 -111 -131 -129 -95 -29 -205 -24 -251 11 -12 9 -34 96 -78 311 -33 164
-60 307 -60 318 0 24 59 54 153 79 84 22 131 24 178 9z"/>
<path d="M5603 3739 c-45 -29 -67 -80 -59 -143 20 -175 130 -479 247 -687 l52
-92 -6 -243 c-6 -212 -9 -250 -27 -301 -115 -315 -168 -549 -205 -897 -23
-223 -22 -241 20 -283 34 -34 38 -35 95 -31 49 3 65 9 90 33 38 37 45 64 65
251 19 193 48 360 88 516 31 117 33 123 56 120 14 -1 27 -5 29 -7 3 -3 9 -53
14 -112 30 -380 62 -675 79 -730 15 -47 51 -66 114 -61 120 10 152 81 124 273
-5 39 -23 228 -39 420 -26 317 -28 355 -15 404 8 29 17 119 21 200 3 80 9 161
13 180 l6 33 83 -71 c45 -39 93 -74 108 -77 69 -17 141 24 162 92 17 58 -22
369 -57 450 -34 77 -133 96 -207 39 -20 -16 -37 -39 -41 -56 -7 -34 -8 -35
-40 -9 -14 11 -31 20 -37 20 -6 0 -20 14 -31 31 -49 76 -169 123 -260 102
l-46 -10 -26 50 c-56 112 -118 289 -153 442 -27 116 -37 141 -66 160 -34 22
-112 19 -151 -6z"/>
<path d="M6139 3552 c-160 -83 -170 -308 -18 -409 34 -22 56 -28 114 -31 106
-6 183 35 226 120 107 209 -114 429 -322 320z"/>
<path d="M4904 3121 c-57 -26 -84 -64 -84 -118 0 -112 145 -160 245 -81 78 61
58 171 -38 207 -41 16 -76 13 -123 -8z"/>
<path d="M1237 2680 c-508 -92 -813 -549 -616 -921 78 -146 262 -270 448 -301
l73 -12 -5 -61 c-3 -33 -14 -81 -26 -107 -11 -27 -16 -48 -12 -48 22 0 133 85
194 149 68 70 70 71 155 91 341 81 602 365 602 655 0 146 -49 264 -156 371
-77 78 -182 137 -299 169 -70 19 -288 28 -358 15z m432 -444 c56 -29 67 -102
22 -147 -78 -77 -200 14 -147 110 15 26 51 50 79 51 10 0 30 -6 46 -14z m-298
-105 c32 -33 37 -67 14 -110 -32 -63 -128 -62 -161 1 -50 96 70 185 147 109z
m-352 -62 c63 -22 80 -102 32 -150 -56 -55 -145 -27 -157 51 -6 39 21 84 60
100 28 12 28 12 65 -1z"/>
<path d="M3511 1965 c-210 -48 -374 -142 -498 -288 -92 -108 -153 -262 -153
-387 0 -59 30 -172 63 -236 77 -152 281 -284 475 -310 l54 -7 -7 -56 c-4 -30
-16 -77 -26 -104 -11 -27 -18 -51 -16 -53 10 -10 135 84 196 146 67 69 70 71
152 91 110 26 267 103 352 173 302 251 337 626 81 865 -77 72 -162 120 -272
153 -89 27 -309 34 -401 13z m143 -518 c25 -96 46 -180 46 -187 0 -8 8 -10 25
-6 14 3 36 9 49 12 21 5 25 1 31 -26 4 -17 5 -33 3 -34 -11 -9 -250 -66 -257
-62 -5 3 -11 17 -13 31 -5 23 -1 27 41 39 25 8 45 18 45 22 -1 5 -16 67 -34
137 -26 98 -37 127 -48 122 -7 -3 -31 -8 -53 -11 -37 -6 -39 -5 -39 19 0 19 8
31 28 41 15 8 44 28 66 45 21 17 44 31 51 31 7 0 31 -69 59 -173z"/>
</g>
</svg>
