<?xml version="1.0" encoding="iso-8859-1"?>
<!-- Generator: Adobe Illustrator 18.0.0, SVG Export Plug-In . SVG Version: 6.00 Build 0)  -->
<!DOCTYPE svg PUBLIC "-//W3C//DTD SVG 1.1//EN" "http://www.w3.org/Graphics/SVG/1.1/DTD/svg11.dtd">
<svg version="1.1" id="Capa_1" xmlns="http://www.w3.org/2000/svg" xmlns:xlink="http://www.w3.org/1999/xlink" x="0px" y="0px"
	 viewBox="0 0 478.908 478.908" style="enable-background:new 0 0 478.908 478.908;" xml:space="preserve">
<g>
	<path d="M399.44,440.181c-20.461,16.59-46.237,25.727-72.579,25.727h-15.644c2.214-3.822,3.489-8.252,3.489-12.978
		c0-10.427-6.178-19.433-15.063-23.565c3.181-4.311,5.066-9.634,5.066-15.39c0-7.331-3.052-13.961-7.952-18.689
		c5.937-4.765,9.743-12.08,9.743-20.266c0-14.324-11.653-25.978-25.978-25.978l-147.037,0.004c-7.331,0-13.381-5.735-13.485-12.783
		c-0.052-3.548,1.297-6.875,3.813-9.383c2.441-2.449,5.698-3.799,9.169-3.799h171.86c15.863,0,30.792-6.983,40.959-19.16
		c10.164-12.173,14.371-28.103,11.542-43.706c-0.007-0.037-0.014-0.074-0.021-0.111l-8.015-40.224
		c-1.475-7.396,2.778-14.837,9.891-17.308l0.451-0.155c4.106-1.4,8.623-0.943,12.392,1.255c3.821,2.229,6.483,6,7.302,10.345
		c2.188,11.624,4.999,26.596,7.916,42.26c1.399,7.521,2.823,15.201,4.217,22.747c2.556,13.845,7.201,27.685,14.204,42.31
		c7.455,15.57,4.255,34.24-7.963,46.458c-2.539,2.538-2.539,6.654-0.001,9.192c1.27,1.269,2.933,1.904,4.597,1.904
		c1.663,0,3.327-0.635,4.596-1.904c16.111-16.11,20.329-40.73,10.496-61.264c-6.5-13.578-10.8-26.353-13.146-39.056
		c-1.394-7.552-2.819-15.237-4.219-22.765c-2.919-15.675-5.731-30.656-7.922-42.287c-1.517-8.053-6.448-15.04-13.528-19.169
		c-7.027-4.098-15.462-4.947-23.125-2.333l-0.53,0.182c-13.213,4.59-21.113,18.402-18.377,32.13l8.003,40.165
		c2.121,11.784-1.063,23.81-8.738,33.003c-7.69,9.21-18.982,14.492-30.98,14.492h-171.86c-6.951,0-13.478,2.707-18.361,7.606
		c-5.018,5.002-7.724,11.667-7.618,18.768c0.209,14.111,12.09,25.591,26.483,25.591h67.255c-2.212,3.821-3.486,8.25-3.486,12.974
		c0,8.662,4.261,16.348,10.798,21.07c-4.432,4.661-7.154,10.961-7.154,17.885c0,14.324,11.654,25.978,25.979,25.978h4.236
		c-2.214,3.822-3.489,8.252-3.489,12.978c0,14.324,11.653,25.978,25.978,25.978h73.261c29.313,0,57.997-10.167,80.767-28.629
		c2.788-2.261,3.216-6.354,0.955-9.143C406.322,438.347,402.228,437.92,399.44,440.181z M223.149,362.045l57.373-0.004
		c7.156,0,12.978,5.822,12.978,12.978s-5.821,12.978-12.978,12.978h-57.291c-7.156,0-12.978-5.822-12.978-12.978
		C210.253,367.89,216.031,362.09,223.149,362.045z M213.897,413.974c0-7.156,5.822-12.978,12.979-12.978h51.855
		c7.156,0,12.978,5.822,12.978,12.978s-5.821,12.978-12.978,12.978h-51.855C219.719,426.952,213.897,421.13,213.897,413.974z
		 M253.6,465.908c-7.156,0-12.978-5.822-12.978-12.978s5.821-12.978,12.978-12.978h35.128c7.156,0,12.978,5.822,12.978,12.978
		s-5.821,12.978-12.978,12.978H253.6z"/>
	<path d="M113.645,290.013c14.431-3.439,23.661-17.566,21.015-32.163l-7.518-41.47c-2.14-11.805,1.043-23.858,8.733-33.067
		c7.689-9.209,18.981-14.491,30.979-14.491h171.859c14.324,0,25.978-11.654,25.978-25.978s-11.653-25.978-25.978-25.978H270.95
		c2.214-3.822,3.489-8.252,3.489-12.978c0-8.665-4.269-16.347-10.81-21.069c4.435-4.662,7.165-10.959,7.165-17.886
		c0-14.324-11.653-25.978-25.978-25.978h-4.237c2.214-3.822,3.489-8.252,3.489-12.978C244.069,11.654,232.416,0,218.091,0h-73.26
		c-29.314,0-57.998,10.167-80.768,28.63c-2.788,2.261-3.216,6.354-0.955,9.143s6.354,3.216,9.143,0.955
		C92.713,22.137,118.489,13,144.832,13h73.26c7.156,0,12.978,5.822,12.978,12.978s-5.821,12.978-12.978,12.978h-25.819
		c-3.59,0-6.5,2.91-6.5,6.5s2.91,6.5,6.5,6.5h52.545c7.156,0,12.978,5.822,12.978,12.978s-5.821,12.978-12.978,12.978h-44.392
		c-3.59,0-6.5,2.91-6.5,6.5s2.91,6.5,6.5,6.5h48.035c7.156,0,12.979,5.822,12.979,12.978s-5.822,12.978-12.979,12.978h-54.377
		c-3.59,0-6.5,2.91-6.5,6.5s2.91,6.5,6.5,6.5h144.63c7.156,0,12.978,5.822,12.978,12.978s-5.821,12.978-12.978,12.978H166.854
		c-15.862,0-30.79,6.983-40.957,19.158s-14.375,28.11-11.546,43.718l7.518,41.47c1.415,7.805-3.521,15.36-11.237,17.198
		c-4.017,0.957-8.136,0.247-11.596-1.998c-3.46-2.244-5.785-5.712-6.549-9.766c-7.438-39.516-20.359-108.646-23.316-127.656
		c-0.552-3.547-3.88-5.974-7.422-5.424c-3.547,0.552-5.976,3.875-5.424,7.422c2.984,19.188,15.934,88.472,23.387,128.063
		c1.428,7.582,5.778,14.07,12.251,18.267c4.594,2.98,9.805,4.513,15.128,4.513C109.268,290.79,111.465,290.533,113.645,290.013z"/>
</g>
<g>
</g>
<g>
</g>
<g>
</g>
<g>
</g>
<g>
</g>
<g>
</g>
<g>
</g>
<g>
</g>
<g>
</g>
<g>
</g>
<g>
</g>
<g>
</g>
<g>
</g>
<g>
</g>
<g>
</g>
</svg>
