<?xml version="1.0" encoding="iso-8859-1"?>
<!-- Generator: Adobe Illustrator 19.0.0, SVG Export Plug-In . SVG Version: 6.00 Build 0)  -->
<svg version="1.1" id="Layer_1" xmlns="http://www.w3.org/2000/svg" xmlns:xlink="http://www.w3.org/1999/xlink" x="0px" y="0px"
	 viewBox="0 0 512.001 512.001" style="enable-background:new 0 0 512.001 512.001;" xml:space="preserve">
<g>
	<g>
		<path d="M509.013,208.299L303.701,2.987c-3.983-3.983-10.441-3.983-14.425,0L271.424,20.84c-13.117,13.118-13.117,34.463,0,47.58
			l1.89,1.89c-21.788,23.801-37.535,51.069-45.738,79.425c-8.141,28.146-8.158,54.768-0.544,77.309
			c-12.356-4.148-26.024-6.022-40.702-5.505c-29.009,1.025-60.524,11.841-88.741,30.456c-0.001,0.001-0.003,0.002-0.005,0.003
			c-9.531,6.289-18.671,13.438-27.279,21.308l-1.884-1.884c-13.118-13.117-34.462-13.117-47.58,0L2.988,289.277
			c-3.983,3.983-3.983,10.441,0,14.425L208.3,509.013c1.992,1.992,4.602,2.987,7.212,2.987s5.221-0.995,7.212-2.987l17.853-17.853
			c13.117-13.118,13.117-34.463,0-47.58l-1.884-1.884c7.87-8.609,15.019-17.748,21.308-27.279c0.001-0.001,0.002-0.003,0.003-0.005
			c18.615-28.217,29.431-59.733,30.456-88.741c0.519-14.684-1.357-28.357-5.509-40.717c11.07,3.741,23.118,5.655,35.855,5.655
			c13.2,0,27.133-2.04,41.459-6.184c28.355-8.201,55.623-23.95,79.425-45.737l1.89,1.89c6.559,6.559,15.174,9.838,23.791,9.838
			s17.232-3.279,23.791-9.838l17.853-17.853C512.996,218.741,512.996,212.282,509.013,208.299z M226.152,476.736l-10.641,10.642
			L24.623,296.49l10.642-10.641c5.164-5.165,13.568-5.165,18.732,0l8.926,8.926l154.304,154.304l8.926,8.926
			C231.317,463.168,231.317,471.571,226.152,476.736z M224.261,427.264L84.736,287.739c6.178-5.597,12.649-10.779,19.349-15.49
			l91.667,43.997l43.997,91.667C235.04,414.615,229.859,421.086,224.261,427.264z M252.427,387.184l-39.835-82.994
			c-1.004-2.091-2.691-3.778-4.781-4.781l-82.994-39.835c42.858-22.466,87.444-23.592,115.881-2.695l-6.894,6.894
			c-3.983,3.983-3.983,10.441,0,14.425c1.992,1.992,4.602,2.987,7.212,2.987s5.221-0.995,7.212-2.987l6.894-6.894
			C276.018,299.741,274.892,344.326,252.427,387.184z M263.531,248.47c-17.986-17.987-25.048-44.917-20.268-75.585l95.852,95.851
			C308.449,273.514,281.517,266.454,263.531,248.47z M362.291,263.063L248.937,149.709c7.637-23.056,20.905-45.265,38.799-64.977
			l139.532,139.532C407.555,242.157,385.348,255.426,362.291,263.063z M476.736,226.153c-5.164,5.165-13.568,5.165-18.732,0
			l-8.926-8.926L294.774,62.923l-8.926-8.926c-5.165-5.164-5.165-13.568,0-18.732l10.641-10.642l190.888,190.888L476.736,226.153z"
			/>
	</g>
</g>
<g>
	<g>
		<path d="M230.375,281.625c-3.983-3.984-10.441-3.984-14.424,0l-1.275,1.275c-3.983,3.983-3.983,10.441,0,14.425
			c1.992,1.992,4.602,2.987,7.212,2.987s5.221-0.995,7.212-2.987l1.275-1.275C234.358,292.067,234.358,285.609,230.375,281.625z"/>
	</g>
</g>
<g>
	<g>
		<path d="M347.644,155.323l-50.319-50.319c-3.984-3.983-10.442-3.983-14.425,0c-3.983,3.984-3.983,10.442,0,14.425l50.319,50.319
			c1.991,1.992,4.602,2.987,7.212,2.987c2.61,0,5.221-0.995,7.213-2.987C351.627,165.764,351.627,159.306,347.644,155.323z"/>
	</g>
</g>
<g>
	<g>
		<path d="M373.969,181.649l-6.365-6.365c-3.984-3.983-10.442-3.984-14.425,0s-3.983,10.442,0,14.425l6.365,6.365
			c1.991,1.992,4.602,2.987,7.212,2.987s5.221-0.995,7.213-2.987C377.952,192.09,377.952,185.631,373.969,181.649z"/>
	</g>
</g>
<g>
	<g>
		<path d="M199.625,29.888l-29.464-6.838c-6.662-1.546-12.499,4.7-10.506,11.243l1.49,4.894
			c-33.816,14.824-63.987,37.579-87.627,66.189c-25.664,31.058-43.045,68.336-50.262,107.802
			c-1.014,5.541,2.657,10.854,8.198,11.868c0.62,0.113,1.237,0.168,1.846,0.168c4.83,0,9.121-3.445,10.022-8.366
			c12.675-69.309,59.733-128.991,123.817-157.981l1.329,4.364c1.993,6.543,10.321,8.475,14.99,3.477l20.65-22.101
			C208.777,39.609,206.286,31.433,199.625,29.888z"/>
	</g>
</g>
<g>
	<g>
		<path d="M481.55,278.329c-5.581-0.798-10.744,3.073-11.544,8.648c-11.022,76.849-61.799,141.048-133.479,169.736l-1.161-4.471
			c-1.719-6.619-9.958-8.897-14.832-4.098l-21.554,21.221c-4.873,4.798-2.725,13.071,3.865,14.893l29.153,8.059
			c6.592,1.823,12.685-4.176,10.966-10.795l-1.276-4.915c37.418-14.541,70.635-38.474,96.451-69.576
			c27.881-33.588,45.881-74.1,52.058-117.157C490.997,284.297,487.125,279.128,481.55,278.329z"/>
	</g>
</g>
<g>
</g>
<g>
</g>
<g>
</g>
<g>
</g>
<g>
</g>
<g>
</g>
<g>
</g>
<g>
</g>
<g>
</g>
<g>
</g>
<g>
</g>
<g>
</g>
<g>
</g>
<g>
</g>
<g>
</g>
</svg>
