<svg viewBox="0 0 64 92" fill="none" xmlns="http://www.w3.org/2000/svg">
<g clip-path="url(#clip0_5_455)">
<path d="M64 73.1429C64 83.2411 55.8126 91.4286 45.7143 91.4286H18.2857C8.18743 91.4286 0 83.2411 0 73.1429C0 73.1246 0 73.1109 0 73.0926V73.0971V18.2857C0 15.7623 2.048 13.7143 4.57143 13.7143C7.09486 13.7143 9.14286 15.7623 9.14286 18.2857V45.7143H13.7143V9.14286C13.7143 6.61943 15.7623 4.57143 18.2857 4.57143C20.8091 4.57143 22.8571 6.61943 22.8571 9.14286V45.7143H27.4286V4.57143C27.4286 2.048 29.4766 0 32 0C34.5234 0 36.5714 2.048 36.5714 4.57143V45.7143H41.1429V9.14286C41.1429 6.61943 43.1909 4.57143 45.7143 4.57143C48.2377 4.57143 50.2857 6.61943 50.2857 9.14286V68.5714H54.8571V41.1429C54.8571 38.6194 56.9051 36.5714 59.4286 36.5714H64V73.1429Z" fill="black"/>
</g>
<defs>
<clipPath id="clip0_5_455">
<rect width="64" height="91.4286" fill="white"/>
</clipPath>
</defs>
</svg>
