<?xml version="1.0" encoding="iso-8859-1"?>
<!-- Generator: Adobe Illustrator 19.0.0, SVG Export Plug-In . SVG Version: 6.00 Build 0)  -->
<svg version="1.1" id="Capa_1" xmlns="http://www.w3.org/2000/svg" xmlns:xlink="http://www.w3.org/1999/xlink" x="0px" y="0px"
	 viewBox="0 0 248.251 248.251" style="enable-background:new 0 0 248.251 248.251;" xml:space="preserve">
<g id="XMLID_691_">
	<g id="XMLID_659_">
		<g>
			<path style="fill:#302F2A;" d="M55.66,116.868c21.58,0,39.136,17.557,39.136,39.137c0,21.578-17.556,39.134-39.136,39.134
				c-21.579,0-39.136-17.555-39.136-39.134C16.524,134.424,34.08,116.868,55.66,116.868 M55.66,110.868
				c-24.928,0-45.136,20.208-45.136,45.137c0,24.925,20.208,45.134,45.136,45.134s45.136-20.209,45.136-45.134
				C100.796,131.076,80.588,110.868,55.66,110.868L55.66,110.868z"/>
		</g>
	</g>
	<g id="XMLID_649_">
		<rect x="54.658" y="114.623" style="fill:#302F2A;" width="2" height="82.762"/>
		
			<rect x="14.279" y="155.005" transform="matrix(0.342 0.9397 -0.9397 0.342 183.2178 50.3451)" style="fill:#302F2A;" width="82.76" height="1.999"/>
		
			<rect x="14.278" y="155.003" transform="matrix(0.6428 0.766 -0.766 0.6428 139.3849 13.0871)" style="fill:#302F2A;" width="82.762" height="2"/>
		
			<rect x="14.278" y="155.002" transform="matrix(0.866 0.5 -0.5 0.866 85.4566 -6.9299)" style="fill:#302F2A;" width="82.763" height="2"/>
		
			<rect x="14.279" y="155.003" transform="matrix(0.9848 0.1736 -0.1736 0.9848 27.9305 -7.2945)" style="fill:#302F2A;" width="82.762" height="1.999"/>
		
			<rect x="54.661" y="114.621" transform="matrix(0.1739 0.9848 -0.9848 0.1739 199.6065 74.0619)" style="fill:#302F2A;" width="1.999" height="82.762"/>
		
			<rect x="54.66" y="114.621" transform="matrix(0.4999 0.8661 -0.8661 0.4999 162.9436 29.8073)" style="fill:#302F2A;" width="2" height="82.762"/>
		
			<rect x="54.66" y="114.62" transform="matrix(0.7662 0.6426 -0.6426 0.7662 113.2652 0.7078)" style="fill:#302F2A;" width="2" height="82.762"/>
		
			<rect x="54.659" y="114.62" transform="matrix(0.9398 0.3417 -0.3417 0.9398 56.6632 -9.629)" style="fill:#302F2A;" width="2" height="82.761"/>
	</g>
	<path style="fill:#DBC091;" d="M55.661,203.756c-26.331,0-47.752-21.421-47.752-47.751s21.421-47.751,47.752-47.751
		c26.33,0,47.751,21.421,47.751,47.751S81.991,203.756,55.661,203.756z M55.661,113.485c-23.446,0-42.521,19.075-42.521,42.52
		s19.075,42.521,42.521,42.521s42.52-19.075,42.52-42.521S79.106,113.485,55.661,113.485z"/>
	<circle id="XMLID_647_" style="fill:#DBC091;" cx="55.66" cy="156.005" r="9.905"/>
	<circle id="XMLID_646_" style="fill:#9EA647;" cx="55.66" cy="156.005" r="5.925"/>
	<path style="fill:#9EA647;" d="M3.184,160.274c-1.758,0-3.184-1.426-3.184-3.184c0-30.69,24.969-55.66,55.661-55.66
		c5.643,0,11.211,0.842,16.55,2.503c1.679,0.522,2.617,2.306,2.094,3.985c-0.522,1.679-2.312,2.617-3.985,2.094
		c-4.727-1.47-9.659-2.215-14.66-2.215c-27.181,0-49.293,22.113-49.293,49.292C6.367,158.848,4.942,160.274,3.184,160.274z"/>
	<g id="XMLID_639_">
		<g>
			<path style="fill:#302F2A;" d="M199.848,116.868c21.58,0,39.136,17.557,39.136,39.137c0,21.578-17.556,39.134-39.136,39.134
				c-21.579,0-39.136-17.555-39.136-39.134C160.713,134.424,178.269,116.868,199.848,116.868 M199.848,110.868
				c-24.927,0-45.136,20.208-45.136,45.137c0,24.925,20.209,45.134,45.136,45.134c24.928,0,45.136-20.209,45.136-45.134
				C244.984,131.076,224.776,110.868,199.848,110.868L199.848,110.868z"/>
		</g>
	</g>
	<g id="XMLID_629_">
		<rect x="198.847" y="114.623" style="fill:#302F2A;" width="2" height="82.762"/>
		
			<rect x="158.468" y="155.005" transform="matrix(0.342 0.9397 -0.9397 0.342 278.0893 -85.1489)" style="fill:#302F2A;" width="82.76" height="1.999"/>
		
			<rect x="158.467" y="155.004" transform="matrix(0.6428 0.766 -0.766 0.6428 190.8878 -97.3664)" style="fill:#302F2A;" width="82.762" height="1.999"/>
		
			<rect x="158.467" y="155.002" transform="matrix(0.866 0.5 -0.5 0.866 104.7743 -79.0234)" style="fill:#302F2A;" width="82.763" height="2"/>
		
			<rect x="158.469" y="155.003" transform="matrix(0.9848 0.1736 -0.1736 0.9848 30.1211 -32.3292)" style="fill:#302F2A;" width="82.76" height="1.999"/>
		
			<rect x="198.849" y="114.622" transform="matrix(0.1739 0.9848 -0.9848 0.1739 318.721 -67.9297)" style="fill:#302F2A;" width="1.999" height="82.76"/>
		
			<rect x="198.849" y="114.621" transform="matrix(0.4999 0.8661 -0.8661 0.4999 235.0494 -95.0702)" style="fill:#302F2A;" width="2" height="82.762"/>
		
			<rect x="198.85" y="114.62" transform="matrix(0.766 0.6429 -0.6429 0.766 147.0581 -91.9695)" style="fill:#302F2A;" width="1.999" height="82.761"/>
		
			<rect x="198.849" y="114.62" transform="matrix(0.9397 0.3419 -0.3419 0.9397 65.3802 -58.9271)" style="fill:#302F2A;" width="1.999" height="82.762"/>
	</g>
	<path style="fill:#DBC091;" d="M199.848,203.756c-26.33,0-47.751-21.421-47.751-47.751s21.421-47.751,47.751-47.751
		c26.331,0,47.752,21.421,47.752,47.751S226.179,203.756,199.848,203.756z M199.848,113.485c-23.445,0-42.521,19.075-42.521,42.52
		s19.075,42.521,42.521,42.521c23.446,0,42.521-19.075,42.521-42.521S223.294,113.485,199.848,113.485z"/>
	<circle id="XMLID_627_" style="fill:#DBC091;" cx="199.849" cy="156.005" r="9.906"/>
	<circle id="XMLID_626_" style="fill:#9EA647;" cx="199.849" cy="156.005" r="5.924"/>
	<path style="fill:#9EA647;" d="M147.373,160.274c-1.758,0-3.184-1.426-3.184-3.184c0-30.69,24.969-55.66,55.659-55.66
		c1.758,0,3.184,1.425,3.184,3.184s-1.426,3.184-3.184,3.184c-27.18,0-49.292,22.113-49.292,49.292
		C150.556,158.848,149.13,160.274,147.373,160.274z"/>
	<path style="fill:#9EA647;" d="M126.291,159.223h-70.63c-1.129,0-2.166-0.623-2.695-1.62c-0.53-0.997-0.465-2.205,0.167-3.14
		l40.752-60.309l5.057,3.417l-37.536,55.548h63.198l49.781-79.258l5.168,3.246l-50.678,80.687
		C128.316,158.683,127.34,159.223,126.291,159.223z"/>
	
		<rect x="128.49" y="99.046" transform="matrix(0.2733 0.9619 -0.9619 0.2733 232.3014 -103.3123)" style="fill:#9EA647;" width="112.081" height="6.103"/>
	
		<rect x="63.241" y="113.985" transform="matrix(0.4153 0.9097 -0.9097 0.4153 168.4923 -28.0655)" style="fill:#9EA647;" width="85.674" height="6.103"/>
	<path id="XMLID_525_" style="fill:#302F2A;" d="M113.723,78.67c-0.563,1.753-2.035,3.061-3.842,3.412l-26.397,5.131
		c-4.146,0.805-8.408-0.637-11.212-3.794s-3.732-7.561-2.443-11.582l0.001-0.002c0.968-3.017,3.094-5.526,5.911-6.975
		c2.816-1.449,6.095-1.719,9.111-0.752l25.607,8.214c1.275,0.409,2.335,1.307,2.947,2.498S114.133,77.395,113.723,78.67z"/>
	<path style="fill:#302F2A;" d="M120.526,169.698c-7.552,0-13.695-6.144-13.695-13.695s6.144-13.695,13.695-13.695
		c7.552,0,13.696,6.144,13.696,13.695S128.079,169.698,120.526,169.698z M120.526,144.922c-6.109,0-11.08,4.971-11.08,11.08
		s4.971,11.08,11.08,11.08c6.11,0,11.081-4.971,11.081-11.08S126.636,144.922,120.526,144.922z"/>
	<circle id="XMLID_616_" style="fill:#302F2A;" cx="120.525" cy="156.002" r="6.747"/>
	<rect x="118.782" y="156.002" style="fill:#302F2A;" width="3.487" height="24.151"/>
	<path style="fill:#302F2A;" d="M127.273,182.769h-13.495c-1.444,0-2.616-1.171-2.616-2.615s1.171-2.615,2.616-2.615h13.495
		c1.444,0,2.615,1.171,2.615,2.615S128.717,182.769,127.273,182.769z"/>
	<path style="fill:#302F2A;" d="M150.029,60.326c-1.19,0-2.316-0.713-2.786-1.886c-0.616-1.538,0.132-3.284,1.67-3.9l24.308-9.731
		c1.542-0.616,3.284,0.132,3.9,1.67c0.616,1.538-0.132,3.284-1.67,3.9l-24.308,9.731C150.777,60.257,150.4,60.326,150.029,60.326z"
		/>
	
		<rect x="140.373" y="57.105" transform="matrix(0.5562 0.831 -0.831 0.5562 145.1368 -74.7474)" style="fill:#9EA647;" width="4.36" height="82.822"/>
	<path id="XMLID_644_" style="opacity:0.5;fill:#302F2A;enable-background:new    ;" d="M202.358,107.67
		c0.886-0.729,1.462-1.819,1.462-3.055c0-2.193-1.778-3.971-3.972-3.971c-3.919,0-7.745,0.403-11.441,1.167l-14.241-50.118
		l1.561-0.625c1.919-0.768,2.852-2.946,2.083-4.865c-0.769-1.919-2.943-2.851-4.865-2.083l-24.308,9.73
		c-1.919,0.768-2.852,2.946-2.083,4.865c0.586,1.463,1.99,2.353,3.476,2.353c0.463,0,0.933-0.086,1.39-0.27l15.64-6.261
		l5.784,20.355l-0.085,0.135l-52.232,34.955v6.543l45.144-30.21l-36.737,58.492c-2.057-1.549-4.544-2.546-7.255-2.769l-1.151-2.521
		v43.898h6.747c1.802,0,3.262-1.461,3.262-3.263s-1.46-3.263-3.262-3.263h-4.571v-7.055c6.698-1.051,11.844-6.845,11.844-13.834
		c0-1.604-0.283-3.138-0.781-4.573l41.88-66.679l5.432,19.116c-21.922,7.755-37.675,28.681-37.675,53.226
		c0,2.192,1.778,3.972,3.972,3.972c2.192,0,3.972-1.779,3.972-3.972c0-1.838,0.112-3.649,0.313-5.435
		c-0.129,1.434-0.206,2.883-0.206,4.349c0,26.687,21.712,48.396,48.398,48.396c26.688,0,48.398-21.71,48.398-48.396
		C248.246,130.159,227.884,108.98,202.358,107.67z M127.193,147.576l-1.73,2.756l-2.149-4.708
		C124.746,146.009,126.061,146.678,127.193,147.576z M122.701,166.538v-4.179c1.315-0.451,2.444-1.282,3.252-2.382h0.337
		c1.31,0,2.527-0.673,3.224-1.782l1.74-2.77c0.01,0.191,0.028,0.382,0.028,0.576C131.282,161.188,127.593,165.529,122.701,166.538z
		 M185.808,121.079l0.725,1.992l6.499,22.869l-16.4-19.544C179.405,124.216,182.489,122.418,185.808,121.079z M174.718,127.996
		l17.865,21.29c-0.215,0.233-0.419,0.476-0.611,0.729L167.9,136.118C169.785,133.098,172.083,130.364,174.718,127.996z
		 M166.645,138.274l24.069,13.896c-0.123,0.292-0.233,0.591-0.328,0.897l-27.379-4.828
		C163.75,144.712,164.988,141.365,166.645,138.274z M162.198,156.005c0-1.803,0.136-3.573,0.381-5.309l27.389,4.829
		c-0.008,0.16-0.024,0.317-0.024,0.479c0,0.159,0.017,0.315,0.024,0.473l-27.389,4.829
		C162.333,159.573,162.198,157.804,162.198,156.005z M163.007,163.763l27.379-4.827c0.095,0.307,0.205,0.606,0.328,0.899
		l-24.069,13.895C164.987,170.64,163.749,167.293,163.007,163.763z M167.898,175.888l24.073-13.898
		c0.192,0.252,0.396,0.495,0.611,0.729l-17.865,21.29C172.082,181.642,169.784,178.908,167.898,175.888z M176.631,185.61
		l17.86-21.285c0.267,0.173,0.542,0.332,0.826,0.479l-9.509,26.125C182.489,189.588,179.404,187.79,176.631,185.61z M198.6,193.622
		c-3.636-0.119-7.143-0.754-10.449-1.838l9.51-26.127c0.308,0.069,0.621,0.123,0.94,0.163L198.6,193.622L198.6,193.622z
		 M198.6,137.681l-5.326-18.742c1.738-0.308,3.516-0.496,5.326-0.555V137.681z M236.69,148.239l-27.379,4.828
		c-0.095-0.307-0.205-0.605-0.328-0.898l24.068-13.895C234.709,141.364,235.947,144.711,236.69,148.239z M231.798,136.116
		l-24.072,13.898c-0.193-0.253-0.397-0.496-0.613-0.73l17.865-21.289C227.613,130.362,229.911,133.097,231.798,136.116z
		 M223.064,126.394l-17.86,21.284c-0.267-0.173-0.542-0.332-0.826-0.479l9.508-26.123
		C217.205,122.416,220.29,124.214,223.064,126.394z M201.095,118.384c3.635,0.119,7.141,0.753,10.447,1.837l-9.509,26.126
		c-0.308-0.069-0.621-0.123-0.939-0.163L201.095,118.384L201.095,118.384z M201.095,193.622v-27.801
		c0.317-0.04,0.63-0.094,0.938-0.163l9.51,26.127C208.236,192.869,204.73,193.503,201.095,193.622z M213.885,190.929l-9.508-26.124
		c0.284-0.146,0.56-0.307,0.827-0.479l17.861,21.283C220.291,187.791,217.206,189.589,213.885,190.929z M224.979,184.01
		l-17.866-21.29c0.216-0.233,0.42-0.477,0.613-0.73l24.073,13.898C229.913,178.908,227.615,181.642,224.979,184.01z
		 M233.053,173.731l-24.069-13.895c0.123-0.293,0.233-0.593,0.328-0.899l27.379,4.827
		C235.949,167.293,234.711,170.639,233.053,173.731z M209.73,156.477c0.008-0.157,0.024-0.313,0.024-0.473
		c0-0.162-0.017-0.319-0.024-0.479l27.388-4.829c0.246,1.735,0.381,3.506,0.381,5.309c0,1.8-0.135,3.568-0.38,5.302L209.73,156.477z
		"/>
</g>
<g>
</g>
<g>
</g>
<g>
</g>
<g>
</g>
<g>
</g>
<g>
</g>
<g>
</g>
<g>
</g>
<g>
</g>
<g>
</g>
<g>
</g>
<g>
</g>
<g>
</g>
<g>
</g>
<g>
</g>
</svg>
