<?xml version="1.0" encoding="iso-8859-1"?>
<!-- Generator: Adobe Illustrator 19.1.0, SVG Export Plug-In . SVG Version: 6.00 Build 0)  -->
<svg version="1.1" id="Capa_1" xmlns="http://www.w3.org/2000/svg" xmlns:xlink="http://www.w3.org/1999/xlink" x="0px" y="0px"
	 viewBox="0 0 434.659 434.659" style="enable-background:new 0 0 434.659 434.659;" xml:space="preserve">
<g>
	<path style="fill:#669933;" d="M212.325,20.692c-17.07,0.1-30.928,14.016-30.928,31.109v241.495h30.928V20.692z"/>
	<path style="fill:#CCFF66;" d="M171.398,156.649h-40.359c-2.762,0-5-2.238-5-5V79.836c0-5.624-4.576-10.2-10.201-10.2h-4.055
		c-5.625,0-10.201,4.576-10.201,10.2v91.565c0,5.625,4.576,10.201,10.201,10.201h59.615V156.649z"/>
	<path style="fill:#CCFF66;" d="M253.255,51.801c0-17.094-13.859-31.009-30.93-31.109v272.604h30.93V51.801z"/>
	<path style="fill:#669933;" d="M322.876,121.382h-4.055c-5.625,0-10.201,4.576-10.201,10.201v71.812c0,2.762-2.238,5-5,5h-40.365
		v24.953h59.621c5.625,0,10.201-4.577,10.201-10.202v-91.564C333.077,125.958,328.501,121.382,322.876,121.382z"/>
	<polygon style="fill:#CC9933;" points="164.253,424.659 270.4,424.659 279.097,366.035 155.554,366.035 	"/>
	<rect x="132.132" y="303.296" style="fill:#FFCC66;" width="170.387" height="52.738"/>
	<path style="fill:#663333;" d="M350.523,154.947c2.762,0,5-2.238,5-5c0-2.762-2.238-5-5-5h-7.445v-13.363
		c0-10.208-7.617-18.649-17.463-19.993v-7.653c0-2.762-2.238-5-5-5c-2.762,0-5,2.238-5,5v7.725
		c-9.617,1.544-16.994,9.877-16.994,19.922v13.363h-8.203c-2.762,0-5,2.238-5,5c0,2.762,2.238,5,5,5h8.203v43.449h-35.365v-27.577
		h7.455c2.762,0,5-2.238,5-5c0-2.762-2.238-5-5-5h-7.455v-40.61h7.455c2.762,0,5-2.238,5-5c0-2.762-2.238-5-5-5h-7.455v-40.61h7.455
		c2.762,0,5-2.238,5-5c0-2.762-2.238-5-5-5h-7.455v-7.797c0-6.871-1.703-13.348-4.695-19.047l6.082-6.081
		c1.953-1.953,1.953-5.119,0-7.071c-1.953-1.953-5.119-1.952-7.07-0.001l-4.807,4.806c-4.174-4.662-9.395-8.363-15.289-10.741
		l2.439-7.024c0.906-2.608-0.475-5.457-3.084-6.363c-2.609-0.905-5.457,0.475-6.363,3.084l-2.682,7.723
		c-1.848-0.255-3.73-0.398-5.646-0.398h-9.629c-1.916,0-3.799,0.143-5.645,0.398l-2.682-7.723c-0.906-2.609-3.76-3.988-6.363-3.084
		c-2.609,0.906-3.99,3.755-3.084,6.363l2.438,7.023c-5.889,2.378-11.107,6.075-15.279,10.732l-4.799-4.796
		c-1.953-1.951-5.117-1.952-7.07,0.001c-1.953,1.953-1.953,5.119,0,7.071l6.072,6.07c-2.996,5.701-4.701,12.183-4.701,19.058v7.797
		h-7.438c-2.762,0-5,2.238-5,5c0,2.762,2.238,5,5,5h7.438v40.61h-7.438c-2.762,0-5,2.238-5,5c0,2.762,2.238,5,5,5h7.438v26.44
		h-35.359V103.2h8.205c2.762,0,5-2.238,5-5c0-2.762-2.238-5-5-5h-8.205V79.836c0-10.045-7.379-18.377-16.994-19.921v-7.725
		c0-2.762-2.238-5-5-5c-2.762,0-5,2.238-5,5v7.653c-9.846,1.344-17.463,9.785-17.463,19.992V93.2h-7.445c-2.762,0-5,2.238-5,5
		c0,2.762,2.238,5,5,5h7.445v40.611h-7.445c-2.762,0-5,2.238-5,5c0,2.762,2.238,5,5,5h7.445v17.591
		c0,11.139,9.062,20.201,20.201,20.201h10.359v7.443c0,2.762,2.238,5,5,5s5-2.238,5-5v-7.443h39.256v19.827h-7.438
		c-2.762,0-5,2.238-5,5s2.238,5,5,5h7.438v40.611h-7.438c-2.762,0-5,2.238-5,5c0,2.762,2.238,5,5,5h7.438v21.255h-44.266
		c-2.762,0-5,2.238-5,5v62.738c0,2.762,2.238,5,5,5h18.311l9.551,64.358c0.365,2.45,2.469,4.266,4.947,4.266h114.771
		c2.477,0,4.582-1.815,4.945-4.266l9.549-64.358h18.312c2.762,0,5-2.238,5-5v-62.738c0-2.762-2.238-5-5-5h-44.264v-21.255h7.455
		c2.762,0,5-2.238,5-5c0-2.762-2.238-5-5-5h-7.455v-18.692h39.262v7.444c0,2.762,2.238,5,5,5c2.762,0,5-2.238,5-5v-7.444h10.359
		c11.139,0,20.201-9.062,20.201-20.202v-10.812v-6.778h7.445c2.762,0,5-2.238,5-5c0-2.762-2.238-5-5-5h-7.445v-40.609H350.523z
		 M222.325,20.692c17.07,0.101,30.93,14.016,30.93,31.109v241.495h-30.93V20.692z M181.398,51.801
		c0-17.094,13.857-31.01,30.928-31.109v272.604h-30.928V51.801z M111.782,181.603c-5.625,0-10.201-4.576-10.201-10.201V79.836
		c0-5.624,4.576-10.2,10.201-10.2h4.055c5.625,0,10.201,4.576,10.201,10.2v71.813c0,2.762,2.238,5,5,5h40.359v24.954H111.782z
		 M270.4,424.659H164.253l-8.699-58.624h123.543L270.4,424.659z M302.519,303.296v52.738H132.132v-52.738H302.519z M333.077,223.147
		c0,5.625-4.576,10.202-10.201,10.202h-59.621v-24.953h40.365c2.762,0,5-2.238,5-5v-71.812c0-5.625,4.576-10.201,10.201-10.201
		h4.055c5.625,0,10.201,4.576,10.201,10.201V223.147z"/>
</g>
<g>
</g>
<g>
</g>
<g>
</g>
<g>
</g>
<g>
</g>
<g>
</g>
<g>
</g>
<g>
</g>
<g>
</g>
<g>
</g>
<g>
</g>
<g>
</g>
<g>
</g>
<g>
</g>
<g>
</g>
</svg>
