<?xml version="1.0" encoding="iso-8859-1"?>
<!-- Generator: Adobe Illustrator 19.0.0, SVG Export Plug-In . SVG Version: 6.00 Build 0)  -->
<svg version="1.1" id="Layer_1" xmlns="http://www.w3.org/2000/svg" xmlns:xlink="http://www.w3.org/1999/xlink" x="0px" y="0px"
	 viewBox="0 0 512 512" style="enable-background:new 0 0 512 512;" xml:space="preserve">
<path style="fill:#995C0D;" d="M303.767,162.142c-4.103,0-7.43-3.326-7.43-7.43v-30.394c0-4.104,3.327-7.43,7.43-7.43
	s7.43,3.326,7.43,7.43v30.394C311.196,158.817,307.869,162.142,303.767,162.142z"/>
<path style="fill:#F7B239;" d="M350.371,154.713h-46.604h-46.591c-6.43,0-12.266,2.607-16.48,6.822
	c-4.215,4.215-6.822,10.05-6.822,16.48c0,8.416,4.458,15.791,11.145,19.885l0,0v232.373h117.51V197.899l0,0
	c1.567-0.959,3.026-2.107,4.323-3.404c4.215-4.215,6.822-10.05,6.822-16.48C373.673,165.141,363.245,154.713,350.371,154.713z"/>
<path style="fill:#E09B2D;" d="M350.371,201.317h-45.464c-4.444,0-8.618-1.243-12.158-3.418
	c-6.687-4.093-11.145-11.469-11.145-19.885c0-6.43,2.607-12.266,6.822-16.48c4.215-4.215,10.05-6.822,16.48-6.822h-1.14h-46.591
	c-6.43,0-12.266,2.607-16.48,6.822c-4.215,4.215-6.822,10.05-6.822,16.48c0,8.416,4.458,15.791,11.145,19.885l0,0v232.374h26.116
	V223.836h91.394v-25.936C358.989,200.074,354.829,201.317,350.371,201.317z"/>
<g>
	<path style="fill:#B27214;" d="M330.108,375.564c-3.357,0-6.079,2.722-6.079,6.079v48.631c0,3.357,2.722,6.079,6.079,6.079
		c3.357,0,6.079-2.722,6.079-6.079v-48.631C336.187,378.285,333.466,375.564,330.108,375.564z"/>
	<path style="fill:#B27214;" d="M306.32,392.45c-3.357,0-6.079,2.722-6.079,6.079v48.631c0,3.357,2.722,6.079,6.079,6.079
		s6.079-2.722,6.079-6.079v-48.631C312.399,395.171,309.677,392.45,306.32,392.45z"/>
	<path style="fill:#B27214;" d="M281.478,353.275c-3.357,0-6.079,2.722-6.079,6.079v70.92c0,3.357,2.722,6.079,6.079,6.079
		c3.357,0,6.079-2.722,6.079-6.079v-70.92C287.557,355.996,284.836,353.275,281.478,353.275z"/>
</g>
<polygon style="fill:#2BA5F7;" points="480.052,424.869 453.711,511.999 157.889,511.999 131.547,424.869 245.018,424.869 
	281.478,424.869 330.108,424.869 362.529,424.869 "/>
<path style="fill:#2197D8;" d="M200.053,512l-12.671-87.13h-32.42l-31.071-53.665c-8.768-15.155-24.456-24.341-41.965-24.571
	c-17.538-0.254-33.458,8.545-42.631,23.482c-4.808,7.831-7.346,16.713-7.346,25.682c0,27.203,22.124,49.334,49.319,49.334h56.406
	L157.889,512H200.053z M52.21,395.799c0-5.302,1.464-10.379,4.351-15.082c5.33-8.678,14.542-13.823,24.699-13.823
	c0.132,0,0.263,0,0.397,0.003c10.303,0.136,19.535,5.541,24.695,14.461l25.195,43.514H81.266
	C63.318,424.87,52.21,409.78,52.21,395.799z"/>
<path style="fill:#F4DE3B;" d="M332.899,56.398c2.461,4.759,3.647,9.918,3.647,15.034c0,8.495-3.291,16.872-9.592,23.172
	c-6.404,6.404-14.796,9.607-23.172,9.607c-8.391,0-16.783-3.203-23.187-9.607c-10.081-10.081-12.483-25.53-5.945-38.206L303.767,0
	L332.899,56.398z"/>
<path style="fill:#F95428;" d="M308.268,94.603c-10.081-10.081-12.483-25.53-5.945-38.206l15.284-29.602L303.765,0l-29.118,56.397
	c-6.538,12.676-4.136,28.125,5.945,38.206c6.404,6.406,14.796,9.607,23.187,9.607c4.729,0,9.452-1.058,13.83-3.1
	C314.234,99.535,311.056,97.391,308.268,94.603z"/>
<g>
</g>
<g>
</g>
<g>
</g>
<g>
</g>
<g>
</g>
<g>
</g>
<g>
</g>
<g>
</g>
<g>
</g>
<g>
</g>
<g>
</g>
<g>
</g>
<g>
</g>
<g>
</g>
<g>
</g>
</svg>
