<?xml version="1.0" encoding="iso-8859-1"?>
<!-- Generator: Adobe Illustrator 19.0.0, SVG Export Plug-In . SVG Version: 6.00 Build 0)  -->
<svg version="1.1" id="Layer_1" xmlns="http://www.w3.org/2000/svg" xmlns:xlink="http://www.w3.org/1999/xlink" x="0px" y="0px"
	 viewBox="0 0 511.999 511.999" style="enable-background:new 0 0 511.999 511.999;" xml:space="preserve">
<path style="fill:#F95428;" d="M59.456,288.555c-2.067,1.149,8.876,15.449,7.337,17.243c-2.017,2.35-16.294-7.6-17.047-4.423v0.012
	c-21.517-21.517-48.763,33.58-48.763,33.58s-6.986-61.711,16.301-68.697C31.943,261.868,48.907,276.842,59.456,288.555z"/>
<path style="fill:#F7B239;" d="M407.389,286.063h-22.123c0,0-70.537-22.251-74.589-12.983h-0.012l-16.219-26.606
	c0,0,27.945-38.424,66.368-19.794S407.389,286.063,407.389,286.063z"/>
<g>
	<rect x="397.488" y="318.812" style="fill:#999999;" width="17.465" height="96.432"/>
	<rect x="97.037" y="318.812" style="fill:#999999;" width="17.465" height="96.432"/>
</g>
<g>
	<path style="fill:#808080;" d="M114.507,319.678v24.323c-2.818-0.582-5.74-0.885-8.733-0.885c-2.992,0-5.915,0.303-8.733,0.885
		v-20.726c1.246,0.198,2.527,0.291,3.819,0.291C105.879,323.567,110.548,322.147,114.507,319.678z"/>
	<path style="fill:#808080;" d="M414.958,319.678v24.323c-2.818-0.582-5.74-0.885-8.733-0.885c-2.992,0-5.915,0.303-8.733,0.885
		v-20.726c1.246,0.198,2.527,0.291,3.819,0.291C406.33,323.567,410.999,322.147,414.958,319.678z"/>
</g>
<rect x="42.056" y="402.587" style="fill:#2BA5F7;" width="427.878" height="96.607"/>
<path style="fill:#F7B239;" d="M270.845,161.081V432.97h-29.691V161.081c4.844,1.799,9.839,2.684,14.834,2.684
	C260.995,163.765,266.002,162.865,270.845,161.081z"/>
<path style="fill:#E09B2D;" d="M254.835,161.081V432.97h-13.681V161.081c2.232,1.799,4.534,2.684,6.835,2.684
	C250.296,163.765,252.603,162.865,254.835,161.081z"/>
<path style="fill:#F7B239;" d="M469.939,402.592v50.172c-13.937,8.931-32.125,8.302-45.456-1.863l-0.023-0.012
	c-14.217-10.828-33.906-10.828-48.123,0l-0.012,0.012c-14.217,10.828-33.918,10.828-48.123,0l-0.023-0.012
	c-14.205-10.828-33.906-10.828-48.123,0l-0.012,0.012c-14.205,10.828-33.906,10.828-48.123,0l-0.012-0.012
	c-7.103-5.414-15.579-8.116-24.056-8.116c-8.477,0-16.953,2.701-24.067,8.127c-7.103,5.414-15.591,8.127-24.067,8.127
	c-8.477,0-16.965-2.713-24.067-8.127c-14.217-10.84-33.906-10.84-48.123-0.012l-0.012,0.012
	c-13.344,10.165-31.531,10.794-45.456,1.863v-50.172h63.714h135.38h29.691h135.38H469.939z"/>
<path style="fill:#E09B2D;" d="M115.113,402.592v40.345c-9.629-0.862-19.491,1.793-27.584,7.953l-0.012,0.012
	c-13.344,10.165-31.531,10.794-45.456,1.863v-50.172H115.113z"/>
<path style="fill:#F95428;" d="M42.084,156.342l188.882-28.108l238.938,28.108c-0.489,15.172-10.072,28.701-24.417,33.883
	c-21.133,7.627-46.213,1.618-61.117-18.059l-0.023-0.023l-0.338,0.442c-21.599,28.014-63.923,27.805-85.231-0.431l-0.012-0.012
	l-0.128,0.175c-7.347,9.711-17.174,16.091-27.793,19.142c-4.844,1.386-9.85,2.084-14.857,2.084c-4.995,0-9.99-0.687-14.834-2.084
	c-10.689-3.051-20.597-9.489-27.956-19.317c-10.735,14.17-26.757,21.261-42.778,21.261c-16.022,0-32.043-7.091-42.79-21.261
	l-0.012,0.012c-15.218,20.085-41.044,25.942-62.444,17.559C51.457,184.334,42.538,171.013,42.084,156.342z"/>
<path style="fill:#2197D8;" d="M115.113,442.937v56.262H42.061v-46.435c13.926,8.931,32.113,8.302,45.456-1.863l0.012-0.012
	c1.781-1.351,3.633-2.538,5.566-3.551c0.955-0.501,1.933-0.966,2.923-1.386c1.106-0.477,2.236-0.897,3.377-1.269
	c0.792-0.256,1.595-0.477,2.399-0.675c1.211-0.314,2.445-0.571,3.679-0.757c0.92-0.151,1.84-0.256,2.771-0.338
	c1.106-0.093,2.224-0.14,3.342-0.14c0.582,0,1.176,0.012,1.758,0.047C113.937,442.844,114.53,442.891,115.113,442.937z"/>
<path style="fill:#F7B239;" d="M494.716,266.269c23.287,6.986,16.301,68.697,16.301,68.697s-27.246-55.097-48.763-33.58h-0.012
	v-0.012c-0.437-1.857-26.147,12.372-19.363,5.589c0,0,12.844-16.63,9.653-18.397C463.08,276.853,480.057,261.868,494.716,266.269z"
	/>
<path style="fill:#E6E6E6;" d="M462.242,301.386l17.337,73.168h-30.273c0-23.799-19.293-43.081-43.081-43.081
	c-23.799,0-43.081,19.282-43.081,43.081h-31.438c23.287-73.354,3.493-88.491,3.493-88.491l-5.286,6.497
	c-5.404,6.648-14.442,8.936-22.275,5.837c-0.952-0.376-1.581-1.301-1.582-2.324c0-0.01,0-0.021,0-0.031
	c0-3.784,0.454-13.437,4.622-22.961c4.052-9.268,11.62-18.432,25.686-21.948c32.602-8.15,48.903,34.931,48.903,34.931
	c0,14.287,51.732,14.287,51.732,0h5.868c3.481,0,6.788,0.897,9.664,2.503c4.774,2.643,8.395,7.207,9.711,12.808L462.242,301.386
	L462.242,301.386z"/>
<path style="fill:#F95428;" d="M407.389,286.063h29.61c0,14.287-11.585,25.86-25.872,25.86s-25.86-11.574-25.86-25.86H407.389
	L407.389,286.063z"/>
<path style="fill:#E09B2D;" d="M270.845,191.459v28.282c-4.844,1.386-9.85,2.084-14.857,2.084c-4.995,0-9.99-0.687-14.834-2.084
	v-28.282c4.844,1.397,9.839,2.084,14.834,2.084C260.995,193.544,266.002,192.845,270.845,191.459z"/>
<path style="fill:#F95428;" d="M217.553,246.475l-16.231,26.606c-4.052-9.268-74.589,12.983-74.589,12.983H104.61
	c0,0,8.15-40.752,46.574-59.382S217.553,246.475,217.553,246.475z"/>
<path style="fill:#E6E6E6;" d="M59.456,288.555c2.888-1.595,6.194-2.492,9.664-2.492h5.88c0,14.287,51.732,14.287,51.732,0
	c0,0,16.301-43.081,48.903-34.931c14.065,3.516,21.634,12.68,25.686,21.948c4.168,9.524,4.622,19.177,4.622,22.961
	c0,0.01,0,0.021,0,0.031c-0.001,1.023-0.63,1.948-1.582,2.324c-7.836,3.1-16.883,0.812-22.275-5.837l-5.286-6.497
	c0,0-19.794,15.137,3.493,88.491h-31.438c0-23.799-19.293-43.081-43.081-43.081c-23.799,0-43.081,19.282-43.081,43.081H32.42
	l17.326-73.168v-0.012C51.073,295.774,54.683,291.21,59.456,288.555z"/>
<path style="fill:#F7B239;" d="M104.61,286.063h22.123c0,14.287-11.585,25.86-25.872,25.86s-25.86-11.574-25.86-25.86H104.61
	L104.61,286.063z"/>
<path style="fill:#F95428;" d="M256,12.824v-0.012l-0.012-0.012c-49.8,60.023-124.97,98.213-209.153,98.213l96.805,13.728
	l52.035-13.728h1.351l55.482,11.399l62.468-11.399h1.351l48.542,21.878l100.298-21.878C380.993,111.014,305.822,72.835,256,12.824z"
	/>
<path style="fill:#F7B239;" d="M314.974,111.014l-62.468,11.399l-55.482-11.399c23.73-0.012,44.932-38.191,58.975-98.19
	c7.021,30.005,15.835,54.538,25.849,71.596C291.874,101.466,303.11,111.014,314.974,111.014z"/>
<path style="fill:#2BA5F7;" d="M469.939,111.014l-0.012,44.129c0,0.396-0.012,0.803-0.023,1.199H42.084
	c-0.012-0.384-0.023-0.78-0.023-1.176v-44.152h4.774h148.84h1.351h117.949h1.351h148.84
	C465.165,111.014,469.939,111.014,469.939,111.014z"/>
<path style="fill:#2197D8;" d="M115.117,111.014l-0.002,44.129c0,0.396-0.002,0.803-0.003,1.199H42.064
	c-0.002-0.384-0.003-0.78-0.003-1.176v-44.152h0.815h25.413h0.231h20.139h0.231h25.413
	C114.302,111.014,115.117,111.014,115.117,111.014z"/>
<g>
</g>
<g>
</g>
<g>
</g>
<g>
</g>
<g>
</g>
<g>
</g>
<g>
</g>
<g>
</g>
<g>
</g>
<g>
</g>
<g>
</g>
<g>
</g>
<g>
</g>
<g>
</g>
<g>
</g>
</svg>
