<svg width="406" height="394" viewBox="0 0 406 394" fill="none" xmlns="http://www.w3.org/2000/svg">
<path d="M323.409 92.9436L311.142 80.2463L88.939 294.919L101.206 307.616L323.409 92.9436Z" fill="#3466E2"/>
<path d="M298.015 117.477L285.748 104.78L273.051 117.047L285.318 129.744L298.015 117.477Z" fill="#959CB3"/>
<path d="M132.949 276.949L120.683 264.251L107.985 276.518L120.252 289.216L132.949 276.949Z" fill="#959CB3"/>
<path d="M317.06 99.0774L304.793 86.3801L285.747 104.781L298.014 117.478L317.06 99.0774Z" fill="#D7DEED"/>
<path d="M120.251 289.216L107.985 276.519L88.9382 294.92L101.205 307.617L120.251 289.216Z" fill="#D7DEED"/>
<path d="M387.11 19.1253C376.964 8.62298 360.166 8.33342 349.663 18.4798C349.031 19.0905 288.707 82.4338 304.578 98.8608C320.448 115.288 385.833 57.1831 386.465 56.5724C396.966 46.4253 397.257 29.6283 387.11 19.1253Z" fill="#E4EAF6"/>
<path d="M364.997 34.3516C373.496 26.1409 384.253 23.006 391.658 25.7786C390.481 23.4069 389.046 21.129 387.11 19.1253C376.964 8.62298 360.166 8.33342 349.663 18.4798C349.031 19.0905 288.707 82.4338 304.578 98.8608C306.636 100.991 309.539 101.846 313.013 101.758C318.065 82.2574 364.448 34.8824 364.997 34.3516Z" fill="#C1C6D1"/>
<path d="M18.8897 374.875C8.74335 364.372 9.03293 347.574 19.5352 337.428C20.1674 336.817 85.5521 278.712 101.422 295.139C117.293 311.566 56.969 374.909 56.3368 375.52C45.8338 385.667 29.0361 385.377 18.8897 374.875Z" fill="#E4EAF6"/>
<path d="M34.8698 353.3C26.3711 361.511 22.8673 372.154 25.3831 379.65C23.0526 378.391 20.8262 376.879 18.8904 374.875C8.74403 364.373 9.0336 347.575 19.5359 337.428C20.1681 336.818 85.5528 278.713 101.423 295.14C103.481 297.27 104.235 300.201 104.028 303.671C84.364 308.046 35.4192 352.769 34.8698 353.3Z" fill="#C1C6D1"/>
</svg>
