<?xml version="1.0" encoding="iso-8859-1"?>
<!-- Generator: Adobe Illustrator 19.0.0, SVG Export Plug-In . SVG Version: 6.00 Build 0)  -->
<svg version="1.1" id="Layer_1" xmlns="http://www.w3.org/2000/svg" xmlns:xlink="http://www.w3.org/1999/xlink" x="0px" y="0px"
	 viewBox="0 0 512 512" style="enable-background:new 0 0 512 512;" xml:space="preserve">
<path style="fill:#F6E27D;" d="M431.838,157.737H7.758c0-28.562,23.155-51.717,51.717-51.717h372.364V157.737z"/>
<rect x="256" y="106.02" style="fill:#EFC27B;" width="175.838" height="51.717"/>
<g>
	<polygon style="fill:#F6E27D;" points="256,468.04 421.495,468.04 400.808,416.323 276.687,416.323 	"/>
	<rect x="287.03" y="126.707" style="fill:#F6E27D;" width="103.434" height="41.374"/>
</g>
<rect x="421.495" y="85.333" style="fill:#DBDBDB;" width="82.747" height="103.434"/>
<polygon style="fill:#F6E27D;" points="307.717,106.019 328.404,43.96 369.778,43.96 369.778,126.707 307.717,126.707 "/>
<g>
	<path style="fill:#2E2D31;" d="M504.242,77.576h-82.747c-4.285,0-7.758,3.473-7.758,7.758v12.929h-36.202V43.96
		c0-4.284-3.472-7.758-7.758-7.758h-41.374c-3.339,0-6.304,2.137-7.359,5.304l-18.919,56.757H59.475
		C26.68,98.263,0,124.942,0,157.737c0,4.284,3.473,7.758,7.758,7.758h33.616v95.677c0,1.419,0.387,2.744,1.052,3.888
		c-6.667,2.672-11.395,9.188-11.395,16.799c0,9.98,8.121,18.101,18.101,18.101c4.284,0,7.758-3.473,7.758-7.758
		s-3.473-7.758-7.758-7.758c-1.425,0-2.586-1.161-2.586-2.586c0-1.425,1.161-2.586,2.586-2.586c4.284,0,7.758-3.473,7.758-7.758
		c0-1.99-0.755-3.798-1.987-5.172c1.231-1.374,1.987-3.182,1.987-5.172v-95.677h222.384v2.586c0,4.284,3.472,7.758,7.758,7.758
		h12.929v54.298c0,0.002,0,0.003,0,0.005c0,0.002,0,0.003,0,0.005v62.049c0,0.002,0,0.003,0,0.005s0,0.003,0,0.005v62.049
		c0,0.002,0,0.003,0,0.005s0,0.003,0,0.005v54.3h-23.273c-3.171,0-6.024,1.931-7.203,4.876l-18.736,46.841h-15.434
		c-4.284,0-7.758,3.473-7.758,7.758c0,4.284,3.473,7.758,7.758,7.758h206.869c4.285,0,7.758-3.473,7.758-7.758
		c0-4.284-3.472-7.758-7.758-7.758h-15.434l-18.736-46.841c-1.179-2.945-4.031-4.876-7.203-4.876h-23.273v-54.298
		c0-0.003,0-0.007,0-0.01v-62.05c0-0.003,0-0.007,0-0.01v-62.05c0-0.003,0-0.007,0-0.01v-54.298h12.929
		c4.285,0,7.758-3.473,7.758-7.758v-2.586h15.515v23.273c0,4.284,3.472,7.758,7.758,7.758h82.747c4.285,0,7.758-3.473,7.758-7.758
		V85.333C512,81.049,508.528,77.576,504.242,77.576z M429.253,93.091h67.232v56.889h-67.232V93.091z M333.995,51.717h28.026v67.232
		h-46.545v-11.67L333.995,51.717z M16.201,149.98c3.675-20.552,21.682-36.202,43.274-36.202H299.96v5.172H287.03
		c-4.285,0-7.758,3.473-7.758,7.758v23.273H16.201z M327.777,199.111l-12.302,12.301v-24.604L327.777,199.111z M338.747,210.082
		l20.059,20.059L338.747,250.2l-20.059-20.059L338.747,210.082z M327.777,261.172l-12.302,12.301v-24.604L327.777,261.172z
		 M338.747,272.143l20.059,20.059l-20.059,20.059l-20.059-20.059L338.747,272.143z M327.777,323.232l-12.302,12.301V310.93
		L327.777,323.232z M338.747,334.204l20.059,20.059l-20.059,20.059l-20.059-20.059L338.747,334.204z M327.777,385.293
		l-12.302,12.301V372.99L327.777,385.293z M338.747,396.264l12.301,12.301h-24.602L338.747,396.264z M349.719,385.293l12.301-12.301
		v24.603L349.719,385.293z M349.719,323.232l12.301-12.301v24.603L349.719,323.232z M349.719,261.172l12.301-12.301v24.603
		L349.719,261.172z M349.719,199.111l12.301-12.301v24.603L349.719,199.111z M338.747,188.14l-12.301-12.301h24.603L338.747,188.14z
		 M410.036,460.283H267.458l14.481-36.202h113.616L410.036,460.283z M382.707,160.323h-12.929h-62.061h-12.929v-25.859h12.919
		c0.004,0,0.007,0,0.01,0h62.061c0.003,0,0.006,0,0.01,0h12.919V160.323z M398.222,149.98v-23.273c0-4.284-3.472-7.758-7.758-7.758
		h-12.929v-5.172h36.202v36.202H398.222z M429.253,181.01v-15.515h67.232v15.515H429.253z"/>
	<path style="fill:#2E2D31;" d="M235.313,124.121H80.162c-4.284,0-7.758,3.473-7.758,7.758c0,4.284,3.473,7.758,7.758,7.758h155.152
		c4.284,0,7.758-3.473,7.758-7.758C243.071,127.595,239.597,124.121,235.313,124.121z"/>
</g>
<g>
</g>
<g>
</g>
<g>
</g>
<g>
</g>
<g>
</g>
<g>
</g>
<g>
</g>
<g>
</g>
<g>
</g>
<g>
</g>
<g>
</g>
<g>
</g>
<g>
</g>
<g>
</g>
<g>
</g>
</svg>
