<?xml version="1.0" encoding="iso-8859-1"?>
<!-- Generator: Adobe Illustrator 19.0.0, SVG Export Plug-In . SVG Version: 6.00 Build 0)  -->
<svg version="1.1" id="Layer_1" xmlns="http://www.w3.org/2000/svg" xmlns:xlink="http://www.w3.org/1999/xlink" x="0px" y="0px"
	 viewBox="0 0 511.99 511.99" style="enable-background:new 0 0 511.99 511.99;" xml:space="preserve">
<path style="fill:#E6E9ED;" d="M479.991,69.338H31.999c-5.875,0-10.656,4.766-10.656,10.672v127.998
	c0,31.671,6.203,62.406,18.438,91.334c11.828,27.938,28.75,53.03,50.296,74.592c21.547,21.531,46.64,38.469,74.577,50.281
	c28.938,12.25,59.671,18.438,91.342,18.438c31.688,0,62.422-6.188,91.358-18.438c27.936-11.812,53.029-28.75,74.576-50.281
	c21.547-21.562,38.469-46.654,50.297-74.592c12.233-28.929,18.437-59.663,18.437-91.334V80.009
	C490.663,74.103,485.897,69.338,479.991,69.338z"/>
<g>
	<path style="fill:#CCD1D9;" d="M30.171,272.03c2.625,9.25,5.828,18.374,9.609,27.312c11.828,27.938,28.75,53.03,50.296,74.592
		c21.547,21.531,46.64,38.469,74.577,50.281c8.891,3.75,17.938,6.938,27.125,9.562C189.669,413.277,170.184,273.624,30.171,272.03z"
		/>
	<path style="fill:#CCD1D9;" d="M320.229,433.777c9.187-2.625,18.233-5.812,27.124-9.562c27.936-11.812,53.029-28.75,74.576-50.281
		c21.547-21.562,38.469-46.654,50.297-74.592c3.78-8.938,6.983-18.062,9.608-27.312
		C341.807,273.624,322.339,413.277,320.229,433.777z"/>
</g>
<g>
	<path style="fill:#DA4453;" d="M85.358,165.336H74.671c-5.891,0-10.672-4.781-10.672-10.672s4.781-10.656,10.672-10.656h10.688
		c5.89,0,10.671,4.766,10.671,10.656S91.248,165.336,85.358,165.336z"/>
	<path style="fill:#DA4453;" d="M85.358,208.007H74.671c-5.891,0-10.672-4.781-10.672-10.671c0-5.891,4.781-10.671,10.672-10.671
		h10.688c5.89,0,10.671,4.781,10.671,10.671C96.029,203.226,91.248,208.007,85.358,208.007z"/>
	<path style="fill:#DA4453;" d="M85.358,186.664H74.671c-5.891,0-10.672-4.781-10.672-10.656c0-5.906,4.781-10.672,10.672-10.672
		h10.688c5.89,0,10.671,4.766,10.671,10.672C96.029,181.883,91.248,186.664,85.358,186.664z"/>
	<path style="fill:#DA4453;" d="M437.336,208.007h-10.688c-5.891,0-10.672-4.781-10.672-10.671c0-5.891,4.781-10.671,10.672-10.671
		h10.688c5.891,0,10.656,4.781,10.656,10.671C447.992,203.226,443.226,208.007,437.336,208.007z"/>
	<path style="fill:#DA4453;" d="M437.336,165.336h-10.688c-5.891,0-10.672-4.781-10.672-10.672s4.781-10.656,10.672-10.656h10.688
		c5.891,0,10.656,4.766,10.656,10.656S443.226,165.336,437.336,165.336z"/>
	<path style="fill:#DA4453;" d="M437.336,186.664h-10.688c-5.891,0-10.672-4.781-10.672-10.656c0-5.906,4.781-10.672,10.672-10.672
		h10.688c5.891,0,10.656,4.766,10.656,10.672C447.992,181.883,443.226,186.664,437.336,186.664z"/>
</g>
<path style="fill:#CCD1D9;" d="M21.343,90.664v21.344H245.34v31.999c0,5.891,4.78,10.656,10.655,10.656
	c5.906,0,10.672-4.766,10.672-10.656v-31.999h223.996V90.664h-53.327V69.338h-21.344v21.327h-21.328V69.338h-21.327v21.327h-21.343
	V69.338h-21.328v21.327h-21.327V69.338h-21.344v21.327h-21.328V69.338H245.34v21.327h-21.344V69.338h-21.328v21.327h-21.327V69.338
	h-21.344v21.327h-21.328V69.338h-21.327v21.327H95.998V69.338H74.671v21.327H21.343z"/>
<g>
	<path style="fill:#ED5564;" d="M74.671,144.008H10.672C4.781,144.008,0,148.774,0,154.664v42.671
		c0,5.89,4.781,10.671,10.672,10.671h63.999c5.891,0,10.672-4.781,10.672-10.671v-42.671
		C85.343,148.774,80.561,144.008,74.671,144.008z"/>
	<path style="fill:#ED5564;" d="M501.335,144.008h-63.999c-5.891,0-10.672,4.766-10.672,10.656v42.671
		c0,5.89,4.781,10.671,10.672,10.671h63.999c5.891,0,10.655-4.781,10.655-10.671v-42.671
		C511.99,148.774,507.225,144.008,501.335,144.008z"/>
</g>
<g>
</g>
<g>
</g>
<g>
</g>
<g>
</g>
<g>
</g>
<g>
</g>
<g>
</g>
<g>
</g>
<g>
</g>
<g>
</g>
<g>
</g>
<g>
</g>
<g>
</g>
<g>
</g>
<g>
</g>
</svg>
