<svg width="512" height="512" viewBox="0 0 512 512" fill="none" xmlns="http://www.w3.org/2000/svg">
<path d="M451 137.475L256 234.986L61 137.475L256 39.9761L451 137.475Z" fill="#FF763B"/>
<path d="M256 483.299L61 387.794V137.475L256 234.986V483.299Z" fill="#FC611F"/>
<path d="M256 483.299L451 387.794V137.475L256 234.986V483.299Z" fill="#E64500"/>
<path d="M176.761 311.069C176.761 324.728 168.587 332.787 158.501 329.069C148.415 325.35 140.241 311.255 140.241 297.596C140.241 283.937 148.415 275.878 158.501 279.596C168.585 283.325 176.761 297.41 176.761 311.069Z" fill="white"/>
<path d="M340.942 313.83C340.942 327.489 349.115 335.549 359.202 331.83C369.288 328.112 377.461 314.016 377.461 300.358C377.461 286.699 369.288 278.639 359.202 282.357C349.117 286.088 340.942 300.173 340.942 313.83Z" fill="white"/>
<path d="M281.583 279.4C281.583 293.058 289.757 301.118 299.843 297.4C309.93 293.681 318.103 279.586 318.103 265.927C318.103 252.268 309.93 244.209 299.843 247.927C289.757 251.646 281.583 265.741 281.583 279.4Z" fill="white"/>
<path d="M281.583 414.28C281.583 427.939 289.757 435.999 299.843 432.28C309.93 428.562 318.103 414.467 318.103 400.808C318.103 387.149 309.93 379.089 299.843 382.808C289.757 386.526 281.583 400.621 281.583 414.28Z" fill="white"/>
<path d="M392.981 224.474C392.981 238.133 401.154 246.192 411.24 242.474C421.327 238.755 429.5 224.66 429.5 211.001C429.5 197.343 421.327 189.283 411.24 193.001C401.164 196.72 392.981 210.805 392.981 224.474Z" fill="white"/>
<path d="M392.981 359.355C392.981 373.014 401.154 381.074 411.24 377.355C421.327 373.637 429.5 359.541 429.5 345.883C429.5 332.224 421.327 324.164 411.24 327.882C401.154 331.601 392.981 345.698 392.981 359.355Z" fill="white"/>
<path d="M115.271 219.603C115.271 233.262 107.097 241.322 97.0106 237.603C86.9242 233.885 78.7507 219.79 78.7507 206.131C78.7507 192.472 86.9242 184.412 97.0106 188.131C107.097 191.849 115.271 205.944 115.271 219.603Z" fill="white"/>
<path d="M229.993 410.635C229.993 424.294 221.819 432.354 211.733 428.635C201.646 424.917 193.473 410.822 193.473 397.163C193.473 383.504 201.646 375.444 211.733 379.162C221.817 382.891 229.993 396.976 229.993 410.635Z" fill="white"/>
<path d="M256 154.779C270.129 154.779 281.583 147.032 281.583 137.475C281.583 127.918 270.129 120.171 256 120.171C241.871 120.171 230.417 127.918 230.417 137.475C230.417 147.032 241.871 154.779 256 154.779Z" fill="white"/>
</svg>
