<svg width="485" height="485" viewBox="0 0 485 485" fill="none" xmlns="http://www.w3.org/2000/svg">
<g clip-path="url(#clip0_4_69)">
<path d="M304.424 260.073L461.272 313.633L484.336 482.833H249.336L304.424 260.073Z" fill="#ACDCE2"/>
<path d="M179.912 260.073L23.064 313.633L0 482.833H235L179.912 260.073Z" fill="#E2F5F7"/>
<path d="M153.896 373.057L23.064 313.633L0 482.833H235L153.896 373.057Z" fill="#CEEEF2"/>
<path d="M426.192 329.585L304.424 261.841L291.832 314.833H192.504L179.912 262.537L58.144 330.121L70.736 482.833H187.472H235H249.336H299.064H413.6L426.192 329.585Z" fill="#C3E4EA"/>
<path d="M143 266.793L122.664 356.793L183.664 375.793L156.664 439.793L242.168 484.289V437.137L143 266.793Z" fill="#E2F5F7"/>
<path d="M341.352 266.793L361.664 356.793L300.664 375.793L327.672 439.793L242.168 484.289V437.137L341.352 266.793Z" fill="#CEEEF2"/>
<path d="M326.256 90.833C326.256 130.953 296.04 162.833 258.752 162.833H225.584C188.304 162.833 158.08 130.953 158.08 90.833C158.08 50.697 188.296 18.833 225.584 18.833H258.752C296.032 18.833 326.256 50.697 326.256 90.833Z" fill="#E8790A"/>
<path d="M302.504 290.833H181.832L189.88 194.833H294.456L302.504 290.833Z" fill="#F9BDA0"/>
<path d="M302.504 290.833H241.976L181.832 194.833H294.456L302.504 290.833Z" fill="#E28F71"/>
<path d="M323.648 111.689C323.648 182.561 287.928 246.689 242.176 246.689C196.408 246.689 160.704 182.561 160.704 111.689C160.704 40.809 196.408 29.009 242.176 29.009C287.928 29.009 323.648 40.809 323.648 111.689Z" fill="#FCCCB9"/>
<path d="M242.176 29.009C287.928 29.009 323.648 40.809 323.648 111.689C323.648 182.561 287.928 246.689 242.176 246.689" fill="#F9BDA0"/>
<path d="M240.192 434.449L168.08 336.585L142.048 266.793L178.736 251.417L242.176 291.569L305.6 251.417L342.288 266.793L316.256 336.585L244.144 434.449L242.112 437.905L240.192 434.449Z" fill="#6B767C"/>
<path d="M242.176 291.569L305.6 251.417L342.288 266.793L316.256 336.585L244.144 434.449L242.112 437.905L240.192 434.449" fill="#4E595E"/>
<path d="M178.736 251.417L241.976 290.833L168.096 330.681L178.736 251.417Z" fill="#4E595E"/>
<path d="M305.6 251.417L241.976 290.833L316.256 330.681L305.6 251.417Z" fill="#454F54"/>
<path d="M161.16 100.945C156.832 99.0491 149.688 78.2091 153.504 69.5211C157.344 60.8171 171.96 63.3211 176.272 65.2251C180.616 67.1291 184.208 78.0091 177.208 84.4171" fill="#E8790A"/>
<path d="M323.144 100.761C327.488 98.849 334.672 78.017 330.864 69.329C327.048 60.649 312.456 63.161 308.112 65.073C303.784 66.985 300.16 77.881 307.16 84.265" fill="#E8790A"/>
<path d="M254.568 54.801C254.568 54.801 270.4 87.961 329.728 89.297C329.728 89.297 351.912 24.801 265.24 12.801L254.568 54.801Z" fill="#E8790A"/>
<path d="M292.224 37.793C292.224 37.793 287.224 102.793 157.224 77.793C157.224 77.793 134.224 69.793 137.224 50.793C137.224 50.793 142.224 68.793 155.224 53.793C155.224 53.793 173.72 -2.37497 228.728 0.129031C283.736 2.63303 292.224 37.793 292.224 37.793Z" fill="#F98821"/>
<path d="M292.224 37.793C292.224 37.793 287.224 102.793 157.224 77.793C157.224 77.793 134.224 69.793 137.224 50.793C137.224 50.793 142.224 68.793 155.224 53.793" fill="#E8790A"/>
<path d="M248.032 290.833L264.584 406.713L242.16 432.705L219.736 406.913L236.32 290.833H248.032Z" fill="#23343A"/>
<path d="M235.176 298.833H249.176L264.584 406.713L242.16 432.705" fill="#071519"/>
<path d="M236.568 306.833L233.096 296.905L242.16 290.681L251.224 296.729L247.752 306.833H236.568Z" fill="#071519"/>
<path d="M418.568 397.465C418.568 398.297 417.88 398.969 417.056 398.969H328.584C327.752 398.969 327.08 398.297 327.08 397.465C327.08 396.633 327.752 395.961 328.584 395.961H417.048C417.88 395.961 418.568 396.633 418.568 397.465Z" fill="white"/>
<path d="M134.168 340.129C131.968 340.129 130.168 338.337 130.168 336.129V261.465C130.168 237.209 151.92 217.465 176.168 217.465C178.384 217.465 181.16 219.257 181.16 221.465C181.16 223.673 177.888 225.465 175.664 225.465C155.824 225.465 138.16 241.617 138.16 261.465V336.129C138.168 338.337 136.384 340.129 134.168 340.129Z" fill="#4E595E"/>
<path d="M342.168 380.129C344.384 380.129 346.168 378.337 346.168 376.129V261.465C346.168 237.209 328.432 217.465 304.168 217.465C301.968 217.465 301.16 219.257 301.16 221.465C301.16 223.673 301.464 225.465 303.664 225.465C323.52 225.465 338.16 241.617 338.16 261.465V376.129C338.168 378.337 339.968 380.129 342.168 380.129Z" fill="#4E595E"/>
<path d="M342.288 392.625C347.444 392.625 351.624 388.445 351.624 383.289C351.624 378.133 347.444 373.953 342.288 373.953C337.132 373.953 332.952 378.133 332.952 383.289C332.952 388.445 337.132 392.625 342.288 392.625Z" fill="#7CB1B5"/>
<path d="M371.624 411.857C371.624 428.049 358.464 441.201 342.296 441.201C326.08 441.201 312.952 428.049 312.952 411.857C312.952 395.681 326.08 382.529 342.296 382.529C358.464 382.529 371.624 395.681 371.624 411.857Z" fill="#37A2A5"/>
<path d="M321.56 391.121C332.984 379.681 351.592 379.681 363.032 391.121C374.488 402.577 374.472 421.177 363.048 432.609" fill="#1B8796"/>
<path d="M342.296 427.537C350.947 427.537 357.96 420.524 357.96 411.873C357.96 403.222 350.947 396.209 342.296 396.209C333.645 396.209 326.632 403.222 326.632 411.873C326.632 420.524 333.645 427.537 342.296 427.537Z" fill="#37A2A5"/>
<path d="M342.296 427.537C350.947 427.537 357.96 420.524 357.96 411.873C357.96 403.222 350.947 396.209 342.296 396.209C333.645 396.209 326.632 403.222 326.632 411.873C326.632 420.524 333.645 427.537 342.296 427.537Z" fill="#37A2A5"/>
<path d="M331.216 422.937C325.104 416.841 325.104 406.889 331.216 400.793C337.328 394.665 347.264 394.681 353.376 400.777" fill="#1B8796"/>
<path d="M222.696 135.457C222.262 144.078 214.871 150.743 206.251 150.287C197.607 149.852 190.964 142.462 191.398 133.841" fill="white"/>
<path d="M162.168 460.417L153.888 358.417C153.888 349.873 146.784 342.913 138.24 342.913C129.696 342.913 122.456 349.865 122.456 358.417L114.168 460.417V358.417C114.168 345.457 125.216 334.913 138.168 334.913C151.136 334.913 162.168 345.449 162.168 358.417V460.417Z" fill="#37A2A5"/>
<path d="M120.832 457.913C120.832 463.225 122.128 467.537 119.08 467.537C116.048 467.537 113.576 463.225 113.576 457.913C113.576 452.601 116.048 448.289 119.08 448.289C122.128 448.289 120.832 452.601 120.832 457.913Z" fill="#37A2A5"/>
<path d="M114.568 463.577C116.87 463.577 118.736 461.041 118.736 457.913C118.736 454.785 116.87 452.249 114.568 452.249C112.266 452.249 110.4 454.785 110.4 457.913C110.4 461.041 112.266 463.577 114.568 463.577Z" fill="#1B8796"/>
<path d="M155.36 457.913C155.36 452.601 154.064 448.289 157.112 448.289C160.144 448.289 162.616 452.601 162.616 457.913C162.616 463.225 160.144 467.537 157.112 467.537C154.064 467.537 155.36 463.225 155.36 457.913Z" fill="#37A2A5"/>
<path d="M161.608 463.577C163.91 463.577 165.776 461.041 165.776 457.913C165.776 454.785 163.91 452.249 161.608 452.249C159.306 452.249 157.44 454.785 157.44 457.913C157.44 461.041 159.306 463.577 161.608 463.577Z" fill="#1B8796"/>
<path d="M394.168 354.833H386.168V378.833H394.168V354.833Z" fill="#4E595E"/>
<path d="M402.168 362.833H378.168V370.833H402.168V362.833Z" fill="#4E595E"/>
<path d="M175.491 133.72C174.657 133.72 173.823 133.406 173.174 132.857L160.849 121.483C159.644 120.385 159.736 118.66 161.034 117.718C162.331 116.698 164.37 116.777 165.482 117.875L177.808 129.249C179.012 130.347 178.92 132.073 177.622 133.014C177.066 133.485 176.325 133.72 175.491 133.72Z" fill="#1C742F"/>
<path d="M308.94 133.72C309.774 133.72 310.608 133.406 311.257 132.857L323.583 121.483C324.787 120.385 324.695 118.66 323.397 117.718C322.1 116.698 320.061 116.777 318.949 117.875L306.623 129.249C305.419 130.347 305.511 132.073 306.809 133.014C307.458 133.485 308.199 133.72 308.94 133.72Z" fill="#1C742F"/>
<path d="M247.869 140.074C247.869 151.919 262.233 163.685 280.026 163.685C304.214 163.685 312.184 151.84 312.184 140.074C312.184 121.326 297.82 118.738 280.026 118.738C262.233 118.738 247.869 128.308 247.869 140.074ZM254.541 140.309C254.541 130.975 265.94 123.366 280.026 123.366C294.113 123.366 305.511 125.484 305.511 140.309C305.511 149.644 299.21 159.057 280.026 159.057C265.94 159.057 254.541 149.644 254.541 140.309Z" fill="#1C742F"/>
<path d="M254.054 140.454H233.944C233.759 140.454 228.384 131.119 228.662 131.119H256.649C256.927 131.119 254.24 140.454 254.054 140.454Z" fill="#1C742F"/>
<path d="M252.294 140.532C249.513 138.885 246.177 137.238 242.563 137.238C239.875 137.238 237.188 138.493 234.964 139.434C231.349 141.003 231.349 149.396 231.349 149.396C233.388 145.709 237.837 143.356 242.656 143.356C247.382 143.356 251.83 145.709 253.962 149.396C253.869 149.475 254.981 142.101 252.294 140.532Z" fill="#1C742F"/>
<path d="M207 119C189.386 119 175 121.592 175 140.361C175 152.22 182.931 164 207 164C224.614 164 239 152.141 239 140.361C239 128.581 224.706 119 207 119ZM207 159.366C187.911 159.366 181.64 149.942 181.64 140.597C181.64 125.675 192.983 123.634 207 123.634C221.017 123.634 232.36 131.251 232.36 140.597C232.36 149.942 221.017 159.366 207 159.366Z" fill="#1C742F"/>
<path d="M268.4 209.056C268.4 209.056 254.2 218.656 241.7 218.656C229.2 218.656 215 209.056 215 209.056C215 207.656 226.3 203.756 231.1 203.056C234.1 202.556 241.7 205.556 241.7 205.556C241.7 205.556 249.2 202.656 252.1 203.056C257 203.756 268.4 209.056 268.4 209.056Z" fill="#BD6044"/>
<path d="M268.4 209C268.4 209 254.2 222.5 241.7 222.5C229.2 222.5 215 209 215 209C215 209 221.5 210.5 234.6 209.7C236.8 209.6 239.7 211.3 241.6 211.3C243.3 211.3 245.8 209.5 247.7 209.6C261.5 210.4 268.4 209 268.4 209Z" fill="#AA4D35"/>
<path d="M262.07 135.457C262.504 144.078 269.894 150.743 278.515 150.287C287.159 149.852 293.801 142.462 293.367 133.841" fill="white"/>
<circle cx="207" cy="142" r="7" fill="#3466E2"/>
<circle cx="279" cy="141" r="7" fill="#3466E2"/>
</g>
<defs>
<clipPath id="clip0_4_69">
<rect width="484.336" height="484.336" fill="white"/>
</clipPath>
</defs>
</svg>
