<svg viewBox="0 0 594 710" fill="none" xmlns="http://www.w3.org/2000/svg">
<path d="M425.827 436.828C405.897 409.722 396.209 377.701 382.083 347.463C376.296 335.095 370.028 322.399 359.808 313.071C351.608 305.591 340.896 301.945 330.175 299.935C329.677 299.843 328.883 300.923 329.517 301.118C331.348 301.693 333.088 302.342 334.78 303.018C326.924 301.693 318.681 301.642 311.256 301.734C300.275 301.876 288.764 302.334 277.841 303.481C269.149 304.393 260.699 305.905 253.297 310.775L253.043 311.079C249.868 313.241 246.957 315.967 244.307 318.769C233.344 330.361 224.891 344.475 216.175 357.736C205.479 373.994 195.133 391.435 181.767 405.674C169.099 419.177 154.005 428.606 139.781 440.113C132.365 446.106 124.983 456.641 127.296 466.754C129.554 476.622 138.401 481.341 147.737 482.954C166.917 486.262 182.812 470.494 194.297 454.463C191.317 464.973 188.988 475.677 187.629 486.466C181.707 491.926 175.776 498.215 169.015 502.251C164.616 504.885 160.279 507.553 157.315 511.815C153.136 517.81 159.02 524.385 163.325 528.066C170.691 534.371 180.091 538.542 188.967 542.205C197.383 545.693 205.845 549.018 214.448 551.965C211.443 585.698 206.479 619.319 207.399 653.247C207.796 668.012 209.185 683.983 215.475 697.531C219.581 706.387 230.052 709.055 238.933 709.131C262.608 709.351 271.281 690.307 271.513 669.471C271.535 667.725 271.492 665.976 271.424 664.222C269.02 648.25 264.879 632.531 263.249 616.415C261.443 598.554 260.037 580.656 259.597 562.71C279.221 565.31 299.717 565.454 319.601 562.591C319.171 580.582 317.756 598.511 315.951 616.415C314.321 632.531 310.185 648.25 307.775 664.222C307.707 665.976 307.669 667.725 307.687 669.471C307.919 690.307 316.592 709.351 340.263 709.131C349.143 709.055 359.62 706.387 363.727 697.531C370.016 683.983 371.404 668.012 371.804 653.247C372.733 618.662 367.568 584.398 364.583 550.006C377.801 544.182 390.073 536.517 400.772 526.741L401.004 526.505C405.8 522.799 409.131 517.742 408.413 511.08C407.796 505.374 401.933 499.517 398.885 494.991C394.34 488.23 388.435 482.414 383.112 476.243C382.213 470.401 381.188 464.567 380.079 458.743C388.795 474.495 403.453 486.802 422.644 482.236C429.103 480.7 437.809 475.811 439.359 468.67C441.883 457.004 432.301 445.642 425.827 436.828" fill="#100F0D"/>
<path d="M279.035 307.939C289.029 308.031 298.967 307.288 308.948 307.01C311.139 306.951 313.337 306.934 315.553 306.968C314.791 320.111 310.439 335.332 294.231 335.264C278.267 335.188 276.955 319.74 274.421 307.939C275.959 307.93 277.499 307.93 279.035 307.939" fill="#F8A29E"/>
<path d="M294.339 335.265C294.301 335.265 294.267 335.265 294.231 335.265C284.112 335.217 279.88 328.993 277.492 321.435C279.172 321.482 280.852 321.503 282.533 321.503C292.884 321.503 303.252 320.673 313.525 319.397C310.909 328.118 305.397 335.265 294.339 335.265Z" fill="#D84947"/>
<path d="M146.568 477.128C134.509 474.316 128.558 464.542 133.64 452.858C139.072 440.364 157.441 432.194 167.677 423.79C187.735 407.311 202.988 386.784 217.288 365.3C221.779 358.555 226.173 351.726 230.703 344.998C231.204 346.678 231.989 348.29 232.859 349.699C233.724 351.118 235.121 352.722 236.743 353.599C234.024 359.34 231.415 365.123 228.723 370.862C221.092 387.095 213.405 403.302 206.488 419.859C202.811 428.674 199.456 437.731 196.552 446.95C184.231 464.372 170.813 482.776 146.568 477.128" fill="#F8A29E"/>
<path d="M155.213 478.167C155.212 478.167 155.211 478.167 155.209 478.167C155.211 478.167 155.212 478.167 155.213 478.167ZM155.225 478.167C174.127 478.159 185.727 462.255 196.475 447.058C185.727 462.256 174.128 478.162 155.225 478.167M146.804 477.182C146.789 477.179 146.772 477.175 146.757 477.171C146.772 477.175 146.789 477.179 146.804 477.182ZM146.644 477.146C146.619 477.139 146.593 477.134 146.568 477.128C146.545 477.123 146.523 477.118 146.5 477.112C146.523 477.118 146.545 477.123 146.568 477.128C146.593 477.134 146.619 477.139 146.644 477.146ZM146.495 477.111C146.027 477 145.568 476.879 145.119 476.748C145.568 476.879 146.027 477 146.495 477.111ZM145.112 476.746C145.095 476.74 145.076 476.735 145.06 476.731C145.077 476.736 145.093 476.74 145.112 476.746ZM145.041 476.726C145.024 476.72 145.007 476.715 144.988 476.71C145.007 476.715 145.024 476.72 145.041 476.726ZM144.949 476.698C144.945 476.696 144.941 476.695 144.937 476.694C144.941 476.695 144.945 476.696 144.949 476.698ZM232.8 349.603C232.237 348.682 231.713 347.675 231.28 346.623C231.287 346.602 231.295 346.579 231.303 346.559C231.735 347.628 232.231 348.666 232.8 349.603Z" fill="#100F0D"/>
<path d="M155.213 478.167C155.212 478.167 155.211 478.167 155.209 478.167C152.557 478.167 149.761 477.854 146.804 477.182C146.789 477.179 146.772 477.175 146.757 477.171C146.719 477.163 146.683 477.154 146.644 477.146C146.619 477.139 146.593 477.134 146.568 477.128C146.545 477.123 146.523 477.118 146.5 477.112C146.499 477.111 146.497 477.111 146.495 477.111C146.027 477 145.568 476.879 145.119 476.748C145.116 476.747 145.115 476.747 145.112 476.746C145.093 476.74 145.077 476.736 145.06 476.731C145.053 476.728 145.048 476.727 145.041 476.726C145.024 476.72 145.007 476.715 144.988 476.71C144.976 476.706 144.963 476.702 144.949 476.698C144.945 476.696 144.941 476.695 144.937 476.694C137.259 474.391 132.438 469.069 131.897 462.254C133.028 462.221 134.219 462.043 135.497 461.571C137.283 460.912 139.001 460.143 140.685 459.316L140.748 459.351C143.1 460.308 145.485 460.735 147.864 460.734C159.664 460.734 171.265 450.226 177.553 441.851C198.7 413.686 219.572 380.376 231.28 346.623C231.713 347.675 232.237 348.682 232.8 349.603C232.82 349.635 232.84 349.668 232.859 349.699C233.724 351.118 235.121 352.722 236.743 353.599C234.024 359.34 231.415 365.123 228.723 370.862C221.092 387.095 213.405 403.302 206.488 419.859C202.811 428.674 199.456 437.731 196.552 446.95C196.525 446.986 196.501 447.022 196.475 447.058C185.727 462.255 174.127 478.159 155.225 478.167C155.221 478.167 155.217 478.167 155.213 478.167" fill="#F57C79"/>
<path d="M264.499 686.238C261.62 700.807 247.62 704.851 234.632 703.086C219.923 701.086 216.559 686.211 214.524 673.827C213.941 670.274 213.497 666.711 213.144 663.133C217.559 671.979 226.671 678.075 237.316 676.934C247.776 675.819 260.205 671.051 265.2 661.427C265.968 669.717 266.115 678.049 264.499 686.238Z" fill="#DF1938"/>
<path d="M263.949 650.798C264.093 651.889 264.241 652.969 264.38 654.058C257.825 666.035 249.511 671.658 235.548 672.079C225.177 672.392 215.857 665.082 212.549 655.51C212.532 655.214 212.524 654.911 212.507 654.606C221.699 650.006 231.247 646.519 241.681 646.063C249.743 645.709 256.619 648.942 263.949 650.798" fill="#F8A29E"/>
<path d="M263.059 644.198C246.749 637.318 227.343 643.785 212.417 652.817C212.312 650.647 212.261 648.47 212.203 646.299C213.723 643.278 215.913 640.906 218.804 639.217C223.143 636.221 228.549 634.709 233.593 633.485C244.116 630.91 252.781 632.978 262.096 637.047C262.415 639.429 262.735 641.817 263.059 644.198" fill="#DF1938"/>
<path d="M261.329 631.214C250.54 624.84 235.797 627.82 224.679 632.328C222.32 633.291 216.001 637.098 212.092 641.412C212.059 638.795 212.033 636.17 212.047 633.544C212.211 606.515 216.613 579.67 216.453 552.647C220.205 553.898 223.987 555.095 227.803 556.176C237.076 558.81 246.8 560.87 256.765 562.312C256.469 562.736 256.268 563.183 256.259 563.605C255.989 586.229 258.391 608.794 261.329 631.214Z" fill="#F8A29E"/>
<path d="M364.672 673.827C362.641 686.211 359.277 701.086 344.568 703.086C331.584 704.851 317.576 700.807 314.701 686.238C313.085 678.049 313.232 669.717 314 661.427C318.993 671.051 331.428 675.819 341.883 676.934C352.528 678.075 361.64 671.979 366.052 663.133C365.705 666.711 365.253 670.274 364.672 673.827" fill="#DF1938"/>
<path d="M366.647 655.51C363.343 665.082 354.021 672.392 343.652 672.079C329.685 671.658 321.373 666.035 314.819 654.058C314.959 652.969 315.107 651.889 315.249 650.798C322.583 648.942 329.457 645.709 337.52 646.063C347.953 646.519 357.5 650.006 366.695 654.606C366.677 654.911 366.668 655.214 366.647 655.51" fill="#F8A29E"/>
<path d="M366.783 652.817C351.853 643.785 332.449 637.318 316.136 644.198C316.461 641.817 316.783 639.429 317.103 637.047C326.419 632.978 335.083 630.91 345.605 633.485C350.649 634.709 356.057 636.221 360.392 639.217C363.288 640.906 365.477 643.278 366.997 646.299C366.939 648.47 366.888 650.647 366.783 652.817Z" fill="#DF1938"/>
<path d="M367.149 633.544C367.167 636.17 367.144 638.795 367.111 641.412C363.199 637.098 356.88 633.291 354.521 632.328C343.408 627.82 328.66 624.84 317.871 631.214C320.808 608.794 323.211 586.228 322.94 563.604C322.932 563.14 322.688 562.634 322.332 562.179C336.324 559.967 349.976 556.26 362.759 550.824C362.38 578.463 366.984 605.907 367.149 633.544" fill="#F8A29E"/>
<path d="M234.907 672.09C234.901 672.09 234.893 672.09 234.887 672.09C234.893 672.09 234.901 672.09 234.907 672.09ZM234.908 672.09C235.121 672.09 235.335 672.086 235.548 672.079C249.511 671.658 257.825 666.035 264.38 654.058C257.825 666.035 249.511 671.658 235.548 672.079C235.333 672.086 235.121 672.09 234.908 672.09ZM212.748 656.063C212.741 656.047 212.736 656.031 212.729 656.015C212.736 656.031 212.741 656.047 212.748 656.063ZM263.949 650.798C263.697 650.735 263.447 650.67 263.196 650.603C263.447 650.67 263.697 650.735 263.949 650.798Z" fill="#100F0D"/>
<path d="M234.907 672.09C234.901 672.09 234.893 672.09 234.887 672.09C224.983 672.081 216.143 665.161 212.748 656.063C212.741 656.047 212.736 656.031 212.729 656.015C212.668 655.847 212.607 655.678 212.549 655.51C212.532 655.214 212.524 654.911 212.507 654.606C217.432 652.142 222.472 650.014 227.684 648.486C228.335 650.842 229.035 653.181 229.837 655.469C231.483 660.143 236.413 663.718 241.239 663.718C243.792 663.718 246.316 662.717 248.307 660.347C251.3 656.785 252.896 652.436 253.701 647.776C256.88 648.676 260 649.751 263.196 650.603C263.447 650.67 263.697 650.735 263.949 650.798C264.093 651.889 264.241 652.969 264.38 654.058C257.825 666.035 249.511 671.658 235.548 672.079C235.335 672.086 235.121 672.09 234.908 672.09H234.907" fill="#F57C79"/>
<path d="M217.208 636.869C220.076 634.727 222.945 633.079 224.476 632.414C224.476 632.417 224.476 632.419 224.476 632.421C222.956 633.078 220.083 634.723 217.208 636.869M261.329 631.214C259.053 629.871 256.592 628.961 254.039 628.378C254.039 628.37 254.037 628.362 254.037 628.354C256.596 628.939 259.052 629.869 261.329 631.214Z" fill="#100F0D"/>
<path d="M212.092 641.412C212.065 639.286 212.044 637.154 212.043 635.022C212.043 634.53 212.044 634.036 212.047 633.544C212.208 606.99 216.46 580.614 216.457 554.072C216.457 553.598 216.456 553.122 216.453 552.647C220.205 553.898 223.987 555.095 227.803 556.176C237.076 558.81 246.8 560.87 256.765 562.312C256.469 562.736 256.268 563.183 256.259 563.605C256.245 564.754 256.239 565.902 256.239 567.051C256.235 588.519 258.54 609.932 261.329 631.214C259.052 629.868 256.596 628.939 254.037 628.354C253.941 626.808 253.848 625.307 253.773 623.854C252.968 608.042 251.439 591.783 248.096 576.276C246.901 570.728 242.812 568.33 238.512 568.33C232.487 568.33 226.048 573.04 226.583 580.395C223.363 596.955 222.227 615.111 224.476 632.414C222.945 633.079 220.076 634.727 217.208 636.868C217.112 636.939 217.016 637.011 216.92 637.084C216.791 636.296 216.503 635.546 215.968 634.854C215.913 634.782 215.848 634.751 215.777 634.751C215.515 634.751 215.192 635.163 215.208 635.376C215.285 636.468 215.071 637.558 214.975 638.646C213.943 639.524 212.959 640.455 212.092 641.412" fill="#F57C79"/>
<path d="M344.313 672.09C354.299 672.081 363.204 665.045 366.532 655.835C363.204 665.046 354.3 672.081 344.313 672.09ZM366.565 655.742C366.569 655.732 366.572 655.723 366.575 655.714C366.572 655.723 366.569 655.732 366.565 655.742ZM366.627 655.569C366.633 655.549 366.64 655.53 366.647 655.51C366.668 655.214 366.677 654.911 366.695 654.606C366.677 654.911 366.668 655.214 366.647 655.51C366.64 655.53 366.633 655.549 366.627 655.569ZM366.695 654.606C365.485 654 364.269 653.415 363.047 652.853C364.269 653.415 365.485 654 366.695 654.606ZM315.249 650.798C316.461 650.49 317.661 650.146 318.856 649.787C317.661 650.147 316.463 650.491 315.249 650.798Z" fill="#100F0D"/>
<path d="M344.293 672.09C344.08 672.09 343.867 672.086 343.652 672.079C329.685 671.658 321.373 666.035 314.819 654.058C314.959 652.969 315.107 651.889 315.249 650.798C316.463 650.491 317.661 650.147 318.856 649.787C320.796 649.206 322.723 648.586 324.667 648.021C327.307 652.134 331.137 654.946 335.668 654.944C338.577 654.944 341.776 653.786 345.132 651.07C346.324 650.098 347.379 648.934 348.316 647.626C353.384 648.835 358.272 650.661 363.047 652.853C364.269 653.415 365.485 654 366.695 654.606C366.677 654.911 366.668 655.214 366.647 655.51C366.64 655.53 366.633 655.549 366.627 655.569C366.609 655.617 366.592 655.666 366.575 655.714C366.572 655.723 366.569 655.732 366.565 655.742C366.555 655.772 366.543 655.805 366.532 655.835C363.204 665.045 354.299 672.081 344.313 672.09C344.307 672.09 344.3 672.09 344.293 672.09" fill="#F57C79"/>
<path d="M367.111 641.412C363.199 637.098 356.88 633.291 354.521 632.328L354.165 632.192C354.165 632.191 354.167 632.188 354.167 632.186C354.285 632.234 354.404 632.28 354.521 632.328C356.88 633.291 363.199 637.098 367.111 641.412C367.136 639.448 367.155 637.482 367.156 635.514C367.155 637.482 367.136 639.448 367.111 641.412ZM317.871 631.214C318.937 630.584 320.041 630.046 321.176 629.592C321.175 629.603 321.173 629.615 321.172 629.627C320.04 630.075 318.931 630.59 317.871 631.214" fill="#100F0D"/>
<path d="M367.111 641.412C363.199 637.098 356.88 633.291 354.521 632.328C354.404 632.28 354.285 632.234 354.167 632.186C355.652 624.895 356.2 617.284 356.876 611.951C358.428 599.635 360.345 583.823 352.173 573.439C349.303 569.79 346.557 568.318 344.024 568.318C335.749 568.318 329.76 584.048 329.233 590.964C328.225 604.138 322.789 616.512 321.176 629.592C320.041 630.046 318.937 630.584 317.871 631.214C320.659 609.932 322.965 588.519 322.961 567.051C322.961 565.902 322.953 564.754 322.94 563.604C322.932 563.14 322.688 562.634 322.332 562.179C336.324 559.967 349.976 556.26 362.759 550.824C362.744 551.904 362.737 552.983 362.737 554.063C362.733 580.607 366.991 606.986 367.149 633.544C367.153 634.2 367.156 634.858 367.156 635.514C367.155 637.482 367.136 639.448 367.111 641.412" fill="#F57C79"/>
<path d="M381.313 489.199C381.921 491.023 384.835 488.692 384.665 487.326C384.56 486.482 384.425 485.638 384.315 484.786C387.692 490.812 391.436 496.603 395.281 502.403C397.365 505.543 399.633 508.751 401.444 512.051C404.093 516.871 400.853 521.042 397.008 524.335C373.916 538.145 351.244 549.221 324.447 554.066C297.657 558.911 269.888 557.256 243.34 551.795C222.223 547.447 200.975 540.079 181.483 530.792C174.536 527.483 164.925 523.178 161.835 515.555C159.763 510.456 172.057 506.04 174.675 503.323C179.015 498.832 183.159 494.172 187.279 489.478C186.493 496.62 186.117 503.796 186.261 510.963C187.637 507.848 187.865 503.298 188.545 500.486C189.795 495.346 192.188 490.569 194.061 485.638C194.459 484.582 194.859 483.527 195.256 482.48C199.912 459.072 206.395 436.305 215.491 413.854C221.737 398.442 228.528 383.239 235.045 367.942C239.639 357.152 246.032 345.369 249.32 333.618C249.612 331.018 249.772 328.418 249.747 325.785L249.684 325.927C247.971 333.914 243.048 340.675 239.481 347.918C239.004 348.89 238.54 349.868 238.072 350.839C237.932 350.747 237.785 350.671 237.645 350.561C236.405 349.581 235.501 348.197 234.644 346.889C233.749 345.513 233.04 344.002 232.416 342.466C235.003 338.666 237.629 334.91 240.381 331.238C248.515 320.39 256.543 310.031 271.032 308.902C271.345 308.875 271.831 308.395 271.973 307.972C272.141 307.964 272.315 307.964 272.493 307.964C270.72 316.659 270.417 325.405 275.511 333.027C279.968 339.705 289.233 341.705 296.636 340.987C311.857 339.485 321.387 321.504 320.656 307.162C333.724 307.888 346.733 310.809 357.445 318.507C362.857 324.358 367.368 331.306 371.648 339.283C368.357 342.051 365.777 345.066 361.704 347.15C358.973 348.56 355.627 350.13 352.764 351.092C351.883 348.298 350.992 345.495 350.041 342.71C348.667 338.683 346.628 334.994 344.901 331.162C345.155 333.846 345.377 336.539 345.581 339.223C345.825 339.882 346.067 340.54 346.307 341.198C348.649 347.691 349.721 354.967 351.296 361.679C354.833 376.798 358.961 391.756 362.355 406.911C368.475 434.236 372.425 462.591 381.313 489.199" fill="#F24DA7"/>
<path d="M291.395 556.934C291.389 556.934 291.384 556.934 291.379 556.934C291.384 556.934 291.389 556.934 291.395 556.934ZM291.404 556.934C302.376 556.934 313.333 556.055 324.132 554.122C313.332 556.055 302.377 556.934 291.404 556.934ZM324.245 554.102C324.312 554.09 324.38 554.078 324.447 554.066C351.244 549.221 373.916 538.145 397.008 524.335C399.876 521.878 402.409 518.932 402.409 515.594C402.409 518.932 399.876 521.878 397.008 524.335C373.916 538.145 351.244 549.221 324.447 554.066C324.38 554.078 324.312 554.09 324.245 554.102ZM243.971 551.923C243.929 551.915 243.891 551.907 243.849 551.899C243.891 551.907 243.929 551.915 243.971 551.923ZM382.168 489.87C382.165 489.87 382.163 489.87 382.16 489.87C382.163 489.87 382.165 489.87 382.168 489.87ZM382.315 489.86C383.328 489.738 384.669 488.406 384.672 487.446C384.669 488.406 383.328 489.738 382.315 489.86ZM381.333 489.254C381.329 489.245 381.325 489.234 381.321 489.223C381.325 489.234 381.329 489.245 381.333 489.254ZM293.756 341.126C293.747 341.126 293.739 341.126 293.729 341.126C293.739 341.126 293.747 341.126 293.756 341.126ZM293.756 341.126C294.736 341.126 295.701 341.078 296.636 340.987C295.7 341.078 294.737 341.126 293.756 341.126ZM248.304 336.885C248.644 335.839 248.988 334.794 249.284 333.747C249 334.754 248.693 335.76 248.368 336.768C248.347 336.807 248.325 336.846 248.304 336.885ZM275.749 333.375C275.668 333.26 275.589 333.144 275.511 333.027C275.589 333.144 275.668 333.26 275.749 333.375Z" fill="#100F0D"/>
<path d="M291.395 556.934C291.389 556.934 291.384 556.934 291.379 556.934C275.46 556.933 259.507 555.082 243.971 551.923C243.929 551.915 243.891 551.907 243.849 551.899C243.68 551.865 243.511 551.83 243.34 551.795C222.223 547.447 200.975 540.079 181.483 530.792C174.536 527.483 164.925 523.178 161.835 515.555C161.677 515.167 161.603 514.782 161.601 514.402C161.58 509.794 172.257 505.834 174.675 503.323C179.015 498.832 183.159 494.172 187.279 489.478C186.604 495.615 186.232 501.778 186.231 507.939C186.231 508.947 186.241 509.955 186.261 510.963C187.637 507.849 187.865 503.298 188.545 500.486C189.795 495.346 192.188 490.569 194.061 485.638C194.459 484.582 194.859 483.527 195.256 482.48C199.912 459.072 206.395 436.305 215.491 413.854C221.737 398.442 228.528 383.239 235.045 367.942C236.813 363.798 238.844 359.501 240.861 355.119C237.033 367.521 234.675 380.723 231.761 391.68C225.384 415.702 219.601 440.29 219.243 465.243C218.72 501.491 234.64 534.43 272.311 542.078C276.855 543 281.237 543.439 285.463 543.438C321.987 543.434 346.267 510.687 351.823 475.246C355.576 451.331 351.339 426.454 347.809 402.762C344.213 378.62 342.015 353.769 330.385 331.863C329.719 330.594 328.416 329.966 327.096 329.966C326.08 329.966 325.055 330.339 324.303 331.077C314.64 340.562 303.168 346.343 292.195 346.343C281.743 346.343 271.744 341.095 264.203 328.806C263.823 328.182 263.355 327.759 262.844 327.464C262.464 326.991 262.059 326.519 261.561 325.987C260.864 325.227 259.855 324.854 258.843 324.854C257.819 324.854 256.791 325.237 256.081 325.987C253.089 329.147 250.56 332.803 248.368 336.769C248.693 335.761 249 334.754 249.284 333.747C249.296 333.704 249.308 333.661 249.32 333.618C249.589 331.221 249.747 328.824 249.749 326.4C249.749 326.195 249.748 325.99 249.747 325.785L249.684 325.927C247.971 333.914 243.048 340.675 239.481 347.918C239.004 348.89 238.54 349.868 238.072 350.839C237.932 350.747 237.785 350.671 237.645 350.561C236.405 349.581 235.501 348.197 234.644 346.889C233.749 345.513 233.04 344.002 232.416 342.466C235.003 338.666 237.629 334.91 240.381 331.238C243.792 326.687 247.185 322.225 251.044 318.491C252.087 318.711 253.135 318.917 254.191 319.107C259.909 320.143 265.669 320.807 271.449 321.167C271.817 325.298 273.017 329.297 275.511 333.027C275.589 333.145 275.668 333.26 275.749 333.375C279.703 338.944 287.087 341.119 293.729 341.126C293.739 341.126 293.747 341.126 293.756 341.126C294.737 341.126 295.7 341.078 296.636 340.987C307.931 339.873 316.092 329.682 319.252 318.641C321.081 318.385 322.905 318.118 324.725 317.841C332.457 316.665 339.812 314.969 346.783 312.605C350.516 314.157 354.093 316.098 357.445 318.507C362.857 324.358 367.368 331.306 371.648 339.283C368.357 342.051 365.777 345.066 361.704 347.15C358.973 348.561 355.627 350.13 352.764 351.092C351.883 348.298 350.992 345.495 350.041 342.71C348.667 338.683 346.628 334.994 344.901 331.162C345.155 333.846 345.377 336.539 345.581 339.223C345.825 339.882 346.067 340.54 346.307 341.198C348.649 347.691 349.721 354.967 351.296 361.679C354.833 376.798 358.961 391.756 362.355 406.911C368.475 434.236 372.425 462.591 381.313 489.199C381.316 489.207 381.319 489.215 381.321 489.223C381.325 489.234 381.329 489.245 381.333 489.254C381.496 489.689 381.8 489.867 382.16 489.87C382.163 489.87 382.165 489.87 382.168 489.87C382.216 489.87 382.265 489.867 382.315 489.861C383.328 489.738 384.669 488.406 384.672 487.446C384.672 487.406 384.671 487.366 384.665 487.326C384.56 486.482 384.425 485.638 384.315 484.786C387.692 490.812 391.436 496.603 395.281 502.403C397.365 505.543 399.633 508.751 401.444 512.051C402.117 513.275 402.409 514.457 402.409 515.594C402.409 518.933 399.876 521.878 397.008 524.335C373.916 538.145 351.244 549.221 324.447 554.066C324.38 554.078 324.312 554.09 324.245 554.102C324.208 554.109 324.171 554.115 324.132 554.122C313.333 556.055 302.376 556.934 291.404 556.934C291.401 556.934 291.397 556.934 291.395 556.934" fill="#E82D75"/>
<path d="M427.633 475.727C406.981 485.392 388.549 465.647 378.263 449.6C375.101 434.262 371.4 419.016 367.685 403.943C364.228 389.916 360.244 376.054 356.149 362.202C355.221 359.07 354.284 355.947 353.317 352.831C357.851 352.24 363.14 350.543 366.572 347.986C368.445 346.592 371.471 344.676 373.287 342.423C384.603 364.43 392.761 387.948 403.343 410.312C408.067 420.295 413.755 429.078 420.416 437.842C427.435 447.084 445.028 467.582 427.633 475.727" fill="#F8A29E"/>
<path d="M413.621 439.723C411.16 436.786 409.02 433.451 407.141 429.856C409.365 433.08 411.624 436.356 413.621 439.723Z" fill="#F57C79"/>
<path d="M416.543 478.282C416.537 478.282 416.529 478.282 416.524 478.282C416.529 478.282 416.537 478.282 416.543 478.282ZM416.548 478.282C420.144 478.28 423.852 477.496 427.633 475.727C423.851 477.498 420.145 478.28 416.548 478.282ZM378.548 450.043C378.513 449.99 378.479 449.936 378.445 449.884C378.479 449.936 378.513 449.99 378.548 450.043ZM378.388 449.796C378.367 449.762 378.344 449.727 378.323 449.692C378.344 449.727 378.367 449.762 378.388 449.796ZM373.431 342.703C373.383 342.61 373.335 342.516 373.287 342.423C373.335 342.515 373.383 342.61 373.431 342.703Z" fill="#100F0D"/>
<path d="M416.543 478.282C416.537 478.282 416.529 478.282 416.524 478.282C400.671 478.27 386.972 463.05 378.548 450.043C378.513 449.99 378.479 449.936 378.445 449.884C378.427 449.854 378.408 449.826 378.388 449.796C378.367 449.762 378.344 449.727 378.323 449.692C378.303 449.663 378.283 449.631 378.263 449.6C375.101 434.262 371.4 419.016 367.685 403.943C364.228 389.916 360.244 376.054 356.149 362.202C355.221 359.07 354.284 355.947 353.317 352.831C357.851 352.24 363.14 350.543 366.572 347.986C368.445 346.592 371.471 344.676 373.287 342.423C373.335 342.516 373.383 342.61 373.431 342.703C373.655 343.147 373.865 343.598 374.088 344.043C372.049 345.816 370.761 348.51 370.977 352.139C373.468 393.774 377.672 461.934 427.968 473.794C428.82 473.988 429.631 474.072 430.419 474.106C429.609 474.69 428.689 475.23 427.633 475.727C423.852 477.496 420.144 478.28 416.548 478.282C416.547 478.282 416.544 478.282 416.543 478.282" fill="#F57C79"/>
<path d="M592.471 226.51C589.393 211.079 585.045 195.91 579.44 181.17C570.839 158.549 560.552 135.393 544.492 116.982C529.2 99.4485 510.287 84.9792 489.465 74.5792C478.709 69.2019 467.056 64.7019 455.491 61.3846C447.565 59.1059 441.073 58.8619 434.104 60.1605C432.204 57.4845 430.2 54.8592 428.047 52.2512C419.116 41.4792 409.392 33.6538 396.792 27.5925C390.621 24.6298 384.083 22.4352 377.461 20.7392C374.579 19.9952 371.56 20.3832 368.559 20.9232C342.428 -2.51015 303.668 -3.15945 269.765 4.02455C249.717 8.26988 229.951 14.1539 211.807 23.8032C194.293 33.1139 179.237 47.2618 166.001 61.9005C156.061 58.8858 148.071 58.3632 137.553 61.3846C125.992 64.7019 114.334 69.2019 103.579 74.5792C82.7579 84.9792 63.8484 99.4485 48.5521 116.982C32.4921 135.393 22.2057 158.549 13.5995 181.17C7.99844 195.91 3.65104 211.079 0.573959 226.51C0.380208 228.545 0.202604 230.587 0 232.631C0.497917 233.491 1.01667 234.345 1.55312 235.181L1.59948 234.926C8.23021 243.655 16.8703 251.21 26.3 257.466C26.3 257.635 26.3088 257.805 26.3125 257.971C27.3803 258.597 28.4568 259.204 29.5369 259.803C29.6093 258.216 29.7484 256.631 29.9636 255.043C30.0907 252.114 30.2719 249.193 30.5885 246.263C31.7703 235.306 34.5016 224.569 37.8907 214.077C37.6797 223.935 38.1776 233.811 39.0771 243.638C39.6333 249.725 40.4984 255.819 41.6255 261.898C41.4989 261.839 41.3724 261.762 41.25 261.703C41.4531 262.455 41.6896 263.206 41.9088 263.958C45.0869 266.541 48.5265 268.743 52.0516 270.821C54.0557 271.614 56.0527 272.358 58.024 273.033C66.9755 276.097 77.4781 278.393 88.3161 279.338L88.3719 279.634C89.0469 279.684 89.7265 279.745 90.3979 279.819C90.3213 277.463 90.288 275.109 90.3255 272.754C89.9755 269.386 89.6636 266.042 89.3636 262.835C88.612 254.883 88.9036 247.049 89.5995 239.266C90.1145 242.533 90.6891 245.825 91.4193 249.169C92.8964 255.895 94.6521 262.625 96.6953 269.285C97.8937 272.297 99.0667 275.311 100.274 278.317C114.363 277.759 126.773 275.481 138.376 268.751C138.195 268.271 137.996 267.79 137.819 267.317L137.789 267.326C130.035 247.504 124.143 226.983 121.391 205.828C119.598 192.034 119.644 178.257 121.159 164.441C121.526 161.106 122.197 157.865 123.033 154.666C122.168 161.022 121.556 167.479 121.265 174.079C120.336 195.006 125.675 211.695 135.987 229.718C140.107 236.918 144.387 243.832 151.224 248.762C154.487 251.11 158.007 253.119 161.515 255.086C167.724 258.563 172.075 257.98 178.693 259.5C191.465 290.903 219.167 312.767 254.191 319.107C277.491 323.327 301.481 321.378 324.725 317.841C348.996 314.151 369.555 305.322 386.127 286.867C393.656 278.486 400.527 269.193 406.136 259.23C429.225 256.893 446.607 235.5 456.619 216.531C467.187 196.5 469.775 171.346 468.069 148.106C469.775 153.415 471.268 158.802 471.885 164.441C473.405 178.257 473.447 192.034 471.648 205.828C468.901 226.983 463.013 247.504 455.255 267.326L455.229 267.317C455.048 267.79 454.851 268.271 454.668 268.751C466.271 275.481 478.681 277.759 492.769 278.317C493.973 275.311 495.149 272.297 496.349 269.285C498.396 262.625 500.152 255.895 501.621 249.169C502.356 245.825 502.933 242.533 503.44 239.266C504.145 247.049 504.427 254.883 503.685 262.835C503.381 266.042 503.069 269.386 502.719 272.754C502.756 275.109 502.723 277.463 502.647 279.819C503.321 279.745 503.997 279.684 504.673 279.634L504.728 279.338C515.563 278.393 526.072 276.097 535.021 273.033C536.991 272.358 538.988 271.614 540.992 270.821C544.517 268.743 547.953 266.541 551.139 263.958C551.356 263.206 551.591 262.455 551.799 261.703C551.667 261.762 551.544 261.839 551.413 261.898C552.54 255.819 553.411 249.725 553.968 243.638C554.867 233.811 555.368 223.935 555.149 214.077C558.547 224.569 561.273 235.306 562.456 246.263C562.776 249.193 562.955 252.114 563.084 255.043C563.296 256.631 563.435 258.216 563.503 259.803C564.587 259.204 565.664 258.597 566.732 257.971C566.736 257.805 566.744 257.635 566.744 257.466C576.173 251.21 584.808 243.655 591.444 234.926L591.491 235.181C592.028 234.345 592.545 233.491 593.044 232.631C592.841 230.587 592.664 228.545 592.471 226.51" fill="#100F0D"/>
<path d="M116.537 162.027C113.456 175.995 113.853 190.979 115.102 205.129C117.06 227.354 123.497 249.185 132.868 269.486C123.763 273.091 113.882 274.88 103.828 275.295C101.393 268.415 99.1302 261.459 97.1464 254.377C93.4406 245.193 90.1401 235.492 87.8354 225.726C87.4937 227.143 87.1645 228.57 86.8693 230.006C85.7885 240.11 85.776 250.366 86.3964 260.354C86.6833 264.937 87.0713 269.85 87.6921 274.847C76.203 273.742 64.9078 271.082 54.7021 267.418C51.8234 266.389 48.8901 265.207 45.9312 263.899C44.5973 257.93 43.4697 251.895 42.6302 245.766C41.2374 235.578 40.651 225.251 40.575 214.963C39.8917 209.154 39.4312 203.321 39.1948 197.47C38.9625 198.965 38.7593 200.459 38.5953 201.978C32.6984 216.481 28.313 231.314 26.7812 247.007C26.574 249.085 26.4432 251.169 26.3682 253.253C17.2677 247.294 8.8255 240.119 2.20728 231.947C10.1344 194.517 25.4046 158.287 47.9021 127.458C60.6536 109.983 78.0937 96.3845 96.4969 85.3258C106.559 79.2818 117.018 74.7979 127.908 70.5112C133.881 68.1632 139.795 65.8846 146.045 64.3819C152.183 62.8966 158.184 63.7058 164.271 63.8592C145.311 85.2578 133.138 109.063 126.697 135.258C122.919 144.003 118.656 152.419 116.537 162.027" fill="#F24DA7"/>
<path d="M114.397 194.905C114.395 194.901 114.392 194.896 114.39 194.892C113.868 184.028 114.183 172.939 116.452 162.418C114.182 172.946 113.876 184.031 114.397 194.905M116.457 162.395C116.464 162.365 116.47 162.333 116.477 162.302C116.47 162.333 116.464 162.363 116.457 162.395ZM116.49 162.241C116.496 162.217 116.501 162.191 116.506 162.167C116.501 162.191 116.496 162.217 116.49 162.241ZM94.9016 86.2925C94.9188 86.2818 94.9375 86.2699 94.9547 86.2605C94.9369 86.2712 94.9197 86.2818 94.9016 86.2925ZM95.0011 86.2312C95.4989 85.9272 95.9973 85.6258 96.4969 85.3258C95.9969 85.6258 95.4995 85.9272 95.0011 86.2312ZM146.147 64.3579C148.927 63.6952 151.679 63.5019 154.424 63.5019C151.679 63.5019 148.925 63.6965 146.147 64.3579ZM164.271 63.8592C163.02 63.8272 161.772 63.7686 160.525 63.7072C161.772 63.7686 163.02 63.8272 164.271 63.8592ZM154.448 63.5019C154.444 63.5019 154.44 63.5019 154.435 63.5019C154.44 63.5019 154.444 63.5019 154.448 63.5019Z" fill="#100F0D"/>
<path d="M114.39 194.892C111.489 190.422 108.692 185.826 105.854 181.152C98.6828 169.362 92.5161 164.635 79.3729 161.191C52.8068 154.244 55.55 130.311 64.6125 108.852C73.8505 100.278 84.1869 92.8391 94.9016 86.2925C94.9197 86.2818 94.9369 86.2712 94.9547 86.2605C94.9703 86.2498 94.9855 86.2418 95.0011 86.2311C95.4995 85.9271 95.9969 85.6258 96.4969 85.3258C106.559 79.2818 117.018 74.7978 127.908 70.5111C133.881 68.1631 139.795 65.8845 146.045 64.3818C146.079 64.3738 146.112 64.3658 146.147 64.3578C148.925 63.6965 151.679 63.5018 154.424 63.5018C154.428 63.5018 154.432 63.5018 154.435 63.5018C154.44 63.5018 154.444 63.5018 154.448 63.5018C156.475 63.5018 158.499 63.6072 160.525 63.7072C161.772 63.7685 163.02 63.8271 164.271 63.8591C145.311 85.2578 133.138 109.063 126.697 135.258C122.919 144.003 118.656 152.419 116.537 162.027C116.527 162.074 116.517 162.12 116.506 162.167C116.501 162.191 116.496 162.217 116.49 162.241C116.486 162.261 116.481 162.282 116.477 162.302C116.47 162.332 116.464 162.364 116.457 162.395C116.455 162.402 116.454 162.41 116.452 162.418C114.183 172.939 113.868 184.028 114.39 194.892" fill="#E42A6D"/>
<path d="M132.107 267.819C128.338 259.477 125.069 250.887 122.403 242.121C122.422 242.129 122.443 242.137 122.464 242.143C125.114 250.895 128.347 259.491 132.107 267.819" fill="#100F0D"/>
<path d="M103.828 275.295C101.393 268.415 99.1302 261.459 97.1464 254.377C93.4406 245.193 90.1401 235.492 87.8354 225.726C87.4937 227.143 87.1645 228.57 86.8693 230.006C86.2526 235.769 85.9838 241.581 85.9817 247.363C85.9802 251.721 86.1297 256.062 86.3964 260.354C86.6833 264.937 87.0713 269.85 87.6921 274.847C76.203 273.742 64.9078 271.082 54.7021 267.418C51.8234 266.389 48.8901 265.207 45.9312 263.899C44.5973 257.93 43.4697 251.895 42.6302 245.766C41.2374 235.578 40.651 225.251 40.575 214.963C39.8917 209.154 39.4312 203.321 39.1948 197.47C38.9625 198.965 38.7593 200.459 38.5953 201.978C32.6984 216.481 28.313 231.314 26.7812 247.007C26.574 249.085 26.4432 251.169 26.3682 253.253C17.2677 247.294 8.8255 240.119 2.20728 231.947C4.94686 219.015 8.6229 206.251 13.1099 193.782C22.2104 187.853 32.2765 183.941 43.127 183.941C46.474 183.941 49.8953 184.313 53.3854 185.113C68.0568 188.481 79.0812 202.933 87.9745 214.042C98.3636 227.023 108.677 236.933 122.403 242.121C125.069 250.887 128.338 259.477 132.107 267.819C132.358 268.377 132.612 268.931 132.868 269.486C123.763 273.091 113.882 274.88 103.828 275.295" fill="#E42A6D"/>
<path d="M386.147 279.303C368.976 301.118 346.353 309.711 319.648 313.915C297.949 317.343 275.088 317.942 253.477 313.638C209.897 304.959 182.167 269.039 176.941 226.264C174.109 203.086 176.824 179.296 181.816 156.067C192.364 152.674 203.089 150.047 213.924 147.936C213.76 144.991 214.111 142.028 214.904 139.132C217.757 121.971 224.881 102.353 237.633 90.5512C233.139 99.1285 229.2 107.012 226.731 116.898C225.557 121.599 224.033 127.195 223.515 132.675C223.608 134.903 223.716 137.124 223.877 139.344C224.265 141.547 224.637 143.767 224.988 145.978C237.38 143.978 249.887 142.619 262.435 141.606C262.581 139.655 262.864 137.714 263.232 135.782L263.009 135.798C263.949 131.948 264.233 127.787 265.169 124.006C266.525 118.57 268.001 112.98 270.248 107.78C269.911 116.838 269.2 126.58 271.597 135.147L271.345 135.164C271.78 137.08 272.231 138.98 272.699 140.888C280.479 140.364 288.265 139.908 296.036 139.555C317.736 138.567 338.945 138.61 359.936 140.382C359.885 139.251 359.817 138.119 359.737 136.988L359.593 136.972C359.644 136.846 359.671 136.718 359.712 136.591C359.527 133.882 359.375 131.163 359.58 128.471C359.556 128.345 359.531 128.208 359.509 128.075C358.357 121.583 357.044 115.066 355.997 108.531C358.876 111.723 361.041 116.838 362.743 119.911C364.481 123.068 366.555 126.555 368.239 130.167C370.459 133.688 372.025 137.68 373.185 141.808C384.737 143.192 396.24 145.083 407.724 147.726C411.413 167.218 414.465 186.808 414.54 206.731C414.651 234.479 402.988 257.93 386.147 279.303" fill="#F8A29E"/>
<path d="M297.983 311.705C278.785 311.705 259.757 306.85 241.896 300.139C222.307 292.778 201.549 267.639 200.275 245.733C200.199 244.441 197.885 245.015 196.628 244.431C191.596 242.061 189.571 238.405 188.781 234.201C188.625 232.75 188.489 231.289 188.443 229.837C190.673 231.393 193.019 232.445 195.419 233.051C196.441 233.518 197.583 233.865 198.844 234.075C199.679 234.213 200.545 234.279 201.428 234.279C205.423 234.279 209.747 232.901 212.937 230.409C215.443 229.074 217.828 227.371 220.007 225.379C218.993 233.399 214.853 240.886 214.173 249.251C214.023 251.126 214.165 252.978 214.539 254.793C214.145 254.217 213.847 253.853 213.719 253.853C213.453 253.853 213.921 255.407 215.803 259.865C218.477 266.203 222.763 271.555 228.131 276.037C243.343 290.521 270.099 295.189 289.856 296.913C292.384 297.134 294.903 297.242 297.409 297.242C316.539 297.242 334.935 290.922 350.511 279.659C359.104 273.438 366.685 265.375 372.923 256.842C376.508 251.934 379.317 246.742 381.813 241.422C375.096 258.802 364.652 273.765 348.64 284.31C333.284 294.422 314.701 299.518 296.371 299.518C294.424 299.518 292.483 299.461 290.545 299.346C269.677 298.103 249.708 293.741 232.825 281.002C219.559 270.998 209.995 256.723 205.373 240.861C210.527 239.19 214.545 234.969 216.685 229.973C216.997 229.238 217.001 228.714 216.812 228.359C211.639 233.459 204.611 237.787 198.307 237.787C196.241 237.787 194.255 237.323 192.436 236.269C194.205 239.43 197.251 241.606 201.172 241.606C201.64 241.606 202.12 241.575 202.613 241.511C203.251 241.426 203.861 241.275 204.469 241.114C208.884 259.711 219.732 275.033 234.927 286.699C251.576 299.469 274.836 303.325 295.597 303.325C296.648 303.325 297.689 303.315 298.725 303.297C340.495 302.529 377.485 273.953 386.363 233.121C386.469 232.631 386.285 232.445 385.999 232.445C385.923 232.445 385.84 232.458 385.753 232.482C387.424 228.53 389.064 224.555 390.853 220.618C392.745 230.419 389.807 240.262 387.164 250.054C381.424 264.658 374.78 278.402 362.776 289.933C346.373 305.685 322.821 311.113 300.805 311.67C299.864 311.694 298.924 311.705 297.983 311.705" fill="#F57C79"/>
<path d="M359.936 140.382C359.736 140.365 359.535 140.348 359.335 140.331C359.535 140.348 359.736 140.365 359.936 140.382ZM296.683 139.526C305.564 139.13 314.364 138.907 323.101 138.907C314.365 138.907 305.563 139.13 296.683 139.526ZM323.128 138.907C323.123 138.907 323.117 138.907 323.112 138.907C323.117 138.907 323.123 138.907 323.128 138.907Z" fill="#100F0D"/>
<path d="M179.373 168.805C180.107 164.542 180.909 160.297 181.816 156.067C192.364 152.674 203.089 150.047 213.924 147.937C213.897 147.454 213.884 146.97 213.884 146.486C213.887 144.021 214.24 141.553 214.904 139.133C217.757 121.971 224.881 102.353 237.633 90.5512C233.139 99.1286 229.2 107.013 226.731 116.898C225.557 121.599 224.033 127.195 223.515 132.675C223.608 134.903 223.716 137.125 223.877 139.345C224.265 141.547 224.637 143.767 224.988 145.978C237.38 143.978 249.887 142.619 262.435 141.606C262.581 139.655 262.864 137.714 263.232 135.782L263.009 135.798C263.949 131.949 264.233 127.787 265.169 124.006C266.525 118.57 268.001 112.981 270.248 107.781C270.1 111.743 269.881 115.837 269.883 119.906C269.884 125.138 270.249 130.329 271.597 135.147L271.345 135.165C271.78 137.081 272.231 138.981 272.699 140.889C280.479 140.365 288.265 139.909 296.036 139.555C296.252 139.546 296.467 139.535 296.683 139.526C305.563 139.13 314.365 138.907 323.101 138.907C323.105 138.907 323.108 138.907 323.112 138.907C323.117 138.907 323.123 138.907 323.128 138.907C335.303 138.907 347.355 139.339 359.335 140.331C359.535 140.349 359.736 140.365 359.936 140.382C359.885 139.251 359.817 138.119 359.737 136.989L359.593 136.973C359.644 136.846 359.671 136.718 359.712 136.591C359.591 134.814 359.483 133.031 359.481 131.255C359.481 130.325 359.509 129.397 359.58 128.471C359.556 128.345 359.531 128.209 359.509 128.075C358.357 121.583 357.044 115.066 355.997 108.531C358.876 111.723 361.041 116.838 362.743 119.911C364.481 123.069 366.555 126.555 368.239 130.167C370.459 133.689 372.025 137.681 373.185 141.809C384.737 143.193 396.24 145.083 407.724 147.726C408.716 152.969 409.653 158.219 410.505 163.471C402.791 161.174 395.033 159.005 387.189 157.122C361.256 150.893 334.231 149.795 307.669 149.769C307.024 149.767 306.384 149.767 305.737 149.767C263.807 149.767 218.275 151.497 179.373 168.805" fill="#F57C79"/>
<path d="M459.501 196.669C453.431 222.314 435.096 247.918 408.601 254.636C413.612 244.854 417.356 234.487 419.251 223.716C435.797 228.426 445.94 202.739 447.632 190.524C449.996 173.421 432.829 150.859 415.237 160.449C414.335 156.565 413.359 152.698 412.351 148.841C413.7 149.179 415.047 149.55 416.399 149.905L416.407 150.006C417.2 150.226 418.007 150.368 418.82 150.495C418.976 149.795 419.163 149.111 419.404 148.435C419.876 126.69 412.435 104.565 399.735 86.7179C398.3 85.0552 396.831 83.4178 395.285 81.8565C393.547 80.0911 391.655 78.6392 389.748 77.2218C405.952 97.9965 413.207 122.191 416.199 148.123C415.047 147.794 413.9 147.456 412.743 147.136C411.561 147.211 410.32 146.807 409.231 146.426C408.523 146.182 407.796 145.919 407.091 145.616C396.063 142.822 384.919 140.593 373.695 138.871C373.456 131.687 368.445 124.411 365.212 118.214C362.864 113.698 359.657 105.914 354.841 103.45C353.803 102.918 352.359 104.438 352.469 105.434C353.199 112.136 355.04 118.619 356.031 125.28C356.58 128.935 358.696 133.004 357.948 136.795C338.248 134.575 318.36 133.79 298.443 134.069C290.247 134.186 282.032 134.49 273.827 134.997C273.181 130.278 273.936 125.533 273.932 120.763C273.923 113.951 274.181 107.054 273.889 100.258C273.809 98.4258 271.332 99.5578 270.801 100.462C264.351 111.486 263.337 123.727 261.405 135.95C250.967 136.879 240.567 138.162 230.264 139.875C229.081 140.078 227.912 140.331 226.739 140.551C226.992 132.321 228.309 124.394 229.943 116.264C232.209 105.003 237.08 96.1899 242.42 86.2712C243.077 85.0472 241.656 84.4978 240.769 85.1472C224.223 97.1938 213.275 122.924 212.912 143.547C207.581 144.882 202.288 146.367 197.024 147.955C195.217 148.494 188.819 150.133 182.691 152.141L182.715 152.039C181.525 152.436 180.344 152.851 179.169 153.29L179.145 153.364C175.807 154.59 172.903 155.89 171.303 157.147C168.88 130.884 177.824 103.586 197.295 85.8739C199.375 83.2485 201.52 80.5818 203.916 78.2591C191.524 86.0178 182.656 96.9325 175.865 110.136C171.7 118.24 167.103 130.446 166.305 141.775C166.66 148.082 167.804 154.286 169.792 160.262C172.552 159.215 175.321 158.219 178.107 157.282C176.824 162.322 175.659 167.395 174.659 172.494C157.72 164.593 146.189 186.59 145.973 200.652C145.771 214.178 156.293 232.039 171.071 225.083C171.365 228.78 171.741 232.47 172.307 236.159C173.355 243.014 175.025 249.564 177.263 255.76C169.948 253.575 164.013 251.371 157.141 246.508C149.573 241.147 144.981 234.733 140.401 226.697C131.002 210.201 125.443 194.415 126.034 175.159C126.659 154.834 129.786 134.398 136.957 115.318C144.175 96.1059 156.525 78.8338 170.145 63.6725C183.024 49.3392 197.885 36.3552 214.921 27.2392C231.707 18.2565 250.308 13.4365 268.741 9.19782C300.435 1.89648 332.344 2.9352 358.961 18.9485C361.735 20.1045 364.452 21.5071 367.095 23.0925C371.944 22.3845 376.645 22.8058 382.121 24.6725C387.037 26.3432 391.587 28.4192 395.601 31.2739C402.947 35.1819 409.78 40.0525 415.563 45.9872C435.439 66.3645 445.948 91.9445 456.483 117.894C466.208 141.877 465.385 171.794 459.501 196.669" fill="#F24DA7"/>
<path d="M169.575 125.523C170.68 121.997 171.967 118.623 173.299 115.565C173.303 115.567 173.308 115.57 173.312 115.573C171.981 118.626 170.692 121.993 169.585 125.513C169.583 125.517 169.579 125.521 169.575 125.523M137.023 115.146C137.025 115.139 137.027 115.134 137.029 115.127C137.028 115.133 137.025 115.141 137.023 115.146Z" fill="#100F0D"/>
<path d="M155.196 245.057C148.759 239.997 144.576 234.019 140.401 226.697C131.461 211.006 125.995 195.958 125.991 177.955C125.991 177.031 126.005 176.099 126.034 175.159C126.659 154.834 129.786 134.398 136.957 115.318C136.979 115.261 137.001 115.203 137.023 115.146C137.025 115.141 137.028 115.133 137.029 115.127C142.913 99.5526 152.188 85.2899 162.743 72.3579C160.252 83.7472 160.417 95.3792 164.883 105.914C166.725 110.257 169.708 113.395 173.299 115.565C171.967 118.623 170.68 121.997 169.575 125.523C141.607 155.161 131.754 198.935 144.923 233.93C147.811 238.099 151.027 241.777 155.196 245.057" fill="#E42A6D"/>
<path d="M166.313 141.655C166.315 141.647 166.315 141.638 166.316 141.63C166.315 141.638 166.315 141.647 166.313 141.655ZM166.323 141.53C166.324 141.523 166.324 141.516 166.324 141.511C166.324 141.518 166.324 141.523 166.323 141.53Z" fill="#E42A6D"/>
<path d="M177.263 255.76C169.948 253.575 164.013 251.371 157.141 246.508C156.471 246.034 155.823 245.55 155.196 245.056C155.823 245.55 156.471 246.032 157.141 246.508C164.013 251.371 169.948 253.575 177.263 255.76Z" fill="#100F0D"/>
<path d="M166.305 141.775C166.308 141.735 166.311 141.695 166.313 141.655C166.311 141.695 166.308 141.735 166.305 141.775ZM166.316 141.63C166.319 141.595 166.32 141.563 166.323 141.53C166.32 141.563 166.319 141.597 166.316 141.63Z" fill="#E42A6D"/>
<path d="M166.495 139.677C166.497 139.657 166.499 139.638 166.501 139.619C166.499 139.638 166.497 139.658 166.495 139.677ZM166.504 139.59C166.68 138.004 166.924 136.408 167.224 134.814C167.229 134.79 167.233 134.765 167.239 134.741C167.239 134.735 167.24 134.73 167.241 134.724C167.835 131.608 168.644 128.505 169.585 125.513C169.592 125.506 169.599 125.499 169.605 125.491C168.169 130.046 167.031 134.86 166.504 139.59Z" fill="#100F0D"/>
<path d="M166.324 141.511C166.491 139.297 166.801 137.051 167.224 134.814C166.924 136.409 166.68 138.005 166.504 139.59C166.503 139.599 166.501 139.61 166.501 139.619C166.499 139.638 166.497 139.657 166.495 139.677C166.427 140.29 166.371 140.902 166.324 141.511M167.239 134.741C167.24 134.735 167.24 134.73 167.241 134.725C167.24 134.73 167.239 134.735 167.239 134.741Z" fill="#E42A6D"/>
<path d="M164.567 226.638C164.563 226.638 164.559 226.638 164.555 226.638C164.559 226.638 164.563 226.638 164.567 226.638ZM164.572 226.638C166.621 226.637 168.796 226.154 171.071 225.083C168.795 226.155 166.621 226.638 164.572 226.638ZM145.972 200.722C145.972 200.699 145.973 200.675 145.973 200.653C146.157 188.641 154.599 170.839 167.612 170.827C154.6 170.842 146.157 188.642 145.973 200.653C145.973 200.675 145.972 200.699 145.972 200.722ZM174.659 172.494C174.627 172.479 174.597 172.466 174.565 172.451C174.597 172.466 174.627 172.479 174.659 172.494C175.659 167.395 176.824 162.322 178.107 157.282C176.824 162.322 175.659 167.395 174.659 172.494ZM167.629 170.827C167.628 170.827 167.627 170.827 167.625 170.827C167.627 170.827 167.628 170.827 167.629 170.827ZM167.224 134.814C167.229 134.79 167.233 134.765 167.239 134.741C167.233 134.765 167.229 134.79 167.224 134.814ZM167.241 134.725C167.832 131.614 168.637 128.514 169.575 125.523C169.579 125.521 169.583 125.517 169.585 125.513C168.644 128.505 167.835 131.609 167.241 134.725Z" fill="#100F0D"/>
<path d="M177.263 255.76C169.948 253.575 164.013 251.371 157.141 246.508C156.471 246.032 155.823 245.55 155.196 245.056C151.027 241.776 147.811 238.099 144.923 233.93C131.754 198.935 141.607 155.16 169.575 125.523C168.637 128.514 167.832 131.614 167.241 134.725C167.24 134.73 167.24 134.735 167.239 134.741C167.233 134.765 167.229 134.79 167.224 134.814C166.801 137.051 166.491 139.296 166.324 141.511C166.324 141.516 166.324 141.523 166.323 141.53C166.32 141.563 166.319 141.595 166.316 141.63C166.315 141.638 166.315 141.647 166.313 141.655C166.311 141.695 166.308 141.735 166.305 141.775C166.66 148.082 167.804 154.286 169.792 160.262C172.552 159.215 175.321 158.219 178.107 157.282C176.824 162.322 175.659 167.395 174.659 172.494C174.627 172.479 174.597 172.466 174.565 172.451C172.136 171.333 169.819 170.829 167.629 170.827C167.628 170.827 167.627 170.827 167.625 170.827C167.62 170.827 167.617 170.827 167.612 170.827C154.599 170.839 146.157 188.64 145.973 200.652C145.973 200.675 145.972 200.699 145.972 200.722C145.971 200.832 145.971 200.944 145.971 201.056C145.977 212.428 153.432 226.629 164.555 226.638C164.559 226.638 164.563 226.638 164.567 226.638C164.568 226.638 164.569 226.638 164.572 226.638C166.621 226.638 168.795 226.155 171.071 225.083C171.365 228.78 171.741 232.47 172.307 236.159C173.355 243.014 175.025 249.564 177.263 255.76" fill="#CB1F47"/>
<path d="M412.773 111.168C412.769 111.164 412.765 111.16 412.761 111.156C412.36 110.095 411.941 109.039 411.507 107.991C411.509 107.991 411.511 107.99 411.513 107.99C411.951 109.043 412.371 110.102 412.773 111.168Z" fill="#100F0D"/>
<path d="M408.601 254.636C424.201 250.679 436.945 240.151 446.053 226.95C450.084 214.827 452.339 202.256 451.744 189.392C450.243 156.98 435.084 132.118 412.773 111.169C412.371 110.102 411.951 109.043 411.513 107.99C424.504 105.336 434.405 96.3818 442.107 84.9192C447.396 95.5832 451.941 106.707 456.483 117.894C461.688 130.729 463.871 145.262 463.875 159.814C463.879 172.452 462.236 185.106 459.501 196.669C453.431 222.314 435.096 247.918 408.601 254.636Z" fill="#E42A6D"/>
<path d="M419.404 148.435C419.417 147.793 419.424 147.151 419.424 146.508C419.424 147.1 419.419 147.693 419.407 148.285C419.407 148.286 419.407 148.287 419.407 148.289C419.405 148.338 419.405 148.386 419.404 148.435Z" fill="#100F0D"/>
<path d="M419.424 146.509C419.424 146.479 419.424 146.45 419.424 146.421C419.424 146.45 419.424 146.479 419.424 146.509ZM419.424 146.362C419.405 134.425 417.007 122.43 412.717 111.115C412.732 111.129 412.747 111.142 412.761 111.157C417.039 122.454 419.407 134.443 419.424 146.362" fill="#100F0D"/>
<path d="M423.208 224.286C423.207 224.286 423.207 224.286 423.205 224.286C423.207 224.286 423.207 224.286 423.208 224.286ZM423.221 224.286C437.4 224.27 446.063 201.773 447.627 190.557C446.063 201.774 437.403 224.273 423.221 224.286ZM419.343 223.742C419.313 223.734 419.281 223.726 419.251 223.717C419.281 223.726 419.313 223.734 419.343 223.742ZM447.632 190.525C447.635 190.505 447.636 190.487 447.639 190.469C447.636 190.487 447.635 190.505 447.632 190.525ZM415.237 160.449C414.335 156.565 413.359 152.698 412.351 148.841C413.359 152.698 414.335 156.565 415.237 160.449C418.14 158.866 421.029 158.159 423.824 158.158C421.031 158.159 418.139 158.866 415.237 160.449ZM423.848 158.159C423.841 158.159 423.835 158.158 423.828 158.158C423.835 158.158 423.841 158.159 423.848 158.159ZM419.404 148.435C419.405 148.386 419.405 148.338 419.407 148.289C419.405 148.338 419.405 148.386 419.404 148.435ZM419.407 148.285C419.419 147.693 419.424 147.101 419.424 146.509C419.424 146.479 419.424 146.45 419.424 146.421C419.424 146.401 419.424 146.382 419.424 146.362C419.407 134.443 417.039 122.454 412.761 111.157C412.765 111.161 412.769 111.165 412.773 111.169C417.277 123.066 419.659 135.738 419.407 148.285" fill="#100F0D"/>
<path d="M408.601 254.636C413.612 244.854 417.356 234.487 419.251 223.716C419.281 223.726 419.313 223.734 419.343 223.742C420.673 224.112 421.96 224.286 423.205 224.286C423.207 224.286 423.207 224.286 423.208 224.286C423.213 224.286 423.217 224.286 423.221 224.286C437.403 224.272 446.063 201.774 447.627 190.556C447.628 190.546 447.631 190.535 447.632 190.524C447.635 190.504 447.636 190.487 447.639 190.469C447.783 189.413 447.852 188.335 447.851 187.247C447.84 173.634 436.913 158.175 423.848 158.159C423.841 158.159 423.835 158.158 423.828 158.158C423.827 158.158 423.824 158.158 423.824 158.158C421.029 158.159 418.14 158.866 415.237 160.449C414.335 156.565 413.359 152.698 412.351 148.841C413.7 149.179 415.047 149.55 416.399 149.905L416.407 150.006C417.2 150.226 418.007 150.368 418.82 150.495C418.976 149.795 419.163 149.111 419.404 148.435C419.405 148.386 419.405 148.338 419.407 148.288C419.407 148.287 419.407 148.286 419.407 148.285C419.659 135.738 417.277 123.066 412.773 111.169C435.084 132.118 450.243 156.98 451.744 189.392C452.339 202.256 450.084 214.827 446.053 226.95C436.945 240.151 424.201 250.679 408.601 254.636Z" fill="#CB1F47"/>
<path d="M416.968 47.4525C416.505 46.9618 416.036 46.4725 415.563 45.9872C416.037 46.4725 416.505 46.9605 416.968 47.4525ZM381.967 24.6205C381.916 24.6032 381.868 24.5872 381.817 24.5698C381.868 24.5872 381.916 24.6032 381.967 24.6205ZM367.197 23.0778C367.276 23.0672 367.355 23.0565 367.433 23.0459C367.355 23.0565 367.276 23.0672 367.197 23.0778ZM367.437 23.0445C368.777 22.8632 370.107 22.7699 371.448 22.7685C370.108 22.7699 368.777 22.8632 367.437 23.0445ZM371.476 22.7685C371.469 22.7685 371.463 22.7685 371.456 22.7685C371.463 22.7685 371.469 22.7685 371.476 22.7685ZM358.799 18.8512C358.704 18.7939 358.611 18.7379 358.516 18.6819C358.611 18.7379 358.704 18.7939 358.799 18.8512ZM268.196 9.32452C268.304 9.29918 268.411 9.27384 268.519 9.24984C268.412 9.27384 268.303 9.29918 268.196 9.32452ZM268.531 9.24717C268.6 9.23117 268.671 9.21516 268.741 9.19783C268.671 9.21383 268.6 9.23117 268.531 9.24717ZM269.093 9.11788C281.024 6.39254 292.983 4.85254 304.675 4.85121C292.984 4.85254 281.021 6.39254 269.093 9.11788ZM304.697 4.85121C304.693 4.85121 304.688 4.85121 304.685 4.85121C304.688 4.85121 304.693 4.85121 304.697 4.85121Z" fill="#100F0D"/>
<path d="M339.045 73.3431C338.623 73.3431 338.196 73.3405 337.772 73.3378C296.953 73.0005 251.553 55.5178 230.415 20.2405C242.647 15.5298 255.451 12.2631 268.196 9.32446C268.303 9.29913 268.412 9.27378 268.519 9.24978C268.523 9.24845 268.527 9.24845 268.531 9.24711C268.6 9.23111 268.671 9.21377 268.741 9.19777C268.859 9.1711 268.975 9.14448 269.093 9.11782C281.021 6.39248 292.984 4.85248 304.675 4.85115C304.679 4.85115 304.681 4.85115 304.685 4.85115C304.688 4.85115 304.693 4.85115 304.697 4.85115C323.771 4.85248 342.135 8.95115 358.516 18.6818C358.611 18.7378 358.704 18.7938 358.799 18.8512C358.852 18.8832 358.907 18.9165 358.961 18.9485C361.735 20.1045 364.452 21.5071 367.095 23.0924C367.129 23.0884 367.163 23.0831 367.197 23.0778C367.276 23.0671 367.355 23.0565 367.433 23.0458C367.435 23.0458 367.436 23.0444 367.437 23.0444C368.777 22.8631 370.108 22.7698 371.448 22.7685C371.451 22.7685 371.453 22.7685 371.456 22.7685C371.463 22.7685 371.469 22.7685 371.476 22.7685C374.767 22.7711 378.117 23.3391 381.817 24.5698C381.868 24.5871 381.916 24.6032 381.967 24.6205C382.017 24.6378 382.069 24.6551 382.121 24.6724C387.037 26.3431 391.587 28.4191 395.601 31.2738C402.947 35.1818 409.78 40.0525 415.563 45.9872C416.036 46.4725 416.505 46.9618 416.968 47.4525C417.72 48.2538 418.459 49.0658 419.188 49.8872C395.827 65.0405 368.236 73.3431 339.045 73.3431" fill="#E42A6D"/>
<path d="M171.303 157.147C171.284 156.943 171.265 156.738 171.248 156.533C171.265 156.738 171.284 156.942 171.303 157.147C172.903 155.89 175.807 154.59 179.145 153.365L179.169 153.29C180.344 152.851 181.525 152.437 182.715 152.039C181.525 152.437 180.344 152.851 179.169 153.29L179.145 153.365C175.807 154.59 172.903 155.89 171.303 157.147ZM171.248 156.531C171.244 156.487 171.24 156.443 171.237 156.398C171.24 156.443 171.244 156.487 171.248 156.531ZM171.235 156.374C171.232 156.335 171.228 156.297 171.225 156.257C171.228 156.295 171.232 156.335 171.235 156.374ZM171.221 156.217C171.219 156.185 171.216 156.151 171.213 156.119C171.216 156.151 171.219 156.185 171.221 156.217ZM171.208 156.055C171.207 156.03 171.204 156.006 171.203 155.979C171.204 156.006 171.207 156.03 171.208 156.055ZM171.196 155.893C171.195 155.875 171.193 155.859 171.192 155.842C171.193 155.858 171.195 155.877 171.196 155.893ZM171.183 155.729C171.183 155.719 171.181 155.71 171.181 155.702C171.181 155.711 171.183 155.718 171.183 155.729ZM182.691 152.141C188.819 150.133 195.217 148.494 197.024 147.955C202.288 146.367 207.581 144.882 212.912 143.547C213.104 132.613 216.272 120.245 221.672 109.239C221.685 109.234 221.699 109.229 221.712 109.223C216.301 120.241 213.105 132.607 212.912 143.547C207.581 144.882 202.288 146.367 197.024 147.955C195.217 148.494 188.819 150.133 182.691 152.141Z" fill="#100F0D"/>
<path d="M171.303 157.147C171.284 156.942 171.265 156.738 171.248 156.533V156.531C171.244 156.487 171.24 156.443 171.237 156.398C171.236 156.39 171.236 156.383 171.235 156.374C171.232 156.335 171.228 156.295 171.225 156.257C171.224 156.243 171.223 156.23 171.221 156.217C171.219 156.185 171.216 156.151 171.213 156.119C171.212 156.098 171.211 156.077 171.208 156.055C171.207 156.03 171.204 156.006 171.203 155.979C171.2 155.951 171.197 155.922 171.196 155.893C171.195 155.877 171.193 155.858 171.192 155.842C171.189 155.805 171.185 155.765 171.183 155.729C171.183 155.718 171.181 155.711 171.181 155.702C170.185 142.634 172.013 129.363 176.52 117.185C180.319 118.755 184.565 119.447 188.795 119.447C190.02 119.447 191.245 119.39 192.457 119.278C200.363 118.551 207.804 115.353 214.955 112.129C217.22 111.113 219.452 110.139 221.672 109.239C216.272 120.245 213.104 132.613 212.912 143.547C207.581 144.882 202.288 146.367 197.024 147.955C195.217 148.494 188.819 150.133 182.691 152.141L182.715 152.039C181.525 152.437 180.344 152.851 179.169 153.29L179.145 153.365C175.807 154.59 172.903 155.89 171.303 157.147" fill="#E42A6D"/>
<path d="M416.199 148.123C415.968 146.117 415.711 144.118 415.425 142.133C415.711 144.118 415.968 146.115 416.199 148.123ZM412.451 147.146C412.443 147.146 412.433 147.146 412.425 147.145C412.433 147.146 412.441 147.146 412.451 147.146ZM412.453 147.146C412.52 147.145 412.587 147.143 412.653 147.141C412.587 147.143 412.52 147.145 412.453 147.146ZM409.303 146.451C409.301 146.451 409.3 146.45 409.299 146.45C409.3 146.45 409.301 146.451 409.303 146.451ZM409.253 146.435C409.247 146.433 409.239 146.429 409.231 146.426C408.523 146.182 407.796 145.919 407.091 145.617C396.063 142.822 384.919 140.593 373.695 138.871C373.456 131.687 368.445 124.411 365.212 118.214C362.864 113.698 359.657 105.914 354.841 103.45C354.836 103.447 354.832 103.445 354.828 103.443C354.832 103.445 354.836 103.447 354.841 103.45C359.657 105.914 362.864 113.698 365.212 118.214C368.445 124.411 373.456 131.687 373.695 138.871C384.919 140.593 396.063 142.822 407.091 145.617C407.796 145.919 408.523 146.182 409.231 146.426C409.239 146.429 409.247 146.433 409.253 146.435ZM357.948 136.795C357.813 136.779 357.679 136.765 357.544 136.75C357.679 136.765 357.813 136.779 357.948 136.795C358.059 136.233 358.107 135.663 358.107 135.091C358.107 135.663 358.059 136.233 357.948 136.795ZM273.827 134.997C273.632 133.578 273.565 132.155 273.565 130.731C273.565 132.155 273.632 133.578 273.827 134.997C282.032 134.49 290.247 134.186 298.443 134.069C300.992 134.033 303.54 134.014 306.088 134.014C303.541 134.014 300.991 134.033 298.443 134.069C290.247 134.186 282.032 134.49 273.827 134.997ZM306.115 134.014C306.108 134.014 306.1 134.014 306.092 134.014C306.1 134.014 306.108 134.014 306.115 134.014ZM273.937 118.513C273.959 114.673 274.027 110.818 274.021 106.97C274.023 106.971 274.025 106.973 274.028 106.973C274.039 110.818 273.96 114.675 273.937 118.513M352.464 105.373C352.425 104.529 353.431 103.359 354.357 103.341C353.431 103.359 352.425 104.529 352.464 105.373ZM354.383 103.341C354.381 103.341 354.38 103.341 354.379 103.341C354.38 103.341 354.381 103.341 354.383 103.341Z" fill="#100F0D"/>
<path d="M416.199 148.123C415.047 147.794 413.9 147.457 412.743 147.137C412.712 147.138 412.683 147.139 412.653 147.141C412.587 147.143 412.52 147.145 412.453 147.146C412.452 147.146 412.452 147.146 412.451 147.146C412.441 147.146 412.433 147.146 412.425 147.145C411.367 147.139 410.277 146.79 409.303 146.451C409.301 146.451 409.3 146.45 409.299 146.45C409.283 146.445 409.269 146.439 409.253 146.435C409.247 146.433 409.239 146.429 409.231 146.426C408.523 146.182 407.796 145.919 407.091 145.617C396.063 142.822 384.919 140.593 373.695 138.871C373.456 131.687 368.445 124.411 365.212 118.214C362.864 113.698 359.657 105.914 354.841 103.45C354.836 103.447 354.832 103.445 354.828 103.443C354.685 103.373 354.535 103.341 354.383 103.341C354.381 103.341 354.38 103.341 354.379 103.341C354.372 103.341 354.364 103.341 354.357 103.341C353.431 103.359 352.425 104.529 352.464 105.373C352.465 105.394 352.467 105.414 352.469 105.434C353.199 112.137 355.04 118.619 356.031 125.281C356.499 128.393 358.103 131.806 358.107 135.091C358.107 135.663 358.059 136.233 357.948 136.795C357.813 136.779 357.679 136.765 357.544 136.75C340.505 134.847 323.331 134.015 306.115 134.014C306.108 134.014 306.1 134.014 306.092 134.014C306.091 134.014 306.089 134.014 306.088 134.014C303.54 134.014 300.992 134.033 298.443 134.069C290.247 134.186 282.032 134.49 273.827 134.997C273.632 133.578 273.565 132.155 273.565 130.731C273.567 127.441 273.931 124.135 273.932 120.819C273.932 120.801 273.932 120.782 273.932 120.763C273.932 120.014 273.933 119.263 273.937 118.513C273.96 114.675 274.039 110.818 274.028 106.973C282.611 110.071 290.905 114.07 299.84 116.13C302.66 116.777 305.495 117.062 308.321 117.062C315.092 117.062 321.82 115.421 328.216 113.158C340.175 108.929 351.237 101.778 364.203 100.961C364.757 100.926 365.311 100.91 365.865 100.91C377.788 100.91 389.972 108.455 402.241 108.794C402.575 108.803 402.905 108.809 403.235 108.809C404.563 108.809 405.857 108.731 407.133 108.617C411.127 119.306 413.757 130.525 415.425 142.133C415.711 144.118 415.968 146.117 416.199 148.123" fill="#E42A6D"/>
<path d="M261.723 133.892C263.211 124.055 264.335 114.251 268.411 105.123C268.417 105.124 268.425 105.127 268.432 105.13C264.352 114.252 263.212 124.054 261.723 133.892M229.943 116.264C229.951 116.227 229.957 116.19 229.965 116.152C229.957 116.19 229.951 116.227 229.943 116.264ZM229.976 116.103C229.979 116.086 229.983 116.069 229.987 116.051C229.983 116.069 229.979 116.086 229.976 116.103Z" fill="#100F0D"/>
<path d="M226.739 140.551C226.992 132.321 228.309 124.394 229.943 116.265C229.951 116.227 229.957 116.19 229.965 116.153C229.969 116.137 229.972 116.119 229.976 116.103C229.979 116.086 229.983 116.069 229.987 116.051C230.777 112.19 231.888 108.629 233.205 105.197C239.057 103.541 244.955 102.554 251.144 102.554C254.923 102.554 258.811 102.922 262.864 103.729C264.74 104.098 266.581 104.585 268.411 105.123C264.335 114.251 263.211 124.055 261.723 133.893C261.619 134.578 261.513 135.265 261.405 135.95C250.967 136.879 240.567 138.162 230.264 139.875C229.081 140.078 227.912 140.331 226.739 140.551" fill="#E42A6D"/>
<path d="M420.872 199.59C422.872 197.943 424.565 195.641 426.461 193.967C428.237 192.389 430.188 191.038 432.081 189.611C432.931 188.531 433.775 187.434 434.611 186.346C434.492 186.269 434.336 186.235 434.117 186.278C430.592 186.995 427.448 189.03 424.54 191.065C423.341 191.909 421.911 192.913 420.597 194.053C419.876 183.483 418.065 172.975 415.719 162.567C432.188 158.093 444.264 176.561 443.019 191.419C441.973 203.887 435.197 220.66 420.868 220.728C420.527 220.728 420.067 220.981 419.643 221.335C420.741 214.067 421.087 206.815 420.872 199.59" fill="#F8A29E"/>
<path d="M420.597 194.052C419.876 183.483 418.065 172.975 415.719 162.567C418.065 172.975 419.876 183.483 420.597 194.052C421.911 192.912 423.341 191.908 424.54 191.064C427.448 189.03 430.592 186.995 434.117 186.278C434.179 186.266 434.235 186.259 434.287 186.259C434.235 186.259 434.179 186.266 434.117 186.278C430.592 186.995 427.448 189.03 424.54 191.064C423.341 191.908 421.911 192.912 420.597 194.052ZM434.611 186.346C434.601 186.339 434.592 186.334 434.583 186.328C434.592 186.334 434.601 186.339 434.611 186.346ZM434.315 186.259C434.309 186.259 434.304 186.259 434.297 186.259C434.304 186.259 434.309 186.259 434.315 186.259ZM415.719 162.567C415.821 162.539 415.923 162.512 416.024 162.486C415.923 162.512 415.821 162.539 415.719 162.567Z" fill="#100F0D"/>
<path d="M419.643 221.335C420.535 215.43 420.931 209.535 420.933 203.658C420.933 202.301 420.913 200.944 420.872 199.59C422.872 197.943 424.565 195.641 426.461 193.967C428.237 192.389 430.188 191.038 432.081 189.611C432.931 188.531 433.775 187.434 434.611 186.346C434.601 186.339 434.592 186.334 434.583 186.328C434.509 186.287 434.421 186.262 434.315 186.259C434.309 186.259 434.304 186.259 434.297 186.259C434.293 186.259 434.291 186.259 434.287 186.259C434.235 186.259 434.179 186.266 434.117 186.278C430.592 186.995 427.448 189.03 424.54 191.065C423.341 191.909 421.911 192.913 420.597 194.053C419.876 183.483 418.065 172.975 415.719 162.567C415.821 162.539 415.923 162.513 416.024 162.486C417.548 162.099 419.028 161.927 420.464 161.927C421.405 161.927 422.328 162.001 423.232 162.135C420.884 166.687 420.141 172.41 422.025 176.781C423.333 179.819 427.035 181.203 430.056 181.33C430.243 181.338 430.425 181.341 430.603 181.341C431.385 181.341 432.073 181.274 432.692 181.207C433.312 181.141 433.863 181.074 434.372 181.074C435.789 181.074 436.891 181.589 438.255 184.049C438.979 185.363 440.149 185.925 441.341 185.925C441.856 185.925 442.375 185.821 442.863 185.627C443.116 187.578 443.175 189.529 443.019 191.419C441.973 203.887 435.197 220.66 420.868 220.728C420.527 220.728 420.067 220.981 419.643 221.335" fill="#F36361"/>
<path d="M162.363 200.214C163.6 201.617 164.803 203.034 166.085 204.393C167.393 205.795 168.512 207.322 170.455 207.635H170.615C170.501 212.21 170.539 216.794 170.792 221.378C157.551 223.553 150.413 210.799 150.728 198.045C151.035 185.605 158.432 173.166 174.168 174.578L174.244 174.561C172.493 183.879 171.295 193.258 170.8 202.687C170.484 202.418 170.145 202.147 169.792 201.853C168.685 200.931 165.664 199.455 165.288 199.329C163.267 198.645 161.295 197.919 159.244 197.514C160.205 198.475 161.46 199.194 162.363 200.214" fill="#F8A29E"/>
<path d="M174.168 174.578C173.607 174.527 173.057 174.494 172.517 174.479C173.056 174.493 173.607 174.526 174.168 174.578Z" fill="#100F0D"/>
<path d="M167.895 221.621C154.999 221.621 148.928 206.477 151.203 193.351C151.853 193.798 152.625 194.078 153.436 194.111C153.601 194.119 153.767 194.123 153.931 194.123C159.267 194.123 163.779 189.922 166.58 185.746C168.407 183.011 169.775 178.317 168.812 174.662C169.787 174.538 170.801 174.47 171.859 174.47C172.076 174.47 172.296 174.473 172.517 174.479C173.057 174.494 173.607 174.527 174.168 174.578L174.244 174.561C172.493 183.879 171.295 193.258 170.8 202.687C170.484 202.418 170.145 202.147 169.792 201.853C168.685 200.931 165.664 199.455 165.288 199.329C163.267 198.645 161.295 197.919 159.244 197.514C160.205 198.475 161.46 199.194 162.363 200.214C163.6 201.617 164.803 203.034 166.085 204.393C167.393 205.795 168.512 207.322 170.455 207.635H170.615C170.576 209.207 170.555 210.782 170.553 212.355C170.552 215.362 170.625 218.37 170.792 221.378C169.791 221.542 168.825 221.621 167.895 221.621" fill="#F36361"/>
<path d="M566.672 253.253C566.6 251.169 566.471 249.085 566.263 247.007C564.731 231.314 560.345 216.481 554.449 201.978C554.288 200.459 554.083 198.965 553.849 197.47C553.609 203.321 553.152 209.154 552.473 214.963C552.393 225.251 551.811 235.578 550.413 245.766C549.575 251.895 548.447 257.93 547.113 263.899C544.153 265.207 541.22 266.389 538.347 267.418C528.14 271.082 516.841 273.742 505.352 274.847C505.976 269.85 506.365 264.937 506.648 260.354C507.268 250.366 507.255 240.11 506.176 230.006C505.88 228.57 505.551 227.143 505.208 225.726C502.904 235.492 499.603 245.193 495.897 254.377C493.915 261.459 491.651 268.415 489.216 275.295C479.161 274.88 469.276 273.091 460.176 269.486C469.543 249.185 475.983 227.354 477.947 205.129C479.191 190.979 479.588 175.995 476.507 162.027C474.476 152.834 470.492 144.721 466.841 136.371C466.627 134.803 466.399 133.25 466.148 131.713C463.781 117.134 455.892 103.551 450.347 90.0285C446.433 80.4885 441.939 71.8019 436.425 63.5459C439.933 63.4366 443.441 63.5206 446.999 64.3819C453.249 65.8846 459.164 68.1632 465.135 70.5112C476.029 74.7979 486.484 79.2818 496.547 85.3258C514.951 96.3845 532.391 109.983 545.143 127.458C567.643 158.287 582.909 194.517 590.837 231.947C584.219 240.119 575.777 247.294 566.672 253.253" fill="#F24DA7"/>
<path d="M478.841 189.291C478.988 181.334 478.592 173.337 477.216 165.594C478.592 173.335 478.991 181.335 478.845 189.289C478.844 189.29 478.843 189.29 478.841 189.291M477.205 165.535C477.201 165.511 477.197 165.487 477.192 165.463C477.197 165.487 477.201 165.511 477.205 165.535ZM477.171 165.342C477.168 165.325 477.164 165.307 477.161 165.29C477.164 165.307 477.168 165.325 477.171 165.342ZM477.139 165.166C477.137 165.161 477.137 165.155 477.136 165.15C477.137 165.155 477.137 165.161 477.139 165.166ZM477.108 165.001C477.107 164.993 477.105 164.986 477.104 164.977C477.105 164.985 477.107 164.993 477.108 165.001ZM477.045 164.659C477.044 164.658 477.044 164.658 477.044 164.657C477.044 164.657 477.044 164.658 477.045 164.659ZM476.544 162.198C476.543 162.193 476.541 162.186 476.54 162.181C476.541 162.186 476.543 162.193 476.544 162.198ZM545.363 127.761C545.347 127.738 545.332 127.718 545.316 127.695C545.331 127.717 545.347 127.738 545.363 127.761ZM545.268 127.63C545.227 127.573 545.183 127.514 545.143 127.458C545.184 127.515 545.225 127.573 545.268 127.63ZM446.907 64.3592C446.865 64.3499 446.823 64.3406 446.781 64.3299C446.823 64.3406 446.865 64.3499 446.907 64.3592ZM446.704 64.3126C446.68 64.3073 446.656 64.3006 446.632 64.2952C446.656 64.3006 446.68 64.3073 446.704 64.3126ZM446.581 64.2846C446.552 64.2779 446.524 64.2712 446.495 64.2646C446.524 64.2712 446.552 64.2779 446.581 64.2846ZM446.452 64.2553C446.395 64.2433 446.336 64.2299 446.279 64.2179C446.336 64.2299 446.395 64.2433 446.452 64.2553ZM436.425 63.5459C437.175 63.5233 437.924 63.5086 438.673 63.5086C437.924 63.5086 437.175 63.5233 436.425 63.5459ZM438.701 63.5086C438.695 63.5086 438.687 63.5086 438.68 63.5086C438.687 63.5086 438.695 63.5086 438.701 63.5086Z" fill="#100F0D"/>
<path d="M478.845 189.289C478.991 181.335 478.592 173.335 477.216 165.594C477.212 165.574 477.209 165.554 477.205 165.535C477.201 165.511 477.197 165.487 477.192 165.463C477.185 165.422 477.179 165.382 477.171 165.342C477.168 165.325 477.164 165.307 477.161 165.29C477.153 165.249 477.147 165.207 477.139 165.166C477.137 165.161 477.137 165.155 477.136 165.15C477.127 165.101 477.117 165.05 477.108 165.001C477.107 164.993 477.105 164.985 477.104 164.977C477.084 164.871 477.064 164.765 477.045 164.659C477.044 164.658 477.044 164.657 477.044 164.657C476.889 163.834 476.723 163.015 476.544 162.198C476.543 162.193 476.541 162.186 476.54 162.181C476.529 162.129 476.517 162.078 476.507 162.027C474.476 152.834 470.492 144.721 466.841 136.371C466.627 134.803 466.399 133.25 466.148 131.713C463.781 117.134 455.892 103.551 450.347 90.0286C446.433 80.4886 441.939 71.8019 436.425 63.5459C437.175 63.5233 437.924 63.5086 438.673 63.5086C438.676 63.5086 438.677 63.5086 438.68 63.5086C438.687 63.5086 438.695 63.5086 438.701 63.5086C441.216 63.5086 443.736 63.6739 446.279 64.2179C446.336 64.2299 446.395 64.2432 446.452 64.2552C446.467 64.2579 446.481 64.2619 446.495 64.2646C446.524 64.2712 446.552 64.2779 446.581 64.2846C446.599 64.2886 446.615 64.2912 446.632 64.2952C446.656 64.3006 446.68 64.3073 446.704 64.3126C446.729 64.3179 446.755 64.3246 446.781 64.3299C446.823 64.3406 446.865 64.3499 446.907 64.3592C446.937 64.3672 446.968 64.3739 446.999 64.3819C453.249 65.8846 459.164 68.1632 465.135 70.5112C476.029 74.7979 486.484 79.2819 496.547 85.3259C514.951 96.3846 532.391 109.983 545.143 127.458C545.183 127.514 545.227 127.573 545.268 127.63C545.283 127.651 545.3 127.674 545.316 127.695C545.332 127.718 545.347 127.738 545.363 127.761C549.856 133.941 553.984 140.379 557.897 146.958C553.479 158.313 547.008 168.697 537.937 176.907C532.471 181.862 525.595 184.682 518.568 186.497C516.355 187.065 514.128 187.277 511.891 187.277C508.611 187.277 505.309 186.822 501.999 186.366C498.688 185.911 495.369 185.455 492.056 185.455C490.968 185.455 489.88 185.505 488.795 185.619C485.169 185.999 481.873 187.358 478.845 189.289" fill="#E42A6D"/>
<path d="M566.072 245.179C566.071 245.169 566.069 245.159 566.068 245.15C566.069 245.159 566.071 245.17 566.072 245.179ZM566.053 245.023C565.183 237.355 563.621 229.897 561.565 222.569C561.571 222.565 561.576 222.559 561.581 222.555C563.64 229.885 565.184 237.352 566.053 245.023ZM590.837 231.947C590.761 231.589 590.684 231.226 590.607 230.869C590.684 231.227 590.761 231.587 590.837 231.947ZM590.596 230.817C590.587 230.774 590.577 230.733 590.568 230.689C590.577 230.731 590.587 230.774 590.596 230.817Z" fill="#100F0D"/>
<path d="M566.672 253.252C566.6 251.168 566.471 249.084 566.263 247.007C566.204 246.396 566.14 245.787 566.072 245.179C566.071 245.17 566.069 245.159 566.068 245.15C566.064 245.107 566.059 245.064 566.053 245.023C565.184 237.352 563.64 229.884 561.581 222.555C564.584 220.211 567.461 217.7 570.2 215.055C574.608 210.808 578.672 206.074 582.455 201.042C585.679 210.78 588.401 220.683 590.568 230.688C590.577 230.732 590.587 230.774 590.596 230.816C590.599 230.834 590.603 230.851 590.607 230.868C590.684 231.226 590.761 231.588 590.837 231.947C584.219 240.119 575.777 247.294 566.672 253.252" fill="#E42A6D"/>
<path d="M489.216 275.295C479.161 274.88 469.276 273.091 460.176 269.486C469.276 273.091 479.161 274.88 489.216 275.295C491.651 268.415 493.915 261.459 495.897 254.377C496.093 253.891 496.287 253.406 496.48 252.918C496.288 253.406 496.093 253.893 495.897 254.377C493.915 261.459 491.651 268.415 489.216 275.295ZM460.176 269.486C460.196 269.441 460.217 269.394 460.239 269.349C460.217 269.395 460.197 269.441 460.176 269.486ZM460.243 269.342C465.691 257.51 470.108 245.149 473.261 232.505C473.279 232.491 473.295 232.478 473.312 232.465C470.159 245.126 465.699 257.494 460.243 269.342Z" fill="#100F0D"/>
<path d="M489.216 275.295C479.161 274.88 469.276 273.091 460.176 269.486C460.197 269.441 460.217 269.395 460.239 269.349C460.24 269.347 460.241 269.345 460.243 269.342C465.699 257.494 470.159 245.126 473.312 232.465C474.625 231.441 475.977 230.458 477.407 229.575C479.939 228.014 482.505 227.381 485.092 227.381C491.021 227.381 497.063 230.705 503.073 233.779C501.191 240.282 498.939 246.714 496.48 252.918C496.287 253.406 496.093 253.891 495.897 254.377C493.915 261.459 491.651 268.415 489.216 275.295Z" fill="#E42A6D"/>
<path d="M506.66 260.162C507.156 252.051 507.196 243.759 506.623 235.518C506.636 235.523 506.648 235.53 506.661 235.537C507.235 243.77 507.156 252.054 506.66 260.162M550.448 245.521C550.451 245.498 550.453 245.475 550.456 245.454C550.453 245.477 550.451 245.498 550.448 245.521Z" fill="#100F0D"/>
<path d="M505.352 274.847C505.976 269.85 506.365 264.937 506.648 260.354C506.652 260.29 506.656 260.226 506.66 260.162C507.156 252.054 507.235 243.77 506.661 235.536C510.524 237.359 514.364 238.794 518.14 238.853C518.428 238.857 518.713 238.858 519 238.858C530.943 238.858 542.021 235.081 551.996 229.143C551.673 234.602 551.188 240.053 550.456 245.454C550.453 245.475 550.451 245.498 550.448 245.521C550.436 245.602 550.425 245.685 550.413 245.766C549.575 251.895 548.447 257.93 547.113 263.899C544.153 265.207 541.22 266.389 538.347 267.418C528.14 271.082 516.841 273.742 505.352 274.847" fill="#E42A6D"/>
<path d="M240.647 194.55C239.693 202.342 234.573 208.125 229.204 207.466C223.839 206.807 220.264 199.962 221.223 192.17C222.176 184.378 227.296 178.603 232.665 179.262C238.029 179.92 241.605 186.767 240.647 194.55" fill="#100F0D"/>
<path d="M233.011 189.324C232.564 192.955 230.175 195.655 227.667 195.343C225.165 195.039 223.497 191.848 223.944 188.21C224.392 184.572 226.781 181.879 229.284 182.183C231.787 182.487 233.455 185.687 233.011 189.324" fill="white"/>
<path d="M360.277 192.38C361.059 200.19 357.336 206.959 351.959 207.499C346.581 208.031 341.587 202.147 340.804 194.339C340.019 186.53 343.741 179.76 349.119 179.228C354.495 178.688 359.492 184.572 360.277 192.38" fill="#100F0D"/>
<path d="M351.672 188.962C352.039 192.609 350.3 195.766 347.793 196.019C345.281 196.273 342.947 193.521 342.58 189.882C342.217 186.235 343.952 183.078 346.468 182.825C348.973 182.573 351.305 185.323 351.672 188.962Z" fill="white"/>
<path d="M384.581 233.474C378.093 254.233 367.044 272.189 348.64 284.31C331.652 295.495 310.721 300.543 290.545 299.346C269.677 298.103 249.708 293.741 232.825 281.002C219.559 270.998 209.995 256.723 205.373 240.861C210.527 239.19 214.545 234.969 216.685 229.973C216.997 229.238 217.001 228.714 216.812 228.359C209.944 235.13 199.805 240.541 192.436 236.269C194.416 239.807 197.995 242.111 202.613 241.511C203.251 241.426 203.861 241.275 204.469 241.114C208.884 259.711 219.732 275.033 234.927 286.699C252.419 300.114 277.203 303.693 298.725 303.297C340.495 302.529 377.485 273.953 386.363 233.121C386.649 231.803 384.831 232.682 384.581 233.474" fill="#100F0D"/>
<path d="M376.329 355.659C375.376 353.414 374.359 351.202 373.556 348.89C373.396 348.425 372.671 349.05 372.763 349.429C373.351 351.853 374.068 354.258 375.037 356.554C375.347 357.271 376.604 356.302 376.329 355.659" fill="#100F0D"/>
<path d="M378.929 362.556C378.495 361.779 377.191 362.852 377.491 363.543C378.259 365.3 378.736 367.25 379.719 368.896C380.14 369.604 381.239 368.736 381.157 368.102C380.897 366.092 379.896 364.304 378.929 362.556" fill="#100F0D"/>
<path d="M386.957 381.626C386.177 379.608 385.429 377.557 384.451 375.615C384.139 374.999 383.091 375.843 383.336 376.375C384.252 378.351 384.771 380.495 385.881 382.368C386.223 382.943 387.164 382.148 386.957 381.626Z" fill="#100F0D"/>
<path d="M393.368 393.969C392.293 391.697 391.199 389.502 389.845 387.383C389.251 386.446 387.625 387.754 388.047 388.607C389.165 390.869 390.069 393.157 391.465 395.277C392.111 396.255 393.808 394.887 393.368 393.969Z" fill="#100F0D"/>
<path d="M396.236 401.538C395.56 401.078 394.309 402.212 394.915 402.859C396.429 404.467 396.636 406.734 397.801 408.519C398.392 409.439 399.797 408.307 399.713 407.455C399.489 405.204 398.113 402.83 396.236 401.538" fill="#100F0D"/>
<path d="M406.459 419.754C405.116 417.543 403.567 415.239 401.635 413.508C401.261 413.171 400.744 413.811 400.823 414.175C401.431 416.8 402.693 419.379 404.403 421.468C405.116 422.338 406.989 420.64 406.459 419.754Z" fill="#100F0D"/>
<path d="M412.799 431.325C412.037 429.711 410.852 428.436 409.977 426.892C409.455 425.968 408.079 427.222 408.328 428.025C408.885 429.847 410.127 431.13 411.283 432.583C411.813 433.257 413.115 431.991 412.799 431.325Z" fill="#100F0D"/>
<path d="M424.045 448.554C422.949 445.574 420.455 443.438 418.921 440.711C418.353 439.69 416.709 441.083 417.056 441.994C418.196 444.966 420.125 447.692 422.159 450.124C422.872 450.968 424.351 449.38 424.045 448.554" fill="#100F0D"/>
<path d="M429.028 456.496C428.473 455.483 426.756 456.876 427.157 457.772C428.069 459.798 428.756 461.908 429.512 463.994C429.855 464.93 431.129 463.682 431.133 463.09C431.153 460.65 430.167 458.607 429.028 456.496" fill="#100F0D"/>
<path d="M226.735 355.211C226.575 354.858 226.089 355.238 225.996 355.449C225.216 357.322 223.823 359.011 222.552 360.573C221.801 361.51 222.973 361.915 223.675 361.315C224.729 360.429 225.52 359.423 226.191 358.209C226.671 357.331 227.169 356.199 226.735 355.211Z" fill="#100F0D"/>
<path d="M216.705 369.647C215.875 372.231 213.084 373.716 212.261 376.256C211.912 377.338 212.953 377.396 213.612 376.831C214.739 375.86 215.571 374.502 216.385 373.269C217.149 372.121 217.689 370.838 217.749 369.444C217.777 368.811 216.816 369.308 216.705 369.647" fill="#100F0D"/>
<path d="M205.592 385.231C203.888 387.594 201.561 389.611 200.097 392.119C199.645 392.895 200.241 393.782 201.072 393.106C203.508 391.106 205.305 388.253 206.816 385.518C207.328 384.597 206.001 384.674 205.592 385.231" fill="#100F0D"/>
<path d="M195.88 398.323C195.383 398.611 194.88 398.711 194.408 399.058C193.939 399.414 193.487 399.775 193.031 400.144C192.052 400.93 191.175 401.76 190.44 402.779C189.705 403.8 190.655 404.754 191.681 404.031C192.592 403.364 193.352 402.606 194.095 401.75C194.492 401.302 194.897 400.862 195.311 400.427C195.716 399.995 195.952 399.455 196.34 399.024C196.763 398.56 196.497 397.97 195.88 398.323" fill="#100F0D"/>
<path d="M185.737 408.963C184.4 409.726 183.328 411.106 182.428 412.335C181.872 413.107 182.611 413.887 183.387 413.288C184.675 412.302 185.772 410.933 186.54 409.502C186.887 408.878 186.168 408.718 185.737 408.963" fill="#100F0D"/>
<path d="M176.097 419.182C175.097 420.026 174.147 420.919 173.117 421.722C172.113 422.511 170.973 423.211 170.205 424.242C169.601 425.039 170.112 426.205 171.18 425.694C172.425 425.085 173.435 423.946 174.384 422.963C175.337 421.987 176.296 420.958 176.992 419.781C177.465 418.982 176.696 418.674 176.097 419.182" fill="#100F0D"/>
<path d="M164.604 428.259C162.996 429.163 161.277 429.856 159.661 430.742C159.112 431.046 158.628 431.475 158.5 432.127C158.365 432.794 158.843 433.223 159.497 433.122C161.797 432.767 164.077 430.877 165.253 428.918C165.604 428.327 165.173 427.939 164.604 428.259" fill="#100F0D"/>
<path d="M152.592 436.06C151.448 436.296 150.435 436.914 149.481 437.571C148.425 438.306 147.045 439.158 146.209 440.13C145.568 440.879 145.623 442.071 146.864 441.674C147.903 441.336 148.776 440.314 149.565 439.588C150.557 438.676 151.565 437.832 152.664 437.047C152.988 436.811 153.305 435.916 152.592 436.06" fill="#100F0D"/>
<path d="M140.356 446.535C139.317 447.955 137.928 449.06 136.852 450.444C135.949 451.61 135.045 453.83 136.277 455.027C137.012 455.747 138.152 454.715 138.469 454.066C139.029 452.875 139.064 451.559 139.587 450.352C140.119 449.128 140.888 448.03 141.331 446.755C141.6 445.963 140.697 446.063 140.356 446.535" fill="#100F0D"/>
<path d="M138.423 465.107C137.949 463.984 137.569 462.836 137.029 461.739C136.679 461.038 135.653 461.934 135.7 462.482C135.899 464.719 135.439 468.695 137.852 469.894C138.667 470.299 139.819 469.118 139.723 468.324C139.579 467.134 138.879 466.196 138.423 465.107" fill="#100F0D"/>
<path d="M149.485 473.979C148.763 473.768 148.08 473.727 147.336 473.634C146.597 473.532 145.885 473.254 145.184 473.01C144.483 472.764 143.056 474.09 143.833 474.622C145.251 475.575 146.669 476.664 148.46 476.318C149.152 476.183 150.78 474.367 149.485 473.979Z" fill="#100F0D"/>
<path d="M219.656 557.864C218.276 560.203 217.631 563.242 217.867 565.952C217.976 567.21 219.644 566.492 220.028 565.808C221.455 563.294 220.767 560.694 221.269 557.983C221.472 556.868 220.02 557.25 219.656 557.864Z" fill="#100F0D"/>
<path d="M219.556 573.929C219.387 572.959 218.124 573.794 218.019 574.411C217.487 577.584 216.921 580.962 216.812 584.178C216.773 585.411 218.517 584.363 218.753 583.798C219.972 580.918 220.091 576.969 219.556 573.929Z" fill="#100F0D"/>
<path d="M218.235 596.679C218.149 595.785 216.879 596.553 216.812 597.127C216.461 600.047 215.208 603.213 216.005 606.118C216.288 607.147 217.668 605.822 217.795 605.34C218.508 602.572 218.508 599.517 218.235 596.679Z" fill="#100F0D"/>
<path d="M217.212 615.97C217.099 615.167 216.009 615.859 215.939 616.374C215.473 619.743 214.951 623.084 215.861 626.427C216.179 627.584 218.036 626.098 217.964 625.254C217.689 622.156 217.639 619.05 217.212 615.97Z" fill="#100F0D"/>
<path d="M215.968 634.854C215.715 634.515 215.187 635.106 215.208 635.377C215.325 637.039 214.769 638.693 214.976 640.349C215.128 641.555 216.777 640.509 216.888 639.741C217.128 637.993 217.081 636.297 215.968 634.854" fill="#100F0D"/>
<path d="M226.545 664.694C225.392 663.478 224.232 662.39 223.261 661.023C222.32 659.704 221.235 658.396 220.04 657.299C219.508 656.808 218.315 657.831 218.695 658.414C220.504 661.234 221.215 665.572 224.519 667.108C225.633 667.623 227.481 665.682 226.545 664.694Z" fill="#100F0D"/>
<path d="M358.632 557.89C358.523 557.122 357.449 557.773 357.391 558.278C357.104 560.938 357.079 563.605 356.691 566.249C356.463 567.775 358.428 566.754 358.695 565.859C359.475 563.199 358.999 560.575 358.632 557.89" fill="#100F0D"/>
<path d="M359.695 575.694C359.665 575.094 359.02 575.01 358.573 575.203C358.007 575.449 357.593 575.998 357.581 576.614C357.543 578.419 357.72 580.167 358.285 581.89C358.648 583.013 360.375 581.561 360.307 580.758C360.168 579.062 359.78 577.399 359.695 575.694" fill="#100F0D"/>
<path d="M361.156 589.816C360.699 588.431 358.408 590.179 358.581 591.259C358.784 592.56 358.903 593.876 359.087 595.186C359.287 596.57 359.304 598.139 359.981 599.38C360.624 600.571 362.215 599.203 362.388 598.334C362.945 595.556 362.029 592.45 361.156 589.816" fill="#100F0D"/>
<path d="M362.169 606.091C361.848 604.953 360.016 606.405 360.104 607.241C360.429 610.297 360.201 613.698 361.072 616.653C361.417 617.843 363.051 616.331 363.187 615.725C363.9 612.583 363.043 609.123 362.169 606.091" fill="#100F0D"/>
<path d="M363.207 624.023C362.776 622.832 360.767 624.335 360.961 625.28C361.177 626.352 361.345 627.432 361.452 628.53C361.561 629.678 361.585 630.691 362.127 631.73C362.548 632.556 363.731 631.754 363.941 631.155C364.807 628.698 364.06 626.394 363.207 624.023" fill="#100F0D"/>
<path d="M362.207 657.332C361.971 655.636 359.653 657.096 359.509 658.186C359.332 659.57 358.927 660.92 358.856 662.306C358.792 663.538 360.523 662.972 360.973 662.474C361.712 661.655 362.105 660.904 362.316 659.823C362.476 659.004 362.32 658.143 362.207 657.332" fill="#100F0D"/>
<path d="M296.609 296.155C296.02 296.155 295.429 296.15 294.843 296.136C272.931 295.682 245.115 290.215 228.131 276.036C227.567 275.499 227.017 274.948 226.485 274.383C221.553 269.138 216.081 262.279 214.539 254.792C215.977 256.899 218.676 261.838 218.855 262.159C229.151 280.459 263.919 291.932 291.667 291.932C291.708 291.932 291.749 291.932 291.791 291.932C318.031 291.915 349.189 280.858 366.043 260.041C366.096 259.977 366.163 259.95 366.229 259.95C366.425 259.95 366.624 260.185 366.495 260.387C351.776 283.439 323.372 296.156 296.609 296.155Z" fill="#FABEBC"/>
<path d="M228.131 276.036C222.763 271.555 218.477 266.203 215.803 259.864C213.921 255.407 213.453 253.853 213.719 253.853C213.847 253.853 214.145 254.216 214.539 254.792C216.081 262.279 221.553 269.138 226.485 274.383C227.017 274.949 227.567 275.499 228.131 276.036" fill="#F8A4A4"/>
<path d="M200.609 233.69C198.868 233.69 197.129 233.485 195.419 233.051C190.685 230.893 188.476 226.17 188.571 220.533C188.577 220.225 188.855 220.042 189.115 220.042C189.316 220.042 189.507 220.151 189.553 220.399C190.669 226.318 194.509 230.915 200.755 230.915C200.957 230.915 201.164 230.91 201.372 230.9C206.699 230.646 210.817 228.342 215.592 226.283C215.652 226.257 215.716 226.245 215.779 226.245C216.083 226.245 216.361 226.527 216.161 226.849C215.339 228.206 214.231 229.399 212.937 230.409C209.019 232.498 204.803 233.69 200.609 233.69" fill="#FABEBC"/>
<path d="M201.428 234.279C200.545 234.279 199.679 234.212 198.844 234.075C197.583 233.864 196.441 233.518 195.419 233.051C197.129 233.485 198.868 233.69 200.609 233.69C204.803 233.69 209.019 232.498 212.937 230.408C209.747 232.9 205.423 234.279 201.428 234.279Z" fill="#F8A4A4"/>
<path d="M381.737 79.2045C348.273 84.9712 318.647 83.9231 285.94 75.6591C273.185 72.4431 260.868 67.3445 249.515 60.7271C235.556 52.5725 232.044 42.6938 223.743 30.0498C223.447 29.6018 222.704 29.6365 222.564 30.2005C215.908 56.6578 252.719 78.4365 272.264 85.6551C308.577 99.0511 346.683 94.9232 382.327 81.3405C383.665 80.8352 383.151 78.9605 381.737 79.2045Z" fill="white"/>
<path d="M109.78 214.219C95.7917 179.026 59.7079 147.718 24.8604 178.256C23.8563 179.127 25.1307 180.52 26.2031 179.996C44.3693 171.135 57.3193 171.246 74.0036 182.386C87.612 191.476 95.8421 204.384 106.905 215.891C108.032 217.064 110.434 215.864 109.78 214.219" fill="white"/>
<path d="M562.937 157.882C553.352 177.414 546.737 192.768 522.583 195.866C506.737 197.892 495.205 194.247 483.273 206.968C482.628 207.66 483.441 208.698 484.269 208.259C503.968 197.766 525.625 211.789 545.277 199.21C557.907 191.123 565.587 173.152 565.875 158.675C565.9 157.164 563.639 156.447 562.937 157.882" fill="white"/>
<path d="M363.435 525.298C332.703 533.747 302.417 536.524 270.656 536.16C255.917 535.992 241.225 535.064 226.84 531.67C213.355 528.479 202.799 520.958 190.744 514.811C190.477 514.678 190.233 514.947 190.351 515.208C201.279 539.066 239.773 543.311 262.397 545.26C297.181 548.258 332.956 542.543 364.212 527.128C365.247 526.614 364.512 525.002 363.435 525.298Z" fill="white"/>
<path d="M240.252 703.474C240.249 703.474 240.249 703.474 240.248 703.474C240.249 703.474 240.249 703.474 240.252 703.474ZM240.268 703.472C251.245 703.468 261.703 698.858 264.377 686.816C261.703 698.859 251.247 703.468 240.268 703.472ZM234.741 703.1C234.705 703.096 234.668 703.091 234.632 703.086C219.923 701.086 216.559 686.211 214.524 673.827C213.941 670.274 213.497 666.711 213.144 663.132C213.497 666.711 213.941 670.274 214.524 673.827C216.559 686.211 219.923 701.086 234.632 703.086C234.668 703.091 234.705 703.096 234.741 703.1ZM264.447 686.492C264.451 686.478 264.452 686.466 264.456 686.451C264.452 686.466 264.451 686.478 264.447 686.492ZM224.715 674.762C219.739 672.35 215.697 668.218 213.175 663.194C215.688 668.196 219.736 672.251 224.684 674.672C224.693 674.702 224.704 674.732 224.715 674.762ZM257.837 669.65C257.839 669.642 257.84 669.632 257.843 669.624C260.912 667.42 263.493 664.711 265.2 661.427C263.491 664.72 260.911 667.446 257.837 669.65ZM213.173 663.19C213.163 663.17 213.153 663.151 213.144 663.132C213.153 663.151 213.163 663.17 213.173 663.19Z" fill="#100F0D"/>
<path d="M240.252 703.474C240.249 703.474 240.249 703.474 240.248 703.474C238.416 703.472 236.568 703.344 234.741 703.1C234.705 703.096 234.668 703.091 234.632 703.086C219.923 701.086 216.559 686.211 214.524 673.827C213.941 670.274 213.497 666.711 213.144 663.132C213.153 663.151 213.163 663.17 213.173 663.19C213.173 663.191 213.175 663.192 213.175 663.194C215.697 668.218 219.739 672.35 224.715 674.762C226.691 680.526 229.377 685.752 232.677 689.875C234.431 692.059 237.431 693.132 240.44 693.132C243.48 693.132 246.529 692.035 248.307 689.875C253.349 683.754 256.307 676.883 257.837 669.65C260.911 667.446 263.491 664.72 265.2 661.427C265.539 665.086 265.756 668.754 265.755 672.412C265.753 677.044 265.401 681.663 264.499 686.238C264.485 686.308 264.471 686.38 264.456 686.451C264.452 686.466 264.451 686.478 264.447 686.492C264.424 686.6 264.401 686.71 264.377 686.816C261.703 698.858 251.245 703.468 240.268 703.472C240.263 703.472 240.257 703.474 240.252 703.474" fill="#8C191D"/>
<path d="M262.263 643.872C260.872 643.331 259.455 642.904 258.024 642.543C258.021 642.531 258.02 642.519 258.017 642.507C259.451 642.871 260.868 643.324 262.263 643.872ZM262.096 637.047C261.933 636.975 261.769 636.904 261.607 636.835C261.769 636.904 261.933 636.975 262.096 637.047Z" fill="#100F0D"/>
<path d="M263.059 644.198C262.795 644.085 262.529 643.977 262.263 643.873C260.868 643.325 259.451 642.871 258.017 642.507C257.627 639.953 257.152 637.423 256.609 634.913C258.264 635.482 259.925 636.114 261.607 636.835C261.769 636.905 261.933 636.975 262.096 637.047C262.415 639.429 262.735 641.817 263.059 644.198" fill="#8C191D"/>
<path d="M212.417 652.817C212.312 650.647 212.261 648.47 212.203 646.299C212.261 648.47 212.312 650.647 212.417 652.817C215.176 651.147 218.088 649.566 221.104 648.139C218.087 649.567 215.173 651.154 212.417 652.817Z" fill="#100F0D"/>
<path d="M212.417 652.817C212.312 650.647 212.261 648.47 212.203 646.299C213.723 643.278 215.913 640.906 218.804 639.217C220.061 638.349 221.429 637.63 222.831 636.979C221.893 640.551 221.332 644.309 221.104 648.139C218.088 649.566 215.176 651.147 212.417 652.817" fill="#8C191D"/>
<path d="M338.949 703.474C338.944 703.474 338.939 703.472 338.933 703.472C338.939 703.472 338.944 703.474 338.949 703.474ZM338.953 703.474C340.784 703.472 342.632 703.344 344.457 703.1C342.631 703.344 340.785 703.472 338.953 703.474ZM314.727 686.358C314.719 686.318 314.709 686.278 314.701 686.238C313.799 681.663 313.445 677.044 313.444 672.412C313.445 677.044 313.799 681.663 314.701 686.238C314.709 686.278 314.719 686.318 314.727 686.358ZM322.321 670.31C318.907 668.05 316.02 665.192 314.132 661.676C316.019 665.191 318.908 668.05 322.321 670.31ZM361.699 669.412C361.7 669.403 361.7 669.396 361.7 669.387C363.081 667.908 364.305 666.267 365.327 664.488C364.305 666.274 363.087 667.928 361.699 669.412ZM314.129 661.672C314.123 661.659 314.115 661.644 314.107 661.631C314.115 661.644 314.123 661.659 314.129 661.672ZM314.101 661.619C314.095 661.607 314.088 661.594 314.081 661.582C314.088 661.594 314.095 661.607 314.101 661.619ZM314.072 661.564C314.067 661.554 314.06 661.542 314.055 661.531C314.06 661.542 314.065 661.552 314.072 661.564ZM314.041 661.507C314.037 661.498 314.032 661.488 314.027 661.479C314.032 661.488 314.037 661.498 314.041 661.507Z" fill="#100F0D"/>
<path d="M338.949 703.474C338.944 703.474 338.939 703.472 338.933 703.472C327.817 703.468 317.231 698.74 314.727 686.358C314.719 686.318 314.709 686.278 314.701 686.238C313.799 681.663 313.445 677.044 313.444 672.412C313.443 668.754 313.661 665.086 314 661.427C314.009 661.444 314.019 661.462 314.027 661.479C314.032 661.488 314.037 661.498 314.041 661.507C314.047 661.515 314.051 661.523 314.055 661.531C314.06 661.542 314.067 661.554 314.072 661.564C314.075 661.57 314.077 661.576 314.081 661.582C314.088 661.594 314.095 661.607 314.101 661.619C314.103 661.623 314.105 661.627 314.107 661.631C314.115 661.644 314.123 661.659 314.129 661.672C314.131 661.674 314.131 661.676 314.132 661.676C316.02 665.192 318.907 668.05 322.321 670.31C322.908 670.698 323.511 671.07 324.127 671.422C324.517 684.919 329.057 696.172 341.744 696.172C341.935 696.172 342.128 696.17 342.323 696.164C356.205 695.802 360.665 683.515 361.699 669.412C363.087 667.928 364.305 666.274 365.327 664.488C365.581 664.044 365.823 663.592 366.052 663.132C365.705 666.711 365.253 670.274 364.672 673.827C362.641 686.211 359.277 701.086 344.568 703.086C344.531 703.091 344.493 703.096 344.457 703.1C342.632 703.344 340.784 703.472 338.953 703.474C338.952 703.474 338.951 703.474 338.949 703.474" fill="#8C191D"/>
<path d="M319.94 642.846C322.732 642.028 325.593 641.561 328.491 641.39C328.489 641.395 328.488 641.399 328.487 641.403C325.592 641.571 322.731 642.031 319.94 642.846Z" fill="#100F0D"/>
<path d="M316.136 644.198C316.461 641.817 316.783 639.429 317.103 637.047C322.016 634.903 326.747 633.342 331.669 632.693C330.569 635.137 329.485 638.095 328.491 641.39C325.593 641.561 322.732 642.029 319.94 642.846C318.656 643.219 317.388 643.669 316.136 644.198" fill="#8C191D"/>
<path d="M366.783 652.817C365.093 651.795 363.343 650.815 361.548 649.87C361.548 649.867 361.548 649.865 361.548 649.862C363.343 650.803 365.091 651.794 366.783 652.817C366.888 650.647 366.939 648.47 366.997 646.299C366.939 648.47 366.888 650.647 366.783 652.817Z" fill="#100F0D"/>
<path d="M366.783 652.817C365.091 651.794 363.343 650.803 361.548 649.862C361.316 646.134 361.028 642.617 360.817 639.505C363.489 641.177 365.553 643.438 366.997 646.299C366.939 648.47 366.888 650.647 366.783 652.817" fill="#8C191D"/>
</svg>
