<?xml version="1.0" encoding="iso-8859-1"?>
<!-- Generator: Adobe Illustrator 19.0.0, SVG Export Plug-In . SVG Version: 6.00 Build 0)  -->
<svg xmlns="http://www.w3.org/2000/svg" xmlns:xlink="http://www.w3.org/1999/xlink" version="1.1" id="Layer_1" x="0px" y="0px" viewBox="0 0 512 512" style="enable-background:new 0 0 512 512;" xml:space="preserve">
<polyline style="fill: #d3cccc;" points="271.722,195.893 271.722,354.714 243.82,354.714 243.82,195.893 "/>
<path style="fill:#76C7F4;" d="M257.771,512L257.771,512c-21.907,0-39.139-18.719-37.329-40.552l8.226-99.216  c0.82-9.901,9.096-17.519,19.031-17.519h20.143c9.935,0,18.211,7.618,19.031,17.519l8.226,99.216  C296.91,493.281,279.678,512,257.771,512z"/>
<path style="fill:#68B9DD;" d="M232.545,471.448l8.226-99.216c0.821-9.901,9.096-17.519,19.031-17.519h-12.103  c-9.935,0-18.211,7.618-19.031,17.519l-8.226,99.216C218.632,493.281,235.862,512,257.77,512l0,0c2.063,0,4.084-0.167,6.051-0.486  C244.891,508.446,230.905,491.225,232.545,471.448z"/>
<path style="fill: #d3cccc;" d="M320.982,34.202c-0.568-2.98-1.107-5.805-1.615-8.461c-1.062-5.311-2.037-9.943-2.904-13.755  c-0.843-3.813-1.626-6.81-2.113-8.852C313.847,1.089,313.538,0,313.538,0s-0.309,1.089-0.814,3.133  c-0.487,2.043-1.27,5.039-2.113,8.852c-0.867,3.813-1.843,8.444-2.904,13.755c-0.507,2.656-1.046,5.481-1.615,8.461  c-0.315,1.49-0.031,74.837-0.031,74.837v0.133l-0.035,0.689c-0.03,0.49-0.041,1.22-0.111,1.292  c-0.065,0.231-0.056,0.398-0.126,0.691c-0.547,2.546-2.014,4.904-4.064,6.598c-2.049,1.668-4.62,2.548-7.267,2.609l-0.12-0.006  l-0.408-0.02l-0.816-0.041c-0.115-0.009-0.32-0.008-0.361-0.026l-0.164-0.044c-0.11-0.027-0.22-0.049-0.331-0.065  c-0.184-0.002-0.529-0.108-0.849-0.192l-0.482-0.116c-0.158-0.05-0.309-0.119-0.464-0.174c-1.24-0.443-2.428-1.073-3.453-1.923  c-2.05-1.694-3.517-4.053-4.064-6.598c-0.102-0.643-0.25-76.896-0.398-77.642c-0.572-2.98-1.115-5.805-1.625-8.461  c-1.059-5.311-2.028-9.943-2.879-13.755c-0.828-3.813-1.587-6.81-2.059-8.852C275.472,1.089,275.199,0,275.199,0  s-0.273,1.089-0.785,3.133c-0.473,2.043-1.231,5.039-2.06,8.852c-0.851,3.813-1.82,8.444-2.879,13.755  c-0.511,2.656-1.053,5.481-1.625,8.461c-0.149,0.744-0.127,74.437-0.127,74.437l0.003,0.66c0,0.02-0.003,0.04-0.003,0.061  c0,6.448-5.245,11.694-11.694,11.694c-6.448,0-11.694-5.245-11.694-11.694c0-0.015-0.002-0.028-0.002-0.043l0.002-0.078v-0.2v-0.399  c0,0,0.285-72.948-0.031-74.437c-0.568-2.98-1.107-5.805-1.615-8.461c-1.062-5.311-2.037-9.943-2.904-13.755  c-0.843-3.813-1.626-6.81-2.113-8.852C237.168,1.089,236.86,0,236.86,0s-0.309,1.089-0.814,3.133  c-0.487,2.043-1.27,5.039-2.113,8.852c-0.867,3.813-1.843,8.444-2.904,13.755c-0.507,2.656-1.046,5.481-1.615,8.461  c-0.315,1.49-0.031,74.437-0.031,74.437v0.399v0.133l-0.035,0.689c-0.03,0.49-0.041,1.22-0.111,1.292  c-0.065,0.231-0.056,0.398-0.126,0.691c-0.547,2.546-2.013,4.904-4.064,6.598c-2.049,1.668-4.619,2.548-7.267,2.609l-0.12-0.006  l-0.408-0.02l-0.816-0.041c-0.115-0.009-0.32-0.008-0.36-0.026l-0.165-0.044c-0.11-0.027-0.22-0.049-0.331-0.065  c-0.184-0.002-0.529-0.108-0.849-0.192l-0.482-0.116c-0.158-0.05-0.309-0.119-0.464-0.174c-1.24-0.443-2.428-1.073-3.453-1.923  c-2.05-1.694-3.517-4.053-4.064-6.598c-0.102-0.643-0.238-1.283-0.235-1.944l-0.033-0.491l-0.003-0.769  c0,0,0.207-71.41,0.174-72.174c-0.014-0.764-0.152-1.518-0.301-2.262c-0.572-2.98-1.115-5.805-1.625-8.461  c-1.059-5.311-2.028-9.943-2.879-13.755c-0.828-3.813-1.587-6.81-2.059-8.852C198.794,1.089,198.521,0,198.521,0  s-0.273,1.089-0.785,3.133c-0.472,2.043-1.231,5.039-2.059,8.852c-0.851,3.813-1.82,8.444-2.879,13.755  c-0.511,2.656-1.053,5.481-1.625,8.461c-0.149,0.744-0.286,1.499-0.301,2.262c-0.033,0.764,0.175,100.829,0.175,100.829  c0,35.833,29.151,64.984,64.984,64.984s64.984-29.152,64.984-64.984v-28.054C321.013,109.239,321.299,35.692,320.982,34.202z"/>
<path style="fill: #afacac;" d="M191.016,137.295c0,35.833,29.151,64.984,64.984,64.984s64.984-29.152,64.984-64.984v-21.558  c0,35.833-29.151,64.984-64.984,64.984s-64.984-29.152-64.984-64.984L191.016,137.295L191.016,137.295z"/>
<g>
</g>
<g>
</g>
<g>
</g>
<g>
</g>
<g>
</g>
<g>
</g>
<g>
</g>
<g>
</g>
<g>
</g>
<g>
</g>
<g>
</g>
<g>
</g>
<g>
</g>
<g>
</g>
<g>
</g>
</svg>