<svg viewBox="0 0 120 113" fill="none" xmlns="http://www.w3.org/2000/svg">
<path d="M41.83 97.96L74.35 102.46L114.19 78.11C114.19 78.11 109.26 66.28 106.73 60.23C104.2 54.18 100.11 45.87 100.11 45.87C100.11 45.87 102.34 39.8 103.35 32.5C104.52 24.01 103.49 21.85 103.49 21.85L82.28 12.18C82.28 12.18 79.14 14.48 76.32 19.69C73.5 24.9 72.52 27.01 72.52 27.01C72.52 27.01 65.34 26.45 62.1 26.45C58.86 26.45 53.51 27.15 53.51 27.15C53.51 27.15 48.44 17.86 45.77 14.62C43.1 11.38 38.92 8.24001 38.92 8.24001C38.92 8.24001 20.06 17.63 19.21 24.38C18.36 31.13 19.16 35.88 19.73 38.83C20.29 41.79 21.98 46.01 21.98 46.01C21.98 46.01 20.29 48.54 18.04 54.32C15.79 60.1 13.25 67.13 11.42 70.09C9.59 73.05 4.66 79.8 4.66 79.8L41.83 97.96V97.96Z" fill="#FF6011"/>
<path d="M27.66 0.729996C25.64 1.29 23.25 5.89 21.09 13.49C19.95 17.5 19.12 24.85 19.12 24.85C19.12 24.85 25.78 19.69 31.7 17.53C37.62 15.37 45.12 13.87 45.12 13.87C45.12 13.87 41.67 9.93 37.61 6.36C34.1 3.27 29.4 0.249996 27.66 0.729996V0.729996Z" fill="#575A5B"/>
<path d="M96.36 1.47999C94.9 1.08999 89.87 3.65999 86.32 7.01999C82.77 10.38 79.37 15 79.37 15C79.37 15 86.5 15.28 92.98 18.57C99.46 21.85 103.87 24.76 103.87 24.76C103.87 24.76 103.73 18.02 102.27 12.18C100.77 6.16999 98.8 2.13999 96.36 1.47999V1.47999Z" fill="#575A5B"/>
<path d="M29.73 9.55C29.07 9.93 25.63 16.66 25.88 26.73C26.07 34.24 27.57 40.24 27.94 40.24C28.13 40.24 31.78 35.91 35.64 33.2C39.5 30.49 44.46 29.01 44.6 28.68C44.88 28.02 41.74 21.47 37.52 15.94C33.3 10.41 30.38 9.18 29.73 9.55V9.55Z" fill="#FF9411"/>
<path d="M82.1 29.45C81.89 28.49 84.54 20.35 87.26 16.03C89.98 11.71 93.83 7.4 94.86 7.58C95.89 7.77 99.93 17.25 98.61 25.88C97.3 34.51 95.61 39.49 95.14 39.58C94.88 39.63 92.1 36.33 88.66 33.67C85.8 31.45 82.18 29.83 82.1 29.45V29.45Z" fill="#FF9411"/>
<path d="M0.730004 80.41C0.580004 79.67 4.58 79 7.3 77.69C10.02 76.38 15.65 73.84 24.29 74.87C32.92 75.9 37.26 78.5 43.44 82.66C49.63 86.84 52.36 96.64 52.36 96.64L66.53 99.64C66.53 99.64 71.46 88.61 75.07 85.19C78.1 82.31 86.27 75.83 96.75 74.87C106.98 73.93 111.11 76.18 114.58 77.5C116.98 78.41 119.08 78.91 119.37 79.66C119.65 80.41 115.24 83.41 115.24 83.41C115.24 83.41 119.37 84.07 119.46 84.63C119.6 85.47 116.36 87.35 114.11 88.76C111.86 90.17 96.11 98.23 90.27 101.24C87.17 102.84 74.78 107.43 72.91 107.34C71.03 107.25 49.07 106.21 47.57 106.12C46.07 106.03 31.33 100.86 23.73 97.95C15.3 94.73 0.190004 87.07 0.550004 85.66C0.740004 84.91 5.9 84.35 5.9 84.35C5.9 84.35 0.910004 81.35 0.730004 80.41V80.41Z" fill="#DFDFDF"/>
<path d="M60.13 112.7C77.1 113.53 77.77 99.28 75.99 93.18C74.21 87.08 73.46 87.08 73.46 87.08C73.46 87.08 69.85 91.26 68.02 96.47C67.45 98.1 52.35 96.66 52.35 96.66C52.35 96.66 51.6 93.66 50.19 90.93C49.26 89.13 47.84 87.22 47.84 87.22C47.84 87.22 45.31 90.65 44.84 95.24C44.37 99.84 42.87 111.85 60.13 112.7V112.7Z" fill="#FEE9C9"/>
<path d="M48.59 103.45C47.84 104.31 49.86 106.48 50.84 107.46C51.83 108.45 53.94 109.81 55.2 109.92C56.75 110.06 60.48 106.82 60.48 106.82C60.48 106.82 64.3 110.36 66.42 110.29C68.53 110.22 71.11 107.24 72.03 106.25C72.59 105.64 73.7 104.5 72.8 103.43C72.03 102.51 70.86 103.39 69.91 104.27C67.95 106.11 66.51 107.46 66.25 107.51C65.83 107.58 60.76 102.93 60.76 102.93C60.76 102.93 55.9 106.59 54.99 106.59C54.44 106.59 52.75 105.06 51.4 103.77C50.53 102.97 49.58 102.32 48.59 103.45V103.45Z" fill="#4A4A4C"/>
<path d="M60.7 92.82C57.04 92.85 51.06 93.03 51.41 97.04C51.76 101.05 53.73 104.71 60.98 104.64C68.23 104.57 70.06 100.77 70.2 96.97C70.28 94.72 69.43 92.75 60.7 92.82V92.82Z" fill="#2D2A25"/>
<path d="M41.9 89.94C41.57 90.93 39.79 91.21 38.03 90.29C36.27 89.37 33.03 87.47 30.29 86.21C27.99 85.15 25.43 84.52 25.64 83.04C25.85 81.56 28.81 82.62 31.27 83.39C33.73 84.16 38.8 86.28 39.86 86.91C40.92 87.54 42.4 88.46 41.9 89.94V89.94Z" fill="white"/>
<path d="M32.19 91.06C29.43 90.19 24.57 88.45 24.31 90.22C24.1 91.63 28.32 92.62 31.07 94.16C33.46 95.5 37.72 97.8 38.53 95.22C39.23 92.96 34.86 91.91 32.19 91.06Z" fill="white"/>
<path d="M79.98 90.15C80.76 91.91 83.38 90.14 86.03 88.81C89.13 87.26 93.21 85.5 94.41 85.15C95.61 84.8 96.52 84.31 96.31 83.53C96.1 82.76 94.21 82.67 92.79 82.97C90.75 83.39 87.44 84.1 84.55 85.57C82.74 86.5 78.93 87.75 79.98 90.15V90.15Z" fill="white"/>
<path d="M83.15 95.64C83.77 97.71 88.71 95.15 91.1 94.16C93.49 93.17 98.21 91.63 97.79 90.36C97.31 88.93 91.31 90.34 89.62 90.78C87.23 91.41 82.31 92.82 83.15 95.64Z" fill="white"/>
<path d="M81.67 66.71C80.68 69.67 77.96 72.93 74.84 72.27C71.72 71.61 70.48 68.4 71.11 63.82C71.7 59.55 75.17 57.88 78.29 58.54C81.41 59.2 83.04 62.61 81.67 66.71V66.71Z" fill="#2D2A25"/>
<path d="M49.6 64.25C50.2 67.31 49.87 70.91 46.76 71.92C43.65 72.92 39.94 71.53 38.73 67.07C37.39 62.13 39.38 59.88 42.49 58.88C45.61 57.87 48.76 60.01 49.6 64.25V64.25Z" fill="#2D2A25"/>
<path d="M44.02 60.51C44.88 61.37 44.37 62.9 43.53 63.68C43.02 64.15 41.42 65.23 40.36 63.82C39.58 62.78 40.15 61.64 41.06 60.72C41.97 59.81 43.24 59.74 44.02 60.51V60.51Z" fill="#DFDFDF"/>
<path d="M76.04 60.72C77.02 61.43 76.68 63.18 75.97 64.08C75.54 64.63 74.04 66.25 72.87 64.94C72.24 64.23 72.31 62.61 73.06 61.56C73.82 60.52 75.15 60.09 76.04 60.72V60.72Z" fill="#DFDFDF"/>
</svg>
