<svg viewBox="0 0 41 41" fill="none" xmlns="http://www.w3.org/2000/svg">
<path d="M14.078 27.051C14.043 27.051 14.008 27.05 13.973 27.049C13.171 27.022 12.429 26.685 11.883 26.101L8.678 22.671C7.548 21.462 7.613 19.56 8.822 18.431L12.252 15.227C13.46 14.097 15.362 14.163 16.492 15.371L19.697 18.801C20.827 20.01 20.762 21.912 19.553 23.041L16.123 26.245C15.564 26.767 14.842 27.051 14.078 27.051ZM14.299 16.419C14.054 16.419 13.809 16.508 13.616 16.688L10.186 19.892C9.783 20.269 9.762 20.903 10.138 21.306L13.343 24.736C13.524 24.929 13.772 25.042 14.04 25.05C14.31 25.058 14.562 24.964 14.756 24.783L18.187 21.579C18.59 21.202 18.611 20.568 18.235 20.165L15.03 16.735C14.833 16.525 14.567 16.419 14.299 16.419ZM18.87 22.31H18.88H18.87Z" fill="#231F20"/>
<path d="M20.5 4.5C29.8888 4.5 37.5 3.60457 37.5 2.5C37.5 1.39543 29.8888 0.5 20.5 0.5C11.1112 0.5 3.5 1.39543 3.5 2.5C3.5 3.60457 11.1112 4.5 20.5 4.5Z" fill="#DAE7EF"/>
<path d="M20.5 5C17.578 5 3 4.88 3 2.5C3 0.12 17.578 0 20.5 0C23.422 0 38 0.12 38 2.5C38 4.88 23.422 5 20.5 5ZM4.121 2.5C5.247 3.165 11.159 4 20.5 4C29.841 4 35.753 3.165 36.879 2.5C35.753 1.835 29.841 1 20.5 1C11.159 1 5.247 1.835 4.121 2.5ZM37.034 2.623H37.044H37.034Z" fill="#BBD7EA"/>
<path d="M20.5 4.5C11.111 4.5 3.5 4.157 3.5 2.5L6.5 38.5C6.5 39.604 14.425 40.5 20.5 40.5C26.575 40.5 34.5 39.604 34.5 38.5L37.5 2.5C37.5 4.157 29.889 4.5 20.5 4.5Z" fill="#DAE7EF"/>
<path d="M20.5 41C17.447 41 13.954 40.779 11.156 40.41C6 39.729 6 38.93 6 38.5L3.013 2.681C3.004 2.621 3 2.562 3 2.5C3 2.232 3.211 2.012 3.479 2C3.738 1.994 3.976 2.191 3.998 2.458L4.005 2.546C4.12 3.019 6.095 4 20.5 4C34.905 4 36.881 3.019 36.994 2.546L37.002 2.458C37.024 2.191 37.263 2.004 37.521 2C37.789 2.012 38 2.232 38 2.5C38 2.562 37.996 2.621 37.986 2.681L34.998 38.542C35 38.93 35 39.729 29.844 40.41C27.046 40.779 23.553 41 20.5 41ZM6.994 38.403C7.743 39.116 14.139 40 20.5 40C26.866 40 33.268 39.114 34.008 38.402L36.892 3.78C35.064 4.566 30.567 5 20.5 5C10.433 5 5.936 4.566 4.108 3.78L6.994 38.403ZM34.004 38.455C34.001 38.469 34 38.483 34 38.5L34.004 38.455ZM6.997 38.443L6.998 38.458C6.999 38.454 6.998 38.448 6.997 38.443Z" fill="#BBD7EA"/>
<path d="M29.593 19.825L26.163 23.03C25.359 23.781 24.087 23.738 23.336 22.934L20.131 19.504C19.38 18.7 19.423 17.428 20.227 16.677L23.657 13.472C24.461 12.721 25.733 12.764 26.484 13.568L29.689 16.998C30.44 17.802 30.397 19.074 29.593 19.825Z" fill="white"/>
<path d="M20.582 19.5C12.536 19.5 6.00401 18.797 4.94601 17.886C4.89201 17.871 4.83001 17.856 4.77901 17.841L6.11701 33.894C8.58601 34.762 15.182 35.387 20.501 35.387C25.82 35.387 32.415 34.762 34.885 33.894L36.223 17.841C36.181 17.853 36.131 17.865 36.088 17.878C35.08 18.793 28.654 19.5 20.582 19.5Z" fill="#58D9E1"/>
<path d="M28.782 16.03L29.689 17.001C30.237 17.587 30.357 18.422 30.073 19.122C33.839 18.78 36.24 18.239 36.24 17.629C36.239 16.951 33.285 16.359 28.782 16.03Z" fill="#4FC8CF"/>
<path d="M12.901 15.99C8.04 16.31 4.778 16.923 4.778 17.629C4.778 18.164 6.666 18.645 9.694 18.986L12.901 15.99Z" fill="#4FC7CF"/>
<path d="M15.53 15.854C15.61 15.917 15.69 15.979 15.761 16.056L18.966 19.486C18.967 19.487 18.968 19.489 18.969 19.49C19.352 19.495 19.735 19.499 20.127 19.501C19.382 18.697 19.427 17.43 20.228 16.681L21.214 15.76C21.003 15.759 20.796 15.756 20.583 15.756C18.809 15.755 17.115 15.791 15.53 15.854Z" fill="#4FC7CF"/>
<path d="M18.869 22.309L15.439 25.514C14.635 26.265 13.363 26.222 12.612 25.418L9.407 21.988C8.656 21.184 8.699 19.912 9.503 19.161L12.933 15.956C13.737 15.205 15.009 15.248 15.76 16.052L18.965 19.482C19.716 20.286 19.673 21.558 18.869 22.309Z" fill="white"/>
<path d="M9.73899 18.941L9.50399 19.161C8.69999 19.912 8.65699 21.184 9.40799 21.988L12.613 25.418C13.364 26.222 14.636 26.265 15.44 25.514L18.87 22.309C19.672 21.56 19.716 20.292 18.97 19.488C15.406 19.441 12.203 19.241 9.73899 18.941Z" fill="#4FC7CF"/>
<path d="M26.498 28.519L23.068 31.724C22.264 32.475 20.992 32.432 20.241 31.628L17.036 28.198C16.285 27.394 16.328 26.122 17.132 25.371L20.562 22.166C21.366 21.415 22.638 21.458 23.389 22.262L26.594 25.692C27.345 26.496 27.301 27.769 26.498 28.519Z" fill="#4FC7CF"/>
</svg>
