<svg viewBox="0 0 512 512" fill="none" xmlns="http://www.w3.org/2000/svg">
<g clip-path="url(#clip0_3_343)">
<path d="M293.57 500.488H251.928C251.928 500.488 251.916 500.488 251.904 500.488C251.892 500.488 251.892 500.488 251.88 500.488C242.482 500.488 233.465 504.214 226.825 510.866L225.691 512V500.476C225.691 491.949 231.662 484.82 239.651 483.017L231.817 459.372L218.107 418.028C216.555 413.335 219.098 408.259 223.791 406.707C228.496 405.143 233.56 407.698 235.112 412.391L250.505 458.822L258.375 482.575H275.655C285.545 482.575 293.57 490.588 293.57 500.488Z" fill="#FCC447"/>
<path d="M510.941 114.41C510.941 114.41 509.09 116.5 505.531 119.139C497.876 124.859 482.363 133.147 460.497 128.788L446.787 88.794C447.814 89.105 469.107 83.133 468.629 83.862C468.63 83.862 504.289 89.153 510.941 114.41Z" fill="#FCC447"/>
<path d="M354.212 110.741C353.603 109.821 342.353 65.551 341.41 62.565C332.824 35.313 339.129 9.052 355.478 3.905C364.423 1.075 374.538 5.183 383.255 13.948C388.809 5.302 396.248 0 404.441 0C412.633 0 420.085 5.302 425.626 13.948C434.356 5.182 444.459 1.074 453.415 3.905C469.764 9.052 476.057 35.313 467.471 62.565C466.54 65.551 465.178 68.5 463.554 71.378" fill="#FC675B"/>
<path d="M436.673 153.982L419.034 162.174C441.796 193.821 451.493 235.403 438.476 280.341C436.971 285.524 435.264 290.695 433.341 295.842C423.023 323.416 407.677 347.563 388.701 367.626C332.012 427.683 243.043 451.161 160.475 420.398C75.005 388.572 22.245 307.557 22.245 221.466C22.245 196.734 26.604 171.572 35.787 147.043C56.089 154.698 76.462 159.475 96.584 161.887C216.113 176.218 327.067 106.846 365.533 57.752C367.515 55.22 369.964 53.083 372.686 51.208C375.397 49.321 378.37 47.685 381.392 46.133C390.408 41.523 400.022 39.326 409.492 39.326C431.943 39.326 453.606 51.614 464.545 72.967C479.915 102.989 467.256 139.771 436.673 153.982Z" fill="#F2F2F2"/>
<path d="M250.507 458.822C244.309 459.276 238.075 459.467 231.818 459.371L218.108 418.027C216.556 413.334 219.099 408.258 223.792 406.706C228.497 405.142 233.561 407.697 235.113 412.39L250.507 458.822Z" fill="#F2B844"/>
<path d="M388.701 367.627C332.012 427.684 243.043 451.162 160.475 420.399C75.005 388.573 22.245 307.558 22.245 221.467C22.245 196.735 26.604 171.573 35.787 147.044C56.089 154.699 76.462 159.476 96.584 161.888C96.584 161.888 69.045 371.484 251.76 397.757C303.231 405.161 349.208 391.332 388.701 367.627Z" fill="#CCCCCC"/>
<path d="M51.215 120.552C51.154 114.602 50.97 108.622 50.829 102.605C50.681 96.573 50.542 90.542 50.331 84.142C48.473 86.73 46.808 89.486 45.438 92.338C43.987 95.18 42.819 98.106 41.704 101.063C39.504 106.984 37.929 113.042 36.643 119.139C35.372 125.238 34.533 131.379 33.961 137.537C33.937 137.801 33.922 138.064 33.899 138.328C30.677 135.719 27.473 133.076 24.249 130.416C20.374 127.188 16.567 123.878 12.701 120.479C8.834 117.072 5.136 113.48 1.06 109.749C1.922 115.166 3.737 120.406 6.037 125.371C8.393 130.296 11.143 135.066 14.313 139.484C17.451 143.934 20.931 148.117 24.65 152.065C26.513 154.037 28.438 155.947 30.435 157.797C31.421 158.733 32.452 159.628 33.484 160.532C34.537 161.454 35.54 162.272 36.768 163.248C38.226 164.409 40.066 165.121 42.074 165.159C46.927 165.252 50.937 161.392 51.031 156.539L51.039 156.086C51.149 150.335 51.264 144.298 51.289 138.393C51.336 132.454 51.283 126.504 51.215 120.552Z" fill="#CCCCCC"/>
<path d="M327.143 185.626L325.974 181.156C294.114 213.797 253.266 238.483 205.929 250.889C158.629 263.285 110.96 261.82 67.213 249.027C67.549 250.508 67.9 251.987 68.288 253.467C72.221 268.472 78.558 282.206 86.767 294.377C86.767 294.377 146.67 302.221 196.827 284.307C196.827 284.307 166.532 308.363 106.306 317.265C113.955 324.406 122.402 330.612 131.449 335.772C210.802 331.461 255.344 291.473 255.344 291.473C226.683 334.465 164.267 349.112 164.267 349.112C185.665 354.657 208.734 354.977 231.636 348.975C303.115 330.239 345.877 257.107 327.143 185.626Z" fill="#B5B4B4"/>
<path d="M510.941 114.41C510.941 114.41 509.09 116.5 505.531 119.139C489.278 112.213 474.828 111.138 474.828 111.138C493.338 107.854 510.941 114.41 510.941 114.41Z" fill="#F2B844"/>
<path d="M418.235 96.875C423.782 96.875 428.613 99.895 431.207 104.372C432.485 102.165 433.229 99.609 433.229 96.875C433.229 88.594 426.516 81.88 418.234 81.88C409.952 81.88 403.239 88.593 403.239 96.875C403.239 99.61 403.982 102.165 405.261 104.372C407.857 99.894 412.689 96.875 418.235 96.875Z" fill="#666666"/>
</g>
<defs>
<clipPath id="clip0_3_343">
<rect width="512" height="512" fill="white"/>
</clipPath>
</defs>
</svg>
