<svg viewBox="0 0 142 54" fill="none" xmlns="http://www.w3.org/2000/svg">
<g clip-path="url(#clip0_3_163)">
<path d="M76.0165 15.1234L76.625 15.0527L76.3756 12.9076L65.3585 14.1882L65.6079 16.3333L66.2164 16.2625L66.2811 16.8192C66.6873 20.3138 67.8781 23.4237 69.4467 25.1686C68.3201 27.2271 67.8744 30.527 68.2806 34.0217L68.3622 34.7231L67.7536 34.7938L68.0029 36.9388L79.02 35.6583L78.7707 33.5133L78.1622 33.584L78.0807 32.8826C77.6745 29.3879 76.4836 26.2783 74.9151 24.533C76.0415 22.4748 76.4874 19.1752 76.0812 15.6801L76.0165 15.1234ZM73.8237 24.0927L73.3834 24.711L73.9538 25.2118C75.3773 26.463 76.5526 29.1947 77.026 32.2936L69.1723 33.2064C68.9223 30.0819 69.4393 27.1535 70.5382 25.6088L70.9782 24.9906L70.4081 24.4897C68.9845 23.2384 67.8094 20.5071 67.336 17.4082L75.1894 16.4954C75.4397 19.6202 74.9222 22.5482 73.8237 24.0927ZM68.4782 18.4063L74.3067 17.7289C74.497 20.1014 74.104 22.3252 73.2692 23.4979C73.2692 23.4979 73.1171 23.6205 72.9353 23.967C72.592 24.9659 72.9699 28.4272 72.9868 28.5798C73.3182 28.5927 73.6931 28.7526 74.0956 29.1773C75.5159 30.6763 75.8951 30.8285 76.0766 32.0154L70.312 32.6854C70.2164 31.4888 70.8167 30.5547 71.589 29.4687C71.589 29.4687 71.948 28.8785 72.5221 28.6596C72.5082 28.6337 72.4998 28.6161 72.4998 28.6161C72.1211 25.3584 71.2301 24.0463 71.2301 24.0463L70.6628 23.6819C69.5815 22.7312 68.8373 20.7593 68.4782 18.4063Z" fill="#27284C"/>
</g>
<path d="M16.4208 22.7893L16.151 22.8813L13.7354 22.7067L11.2403 22.8626L12.0295 35.488L12.4382 39.2198L9.54382 39.4007L9.48451 35.6471L8.69523 23.0217L6.2001 23.1777L3.82506 23.6518L3.54591 23.5941L3.78291 20.9742L15.8593 20.2193L16.4208 22.7893ZM20.3529 21.4162C19.8705 21.4464 19.4547 21.3388 19.1054 21.0935C18.756 20.8481 18.5684 20.5175 18.5424 20.1017C18.5164 19.6858 18.6614 19.3344 18.9775 19.0475C19.2925 18.7439 19.6912 18.577 20.1735 18.5468C20.6393 18.5177 21.0474 18.6342 21.3977 18.8961C21.7471 19.1415 21.9347 19.4721 21.9607 19.888C21.9867 20.3038 21.8417 20.6552 21.5256 20.9422C21.2096 21.2291 20.8187 21.3871 20.3529 21.4162ZM19.9243 34.9944L19.4485 27.3843L19.0727 23.7757L21.8921 23.5995L21.9437 27.2283L22.4194 34.8385L22.828 38.5702L20.0086 38.7465L19.9243 34.9944ZM42.1947 33.6022L41.7829 27.0151C41.7288 26.1501 41.5058 25.5211 41.1138 25.1281C40.7219 24.7352 40.135 24.5631 39.3532 24.612C38.8708 24.6421 38.3541 24.7913 37.8031 25.0596C37.2687 25.3268 36.8056 25.6647 36.4137 26.0732C36.4396 26.2219 36.4625 26.4543 36.4823 26.7703L36.93 33.9313L37.3136 37.6647L34.4941 37.8409L34.4348 34.0873L34.023 27.5002C33.97 26.6518 33.7392 26.0317 33.3306 25.6398C32.9376 25.2301 32.3502 25.0498 31.5684 25.0986C31.086 25.1288 30.5776 25.2775 30.0433 25.5447C29.5079 25.7952 29.0447 26.1331 28.6538 26.5583L29.1452 34.418L29.5538 38.1498L26.7093 38.3276L26.65 34.574L26.1743 26.9638L25.7734 23.3568L27.9442 23.2211L28.4121 24.6948C28.8622 24.149 29.4439 23.7035 30.1571 23.3583C30.8703 23.0131 31.6178 22.8161 32.3996 22.7672C33.198 22.7173 33.8992 22.8488 34.5033 23.1618C35.1063 23.458 35.5778 23.9212 35.9177 24.5512C36.345 23.9066 36.9386 23.3852 37.6986 22.9871C38.4742 22.5712 39.3028 22.3357 40.1844 22.2806C41.3654 22.2067 42.3115 22.515 43.0226 23.2053C43.7503 23.8946 44.1569 24.9212 44.2421 26.2852L44.6898 33.4462L45.0984 37.178L42.2789 37.3543L42.1947 33.6022ZM54.616 36.8836C52.4037 37.0219 50.7745 36.4725 49.7286 35.2353C48.6983 33.9805 48.1021 32.0556 47.9399 29.4607C47.7818 26.9323 48.168 24.9627 49.0984 23.5519C50.0279 22.1244 51.5405 21.3452 53.6364 21.2142C55.6159 21.0904 57.1125 21.5229 58.1261 22.5116C59.1554 23.4826 59.826 25.1273 60.1379 27.4457L59.6639 29.88L50.6564 30.4431C50.7542 31.4723 50.947 32.2869 51.235 32.8868C51.5386 33.4689 51.9826 33.8921 52.5668 34.1561C53.1511 34.4202 53.9423 34.521 54.9403 34.4586C55.955 34.3952 56.8548 34.2304 57.6397 33.9642C58.4403 33.6804 59.1025 33.3217 59.6265 32.8882L60.0631 33.0613L59.6515 35.2913C59.0641 35.7789 58.3857 36.147 57.6164 36.3954C56.8471 36.6439 55.8469 36.8066 54.616 36.8836ZM57.5617 27.9073C57.4618 26.3104 57.1245 25.1876 56.5495 24.5389C55.9902 23.8725 55.1034 23.5773 53.8891 23.6532C53.0075 23.7083 52.3099 23.9022 51.7963 24.2349C51.2983 24.5499 50.9449 25.0396 50.7359 25.7039C50.5436 26.3672 50.4651 27.2488 50.5005 28.3487L57.5617 27.9073ZM85.7833 34.8851C84.7021 34.9527 83.7612 34.8612 82.9607 34.6106C82.1768 34.3591 81.3965 33.8985 80.6199 33.229L80.124 30.9054L80.467 30.7838C82.1617 31.9804 83.8407 32.5267 85.5041 32.4227C87.3838 32.3052 88.2908 31.7225 88.2253 30.6745C88.2014 30.2919 88.0818 29.9821 87.8666 29.7451C87.6504 29.4914 87.2766 29.2559 86.7454 29.0386C86.2131 28.8047 85.4198 28.537 84.3656 28.2356C83.2605 27.9206 82.3966 27.5905 81.7738 27.2453C81.1677 26.8992 80.7243 26.4843 80.4436 26.0009C80.1785 25.4998 80.022 24.8667 79.9741 24.1015C79.8857 22.6876 80.2584 21.5705 81.0922 20.7502C81.9416 19.9123 83.198 19.4413 84.8614 19.3373C85.8761 19.2739 86.7738 19.343 87.5546 19.5447C88.351 19.7287 89.0813 20.0587 89.7456 20.5349L89.4681 22.9068L89.1001 23.03C88.7227 22.6027 88.1514 22.2794 87.3862 22.0601C86.6366 21.823 85.8792 21.7284 85.1141 21.7763C84.2325 21.8314 83.5681 22.0232 83.1211 22.3518C82.6907 22.6792 82.4926 23.1175 82.527 23.6664C82.553 24.0822 82.6741 24.417 82.8903 24.6707C83.1066 24.9243 83.472 25.1603 83.9866 25.3786C84.5002 25.5803 85.2664 25.8163 86.2853 26.0866C87.8635 26.4889 88.9894 27.003 89.6631 27.6289C90.3368 28.2547 90.7095 29.1415 90.7813 30.2893C90.8676 31.6699 90.4845 32.7543 89.632 33.5423C88.7961 34.3293 87.5132 34.7769 85.7833 34.8851ZM111.481 14.2415L111.532 17.8704L112.089 26.778C112.364 31.1694 110.447 33.4935 106.338 33.7504C104.275 33.8793 102.694 33.4271 101.594 32.3937C100.51 31.3427 99.8993 29.7276 99.7631 27.5485L99.2063 18.6409L98.8304 15.0323L101.75 14.8498L101.801 18.4787L102.358 27.3863C102.444 28.7669 102.799 29.7717 103.423 30.4007C104.047 31.0297 104.966 31.3062 106.18 31.2303C107.395 31.1544 108.272 30.7656 108.813 30.0638C109.353 29.362 109.58 28.3208 109.494 26.9402L108.937 18.0326L108.561 14.424L111.481 14.2415ZM121.636 17.0634C123.499 16.9469 124.918 17.4844 125.895 18.6758C126.887 19.8662 127.468 21.8004 127.635 24.4785C127.793 27.0069 127.423 28.9588 126.523 30.3343C125.64 31.6921 124.291 32.4276 122.478 32.541C121.796 32.5836 121.129 32.4584 120.476 32.1652C119.839 31.871 119.338 31.4598 118.971 30.9317L119.15 33.8011L119.559 37.5329L116.714 37.7107L116.655 33.9571L115.874 21.4565L115.467 17.7496L117.812 17.603L117.988 18.4186C118.873 17.6118 120.089 17.1601 121.636 17.0634ZM122.054 30.1628C123.235 30.089 124.058 29.6284 124.522 28.7811C124.987 27.9338 125.16 26.5537 125.04 24.6407C124.953 23.2435 124.769 22.1695 124.488 21.4189C124.224 20.6673 123.824 20.1495 123.289 19.8657C122.77 19.5809 122.061 19.4665 121.163 19.5227C119.916 19.6007 118.962 19.8356 118.302 20.2276L118.868 29.2849C119.578 29.9586 120.64 30.2512 122.054 30.1628ZM131.72 16.7335L131.212 13.008L134.505 12.8021L134.465 16.562L134.699 26.3164L132.703 26.4411L131.72 16.7335ZM134.036 31.7433C133.438 31.7807 132.92 31.6461 132.483 31.3394C132.063 31.0317 131.837 30.62 131.805 30.1043C131.773 29.5887 131.945 29.1437 132.322 28.7694C132.716 28.3941 133.213 28.1877 133.812 28.1503C134.411 28.1129 134.921 28.2563 135.342 28.5807C135.779 28.904 136.014 29.3235 136.046 29.8391C136.079 30.3548 135.897 30.792 135.502 31.1507C135.124 31.5083 134.635 31.7058 134.036 31.7433Z" fill="#27284C"/>
<defs>
<clipPath id="clip0_3_163">
<rect width="18.7023" height="27.3367" fill="white" transform="translate(62.1328 10.1004) rotate(-6.62992)"/>
</clipPath>
</defs>
</svg>
