<svg width="158" height="158" viewBox="0 0 158 158" fill="none" xmlns="http://www.w3.org/2000/svg">
<rect width="158" height="158" fill="#FFD033"/>
<path d="M141.083 87.9308C144.073 87.9308 146.497 85.5069 146.497 82.5168C146.497 79.5267 144.073 77.1028 141.083 77.1028C138.093 77.1028 135.669 79.5267 135.669 82.5168C135.669 85.5069 138.093 87.9308 141.083 87.9308Z" fill="#27284C"/>
<path d="M151.798 99.3588C151.421 96.6758 151.331 93.9518 150.604 91.3278C149.636 87.8388 144.593 88.9198 144.584 92.0678C144.52 91.9948 144.447 91.9288 144.383 91.8558C143.872 91.2718 143.296 90.9768 142.719 90.8908C141.657 88.8948 139.483 87.6148 137.084 87.8078C136.497 87.8558 135.938 87.9908 135.416 88.1958C133.273 84.1218 131.833 79.7998 130.968 75.2148C130.234 71.3348 124.333 72.9828 125.062 76.8428C126.218 82.9678 128.41 88.8058 131.729 94.0908C131.729 94.0968 131.729 94.1028 131.729 94.1098C132.02 97.6598 131.656 103.515 131.431 106.255C131.327 106.419 131.227 106.589 131.147 106.78V106.779C127.956 114.37 126.731 123.059 126.109 131.221C125.811 135.162 131.938 135.133 132.235 131.221C132.693 125.213 133.578 118.95 135.379 113.093C135.769 113.22 136.177 113.309 136.602 113.352C137.107 119.498 137.531 125.649 138.407 131.757C138.969 135.653 144.869 133.988 144.315 130.127C143.399 123.746 143.086 117.287 142.524 110.871C142.503 110.631 142.461 110.406 142.399 110.195C142.725 109.552 142.94 108.84 143.01 108.078C143.033 107.83 143.395 103.879 143.499 99.5738C144.549 100.502 145.623 101.406 146.678 102.337C149.133 104.504 152.217 102.342 151.798 99.3588Z" fill="#27284C"/>
<g clip-path="url(#clip0_3_91)">
<path d="M77.8868 113.955C68.7891 116.393 63.0186 124.362 64.9989 131.753C66.444 137.146 71.6212 140.726 77.8468 141.33C77.8013 142.964 77.4911 144.734 76.6209 146.297C76.6888 146.365 79.9604 144.782 82.6663 141.199C83.4607 141.083 84.2585 140.935 85.0585 140.72C94.1562 138.283 99.9272 130.316 97.9467 122.924C95.9662 115.534 86.9844 111.518 77.8868 113.955Z" fill="#27284C"/>
<path d="M77.8303 141.569C77.9008 141.058 77.9507 140.548 77.9649 140.053C71.7391 139.449 66.5619 135.868 65.1171 130.476C64.8136 129.343 64.7134 128.199 64.7574 127.062C64.5268 128.615 64.5815 130.195 64.9989 131.753C66.444 137.146 71.6212 140.726 77.8468 141.33L77.8303 141.569ZM85.1766 139.444C84.3766 139.658 83.578 139.804 82.7844 139.923C80.7059 142.676 78.2986 144.243 77.2619 144.793C77.0906 145.307 76.8897 145.814 76.6209 146.297C76.6888 146.365 79.9603 144.782 82.6662 141.199C83.4607 141.083 84.2585 140.934 85.0584 140.72C92.764 138.655 98.0632 132.622 98.3062 126.334C97.4501 132.146 92.3592 137.519 85.1766 139.444Z" fill="#1E1E1E"/>
<path d="M81.9309 130.299L79.7125 130.893L80.1031 132.351L86.0845 130.748L85.6939 129.291L83.6573 129.836L81.398 121.404L80.5461 121.632C80.356 121.839 80.1366 122.041 79.8978 122.242C79.654 122.436 79.4017 122.626 79.1486 122.799C78.8964 122.976 78.6417 123.129 78.3982 123.257C78.1499 123.394 77.9322 123.5 77.7339 123.58L78.0432 124.734L80.2749 124.136L81.9263 130.3L81.9308 130.298L81.9309 130.299Z" fill="#FFD033"/>
</g>
<g clip-path="url(#clip1_3_91)">
<path d="M25.8869 97.9554C16.7892 100.393 11.0186 108.362 12.9989 115.753C14.444 121.146 19.6213 124.727 25.8469 125.33C25.8015 126.964 25.4912 128.735 24.6211 130.298C24.6889 130.366 27.9605 128.783 30.6664 125.199C31.4609 125.084 32.2587 124.935 33.0586 124.72C42.1564 122.283 47.9275 114.316 45.9469 106.924C43.9665 99.5337 34.9846 95.5177 25.8869 97.9554Z" fill="#27284C"/>
<path d="M21.7144 111.213C20.5777 111.517 19.9023 112.687 20.2071 113.825C20.5117 114.961 21.6815 115.637 22.8182 115.332C23.9549 115.027 24.6305 113.859 24.3257 112.721C24.0204 111.582 22.8511 110.908 21.7144 111.213ZM28.9217 109.281C27.785 109.586 27.1096 110.756 27.4145 111.893C27.7191 113.03 28.8888 113.705 30.0255 113.401C31.1622 113.096 31.8379 111.928 31.533 110.79C31.2278 109.651 30.0584 108.977 28.9217 109.281ZM36.1291 107.35C34.9924 107.655 34.317 108.824 34.6218 109.962C34.9264 111.099 36.0962 111.774 37.2329 111.47C38.3696 111.165 39.0452 109.996 38.7404 108.859C38.4351 107.72 37.2658 107.046 36.1291 107.35Z" fill="#FFD033"/>
<path d="M25.8304 125.569C25.9009 125.058 25.9508 124.548 25.965 124.053C19.7392 123.449 14.5619 119.868 13.1171 114.476C12.8136 113.344 12.7134 112.2 12.7574 111.062C12.5268 112.615 12.5815 114.195 12.9989 115.753C14.444 121.146 19.6213 124.727 25.8469 125.33L25.8304 125.569ZM33.1768 123.444C32.3768 123.658 31.5782 123.804 30.7846 123.923C28.706 126.676 26.2987 128.243 25.262 128.794C25.0907 129.308 24.8898 129.814 24.621 130.297C24.6889 130.365 27.9605 128.782 30.6664 125.199C31.4609 125.083 32.2586 124.935 33.0586 124.72C40.7642 122.656 46.0634 116.622 46.3065 110.334C45.4503 116.146 40.3594 121.519 33.1768 123.444Z" fill="#1E1E1E"/>
</g>
<path d="M73.0989 70.0424L73.9697 75.7835L76.7896 89.7823C78.1797 96.6837 75.6463 100.785 69.1893 102.085C65.9478 102.738 63.3429 102.365 61.3745 100.967C59.4271 99.5363 58.1085 97.1088 57.4186 93.6843L54.5988 79.6855L53.2182 74.0471L57.8061 73.1229L58.6769 78.864L61.4967 92.8628C61.9338 95.0326 62.7151 96.5481 63.8407 97.4095C64.9663 98.2709 66.4832 98.5093 68.3916 98.1249C70.2999 97.7405 71.6062 96.9334 72.3106 95.7034C73.0149 94.4734 73.1485 92.7736 72.7115 90.6038L69.8916 76.605L68.5111 70.9666L73.0989 70.0424ZM89.8098 72.3072C92.7377 71.7174 95.1049 72.2607 96.9115 73.9369C98.7442 75.6079 100.084 78.5478 100.932 82.7566C101.733 86.7301 101.57 89.9048 100.443 92.2807C99.3379 94.6252 97.3604 96.0844 94.511 96.6583C93.4392 96.8742 92.3539 96.8208 91.2552 96.4981C90.1827 96.1701 89.2981 95.6274 88.6015 94.8701L89.5098 99.3795L90.9691 105.206L86.4989 106.107L85.5886 100.169L81.6314 80.524L80.18 74.7366L83.8659 73.9941L84.3226 75.2486C85.5496 73.7774 87.3787 72.7969 89.8098 72.3072ZM93.3214 92.9808C95.1774 92.607 96.3816 91.6979 96.934 90.2538C97.4864 88.8096 97.4598 86.5844 96.8542 83.5781C96.4119 81.3822 95.8866 79.7198 95.2784 78.5911C94.6963 77.457 93.9501 76.7232 93.0396 76.3898C92.1553 76.0511 91.0074 76.0239 89.5957 76.3082C87.6351 76.7032 86.1742 77.2831 85.2129 78.048L88.0802 92.282C89.3523 93.1955 91.0993 93.4284 93.3214 92.9808ZM105.724 69.5912L104.108 63.7962L109.284 62.7536L110.037 68.7224L112.529 84.1337L109.392 84.7656L105.724 69.5912ZM112.659 92.8803C111.718 93.0699 110.868 92.969 110.109 92.5779C109.377 92.1814 108.929 91.578 108.765 90.7676C108.602 89.9572 108.779 89.2143 109.296 88.539C109.839 87.8584 110.581 87.4233 111.522 87.2337C112.463 87.0441 113.302 87.1606 114.04 87.5832C114.804 88.0006 115.268 88.6144 115.431 89.4248C115.595 90.2352 115.402 90.9676 114.854 91.6221C114.332 92.2713 113.6 92.6907 112.659 92.8803Z" fill="#27284C"/>
<g clip-path="url(#clip2_3_91)">
<path d="M121.7 20.496L122.533 20.335L121.966 17.3978L106.881 20.3115L107.448 23.2487L108.281 23.0877L108.428 23.8499C109.353 28.6349 111.321 32.8071 113.669 35.0544C112.326 38.015 112.054 42.6196 112.978 47.4048L113.163 48.3652L112.33 48.5261L112.897 51.4632L127.983 48.5496L127.415 45.6124L126.582 45.7734L126.397 44.813C125.473 40.0278 123.504 35.8561 121.156 33.6082C122.499 30.6481 122.772 26.0439 121.847 21.2582L121.7 20.496ZM119.603 33.1135L119.059 34.0133L119.899 34.6458C121.995 36.2262 123.903 39.8776 124.879 44.1089L114.125 46.186C113.455 41.8959 113.865 37.797 115.222 35.5491L115.766 34.6494L114.926 34.0168C112.83 32.4362 110.923 28.7854 109.947 24.554L120.7 22.477C121.371 26.7674 120.96 30.8659 119.603 33.1135ZM111.628 25.8141L119.609 24.2726C120.118 27.5301 119.807 30.6427 118.775 32.3494C118.775 32.3494 118.578 32.5346 118.363 33.0321C117.992 34.4476 118.874 39.1896 118.913 39.3986C119.372 39.3821 119.907 39.564 120.507 40.1088C122.625 42.0318 123.164 42.2026 123.538 43.8233L115.645 45.3478C115.389 43.7049 116.121 42.3522 117.075 40.7717C117.075 40.7717 117.509 39.9192 118.28 39.5572C118.258 39.5229 118.244 39.4994 118.244 39.4994C117.383 35.0388 116.016 33.3188 116.016 33.3188L115.194 32.8744C113.602 31.6735 112.369 29.027 111.628 25.8141Z" fill="#27284C"/>
</g>
<path d="M26.4303 42.3925L26.0227 42.597L22.1556 42.8456L18.2343 43.6354L22.2311 63.4769L23.6904 69.3035L19.1417 70.2197L18.2314 64.2826L14.2347 44.4411L10.3134 45.231L6.65174 46.499L6.19671 46.4682L6.00264 42.2638L24.9814 38.4408L26.4303 42.3925ZM32.3648 39.361C31.6067 39.5137 30.9241 39.4335 30.317 39.1206C29.7099 38.8077 29.3405 38.3244 29.2089 37.6709C29.0772 37.0173 29.2307 36.4288 29.6693 35.9052C30.1026 35.3555 30.6983 35.0042 31.4564 34.8515C32.1884 34.7041 32.8605 34.7999 33.4729 35.139C34.08 35.452 34.4493 35.9352 34.581 36.5887C34.7126 37.2423 34.5592 37.8308 34.1206 38.3544C33.682 38.878 33.0967 39.2135 32.3648 39.361ZM34.6381 60.9777L32.229 49.0179L30.8484 43.3795L35.2794 42.487L36.1503 48.2281L38.5594 60.1878L40.0187 66.0144L35.5877 66.9069L34.6381 60.9777ZM69.6373 53.9277L67.5521 43.5756C67.2782 42.2163 66.788 41.2677 66.0812 40.73C65.3744 40.1923 64.4067 40.0472 63.1781 40.2947C62.42 40.4474 61.6334 40.7963 60.8183 41.3413C60.0293 41.8811 59.3686 42.5174 58.8362 43.2503C58.9097 43.4803 58.9965 43.8437 59.0966 44.3404L61.3635 55.5943L62.7836 61.4288L58.3526 62.3213L57.4423 56.3842L55.357 46.0321C55.0885 44.6989 54.5877 43.7661 53.8548 43.2336C53.1428 42.6698 52.1725 42.5116 50.9438 42.7591C50.1857 42.9118 49.4122 43.2581 48.6232 43.7978C47.829 44.3114 47.1683 44.9478 46.6412 45.7068L49.1292 58.0587L50.5885 63.8853L46.1183 64.7857L45.208 58.8486L42.7989 46.8888L41.3791 41.2583L44.7906 40.5711L45.8527 42.8054C46.4476 41.8423 47.2727 41.0096 48.3282 40.3074C49.3836 39.6051 50.5257 39.1302 51.7543 38.8828C53.0091 38.63 54.1493 38.6859 55.1748 39.0506C56.1951 39.3891 57.0432 40.0208 57.7191 40.9455C58.2562 39.8308 59.0838 38.8753 60.2019 38.0788C61.3408 37.2509 62.6031 36.6974 63.9886 36.4184C65.8446 36.0445 67.4113 36.3274 68.6887 37.267C69.9922 38.2013 70.8598 39.7403 71.2916 41.8839L73.5586 53.1378L75.0178 58.9644L70.5868 59.8569L69.6373 53.9277ZM90.0406 56.4279C86.5638 57.1283 83.8619 56.6117 81.9349 54.878C80.0289 53.113 78.6651 50.1914 77.8436 46.1133C77.0432 42.1398 77.2271 38.9337 78.3952 36.495C79.558 34.0302 81.7864 32.4661 85.0802 31.8026C88.1911 31.1759 90.6574 31.536 92.4792 32.8828C94.3219 34.1981 95.7426 36.6594 96.7412 40.2666L96.5192 44.2284L82.3635 47.0799C82.7423 48.6901 83.2251 49.9394 83.8121 50.8276C84.4199 51.6844 85.2156 52.2586 86.1992 52.5501C87.1828 52.8416 88.4589 52.8294 90.0274 52.5135C91.622 52.1923 93.0125 51.7354 94.1988 51.1428C95.406 50.5188 96.3778 49.8062 97.1141 49.005L97.8439 49.1844L97.6763 52.8089C96.8512 53.7095 95.856 54.4405 94.6905 55.0017C93.5251 55.5629 91.9751 56.0383 90.0406 56.4279ZM92.7579 41.5586C92.2524 39.049 91.4734 37.3425 90.421 36.4392C89.3894 35.5045 87.9195 35.2294 86.0112 35.6138C84.6256 35.8929 83.562 36.3519 82.8203 36.991C82.0994 37.5986 81.6456 38.4517 81.4588 39.5502C81.2982 40.6435 81.3655 42.058 81.6608 43.7939L92.7579 41.5586ZM139.011 46.4821C137.312 46.8244 135.8 46.884 134.477 46.6609C133.18 46.4326 131.843 45.8722 130.466 44.9799L129.175 41.4045L129.692 41.137C132.638 42.6653 135.419 43.1661 138.033 42.6396C140.987 42.0445 142.298 40.9236 141.966 39.2766C141.845 38.6754 141.588 38.2103 141.196 37.8813C140.798 37.5263 140.154 37.2343 139.265 37.0054C138.37 36.7504 137.054 36.4985 135.318 36.2499C133.497 35.9909 132.056 35.6556 130.994 35.2439C129.958 34.827 129.165 34.2658 128.615 33.5606C128.085 32.8239 127.7 31.8543 127.457 30.6518C127.01 28.4298 127.358 26.578 128.501 25.0964C129.665 23.5834 131.554 22.5636 134.168 22.037C135.763 21.7158 137.201 21.6301 138.483 21.78C139.785 21.8985 141.015 22.2629 142.171 22.8732L142.247 26.6934L141.69 26.9688C140.999 26.3735 140.023 25.9852 138.763 25.8039C137.523 25.5912 136.302 25.606 135.099 25.8482C133.714 26.1273 132.702 26.5758 132.065 27.1938C131.454 27.8065 131.236 28.5442 131.409 29.4069C131.541 30.0605 131.806 30.5648 132.204 30.9198C132.602 31.2749 133.232 31.5695 134.096 31.8037C134.954 32.0117 136.219 32.2191 137.893 32.426C140.482 32.7205 142.379 33.2906 143.583 34.1362C144.787 34.9817 145.571 36.3064 145.934 38.1102C146.371 40.2799 146 42.0821 144.82 43.5167C143.666 44.946 141.73 45.9345 139.011 46.4821Z" fill="#27284C"/>
<defs>
<clipPath id="clip0_3_91">
<rect width="34.11" height="34.11" fill="white" transform="translate(61 116.828) rotate(-15)"/>
</clipPath>
<clipPath id="clip1_3_91">
<rect width="34.1102" height="34.1102" fill="white" transform="translate(9 100.828) rotate(-15)"/>
</clipPath>
<clipPath id="clip2_3_91">
<rect width="25.9073" height="37.8681" fill="white" transform="translate(102 15) rotate(-10.9318)"/>
</clipPath>
</defs>
</svg>
