<?xml version="1.0" encoding="iso-8859-1"?>
<!-- Generator: Adobe Illustrator 19.0.0, SVG Export Plug-In . SVG Version: 6.00 Build 0)  -->
<svg version="1.1" id="Layer_1" xmlns="http://www.w3.org/2000/svg" xmlns:xlink="http://www.w3.org/1999/xlink" x="0px" y="0px"
	 viewBox="0 0 511.252 511.252" style="enable-background:new 0 0 511.252 511.252;" xml:space="preserve">
<path style="fill:#D1C4E9;" d="M304.169,32.452c48.8-40,120.8-37.2,166.4,8c45.6,45.6,48.4,117.2,8.4,166l-152.8-152l-5.6-5.6
	l-4.4-4.4L304.169,32.452z"/>
<path style="fill:#EDE7F6;" d="M478.969,207.252c4.8,4.8,4.8,12.4,0,16.8c-4.8,4.8-12.4,4.8-16.8,0l-0.4-0.4l-1.6-1.6l-173.2-173.2
	c-4.8-4.8-4.8-12.4,0-16.8c4.8-4.8,12.4-4.8,16.8,0l0.4,0.4l0,0v0.4l22.4,22.8l0,0l22.4,22L478.969,207.252L478.969,207.252z"/>
<path style="fill:#D1C4E9;" d="M459.769,222.052l1.6,1.6c-48.8,40.4-121.2,37.6-166.8-8s-48.4-117.2-8.4-166L459.769,222.052z"/>
<path style="fill:#EEEEEE;" d="M22.169,506.052c-1.6,1.6-4,1.6-5.6,0l-11.2-11.2c-1.6-1.6-1.6-4,0-5.6l281.6-281.6l8.4,8.4l8.4,8.4
	L22.169,506.052z"/>
<path d="M382.569,256.452c-32.8,0-65.6-12.8-90.4-37.6c-46.8-46.8-50.4-120.4-8.8-171.2c1.2-1.6,4-2,5.6-0.4c1.6,1.2,2,4,0.4,5.6
	c-39.2,48-35.6,116.8,8.4,160.8s113.6,47.2,161.2,7.6c1.6-1.6,4.4-1.2,5.6,0.4c1.6,1.6,1.2,4.4-0.4,5.6
	C440.569,246.852,411.369,256.452,382.569,256.452z"/>
<path d="M478.969,210.452c-0.8,0-1.6-0.4-2.4-0.8c-1.6-1.2-2-4-0.4-5.6c39.2-48,35.6-116.8-8.4-160.8s-113.2-47.2-161.2-8
	c-1.6,1.6-4.4,1.2-5.6-0.4c-1.6-1.6-1.2-4.4,0.4-5.6c51.2-42,124.8-38.4,172,8.4c46.8,46.8,50.4,120.4,8.8,171.2
	C481.369,210.052,480.169,210.452,478.969,210.452z"/>
<path d="M470.569,231.652L470.569,231.652c-4.4,0-8.4-1.6-11.2-4.8l-175.2-175.2c-6-6.4-6-16.4,0-22.8c3.2-3.2,7.2-4.8,11.2-4.8l0,0
	c4.4,0,8.4,1.6,11.2,4.8c1.6,1.6,1.6,4,0,5.6s-4,1.6-5.6,0s-3.6-2.4-5.6-2.4l0,0c-2,0-4,0.8-5.6,2.4c-3.2,3.2-3.2,8,0,11.2
	l175.2,175.2c1.6,1.6,3.6,2.4,5.6,2.4l0,0c2,0,4-0.8,5.6-2.4c3.2-3.2,3.2-8,0-11.2c-1.6-1.6-1.6-4,0-5.6s4-1.6,5.6,0
	c6.4,6.4,6.4,16.4,0,22.8C478.969,230.052,474.969,231.652,470.569,231.652z"/>
<path id="SVGCleanerId_0" d="M478.569,210.852c-1.2,0-2-0.4-2.8-1.2l-129.6-129.6c-1.6-1.6-1.6-4,0-5.6s4-1.6,5.6,0l129.6,129.6
	c1.6,1.6,1.6,4,0,5.6C480.569,210.452,479.769,210.852,478.569,210.852z"/>
<g>
	<path id="SVGCleanerId_0_1_" d="M478.569,210.852c-1.2,0-2-0.4-2.8-1.2l-129.6-129.6c-1.6-1.6-1.6-4,0-5.6s4-1.6,5.6,0l129.6,129.6
		c1.6,1.6,1.6,4,0,5.6C480.569,210.452,479.769,210.852,478.569,210.852z"/>
</g>
<path d="M326.169,58.852c-1.2,0-2-0.4-2.8-1.2l-22.4-22.4c-1.6-1.6-1.6-4,0-5.6s4-1.6,5.6,0l22.4,22.4c1.6,1.6,1.6,4,0,5.6
	C328.569,58.452,327.369,58.852,326.169,58.852z"/>
<path d="M19.369,511.252c-2,0-4-0.8-5.6-2.4l-11.2-11.2c-1.6-1.6-2.4-3.6-2.4-5.6s0.8-4,2.4-5.6l281.6-281.6c1.6-1.6,4-1.6,5.6,0
	s1.6,4,0,5.6l-281.6,281.6l11.2,11.2l281.6-281.6c1.6-1.6,4-1.6,5.6,0s1.6,4,0,5.6l-281.6,281.6
	C23.369,510.452,21.369,511.252,19.369,511.252z"/>
<g>
</g>
<g>
</g>
<g>
</g>
<g>
</g>
<g>
</g>
<g>
</g>
<g>
</g>
<g>
</g>
<g>
</g>
<g>
</g>
<g>
</g>
<g>
</g>
<g>
</g>
<g>
</g>
<g>
</g>
</svg>
