<?xml version="1.0" encoding="iso-8859-1"?>
<!-- Generator: Adobe Illustrator 19.0.0, SVG Export Plug-In . SVG Version: 6.00 Build 0)  -->
<svg version="1.1" id="Capa_1" xmlns="http://www.w3.org/2000/svg" xmlns:xlink="http://www.w3.org/1999/xlink" x="0px" y="0px"
	 viewBox="0 0 464 464" style="enable-background:new 0 0 464 464;" xml:space="preserve">
<g>
	<path style="fill:#6E4141;" d="M22.974,178.223c10.145-6.616,20.536-8.634,23.902-9.075
		C43.51,169.59,33.119,171.607,22.974,178.223z"/>
	<path style="fill:#6E4141;" d="M20.726,179.77c0.746-0.542,1.496-1.057,2.248-1.547C22.222,178.713,21.472,179.228,20.726,179.77z"
		/>
	<path style="fill:#6E4141;" d="M46.876,169.148c0.249-0.033,0.46-0.057,0.63-0.073C47.336,169.091,47.126,169.115,46.876,169.148z"
		/>
	<path style="fill:#6E4141;" d="M151.169,174.168c1.167-0.477,2.32-0.929,3.458-1.356
		C153.489,173.239,152.336,173.691,151.169,174.168z"/>
	<path style="fill:#6E4141;" d="M10.23,190.035c0.629-0.837,1.277-1.642,1.941-2.415C11.507,188.393,10.859,189.198,10.23,190.035z"
		/>
	<path style="fill:#6E4141;" d="M5.916,196.944c0.773-1.512,1.605-2.943,2.487-4.299C7.521,194.001,6.689,195.432,5.916,196.944z"/>
	<path style="fill:#6E4141;" d="M2.595,205.191c0.364-1.194,0.763-2.349,1.192-3.467C3.357,202.842,2.959,203.997,2.595,205.191z"/>
	<path style="fill:#6E4141;" d="M8.403,192.646c0.588-0.904,1.198-1.773,1.827-2.61C9.601,190.872,8.991,191.742,8.403,192.646z"/>
	<path style="fill:#6E4141;" d="M158.006,171.601c2.056-0.7,4.062-1.318,6.019-1.854
		C162.069,170.284,160.062,170.901,158.006,171.601z"/>
	<path style="fill:#6E4141;" d="M220.084,184.605c-7.959-10.711-20.255-18.147-37.921-17.715
		C199.829,166.457,212.125,173.894,220.084,184.605z"/>
	<path style="fill:#6E4141;" d="M20.726,179.77c-2.983,2.167-5.898,4.758-8.555,7.85C14.828,184.528,17.743,181.937,20.726,179.77z"
		/>
	<path style="fill:#6E4141;" d="M231.797,218.323c0.091,1.227,0.15,2.445,0.18,3.651
		C231.948,220.768,231.888,219.55,231.797,218.323z"/>
	<path style="fill:#6E4141;" d="M229.672,205.321c0.318,1.234,0.602,2.474,0.852,3.716
		C230.273,207.795,229.99,206.555,229.672,205.321z"/>
	<path style="fill:#6E4141;" d="M219.16,193.835c-0.846-0.089-1.685-0.068-2.519,0.076c-11.836,2.191-23.715,26.479-36.293,52.192
		c-7.426,15.184-15.247,31.109-24.04,44.909c-3.777,0.934-7.74,1.77-11.876,2.523c10.748-14.796,20.127-33.875,28.928-51.867
		c11.851-24.229,22.345-45.678,34.657-53.693c-6.352-1.602-14.102-1.122-23.411,2.575c-13.071,9.479-26.318,25.649-40.105,42.487
		c-19.213,23.461-40.271,49.093-64.908,61.208c-5.152-0.986-10.23-2.309-15.235-3.801c28.037-7.21,51.479-35.775,74.295-63.633
		c3.876-4.735,7.712-9.418,11.526-13.933C97.899,249.812,13.14,277.988,0,223.775c0,51.682,68.613,76.846,120,72.962
		c90.5-6.84,112-54.152,112-72.962C232,214.604,228.134,201.641,219.16,193.835z"/>
	<path style="fill:#6E4141;" d="M167.062,168.969c1.101-0.262,2.186-0.499,3.254-0.71
		C169.248,168.47,168.163,168.707,167.062,168.969z"/>
	<path style="fill:#6E4141;" d="M220.084,184.605c2.653,3.571,4.825,7.506,6.552,11.635
		C224.909,192.111,222.737,188.176,220.084,184.605z"/>
	<path style="fill:#6E4141;" d="M172.248,167.9c2.39-0.411,4.701-0.697,6.928-0.857C176.949,167.203,174.639,167.489,172.248,167.9z
		"/>
	<path style="fill:#6E4141;" d="M228.009,199.822c0.422,1.207,0.808,2.427,1.161,3.654
		C228.817,202.249,228.431,201.029,228.009,199.822z"/>
	<path style="fill:#8C5046;" d="M231.797,218.323c-0.227-3.066-0.647-6.182-1.273-9.286c-0.251-1.242-0.535-2.482-0.852-3.716
		c-0.159-0.617-0.326-1.232-0.502-1.846c-0.352-1.227-0.739-2.446-1.161-3.654c-0.212-0.607-0.433-1.21-0.663-1.811l0,0
		c-0.051-0.132-0.106-0.263-0.158-0.395c-0.18-0.461-0.361-0.921-0.552-1.377c-1.727-4.129-3.898-8.064-6.552-11.635
		c-7.959-10.711-20.255-18.147-37.921-17.715c-0.978,0.024-1.977,0.079-2.987,0.152c-2.227,0.161-4.538,0.447-6.928,0.857
		c-0.638,0.11-1.283,0.231-1.932,0.359c-1.068,0.211-2.153,0.448-3.254,0.71c-0.999,0.238-2.011,0.497-3.036,0.778
		c-1.957,0.537-3.964,1.154-6.019,1.854c-1.112,0.379-2.238,0.782-3.379,1.21c-1.138,0.427-2.291,0.879-3.458,1.356
		c-7.123,2.913-14.785,6.758-23.034,11.698c-1.288,0.771-2.589,1.569-3.905,2.393c-2.632,1.648-5.32,3.404-8.067,5.271
		c-1.373,0.934-2.761,1.895-4.163,2.884c-52.5,37.051-106.5,13.11-64-27.361c0.017-0.016-0.156-0.013-0.494,0.021
		c-0.169,0.017-0.38,0.041-0.63,0.073c-3.366,0.442-13.757,2.459-23.902,9.075c-0.752,0.49-1.502,1.005-2.248,1.547
		c-2.983,2.167-5.898,4.758-8.555,7.85c-0.664,0.773-1.312,1.578-1.941,2.415c-0.629,0.837-1.239,1.707-1.827,2.61
		c-0.882,1.355-1.714,2.787-2.487,4.299c-0.773,1.512-1.486,3.104-2.13,4.78c-0.429,1.118-0.827,2.273-1.192,3.467
		C0.955,210.564,0,216.721,0,223.775c13.14,54.213,97.899,26.037,150.178-10.896c-3.814,4.514-7.649,9.198-11.526,13.933
		c-22.815,27.857-46.258,56.423-74.295,63.633c5.005,1.492,10.083,2.814,15.235,3.801c24.637-12.115,45.694-37.747,64.908-61.208
		c13.787-16.838,27.034-33.009,40.105-42.487c9.309-3.698,17.059-4.177,23.411-2.575c-12.312,8.015-22.805,29.463-34.657,53.693
		c-8.8,17.992-18.18,37.071-28.928,51.867c4.137-0.753,8.1-1.589,11.876-2.523c8.793-13.8,16.614-29.726,24.04-44.909
		c12.578-25.713,24.457-50.001,36.293-52.192c0.834-0.144,1.674-0.165,2.519-0.076c8.974,7.806,12.84,20.768,12.84,29.94
		c0-0.597-0.007-1.197-0.022-1.8C231.948,220.768,231.888,219.55,231.797,218.323z"/>
	<path style="fill:#6E4141;" d="M284.824,167.043c2.227,0.161,4.538,0.447,6.928,0.857
		C289.361,167.489,287.051,167.203,284.824,167.043z"/>
	<path style="fill:#6E4141;" d="M234.831,203.476c0.352-1.227,0.739-2.446,1.161-3.654
		C235.569,201.029,235.183,202.249,234.831,203.476z"/>
	<path style="fill:#6E4141;" d="M416.494,169.074c0.169,0.017,0.38,0.041,0.63,0.073
		C416.874,169.115,416.664,169.091,416.494,169.074z"/>
	<path style="fill:#6E4141;" d="M441.026,178.223c0.752,0.49,1.502,1.005,2.248,1.547
		C442.528,179.228,441.778,178.713,441.026,178.223z"/>
	<path style="fill:#6E4141;" d="M417.124,169.148c3.366,0.442,13.757,2.459,23.902,9.075
		C430.881,171.607,420.49,169.59,417.124,169.148z"/>
	<path style="fill:#6E4141;" d="M451.829,187.62c0.664,0.773,1.312,1.578,1.941,2.415
		C453.141,189.198,452.493,188.393,451.829,187.62z"/>
	<path style="fill:#6E4141;" d="M309.373,172.812c1.138,0.427,2.291,0.879,3.458,1.356
		C311.664,173.691,310.511,173.239,309.373,172.812z"/>
	<path style="fill:#6E4141;" d="M293.684,168.259c1.068,0.211,2.153,0.448,3.254,0.71
		C295.837,168.707,294.752,168.47,293.684,168.259z"/>
	<path style="fill:#6E4141;" d="M237.364,196.24c1.727-4.129,3.898-8.064,6.552-11.635
		C241.263,188.176,239.091,192.111,237.364,196.24z"/>
	<path style="fill:#6E4141;" d="M299.974,169.747c1.957,0.537,3.964,1.154,6.019,1.854
		C303.938,170.901,301.931,170.284,299.974,169.747z"/>
	<path style="fill:#6E4141;" d="M453.77,190.035c0.629,0.837,1.239,1.707,1.827,2.61
		C455.009,191.742,454.399,190.872,453.77,190.035z"/>
	<path style="fill:#6E4141;" d="M455.597,192.646c0.882,1.355,1.714,2.787,2.487,4.299
		C457.311,195.432,456.479,194.001,455.597,192.646z"/>
	<path style="fill:#6E4141;" d="M451.829,187.62c-2.657-3.093-5.571-5.683-8.555-7.85
		C446.257,181.937,449.172,184.528,451.829,187.62z"/>
	<path style="fill:#6E4141;" d="M232.022,221.975c0.03-1.206,0.09-2.425,0.18-3.651C232.112,219.55,232.052,220.768,232.022,221.975
		z"/>
	<path style="fill:#6E4141;" d="M313.822,212.879c3.814,4.514,7.649,9.198,11.526,13.933c22.815,27.857,46.258,56.423,74.295,63.633
		c-5.005,1.492-10.083,2.814-15.235,3.801c-24.637-12.115-45.694-37.747-64.908-61.208c-13.787-16.838-27.034-33.009-40.105-42.487
		c-9.309-3.698-17.059-4.177-23.411-2.575c12.312,8.015,22.805,29.463,34.657,53.693c8.8,17.992,18.18,37.071,28.928,51.867
		c-4.137-0.753-8.1-1.589-11.876-2.523c-8.793-13.8-16.614-29.726-24.04-44.909c-12.578-25.713-24.457-50.001-36.293-52.192
		c-0.834-0.144-1.674-0.165-2.519-0.076c-8.974,7.806-12.84,20.768-12.84,29.94c0,18.811,21.5,66.122,112,72.962
		c51.387,3.884,120-21.281,120-72.962C450.86,277.988,366.101,249.812,313.822,212.879z"/>
	<path style="fill:#6E4141;" d="M281.837,166.89c-17.665-0.433-29.962,7.003-37.921,17.715
		C251.875,173.894,264.171,166.457,281.837,166.89z"/>
	<path style="fill:#6E4141;" d="M233.476,209.037c0.251-1.242,0.535-2.482,0.852-3.716
		C234.01,206.555,233.727,207.795,233.476,209.037z"/>
	<path style="fill:#6E4141;" d="M460.214,201.725c0.429,1.118,0.827,2.273,1.192,3.467
		C461.041,203.997,460.643,202.842,460.214,201.725z"/>
	<path style="fill:#8C5046;" d="M244.84,193.835c0.846-0.089,1.685-0.068,2.519,0.076c11.836,2.191,23.715,26.479,36.293,52.192
		c7.426,15.184,15.247,31.109,24.04,44.909c3.777,0.934,7.74,1.77,11.876,2.523c-10.748-14.796-20.127-33.875-28.928-51.867
		c-11.851-24.229-22.345-45.678-34.657-53.693c6.352-1.602,14.102-1.122,23.411,2.575c13.071,9.479,26.318,25.649,40.105,42.487
		c19.213,23.461,40.271,49.093,64.908,61.208c5.152-0.986,10.23-2.309,15.235-3.801c-28.037-7.21-51.479-35.775-74.295-63.633
		c-3.876-4.735-7.712-9.418-11.526-13.933C366.101,249.812,450.86,277.988,464,223.775c0-7.054-0.955-13.211-2.595-18.584
		c-0.364-1.194-0.763-2.349-1.192-3.467c-0.644-1.677-1.357-3.269-2.13-4.78c-0.773-1.512-1.605-2.943-2.487-4.299
		c-0.588-0.904-1.198-1.773-1.827-2.61c-0.629-0.837-1.277-1.642-1.941-2.415c-2.657-3.092-5.572-5.683-8.555-7.85
		c-0.746-0.542-1.496-1.057-2.248-1.547c-10.145-6.616-20.536-8.634-23.902-9.075c-0.249-0.033-0.46-0.057-0.63-0.073
		c-0.339-0.033-0.511-0.037-0.494-0.021c42.5,40.471-11.5,64.412-64,27.361c-1.402-0.99-2.79-1.951-4.163-2.884
		c-2.746-1.867-5.435-3.623-8.067-5.271c-1.316-0.824-2.618-1.622-3.905-2.393c-8.249-4.94-15.911-8.785-23.034-11.698
		c-1.167-0.477-2.32-0.929-3.458-1.356c-1.141-0.428-2.268-0.832-3.379-1.21c-2.056-0.7-4.062-1.318-6.019-1.854
		c-1.025-0.281-2.038-0.541-3.036-0.778c-1.101-0.262-2.186-0.499-3.254-0.71c-0.649-0.128-1.294-0.249-1.932-0.359
		c-2.39-0.411-4.701-0.697-6.928-0.857c-1.011-0.073-2.01-0.128-2.987-0.152c-17.665-0.433-29.962,7.003-37.921,17.715
		c-2.653,3.571-4.825,7.506-6.552,11.635c-0.191,0.456-0.372,0.917-0.552,1.377c-0.052,0.132-0.107,0.262-0.158,0.395l0,0
		c-0.23,0.6-0.451,1.204-0.663,1.811c-0.422,1.207-0.808,2.427-1.161,3.654c-0.176,0.613-0.344,1.229-0.502,1.846
		c-0.318,1.234-0.602,2.474-0.852,3.716c-0.627,3.104-1.047,6.22-1.273,9.286c-0.091,1.227-0.15,2.445-0.18,3.651
		c-0.015,0.603-0.022,1.204-0.022,1.8C232,214.604,235.866,201.641,244.84,193.835z"/>
</g>
<g>
</g>
<g>
</g>
<g>
</g>
<g>
</g>
<g>
</g>
<g>
</g>
<g>
</g>
<g>
</g>
<g>
</g>
<g>
</g>
<g>
</g>
<g>
</g>
<g>
</g>
<g>
</g>
<g>
</g>
</svg>
