<?xml version="1.0" encoding="iso-8859-1"?>
<!-- Generator: Adobe Illustrator 19.0.0, SVG Export Plug-In . SVG Version: 6.00 Build 0)  -->
<svg version="1.1" id="Layer_1" xmlns="http://www.w3.org/2000/svg" xmlns:xlink="http://www.w3.org/1999/xlink" x="0px" y="0px"
	 viewBox="0 0 512.001 512.001" style="enable-background:new 0 0 512.001 512.001;" xml:space="preserve">
<polygon style="fill:#EDEDED;" points="394.379,67.429 8.872,452.937 9.582,502.417 59.061,503.127 444.571,117.62 "/>
<g>
	<polygon style="fill:#DBDBDB;" points="444.571,117.62 419.475,92.524 9.583,502.416 59.061,503.127 	"/>
	<path style="fill:#DBDBDB;" d="M377.649,17.239L377.649,17.239c-13.86,13.859-13.86,36.33,0,50.19l66.92,66.92
		c13.86,13.86,36.331,13.86,50.19-0.001l0.001,0.001l8.364-8.365L386.015,8.872L377.649,17.239z"/>
</g>
<path style="fill:#CCCCCE;" d="M444.569,67.43l-33.459,33.46l33.46,33.46c13.859,13.86,36.331,13.86,50.19,0l0,0l8.364-8.365
	L444.569,67.43z"/>
<path style="fill:#2E2D31;" d="M509.401,119.712L392.289,2.6c-3.464-3.466-9.082-3.464-12.548,0l-8.365,8.365
	c-8.379,8.379-12.993,19.52-12.993,31.369s4.614,22.991,12.993,31.37l2.092,2.092L2.599,446.662
	c-1.695,1.695-2.632,4.004-2.598,6.401l0.711,49.479c0.069,4.801,3.943,8.675,8.744,8.744l49.479,0.712
	C58.977,512,59.02,512,59.063,512c2.351,0,4.609-0.933,6.273-2.599l370.869-370.87l2.092,2.092
	c8.379,8.379,19.52,12.993,31.37,12.993s22.991-4.614,31.37-12.993l8.365-8.365c1.665-1.664,2.599-3.921,2.599-6.275
	C512,123.632,511.065,121.376,509.401,119.712z M55.44,494.201l-37.11-0.534l-0.532-37.11L386.014,88.342l37.643,37.643
	L55.44,494.201z M488.487,128.077c-5.028,5.027-11.712,7.796-18.822,7.796s-13.794-2.768-18.822-7.796l-66.92-66.92
	c-5.028-5.028-7.796-11.712-7.796-18.822s2.768-13.794,7.796-18.82l2.092-2.092l104.564,104.564L488.487,128.077z"/>
<g>
</g>
<g>
</g>
<g>
</g>
<g>
</g>
<g>
</g>
<g>
</g>
<g>
</g>
<g>
</g>
<g>
</g>
<g>
</g>
<g>
</g>
<g>
</g>
<g>
</g>
<g>
</g>
<g>
</g>
</svg>
