<svg width="497" height="497" viewBox="0 0 497 497" fill="none" xmlns="http://www.w3.org/2000/svg">
<g clip-path="url(#clip0_7_25)">
<path d="M338.8 311.6C338.8 307.3 335.7 303.5 335.5 299.1C333.8 255.3 326.1 207.7 305.6 169.4L198.1 175.1C241.8 206.7 267.7 255.9 283.2 302.4C284.8 307.2 282.9 313.1 284.3 317.8C285.8 322.7 290.4 326.4 291.6 331.2C292.9 336.1 290.8 342.2 291.9 346.9C293.3 353 297.6 357.8 298.7 363.5C299.6 368.2 297.2 374 297.8 378.3C298.6 383.8 302.5 387.8 303.1 392.6C303.8 398.2 301.1 404.4 301.5 408.8C302.5 420.2 305.8 425.7 305.8 425.7L326.8 425.8C326.8 425.8 329.8 418.9 331.6 407.4C332.3 402.8 331.1 397.7 331.8 391.7C332.3 387.1 335.1 381.7 335.7 376.3C336.2 372 334.2 367.9 334.5 363.2C335 356.7 338 349.4 338.3 342.3C338.5 337.9 335.9 333.8 336 329.2C335.9 323.5 338.8 317.4 338.8 311.6Z" fill="#54270E"/>
<path d="M326.2 271.1C324.3 272.9 322.4 274.6 320.3 276.2C318.2 277.8 316.1 279.2 313.8 280.5C311.6 281.8 309.2 283 306.9 284.1C304.5 285.2 302.1 286.1 299.6 287C294.7 288.7 289.6 290.2 284.3 291.2C289.7 291.4 295 290.6 300.3 289.2C305.5 287.8 310.6 285.8 315.3 283.1C317.6 281.7 319.9 280.2 322 278.5C324.1 276.8 326.1 274.9 327.9 272.8C331.5 268.7 334.2 263.9 335.8 258.7C333.1 263.2 329.9 267.4 326.2 271.1Z" fill="#381B0D"/>
<path d="M333.2 303.9C330.9 302.3 328.2 301.4 325.6 300.8C323 300.2 320.3 299.8 317.8 299.2C315.3 298.6 312.8 298 310.3 297.1C305.4 295.4 300.8 293.1 296.5 290.1C292.3 287.1 288.4 283.5 285.4 279.1C286.3 281.6 287.7 284 289.4 286.1C290.2 287.2 291.1 288.2 292.1 289.2C293.1 290.2 294.1 291.1 295.1 292C299.3 295.5 304.2 298.1 309.4 299.9C312 300.8 314.6 301.5 317.3 301.9C320 302.4 322.6 302.6 325.2 303C327.8 303.4 330.3 303.9 332.5 305.1C334.8 306.2 336.8 308 338.7 309.9C337.2 307.6 335.4 305.5 333.2 303.9Z" fill="#381B0D"/>
<path d="M287 282.1H209.2C221.3 318.7 210.2 335.4 210.2 335.4L237.1 341.5H259.1L286 335.4C286 335.4 274.9 318.7 287 282.1Z" fill="#CE936B"/>
<path d="M190.4 169.4C169.9 207.7 162.3 255.3 160.5 299.1C160.3 303.5 157.2 307.3 157.2 311.6C157.2 317.4 160.1 323.5 160.2 329.1C160.3 333.7 157.7 337.8 157.9 342.2C158.2 349.3 161.2 356.6 161.7 363.1C162 367.8 160.1 371.9 160.5 376.2C161.1 381.6 163.8 387 164.4 391.6C165.1 397.6 163.9 402.7 164.6 407.3C166.4 418.8 169.4 425.7 169.4 425.7L190.4 425.6C190.4 425.6 193.8 420.1 194.7 408.7C195.1 404.4 192.4 398.1 193.1 392.5C193.7 387.7 197.5 383.7 198.4 378.2C199.1 373.9 196.7 368.1 197.5 363.4C198.5 357.7 202.9 352.9 204.3 346.8C205.4 342.1 203.3 336 204.6 331.1C205.8 326.3 210.4 322.6 211.9 317.7C213.3 313 211.4 307.1 213 302.3C228.4 255.9 254.4 206.7 298.1 175L190.4 169.4Z" fill="#54270E"/>
<path d="M196.3 286.9C193.8 286 191.4 285.1 189 284C186.6 282.9 184.3 281.8 182.1 280.4C179.8 279.1 177.7 277.7 175.6 276.1C173.5 274.6 171.6 272.8 169.7 271C166 267.4 162.8 263.2 160.1 258.5C161.6 263.6 164.4 268.4 168 272.6C169.8 274.7 171.8 276.6 173.9 278.3C176 280 178.3 281.5 180.6 282.9C185.3 285.6 190.4 287.7 195.6 289C200.8 290.4 206.2 291.2 211.6 291C206.4 290 201.3 288.6 196.3 286.9Z" fill="#381B0D"/>
<path d="M199.5 290.1C195.3 293.1 190.6 295.4 185.7 297.1C183.3 298 180.8 298.6 178.2 299.2C175.7 299.8 173 300.2 170.4 300.8C167.8 301.4 165.1 302.3 162.8 303.9C160.5 305.5 158.7 307.6 157.3 309.9C159.2 308 161.2 306.3 163.5 305.1C165.8 303.9 168.3 303.4 170.8 303C173.4 302.6 176 302.4 178.7 301.9C181.4 301.5 184 300.8 186.6 299.9C191.8 298.2 196.7 295.5 200.9 292C201.9 291.1 202.9 290.2 203.9 289.2C204.8 288.2 205.7 287.2 206.6 286.1C208.2 283.9 209.7 281.6 210.6 279.1C207.6 283.5 203.7 287.1 199.5 290.1Z" fill="#381B0D"/>
<path d="M248.1 77.1C204.1 77.1 168.3 98.3 168.3 190.7C168.3 222 173.9 231 182.3 249.9C200.7 291.5 232.6 306 248.1 306C263.6 306 295.4 291.5 313.9 249.9C322.3 231 327.9 222 327.9 190.7C327.9 98.3 292.1 77.1 248.1 77.1Z" fill="#DB9A6E"/>
<path d="M236.2 244.7C235.8 243.2 235.7 241.7 235.4 240C234.7 240.8 234.4 241.7 234.2 242.6C234 243.5 234 244.4 234.2 245.2C234.4 246 234.9 246.9 235.6 247.5C236.3 248.2 237.3 248.6 238.4 248.8C237.2 247.4 236.6 246.2 236.2 244.7Z" fill="#AD7550"/>
<path d="M244.7 244.8C244.4 244.2 243.9 243.7 243.3 243.4C242.7 243.1 242 243 241.1 243.2C240.3 243.3 239.3 243.8 238.5 244.5C240 244.4 241.2 244.6 242.2 245.1C243.2 245.6 244.1 246.3 245.2 247C245.2 246.1 245 245.4 244.7 244.8Z" fill="#AD7550"/>
<path d="M255.4 243.2C254.6 243 253.8 243.2 253.2 243.4C252.6 243.7 252.1 244.1 251.8 244.8C251.5 245.4 251.3 246.1 251.4 247C252.5 246.3 253.3 245.6 254.4 245.1C255.4 244.6 256.5 244.4 258.1 244.5C257.2 243.8 256.3 243.4 255.4 243.2Z" fill="#AD7550"/>
<path d="M262 242.6C261.8 241.7 261.4 240.8 260.8 240C260.5 241.7 260.4 243.2 260 244.7C259.6 246.2 259 247.4 257.8 248.8C258.9 248.6 259.9 248.1 260.6 247.5C261.3 246.8 261.7 246 262 245.2C262.2 244.3 262.2 243.4 262 242.6Z" fill="#AD7550"/>
<path d="M256.1 213.7C256.2 211 256.4 208.4 256.8 205.8C257.2 203.2 257.9 200.6 258.9 198C257.2 200.2 256 202.7 255.2 205.4C254.4 208.1 254.1 210.9 254 213.6C253.9 216.4 254.2 219.1 254.7 221.9C255.2 224.6 255.9 227.3 257.1 229.8C256.5 224.4 256 219 256.1 213.7Z" fill="#AD7550"/>
<path d="M240.1 211.4C240 210.5 239.9 209.5 239.6 208.6C239.4 207.7 239 206.8 238.5 206C238.4 207 238.4 207.9 238.4 208.8C238.4 209.7 238.5 210.6 238.5 211.5C238.6 212.4 238.6 213.3 238.8 214.2C238.9 215.1 239.1 216 239.4 217C239.8 216.1 239.9 215.2 240 214.2C240.2 213.3 240.2 212.4 240.1 211.4Z" fill="#AD7550"/>
<path d="M263.2 204.8C263.2 205.3 265.5 212.4 282.6 210.1C293.7 208.6 294.4 197.9 294.4 197.9C274.1 186.6 263.2 204.8 263.2 204.8Z" fill="#472B14"/>
<path d="M263.2 204.8C263.3 205.9 264.3 206.3 265.2 206.6C289.7 215.1 293.4 199.2 293.4 199.2C273.6 191.7 263.2 204.8 263.2 204.8Z" fill="#F7F0EB"/>
<path d="M280.2 207.5C283.569 207.5 286.3 204.814 286.3 201.5C286.3 198.186 283.569 195.5 280.2 195.5C276.831 195.5 274.1 198.186 274.1 201.5C274.1 204.814 276.831 207.5 280.2 207.5Z" fill="#472B14"/>
<path d="M293.8 196.1C270.3 184.4 263.2 204.8 263.2 204.8C263.2 204.8 273.2 192.3 292.1 198.7C292.5 198.7 293 198.9 293.4 199.1C298.2 201.7 298.7 197.7 298.7 197.7C296.7 197.7 293.8 196.1 293.8 196.1Z" fill="#472B14"/>
<path d="M304.2 189.3C304 188.7 302.3 187.2 301.3 186.3C289.1 174.8 275.6 177.6 267.7 180.5C264.3 181.8 262.2 182.4 263.1 185.6C264 188.5 266 188.2 267 188C267.9 187.8 269.5 187 270.7 186.6C288.4 180.2 293.4 185.5 297.8 187.2C302.4 189 304.4 189.9 304.2 189.3Z" fill="#472B14"/>
<path d="M201.9 197.9C201.9 197.9 202.6 208.6 213.7 210.1C230.8 212.4 233.1 205.3 233.1 204.8C233 204.8 222.1 186.6 201.9 197.9Z" fill="#472B14"/>
<path d="M202.9 199.2C202.9 199.2 206.6 215.1 231.1 206.6C232 206.3 233 205.8 233.1 204.8C233 204.8 222.6 191.7 202.9 199.2Z" fill="#F7F0EB"/>
<path d="M216 207.5C219.369 207.5 222.1 204.814 222.1 201.5C222.1 198.186 219.369 195.5 216 195.5C212.631 195.5 209.9 198.186 209.9 201.5C209.9 204.814 212.631 207.5 216 207.5Z" fill="#54341E"/>
<path d="M202.4 196.1C202.4 196.1 199.4 197.7 197.6 197.7C197.6 197.7 198 201.7 202.9 199.1C203.3 198.9 203.7 198.8 204.2 198.7C223.1 192.3 233.1 204.8 233.1 204.8C233.1 204.8 226 184.3 202.4 196.1Z" fill="#472B14"/>
<path d="M228.5 180.5C220.6 177.6 207.2 174.8 194.9 186.3C193.9 187.2 192.2 188.7 192 189.3C191.8 189.9 193.7 189 198.4 187.1C202.8 185.3 207.8 180.1 225.5 186.5C226.7 186.9 228.2 187.7 229.2 187.9C230.1 188.1 232.2 188.4 233.1 185.5C234.1 182.4 232 181.8 228.5 180.5Z" fill="#472B14"/>
<path d="M258.5 257.8C255.5 257.4 248.1 260.3 248.1 260.3C248.1 260.3 240.5 257.4 237.5 257.8C232.7 258.5 225.6 266.8 225.6 268.1C225.6 268.1 235.7 273.3 248.1 273.3C260.5 273.3 270.6 268.1 270.6 268.1C270.6 268.1 263.4 258.5 258.5 257.8Z" fill="#E24444"/>
<path d="M254.2 264.4C252.2 264.3 249.7 266.1 248.1 266.1C246.2 266.1 243.3 264.3 241.1 264.5C228 265.3 225.6 268.1 225.6 268.1C225.6 268.1 235.7 277.2 248.1 277.2C260.5 277.2 270.6 268.1 270.6 268.1C270.6 268.1 267.9 265.2 254.2 264.4Z" fill="#D33D3D"/>
<path d="M285.9 335.4C285.9 335.4 277 352.7 247.8 352.7C218.6 352.7 210.3 335.4 210.3 335.4C210.3 335.4 203.3 390.1 248.2 390.1C293.1 390.1 285.9 335.4 285.9 335.4Z" fill="#CE936B"/>
<path d="M159.111 57.6147L159.113 57.616C166.39 66.5384 173.97 78.2079 179.016 88.2249C181.54 93.2362 183.418 97.8106 184.313 101.408C184.761 103.209 184.955 104.737 184.875 105.939C184.795 107.143 184.446 107.948 183.884 108.413C183.324 108.863 182.472 109.039 181.278 108.869C180.087 108.699 178.631 108.194 176.958 107.386C173.616 105.77 169.512 102.993 165.111 99.496C156.315 92.5063 146.416 82.7071 139.189 73.7853L139.187 73.784C131.901 64.85 128.723 58.5871 128.032 54.025C127.688 51.758 127.959 49.9177 128.64 48.3702C129.323 46.8188 130.433 45.5285 131.816 44.3874C133.198 43.2728 134.683 42.4563 136.343 42.1098C138 41.764 139.866 41.8788 142.026 42.6812C146.371 44.2953 151.875 48.6819 159.111 57.6147Z" fill="#FFF4E3" stroke="black"/>
<path d="M159.5 57.3C145 39.4 137.2 39.4 131.5 44C125.8 48.7 124.2 56.2 138.8 74.1C140.1 75.7 141.5 77.3 142.9 78.9C147.2 78.9 151.3 76.6 155.4 73.3C159.4 70 162.6 66.4 163.5 62.2C162.1 60.5 160.8 58.8 159.5 57.3Z" fill="#474746"/>
<path d="M171.7 92.5C167.5 87.1 163.2 81.8 158.9 76.5C154.6 71.2 150.2 65.9 145.8 60.7C141.4 55.5 136.9 50.3 132.4 45.2C136.5 50.7 140.6 56.1 144.8 61.5C149 66.9 153.3 72.2 157.6 77.5C161.9 82.8 166.3 88.1 170.7 93.3C175.1 98.5 179.6 103.7 184.1 108.8C180.1 103.3 176 97.9 171.7 92.5Z" fill="#CECDCC"/>
<path d="M197.3 59.3C189.4 37.6 182.1 35.1 175.1 37.6C168.2 40.1 164.2 46.8 172.1 68.5C180 90.2 196.7 118.7 203.7 116.1C210.6 113.5 205.2 81 197.3 59.3Z" fill="#FFF4E3"/>
<path d="M196.83 59.4711L196.831 59.4729C197.508 61.3116 198.178 63.2244 198.667 65.3145C196.535 68.7617 192.625 70.9682 187.828 72.7307C183.05 74.4856 178.66 75.2427 174.778 73.9984C174.007 72.07 173.242 70.1521 172.569 68.328C168.627 57.499 167.692 50.5049 168.542 45.9415C168.964 43.6732 169.826 42.0126 170.976 40.7711C172.129 39.5267 173.597 38.6766 175.269 38.0705C176.969 37.4635 178.657 37.171 180.35 37.3806C182.038 37.5896 183.766 38.3023 185.545 39.7616C189.125 42.698 192.887 48.6408 196.83 59.4711Z" fill="#474746" stroke="black"/>
<path d="M197.3 96.6C195.1 90.1 192.8 83.7 190.5 77.3C188.1 70.9 185.8 64.5 183.3 58.1C180.9 51.7 178.3 45.4 175.7 39C177.7 45.5 179.9 52 182.1 58.5C184.3 65 186.6 71.4 188.9 77.8C191.3 84.2 193.6 90.6 196.1 97C198.5 103.4 201.1 109.7 203.7 116.1C201.7 109.5 199.5 103 197.3 96.6Z" fill="#CECDCC"/>
<path d="M247.8 317L210.1 335.4C210.1 335.4 226.9 363.5 247.7 363.5C268.5 363.5 285.9 335.4 285.9 335.4L247.8 317Z" fill="#CE936B"/>
<path d="M248.1 77.1C199.4 77.1 165.3 87.2 165.3 179.6C165.3 179.6 248 133.7 248 100.1L248.1 77.1Z" fill="#602F0F"/>
<path d="M247.9 77.1L248 100.1C248 133.7 330.7 179.6 330.7 179.6C330.6 87.2 296.6 77.1 247.9 77.1Z" fill="#602F0F"/>
<path d="M324.9 106.1C303 113.1 276.6 117.2 248.1 117.2C219.6 117.2 193.1 113.1 171.3 106.1C168.6 112.3 166.3 119.3 164.6 127.1C187.7 135.5 216.7 140.5 248.2 140.5C279.7 140.5 308.7 135.5 331.8 127.1C329.9 119.3 327.6 112.3 324.9 106.1Z" fill="#7F6139"/>
<path d="M248.1 125.6C219.9 121.7 193.1 113.1 171.3 106.1C168.6 112.3 166.3 119.3 164.6 127.1C187.7 135.5 216.7 140.5 248.2 140.5C279.7 140.5 308.7 135.5 331.8 127.1C329.9 119.3 280.6 130.1 248.1 125.6Z" fill="#967042"/>
<path d="M394.8 382.8C388.8 360.6 343.2 341.7 286 335.5L248.1 374.3L210.2 335.5C153 341.7 107.2 360.6 101.2 382.8C97.9 395 94.2 418 91.1 440.3C129.1 471.4 176.5 491.4 228.3 495.4C228.4 495.4 228.6 495.4 228.7 495.4C230.6 495.5 232.5 495.7 234.5 495.8C234.8 495.8 235.1 495.8 235.4 495.8C237.2 495.9 239.1 496 241 496C241.3 496 241.6 496 241.8 496C243.9 496.1 245.9 496.1 248 496.1H248.1H248.2C250.3 496.1 252.4 496.1 254.4 496C254.7 496 255 496 255.2 496C257.1 495.9 258.9 495.9 260.8 495.8C261.1 495.8 261.4 495.8 261.7 495.8C263.6 495.7 265.5 495.6 267.5 495.4C267.6 495.4 267.8 495.4 267.9 495.4C319.8 491.3 367.1 471.3 405.1 440.3C401.8 417.9 398.1 394.9 394.8 382.8Z" fill="#CE936B"/>
<path d="M296.1 336.7L255.9 376.9C253.8 379 251.1 380.1 248.1 380.1C245.1 380.1 242.4 379 240.3 376.9L200.1 336.7C199.3 336.8 198.4 336.9 197.6 337.1L238.9 378.4C241.4 380.9 244.6 382.2 248.1 382.2C251.6 382.2 254.8 380.8 257.3 378.4L298.6 337.1C297.7 336.9 296.9 336.8 296.1 336.7Z" fill="#54270E"/>
<path d="M394.8 382.8C390.4 366.5 364.6 352 328.6 342.9L248.1 423.4L167.6 342.9C131.5 351.9 105.6 366.5 101.3 382.8C98 395 94.3 418 91.2 440.3C129.2 471.4 176.6 491.4 228.4 495.4C228.5 495.4 228.7 495.4 228.8 495.4C230.7 495.5 232.6 495.7 234.6 495.8C234.9 495.8 235.2 495.8 235.5 495.8C237.3 495.9 239.2 496 241.1 496C241.4 496 241.7 496 241.9 496C244 496.1 246 496.1 248.1 496.1H248.2H248.3C250.4 496.1 252.5 496.1 254.5 496C254.8 496 255.1 496 255.3 496C257.2 495.9 259 495.9 260.9 495.8C261.2 495.8 261.5 495.8 261.8 495.8C263.7 495.7 265.6 495.6 267.6 495.4C267.7 495.4 267.9 495.4 268 495.4C319.9 491.3 367.2 471.3 405.2 440.3C401.8 417.9 398.1 394.9 394.8 382.8Z" fill="#CC894C"/>
<path d="M316.1 340.1L248.1 408.1L180.1 340.1C175.8 341 171.6 341.9 167.6 342.9L248.1 423.4L328.6 342.9C324.6 341.9 320.4 340.9 316.1 340.1Z" fill="#9B6123"/>
<path d="M184.4 134.8L164.5 127.2C164.5 127.2 118.6 194.1 160.4 299.1C160.4 299.1 209.1 262.1 184.4 134.8Z" fill="#602F0F"/>
<path d="M190.3 434.7H169.3L165.2 472.1H194.5L190.3 434.7Z" fill="#54270E"/>
<path d="M190.3 425.6H169.3V434.7H190.3V425.6Z" fill="#B53508"/>
<path d="M204.4 331.2C205.1 328.3 207.2 325.8 209 323.1H159.3C159.8 325.1 160.2 327.2 160.2 329.1C160.3 333.7 157.7 337.8 157.9 342.2C158.2 349.3 161.2 356.6 161.7 363.1C162 367.8 160.1 371.9 160.5 376.2C161.1 381.6 163.8 387 164.4 391.6C165.1 397.6 163.9 402.7 164.6 407.3C166.4 418.8 169.4 425.7 169.4 425.7L190.4 425.6C190.4 425.6 193.8 420.1 194.7 408.7C195.1 404.4 192.4 398.1 193.1 392.5C193.7 387.7 197.5 383.7 198.4 378.2C199.1 373.9 196.7 368.1 197.5 363.4C198.5 357.7 202.9 352.9 204.3 346.8C205.2 342.2 203.2 336.1 204.4 331.2Z" fill="#54270E"/>
<path d="M188.7 358C186.7 358.3 184.8 358.5 182.8 358.5C180.8 358.5 178.9 358.4 177 358C173.2 357.3 169.6 355.8 166.4 353.5C163.2 351.2 160.5 348.3 157.9 345C159.4 348.9 161.7 352.5 165 355.3C168.2 358.2 172.3 360.1 176.5 360.9C178.6 361.3 180.8 361.4 182.9 361.3C185 361.2 187.1 360.8 189.2 360.3C193.3 359.2 197.1 357.5 200.4 355C196.6 356.3 192.6 357.4 188.7 358Z" fill="#381B0D"/>
<path d="M191 334.5C189 334.8 187.1 335 185.1 335C183.1 335 181.2 334.9 179.3 334.5C175.5 333.8 171.9 332.3 168.7 330C165.5 327.7 162.8 324.8 160.2 321.5C161.7 325.4 164 329 167.3 331.8C170.5 334.7 174.6 336.6 178.8 337.4C180.9 337.8 183.1 337.9 185.2 337.8C187.3 337.7 189.4 337.3 191.5 336.8C195.6 335.7 199.4 334 202.7 331.5C198.8 332.8 194.9 333.9 191 334.5Z" fill="#381B0D"/>
<path d="M197.9 310.1C195.6 310.6 193.3 311 191 311.3C188.7 311.6 186.4 311.7 184.1 311.7C181.8 311.7 179.5 311.4 177.3 310.9C175.1 310.5 172.9 309.7 170.8 308.7C166.7 306.7 163.2 303.5 160.3 299.6C162.1 304.1 165.4 308.1 169.7 310.8C171.8 312.1 174.2 313.1 176.6 313.7C179 314.3 181.5 314.6 184 314.7C189 314.8 193.9 313.9 198.5 312.4C203.1 310.9 207.6 308.9 211.6 306.2C207 307.7 202.5 309 197.9 310.1Z" fill="#381B0D"/>
<path d="M187.2 384.8C183.8 385.3 180.3 385.1 177.1 384.1C173.9 383.1 170.9 381.4 168.3 379.1C165.6 376.8 163.3 374.1 161 371.3C162.3 374.8 164.2 378 166.7 380.8C169.2 383.6 172.6 385.8 176.3 387C180 388.1 184.1 388.1 187.7 387.1C191.4 386.1 194.8 384.3 197.5 381.8C194.1 383.2 190.7 384.3 187.2 384.8Z" fill="#381B0D"/>
<path d="M189.1 415.6C187.6 415.2 186.2 414.7 184.9 414C182.2 412.6 179.8 410.8 177.5 408.8C175.2 406.8 173.1 404.5 171.1 402.2L165 394.9C166 398 167.5 400.9 169.2 403.6C171 406.3 173 408.9 175.5 411.1C178 413.3 180.8 415.2 184 416.2C185.6 416.7 187.3 417 188.9 417.1C190.6 417.1 192.3 416.9 193.7 416.1C192.2 416.2 190.6 416 189.1 415.6Z" fill="#381B0D"/>
<path d="M201.2 315.1C197 318.1 192.3 320.4 187.4 322.1C185 323 182.5 323.6 179.9 324.2C177.4 324.8 174.7 325.2 172.1 325.8C169.5 326.4 166.8 327.3 164.5 328.9C162.2 330.5 160.4 332.6 159 334.9C160.9 333 162.9 331.3 165.2 330.1C167.5 328.9 170 328.4 172.5 328C175.1 327.6 177.7 327.4 180.4 326.9C183.1 326.5 185.7 325.8 188.3 324.9C193.5 323.2 198.4 320.5 202.6 317C203.6 316.1 204.6 315.2 205.6 314.2C206.5 313.2 207.4 312.2 208.3 311.1C209.9 308.9 211.4 306.6 212.3 304.1C209.3 308.5 205.4 312.1 201.2 315.1Z" fill="#381B0D"/>
<path d="M195.2 342.7C191.6 346 187.6 348.9 183.4 351.4C181.3 352.7 179.2 353.8 176.9 354.9C174.5 356.2 172.5 357.8 170.6 359.6C166.9 363.1 163.7 367.1 161 371.3C164.6 367.8 168.2 364.3 172.1 361.2C174 359.7 176.1 358.3 178.1 357.3C179.2 356.8 180.4 356.3 181.5 355.7C182.6 355.1 183.8 354.5 184.9 353.9C189.3 351.4 193.5 348.2 196.9 344.4C197.8 343.4 198.6 342.5 199.4 341.4C200.2 340.4 200.9 339.3 201.5 338.2C202.8 336 203.9 333.7 204.5 331.2C202 335.6 198.7 339.3 195.2 342.7Z" fill="#381B0D"/>
<path d="M193.5 366.6C191 370.3 188.2 373.9 185.3 377.2C182.3 380.5 179.2 383.7 175.8 386.6C172.4 389.5 168.8 392.2 165 394.9C169.3 393.4 173.4 391.1 177.2 388.5C181 385.8 184.5 382.7 187.6 379.2C189.1 377.4 190.6 375.6 191.9 373.7C193.2 371.8 194.5 369.8 195.6 367.8C197.8 363.7 199.6 359.4 200.5 354.9C198.4 359 196 362.9 193.5 366.6Z" fill="#381B0D"/>
<path d="M191.6 390.9C189.3 394 186.9 397 184.1 399.7C181.4 402.4 178.5 405 175.5 407.5C172.5 409.9 169.3 412.2 166.1 414.6C169.9 413.3 173.5 411.6 176.9 409.4C180.3 407.2 183.5 404.7 186.3 401.8C187.7 400.3 189 398.8 190.3 397.2C191.5 395.6 192.7 393.9 193.6 392.1C195.5 388.6 197.1 384.7 197.4 380.7C195.9 384.4 193.8 387.8 191.6 390.9Z" fill="#381B0D"/>
<path d="M331.5 127.2L311.6 134.8C286.9 262.1 335.6 299.1 335.6 299.1C377.4 194.1 331.5 127.2 331.5 127.2Z" fill="#602F0F"/>
<path d="M326.6 434.7H305.6L301.5 472.1H330.8L326.6 434.7Z" fill="#54270E"/>
<path d="M326.6 425.6H305.6V434.7H326.6V425.6Z" fill="#B53508"/>
<path d="M338.2 342.2C338.4 337.8 335.8 333.7 335.9 329.1C335.9 327.2 336.3 325.1 336.8 323.1H287.1C288.9 325.7 290.9 328.3 291.7 331.2C293 336.1 290.9 342.2 292 346.9C293.4 353 297.7 357.8 298.8 363.5C299.7 368.2 297.3 374 297.9 378.3C298.7 383.8 302.6 387.8 303.2 392.6C303.9 398.2 301.2 404.4 301.6 408.8C302.6 420.2 305.9 425.7 305.9 425.7L326.9 425.8C326.9 425.8 329.9 418.9 331.7 407.4C332.4 402.8 331.2 397.7 331.9 391.7C332.4 387.1 335.2 381.7 335.8 376.3C336.3 372 334.3 367.9 334.6 363.2C334.8 356.6 337.8 349.3 338.2 342.2Z" fill="#54270E"/>
<path d="M329.5 353.5C326.3 355.8 322.7 357.3 318.9 358C317 358.4 315.1 358.5 313.1 358.5C311.1 358.5 309.2 358.3 307.2 358C303.3 357.4 299.4 356.3 295.5 354.9C298.8 357.4 302.7 359.2 306.7 360.2C308.7 360.8 310.8 361.1 313 361.2C315.1 361.3 317.3 361.2 319.4 360.8C323.7 360 327.7 358.1 330.9 355.2C334.1 352.4 336.5 348.8 338 344.9C335.5 348.3 332.7 351.2 329.5 353.5Z" fill="#381B0D"/>
<path d="M327.3 330C324.1 332.3 320.5 333.8 316.7 334.5C314.8 334.9 312.9 335 310.9 335C308.9 335 307 334.8 305 334.5C301.1 333.9 297.2 332.8 293.3 331.4C296.6 333.9 300.5 335.7 304.5 336.7C306.5 337.3 308.6 337.6 310.8 337.7C312.9 337.8 315.1 337.7 317.2 337.3C321.5 336.5 325.5 334.6 328.7 331.7C331.9 328.9 334.3 325.3 335.8 321.4C333.2 324.8 330.5 327.7 327.3 330Z" fill="#381B0D"/>
<path d="M325.3 308.6C323.2 309.6 321.1 310.4 318.8 310.8C316.6 311.3 314.3 311.5 312 311.6C309.7 311.7 307.4 311.5 305.1 311.2C302.8 311 300.5 310.5 298.2 310C293.6 309 289 307.6 284.5 306C288.5 308.7 293 310.7 297.6 312.2C302.3 313.7 307.2 314.5 312.1 314.5C314.6 314.4 317.1 314.1 319.5 313.5C321.9 312.8 324.3 311.9 326.4 310.6C330.7 308 334 303.9 335.8 299.4C332.9 303.4 329.4 306.6 325.3 308.6Z" fill="#381B0D"/>
<path d="M327.7 379.1C325 381.3 322.1 383.1 318.9 384.1C315.7 385.1 312.2 385.3 308.8 384.8C305.4 384.3 301.9 383.3 298.6 381.8C301.3 384.3 304.7 386.1 308.4 387.1C312.1 388.1 316.1 388.1 319.8 387C323.5 385.9 326.9 383.6 329.4 380.8C332 378 333.9 374.8 335.1 371.3C332.7 374.1 330.4 376.8 327.7 379.1Z" fill="#381B0D"/>
<path d="M324.9 402.2C322.8 404.5 320.7 406.8 318.5 408.8C316.2 410.8 313.8 412.6 311.1 414C309.7 414.7 308.3 415.2 306.9 415.6C305.4 416 303.9 416.2 302.3 416.1C303.8 416.9 305.5 417.1 307.1 417.1C308.8 417.1 310.4 416.8 312 416.2C315.2 415.2 318.1 413.3 320.5 411.1C323 408.9 325.1 406.4 326.8 403.6C328.6 400.9 330 398 331 394.9L324.9 402.2Z" fill="#381B0D"/>
<path d="M331.4 328.9C329.1 327.3 326.4 326.4 323.8 325.8C321.2 325.2 318.5 324.8 316 324.2C313.5 323.6 311 323 308.5 322.1C303.6 320.4 299 318.1 294.7 315.1C290.5 312.1 286.6 308.5 283.6 304.1C284.5 306.6 285.9 309 287.6 311.1C288.4 312.2 289.3 313.2 290.3 314.2C291.3 315.2 292.3 316.1 293.3 317C297.5 320.5 302.4 323.1 307.6 324.9C310.2 325.8 312.8 326.5 315.5 326.9C318.2 327.4 320.8 327.6 323.4 328C326 328.4 328.5 328.9 330.7 330.1C333 331.2 335 333 336.9 334.9C335.5 332.6 333.7 330.5 331.4 328.9Z" fill="#381B0D"/>
<path d="M325.4 359.5C323.5 357.8 321.5 356.1 319.1 354.8C316.8 353.6 314.7 352.5 312.6 351.3C308.4 348.8 304.4 345.9 300.8 342.6C297.2 339.3 293.9 335.5 291.5 331.1C292 333.6 293.2 335.9 294.5 338.1C295.2 339.2 295.9 340.3 296.6 341.3C297.4 342.3 298.2 343.3 299.1 344.3C302.6 348.1 306.7 351.3 311.1 353.8C312.2 354.4 313.3 355 314.5 355.6C315.6 356.2 316.9 356.7 317.9 357.2C320 358.2 322 359.6 323.9 361.1C327.8 364.1 331.4 367.6 335 371.2C332.3 367 329.1 363.1 325.4 359.5Z" fill="#381B0D"/>
<path d="M320.3 386.7C316.9 383.8 313.7 380.6 310.8 377.3C307.8 374 305.1 370.4 302.6 366.7C300.1 363 297.7 359.1 295.7 355C296.6 359.5 298.4 363.8 300.6 367.9C301.7 369.9 303 371.9 304.3 373.8C305.6 375.7 307.1 377.5 308.6 379.3C311.7 382.8 315.2 385.9 319 388.6C322.8 391.3 326.9 393.5 331.2 395C327.3 392.3 323.7 389.6 320.3 386.7Z" fill="#381B0D"/>
<path d="M320.4 407.5C317.4 405.1 314.5 402.5 311.8 399.7C309.1 397 306.6 394 304.3 390.9C302.1 387.7 300 384.4 298.5 380.7C298.8 384.7 300.4 388.6 302.3 392.1C303.3 393.9 304.4 395.6 305.6 397.2C306.8 398.8 308.2 400.3 309.6 401.8C312.4 404.7 315.6 407.2 319 409.4C322.4 411.5 326 413.3 329.8 414.6C326.7 412.2 323.5 409.9 320.4 407.5Z" fill="#381B0D"/>
<path d="M247.1 390.6C242.1 390.6 238.1 389.7 238.1 394.6C238.1 398.2 242.8 415.6 242.8 416.6C242.8 419 244.7 427.5 247.1 427.5C247.1 427.5 251.4 416.4 251.4 411.6C251.4 408.4 256.1 398.2 256.1 394.5C256.1 389.7 252.1 390.6 247.1 390.6Z" fill="#EAE4CC"/>
<path d="M247.4 397.8C248.725 397.8 249.8 396.725 249.8 395.4C249.8 394.075 248.725 393 247.4 393C246.075 393 245 394.075 245 395.4C245 396.725 246.075 397.8 247.4 397.8Z" fill="#E2A379"/>
<path d="M247.4 396.5C246.1 396.5 245 395.4 245 395.4C245 396.7 246.1 397.8 247.4 397.8C248.7 397.8 249.8 396.7 249.8 395.4C249.8 395.4 248.7 396.5 247.4 396.5Z" fill="#827A75"/>
<path d="M247.4 379C246.8 379 246.4 379.4 246.4 380V394.6C246.4 395.2 246.8 395.6 247.4 395.6C248 395.6 248.4 395.2 248.4 394.6V380C248.4 379.4 248 379 247.4 379Z" fill="#54270E"/>
</g>
<defs>
<clipPath id="clip0_7_25">
<rect width="496.2" height="496.2" fill="white"/>
</clipPath>
</defs>
</svg>
