<?xml version="1.0" encoding="iso-8859-1"?>
<!-- Generator: Adobe Illustrator 19.0.0, SVG Export Plug-In . SVG Version: 6.00 Build 0)  -->
<svg version="1.1" id="Layer_1" xmlns="http://www.w3.org/2000/svg" xmlns:xlink="http://www.w3.org/1999/xlink" x="0px" y="0px"
	 viewBox="0 0 512 512" style="enable-background:new 0 0 512 512;" xml:space="preserve">
<path style="fill:#FFAA7C;" d="M497.694,39.266L497.694,39.266c5.252,5.252,5.524,13.68,0.621,19.259L230.533,363.271
	l-56.843-56.843L478.435,38.645C484.014,33.742,492.442,34.014,497.694,39.266z"/>
<rect x="146.489" y="328.464" transform="matrix(0.7071 0.7071 -0.7071 0.7071 302.3651 -29.4067)" style="fill:#8ECAC1;" width="80.382" height="43.639"/>
<path style="fill:#F7E6C5;" d="M142.832,337.285l56.843,56.843l-16.241,16.241c-9.866,9.866-25.863,9.866-35.73,0l-21.113-21.113
	c-9.866-9.866-9.866-25.863,0-35.73L142.832,337.285z"/>
<path style="fill:#FF7124;" d="M150.304,432.054c0-24.735-20.052-44.787-44.787-44.787s-41.456,20.278-44.787,44.787
	c-5.028,36.994-50.53,44.787-50.53,44.787s80.104,0,95.317,0C130.252,476.841,150.304,456.789,150.304,432.054z"/>
<g>
	<path style="fill:#4D3D36;" d="M119.379,346.313c-6.698,6.699-10.388,15.604-10.388,25.078c0,1.975,0.169,3.923,0.484,5.833
		c-1.309-0.094-2.625-0.158-3.958-0.158c-28.029,0-50.603,22.046-54.894,53.613C46.679,459.69,8.83,466.724,8.477,466.787
		c-5.221,0.895-8.89,5.638-8.44,10.918c0.448,5.279,4.865,9.336,10.163,9.336h95.317c30.32,0,54.987-24.668,54.987-54.987
		c0-1.515-0.079-3.011-0.199-4.495c1.744,0.26,3.504,0.393,5.264,0.393c9.082,0,18.164-3.457,25.078-10.37l47.099-47.098l0.449-0.48
		L505.977,65.257c8.428-9.591,7.958-24.176-1.07-33.204c0,0,0,0-0.001,0c-9.029-9.029-23.612-9.498-33.204-1.07L166.958,298.766
		l-0.48,0.449L119.379,346.313z M105.516,466.642H53.474c8.449-7.873,15.379-18.629,17.362-33.214
		c2.434-17.9,14.1-35.962,34.681-35.962c19.071,0,34.588,15.516,34.588,34.588C140.104,451.126,124.589,466.642,105.516,466.642z
		 M176.222,403.156c-2.846,2.846-6.629,4.413-10.652,4.413s-7.807-1.568-10.652-4.412l-21.112-21.113
		c-2.846-2.846-4.413-6.629-4.413-10.652s1.568-7.808,4.413-10.652l9.028-9.029l42.418,42.418L176.222,403.156z M216.107,363.271
		l-16.433,16.433l-42.418-42.418l16.433-16.434L216.107,363.271z M490.653,51.793L230.052,348.366l-41.457-41.457L485.166,46.307
		c1.537-1.349,3.871-1.274,5.315,0.171C491.927,47.923,492.001,50.258,490.653,51.793z"/>
	<path style="fill:#4D3D36;" d="M275.485,241.467l-39.787,34.961c-4.232,3.719-4.648,10.163-0.929,14.395
		c2.016,2.295,4.834,3.467,7.666,3.467c2.391,0,4.792-0.835,6.729-2.538l39.787-34.961c4.232-3.719,4.648-10.163,0.929-14.395
		C286.161,238.165,279.715,237.749,275.485,241.467z"/>
	<path style="fill:#4D3D36;" d="M213.111,296.029l-2.593,2.279c-4.231,3.719-4.647,10.163-0.928,14.395
		c2.016,2.295,4.834,3.467,7.666,3.467c2.391,0,4.792-0.835,6.73-2.538l2.593-2.279c4.231-3.719,4.647-10.163,0.928-14.395
		C223.788,292.726,217.342,292.309,213.111,296.029z"/>
</g>
<g>
</g>
<g>
</g>
<g>
</g>
<g>
</g>
<g>
</g>
<g>
</g>
<g>
</g>
<g>
</g>
<g>
</g>
<g>
</g>
<g>
</g>
<g>
</g>
<g>
</g>
<g>
</g>
<g>
</g>
</svg>
