<svg viewBox="0 0 320 277" fill="none" xmlns="http://www.w3.org/2000/svg">
<path d="M233.3 112.2L273.8 57.9C273.8 57.9 328.1 27.9 318.4 4.89999L258.2 51L215.9 98.4L233.3 112.2Z" fill="#3A3536"/>
<path d="M192.9 88.8C192.9 88.8 236.1 49.2 248.1 39.1C260.1 29 288.5 8.3 296.9 3.2C309.8 -4.6 324 3.7 316.7 10.1C309.3 16.5 284.5 31.7 270.2 46.4C255.9 61.1 224.2 102.5 224.2 102.5L192.9 88.8Z" fill="#514D4E"/>
<path d="M192.9 88.8C192.9 88.8 195.9 86 200.6 81.8L229.8 95.4C226.4 99.8 224.2 102.6 224.2 102.6L192.9 88.8Z" fill="#C9C7C7"/>
<path d="M236.1 111.8L229.7 95.4C226.3 99.8 224.1 102.6 224.1 102.6C224.1 102.6 231.4 116 236.1 111.8Z" fill="#ADACAC"/>
<path d="M2.7 161.2C2.7 115.5 60.2 78.4 131.2 78.4C202.2 78.4 259.7 115.5 259.7 161.2C259.7 206.9 202.2 244 131.2 244C60.2 244 2.7 206.9 2.7 161.2Z" fill="#3A3536"/>
<path d="M131.2 244C200.6 244 257.1 208.6 259.6 164.2C259.6 163 259.6 162.2 259.6 162C256.6 118 200.3 120.7 131.3 120.7C62.7 120.7 6.69999 117.6 2.99999 161.2C2.99999 161.5 2.99999 162.8 2.89999 164.8C5.79999 208.9 62.1 244 131.2 244Z" fill="#3A3536"/>
<path d="M131.2 244C62.1 244 5.8 208.9 2.9 164.9C2.8 175 2.8 185.8 2.8 187C2.8 232.7 60.3 276.2 131.3 276.2C202.3 276.2 259.8 232.7 259.8 187C259.8 185.9 259.8 172.7 259.7 164.3C257.1 208.5 200.6 244 131.2 244Z" fill="#B2162D"/>
<path d="M131.2 246C59.2 246 0.699997 207.9 0.699997 161.1C0.699997 114.3 59.3 76.2 131.2 76.2C203.2 76.2 261.7 114.3 261.7 161.1C261.7 208 203.2 246 131.2 246ZM131.2 80.5C61.5 80.5 4.8 116.7 4.8 161.2C4.8 205.7 61.5 241.9 131.2 241.9C200.9 241.9 257.6 205.7 257.6 161.2C257.6 116.7 200.9 80.5 131.2 80.5Z" fill="#E2E0E0"/>
</svg>
