<svg viewBox="0 0 36 37" fill="none" xmlns="http://www.w3.org/2000/svg">
<g clip-path="url(#clip0_2_101)">
<path d="M13.5 37C13.4012 37 13.3046 36.9707 13.2224 36.9158C13.1402 36.8609 13.0762 36.7829 13.0383 36.6917C13.0004 36.6004 12.9904 36.4999 13.0096 36.403C13.0288 36.3061 13.0762 36.217 13.146 36.147L15 34.293V31.5C15 31.3674 15.0527 31.2402 15.1464 31.1464C15.2402 31.0527 15.3674 31 15.5 31C15.6326 31 15.7598 31.0527 15.8535 31.1464C15.9473 31.2402 16 31.3674 16 31.5V34.707L13.854 36.853C13.8075 36.8996 13.7524 36.9365 13.6916 36.9618C13.6309 36.987 13.5658 37 13.5 37V37Z" fill="#66757F"/>
<path d="M15.5 35H12.5C12.3674 35 12.2402 34.9473 12.1464 34.8536C12.0527 34.7598 12 34.6326 12 34.5C12 34.3674 12.0527 34.2402 12.1464 34.1464C12.2402 34.0527 12.3674 34 12.5 34H15.5C15.6326 34 15.7598 34.0527 15.8536 34.1464C15.9473 34.2402 16 34.3674 16 34.5C16 34.6326 15.9473 34.7598 15.8536 34.8536C15.7598 34.9473 15.6326 35 15.5 35ZM18.5 37C18.4012 37 18.3046 36.9707 18.2224 36.9158C18.1402 36.8609 18.0762 36.7829 18.0383 36.6917C18.0004 36.6004 17.9904 36.4999 18.0096 36.403C18.0288 36.3061 18.0762 36.217 18.146 36.147L20 34.293V31.5C20 31.3674 20.0527 31.2402 20.1464 31.1464C20.2402 31.0527 20.3674 31 20.5 31C20.6326 31 20.7598 31.0527 20.8536 31.1464C20.9473 31.2402 21 31.3674 21 31.5V34.707L18.854 36.853C18.8076 36.8996 18.7524 36.9365 18.6916 36.9618C18.6309 36.987 18.5658 37 18.5 37V37Z" fill="#66757F"/>
<path d="M20.5 35H17.5C17.3674 35 17.2402 34.9473 17.1464 34.8536C17.0527 34.7598 17 34.6326 17 34.5C17 34.3674 17.0527 34.2402 17.1464 34.1464C17.2402 34.0527 17.3674 34 17.5 34H20.5C20.6326 34 20.7598 34.0527 20.8536 34.1464C20.9473 34.2402 21 34.3674 21 34.5C21 34.6326 20.9473 34.7598 20.8536 34.8536C20.7598 34.9473 20.6326 35 20.5 35Z" fill="#66757F"/>
<path d="M3.1058 12.379C3.73355 12.8498 6.41055 11.8438 7.11647 10.4608C7.82239 9.0779 6.57273 8.68198 4.93417 9.08762C3.2956 9.49325 2.56355 11.9719 3.1058 12.379Z" fill="#8E8D8D"/>
<path d="M7.65288 4.09988C4.96244 4.63797 2.85037 6.67827 2.36102 9.34377C1.87358 11.9984 2.78829 13.9117 4.20784 13.7818C4.59605 13.7461 4.24539 11.8364 5.80864 9.62663C6.5808 8.53782 7.32751 8.52512 7.68732 8.62656C8.04829 8.72719 8.98805 3.83311 7.65288 4.09988V4.09988Z" fill="#1C1711"/>
<path d="M30.6332 35.9907C30.5322 36.4796 28.603 36.4652 25.7562 31.4698C22.3343 34.0008 17.9396 33.3142 13.8686 30.8041C9.29242 27.9819 6.8247 22.5216 8.72861 15.6973C9.79574 11.871 4.20794 11.2519 5.28101 6.04733C6.08847 2.13321 9.70725 1.21145 12.5104 1.78922C17.1546 2.74658 18.3004 8.19264 19.2919 9.65643C24.5172 17.3764 30.9317 34.5436 30.6332 35.9907Z" fill="#D10D29"/>
<ellipse cx="10.5889" cy="6.73089" rx="3.46241" ry="2.66255" transform="rotate(21.9702 10.5889 6.73089)" fill="#FFFAFA" stroke="black" stroke-width="0.1"/>
<path d="M25.7553 31.4697C22.3333 34.0006 17.9387 33.314 13.8677 30.8039C9.29146 27.9818 6.82373 22.5215 8.72765 15.6972C8.00411 19.9796 8.93762 23.4349 10.1516 24.4975C10.0681 21.649 11.501 17.5646 12.283 16.9752C12.2064 26.5105 19.5678 33.2792 25.7553 31.4697V31.4697Z" fill="#D10D2A"/>
<path d="M12.2842 16.9744C12.2842 16.9744 12.9829 22.9769 17.8609 27.4979C22.7388 32.019 25.7564 31.4689 25.7564 31.4689C25.7564 31.4689 22.2749 34.2665 17.8629 32.1844C13.4509 30.1023 9.73339 24.6507 12.2842 16.9744V16.9744Z" fill="#1350ED"/>
<path d="M17.1559 11.2883C14.7931 10.2717 9.34762 17.1367 13.822 24.2978C19.7033 33.7115 25.7563 31.4698 25.7563 31.4698C25.7563 31.4698 24.5602 14.4733 17.1559 11.2883Z" fill="#EFD914"/>
<path d="M9.83873 6.51911C9.75186 7.00851 9.2847 7.33484 8.7953 7.24797C8.30589 7.16111 7.97956 6.69394 8.06643 6.20454C8.1533 5.71513 8.62046 5.38881 9.10987 5.47567C9.59927 5.56254 9.9256 6.0297 9.83873 6.51911Z" fill="url(#paint0_radial_2_101)" stroke="black" stroke-width="0.2"/>
<path d="M10.4532 5.37237C10.7622 5.42722 11.0019 5.49824 11.2812 5.346C11.4852 5.23484 11.5272 5.21631 11.7732 5.25998" stroke="black" stroke-width="0.2" stroke-linecap="round"/>
<path d="M10.4328 5.97544C10.6525 6.01444 10.8017 5.87749 10.9668 5.89688C11.1429 5.91756 11.4598 6.06532 11.5698 5.91725" stroke="black" stroke-width="0.2" stroke-linecap="round"/>
<path d="M10.7336 6.72219C10.9713 6.73767 11.1641 6.62526 11.4356 6.67346C11.6039 6.70331 11.8242 6.79177 11.9701 6.7009C12.4059 6.4294 12.8805 6.32322 13.3885 6.41339" stroke="black" stroke-width="0.2" stroke-linecap="round"/>
<path d="M12.2962 6.21952C12.3328 6.01371 12.5183 6.01905 12.692 5.94308" stroke="black" stroke-width="0.2" stroke-linecap="round"/>
<path d="M11.4465 5.63536C11.6872 5.67807 12.2981 5.72089 12.3464 5.4484" stroke="black" stroke-width="0.2" stroke-linecap="round"/>
<path d="M8.42172 5.09847C8.58294 4.55086 9.5903 4.86252 9.64824 4.53614" stroke="black" stroke-width="0.2" stroke-linecap="round"/>
<path d="M9.52894 5.20832C10.1856 5.32488 10.3191 4.74188 10.8937 4.84386" stroke="black" stroke-width="0.2" stroke-linecap="round"/>
<circle cx="8.85144" cy="6.40197" r="0.5" fill="black"/>
</g>
<defs>
<radialGradient id="paint0_radial_2_101" cx="0" cy="0" r="1" gradientUnits="userSpaceOnUse" gradientTransform="translate(8.95258 6.36182) rotate(100.065)">
<stop stop-color="white"/>
<stop offset="1" stop-color="white" stop-opacity="0"/>
</radialGradient>
<clipPath id="clip0_2_101">
<rect width="35.114" height="36.328" fill="white" transform="translate(0.85144 0.671967)"/>
</clipPath>
</defs>
</svg>
