<svg width="322" height="366" viewBox="0 0 322 366" fill="none" xmlns="http://www.w3.org/2000/svg">
<path d="M0.600006 215.7L5.40001 216.3C24 214.6 89.2 207.5 93.7 207C103.3 206.1 103.9 203.8 103.9 203.8V149.3L25 153.2V172.2C25 172.2 25 188.6 10.2 190.5L4.60001 191.1C4.60001 191.1 0.600006 192.3 0.600006 196.7C0.600006 201 0.600006 215.7 0.600006 215.7Z" fill="#383838"/>
<path d="M0.600006 215.7L5.40001 216.3C24 214.6 89.2 207.5 93.7 207C103.3 206.1 103.9 203.8 103.9 203.8L29.8 153.8L25 153.2V172.2C25 172.2 25 188.6 10.2 190.5L4.60001 191.1C4.60001 191.1 0.600006 192.3 0.600006 196.7C0.600006 201 0.600006 215.7 0.600006 215.7Z" fill="#2B2A2A"/>
<path d="M5.39999 216.3C5.39999 216.3 93.2 208.1 98.5 207.6C108.1 206.7 108.7 204.4 108.7 204.4V148.7C108.7 148.7 105.9 150.2 100.1 150.2L29.9 153.8V172.8C29.9 172.8 29.9 189.2 15.1 191.1L9.49999 191.7C9.49999 191.7 5.49999 192.9 5.49999 197.3C5.39999 201.6 5.39999 216.3 5.39999 216.3Z" fill="#424242"/>
<path d="M137.9 236L5.29999 200.1V197.4L143.3 230.6L137.9 236Z" fill="#C9C9C5"/>
<path d="M129.9 230.9L5.29999 200.1V210.3L129.9 243.2V230.9Z" fill="#191919"/>
<path d="M166.8 221.1L29.9 192.7L5.29999 197.4L137.8 229.7L166.8 221.1Z" fill="#F2F2ED"/>
<path d="M48.4 225.4L58.6 296.9L66.4 299.7L75 297.3L83.6 234L66.5 229.8L48.4 225.4Z" fill="#3A3A3A"/>
<path d="M48.4 225.4L58.6 296.9L66.4 299.7L66.5 229.8L48.4 225.4Z" fill="#191919"/>
<path d="M60.6 316.3L58.6 296.9L66.4 299.7L75 297.3L71.8 316.7L66.3 318.1L60.6 316.3Z" fill="#AF9651"/>
<path d="M60.6 316.3L58.6 296.9L66.4 299.7L66.3 318.1L60.6 316.3Z" fill="#99833D"/>
<path d="M263.1 204.2L273.3 275.8L281.1 278.6L289.7 276.2L298.3 212.8L281.2 208.7L263.1 204.2Z" fill="#3A3A3A"/>
<path d="M263.1 204.2L273.3 275.8L281.1 278.6L281.2 208.7L263.1 204.2Z" fill="#191919"/>
<path d="M275.3 295.2L273.3 275.8L281.1 278.6L289.7 276.2L286.5 295.6L281 296.9L275.3 295.2Z" fill="#AF9651"/>
<path d="M275.3 295.2L273.3 275.8L281.1 278.6L281 296.9L275.3 295.2Z" fill="#99833D"/>
<path d="M98.7 323.5L124.5 333.5L147.4 330.6V337L124.4 340.8L98.7 330.2V323.5Z" fill="#3A3A3A"/>
<path d="M147.4 330.6L121.5 320.4L98.7 323.5L124.5 333.5L147.4 330.6Z" fill="#424242"/>
<path d="M98.7 323.5L124.5 333.5L124.4 340.8L98.7 330.2V323.5Z" fill="#262626"/>
<path d="M117.2 327.1L112.5 325.3V244.4L117.2 244.1V327.1Z" fill="#262626"/>
<path d="M121.6 326.7L116.8 327.1V244.1H121.6V326.7Z" fill="#3A3A3A"/>
<path d="M129 330.2L124.3 328.4V247.6L129 247.3V330.2Z" fill="#262626"/>
<path d="M133.3 329.7L128.5 330.2V247.3H133.3V329.7Z" fill="#3A3A3A"/>
<path d="M135.6 244.7L0.600006 209V215.7L135.6 251.4V244.7Z" fill="#2B2A2A"/>
<path d="M103.9 149.3L219.3 145C219.3 145 244.8 145.9 257.2 146.5C257.2 146.5 321.6 147.9 321.6 153.4V173.2L147.9 161.8L103.9 149.3Z" fill="#232323"/>
<path d="M101 150.1L216.4 145.8C216.4 145.8 241.9 146.7 254.2 147.3C254.2 147.3 318.6 148.7 318.6 154.2V174L144.9 162.6L101 150.1Z" fill="#471518"/>
<path d="M29.8 153.8L160.9 171.6L160.7 220.4L29.9 192.7L29.8 153.8Z" fill="#191919"/>
<path d="M283.9 4.8C283.2 3.4 278.8 3.4 278.8 3.4L213.5 0.199997L100.8 133.8L155.7 141.9L282.4 8.3C282.4 8.3 284.6 6.4 283.9 4.8Z" fill="#191919"/>
<path d="M236.7 147.4C236.7 147.4 267.2 132.4 281 120.4C281 120.4 333.4 84.9 298 64.4C284.9 56.8 251 56.3 251.5 45.6C251.7 40.2 282.4 8.40001 282.4 8.40001L216.7 6.10001L108.2 131.9L158.9 147.7L236.7 147.4Z" fill="#282828"/>
<path d="M156.4 158.7L224.8 154.2C224.8 154.2 234.2 152.8 241.6 155.6L257.1 156.2C257.1 156.2 281.5 156.8 292.2 155.9C306.1 154.7 294.2 172.2 294.2 172.2L237.8 173.9L156.4 158.7Z" fill="#C55F2E"/>
<path d="M171.2 165.1L224.8 161.4C224.8 161.4 234.2 160 241.6 162.8L257.1 167.5C257.1 167.5 257.3 169.7 271 167.1C284.7 164.5 273 180.4 273 180.4L237.8 181L171.2 165.1Z" fill="#F78F50"/>
<path d="M200.7 46.1L228.7 121.9L229.6 128L245.2 167.9L252.5 168.5L235.8 126.3L232.6 121L202.5 45.5L200.7 46.1Z" fill="#04090D"/>
<path d="M202.5 45.5L230.5 121.3L231.4 127.5L246.9 167.4L254.3 167.9L237.5 125.7L234.3 120.4L206.7 45.3L202.5 45.5Z" fill="#585858"/>
<path d="M129.6 249.8L135.7 251.4C159.3 249.2 241.6 240.2 247.3 239.7C259.5 238.5 260.2 235.6 260.2 235.6L166.5 172.4L160.4 171.6V195.7C160.4 195.7 160.4 216.4 141.6 218.8L134.6 219.6C134.6 219.6 129.5 221.2 129.5 226.6C129.5 232 129.6 249.8 129.6 249.8Z" fill="#2B2A2A"/>
<path d="M264.9 165.9C264.9 165.9 264.5 164.6 263.2 163.9C263.2 163.9 261.8 162 263.9 161.5C263.9 161.5 271.9 159.5 280.1 159C280.1 159 319.5 156.5 320.3 153.5L320.2 207C320.2 207 319.8 210.5 291.8 213.8C291.8 213.8 269.3 216.6 264.9 219.7V165.9Z" fill="#232323"/>
<path d="M266.2 165.9C266.2 165.9 265.8 164.6 264.5 163.9C264.5 163.9 263.1 162 265.2 161.5C265.2 161.5 273.2 159.5 281.4 159C281.4 159 320.8 156.5 321.6 153.5L321.5 207C321.5 207 321.1 210.5 293.1 213.8C293.1 213.8 270.6 216.6 266.2 219.7V165.9Z" fill="#3A3A3A"/>
<path d="M129.6 249.8L135.7 251.4C159.3 249.2 241.6 240.2 247.3 239.7C259.5 238.5 260.2 235.6 260.2 235.6L266.1 165.5L260.2 166.7L160.5 171.6V195.7C160.5 195.7 160.5 216.4 141.7 218.8L134.7 219.6C134.7 219.6 129.6 221.2 129.6 226.6C129.6 232 129.6 249.8 129.6 249.8Z" fill="#383838"/>
<path d="M167.5 247.5L180.5 339L190.5 342.5L201.5 339.5L216.4 231L190.6 242.5L167.5 247.5Z" fill="#3A3A3A"/>
<path d="M167.5 247.5L180.5 339L190.5 342.5L190.6 239.8L167.5 247.5Z" fill="#191919"/>
<path d="M135.6 251.4C135.6 251.4 246.6 241.1 253.3 240.4C265.5 239.2 266.2 236.3 266.2 236.3V165.9C266.2 165.9 262.7 167.8 255.3 167.8L166.5 172.3V196.4C166.5 196.4 166.5 217.1 147.7 219.5L140.7 220.3C140.7 220.3 135.6 221.9 135.6 227.3C135.6 232.7 135.6 251.4 135.6 251.4Z" fill="#424242"/>
<path d="M160.5 171.6L29.8 153.8L85.3 150.9L231.3 168.1L160.5 171.6Z" fill="#2D2D2D"/>
<path d="M88.7 155.3L101 129.1C101 129.1 142.1 120.9 174.7 138.1L165.7 165.9L88.7 155.3Z" fill="#191919"/>
<path d="M183.1 363.7L180.5 339L190.5 342.5L201.5 339.5L197.4 364.2L190.4 366L183.1 363.7Z" fill="#AF9651"/>
<path d="M183.1 363.7L180.5 339L190.5 342.5L190.4 366L183.1 363.7Z" fill="#99833D"/>
<path d="M91.4 328.8L94.5 329.9L106.3 328.4V330L94.4 331.9L91.4 330.5V328.8Z" fill="#AF9651"/>
<path d="M106.3 328.4L103.3 327.2L91.4 328.8L94.5 329.9L106.3 328.4Z" fill="#BCA15C"/>
<path d="M91.4 328.8L94.5 329.9L94.4 331.9L91.4 330.5V328.8Z" fill="#99833D"/>
<path d="M106.9 335.5L109.9 336.6L121.7 335.1V336.7L109.9 338.6L106.9 337.2V335.5Z" fill="#AF9651"/>
<path d="M121.7 335.1L118.7 333.8L106.9 335.5L109.9 336.6L121.7 335.1Z" fill="#BCA15C"/>
<path d="M106.9 335.5L109.9 336.6V338.6L106.9 337.2V335.5Z" fill="#99833D"/>
<path d="M99.2 332.1L102.3 333.3L114.1 331.7V333.4L102.2 335.3L99.2 333.9V332.1Z" fill="#AF9651"/>
<path d="M114.1 331.7L111.1 330.5L99.2 332.1L102.3 333.3L114.1 331.7Z" fill="#BCA15C"/>
<path d="M99.2 332.1L102.3 333.3L102.2 335.3L99.2 333.9V332.1Z" fill="#99833D"/>
</svg>
