<svg viewBox="0 0 392.98666 669.82666" xmlns="http://www.w3.org/2000/svg" xmlns:xlink="http://www.w3.org/1999/xlink"><clipPath id="a"><path d="m524.051 2080.26h1438.469c25.81 124.09 39.46 257.6 39.46 396.68 0 658.06 84.3 1191.52-758.69 1191.52-842.997 0-758.696-533.46-758.696-1191.52 0-139.08 13.648-272.59 39.457-396.68z"/></clipPath><clipPath id="b"><path d="m629.371 1996.73c-83.18 16.7-160.562 42.74-230.387 77.55-75.304 37.54-142.011 85.32-198.277 142.03-108.4257 109.29-175.8789 249.14-195.07028 404.43-11.33985 91.76-5.5507825 186.01 17.19918 280.13 22.9805 95.07 62.6758 187.33 117.9731 274.21 117.836 185.13 301.07 336.59 529.89 438 44.332 19.64 96.199-.37 115.848-44.7 19.648-44.33-.363-96.2-44.695-115.85-197.09-87.35-353.7-215.9-452.899-371.74-44.89-70.53-77-144.95-95.426-221.18-17.765-73.5-22.347-146.62-13.609-217.33 14.375-116.34 64.672-220.87 145.449-302.28 42.731-43.07 93.856-79.59 151.961-108.56 62.356-31.08 133.059-53.6 210.145-66.94-22.313-81.23-40.051-132.92-58.102-167.77z"/></clipPath><clipPath id="c"><path d="m0 0h2947v5024h-2947z"/></clipPath><clipPath id="d"><path d="m2762.27 4615.6c52.38-66.74 94.29-136.81 124.76-208.63 32.86-77.46 52.53-157.13 58.46-236.79 11.43-153.52-28.15-303.66-114.45-434.19-51-77.12-116.63-145.01-195.07-201.78-79.24-57.35-169.35-101.7-267.83-131.82-209.85-64.18-447.55-60.28-687.38 11.28-46.47 13.87-72.9 62.78-59.04 109.25 13.87 46.47 62.78 72.9 109.25 59.03 206.58-61.64 409.15-65.66 585.81-11.63 79.95 24.45 152.7 60.17 216.23 106.15 61.26 44.33 112.25 96.94 151.54 156.37 64.66 97.79 94.33 209.93 85.81 324.3-4.5 60.5-19.64 121.48-44.99 181.25-27.21 64.14-66.33 127.2-116.27 187.41 69.74 47.26 116.8 75.03 153.17 89.8z"/></clipPath><clipPath id="e"><path d="m917.348 3375.97c68.414-31.23 459.822-99.59 624.222 23.17-88.16-162.06-17.32-359.99-283.77-359.92-147.27.05-313.323 226.45-340.452 336.75z"/></clipPath><g transform="matrix(.13333333 0 0 -.13333333 0 669.82667)"><path d="m2415.91 264.809c0-146.25-515-264.809-1150.29-264.809-635.292 0-1150.296 118.559-1150.296 264.809 0 146.242 515.004 264.8 1150.296 264.8 635.29 0 1150.29-118.558 1150.29-264.8" fill="#d8d8d8"/><path d="m1652.15 210.859-25.31 1.051c-29.59 1.219-53.77 32.852-56.63 74.102l-61.38 883.638c-3.48 50.09 25.46 93.42 61.39 91.93l167.89-6.92c34.8-1.44 60.91-44.39 56.43-92.83l-81.21-877.76c-3.95-42.711-30.5-74.468-61.18-73.211" fill="#af7a4f"/><path d="m1676.02 356.809-28.84 1.191c-33.72 1.391-61.39 33.172-64.82 74.441l-65.45 787.859c-6.23-14.7-9.36-32.22-8.08-50.65l61.38-883.638c2.86-41.25 27.04-72.883 56.63-74.102l25.31-1.051c30.68-1.257 57.23 30.5 61.18 73.211l8.54 92.27c-12.4-12.84-28.53-20.25-45.85-19.531" fill="#a06d47"/><path d="m1564.32 1226.41 152.07-6.27c1.27-2.07 3.1-7 2.45-13.96l-75.67-817.918c-.49-5.313-2.13-8.512-3.15-9.942l-19.18.789c-.87 1.403-2.19 4.403-2.52 9.172l-57.19 823.409c-.52 7.5 1.71 12.65 3.19 14.72z" fill="#cc9369"/><path d="m1651.79 904.59c-155.06 0-155.06 89.648-155.06 200.23v4.05c0 110.58 34.93 200.23 78 200.23h154.12c43.08 0 78.01-89.65 78.01-200.23v-4.05c0-110.582 0-200.23-155.07-200.23" fill="#bcbcbc"/><path d="m1271.34 2055.12h-738.988l150.496-1123.44h341.082l71.95 668.98h297.69s28.54-442.98 59.53-508.6c30.99-65.63 304.44-118.501 393.76 1.82 16.41 71.09 110.24 961.24 110.24 961.24z"/><path d="m627.34 926.129c187.558-8.75 317.828-17.5 404.76 5.551 16.71-124.571 51.5-232.95-20.64-260.211-72.132-27.258 16.09-78.449 31.44-80.821 15.35-2.367 46.05-42.656 21.49-56.886-24.56-14.223-57.99-23.703-40.5-35.551 17.48-11.852 17.13-113.813 14.07-147-3.07-33.18-121.335-46.68-157.394-46.68-36.058 0-120.293-160.16-221.714-172.332-101.422-12.16-276.586-9.777-289.731 124.93-15.332 157.121 279.113 64.633 341.988 233.691 6.965 18.731-49.117 40.301-50.648 58.078-1.535 17.774-12.195 71.114 13.086 81.774 25.281 10.668 26.902 39.109 0 49.777-26.902 10.672-27.313 23.653-46.207 245.68" fill="#4f280e"/><path d="m1030.75 967.262c24.96-5.211 56.23-84.332 65.61-104.282 12.21-25.949 22.46-52.699 30.6-79.988-18.6-19.601-54.98-24.844-80.16-30.871-126.491-30.269-258.542-40.242-388.624-29.449-23.66 1.957-47.231 4.609-70.707 7.949-13.153 28.899 5.125 60.149 14.82 86.789 17.063 46.86 1.477 135.942 60.305 137.289 66.281 1.531 132.179-6.769 198.367-8.187 33.102-.723 66.367.238 99.144 4.929 15.098 2.161 56.565 18.77 70.645 15.821 2.92-.614-2.27.476 0 0" fill="#683817"/><path d="m524.051 2080.26h1438.469c25.81 124.09 39.46 257.6 39.46 396.68 0 658.06 84.3 1191.52-758.69 1191.52-842.997 0-758.696-533.46-758.696-1191.52 0-139.08 13.648-272.59 39.457-396.68" fill="#0050c6"/><g clip-path="url(#a)" fill="#fff"><path d="m2086.62 2200.39h-1688.561v40.18h1688.561z"/><path d="m2086.62 2296.36h-1688.561v40.18h1688.561z"/><path d="m2086.62 2392.32h-1688.561v40.18h1688.561z"/><path d="m2086.62 2488.29h-1688.561v40.17h1688.561z"/><path d="m2086.62 2584.25h-1688.561v40.18h1688.561z"/><path d="m2086.62 2680.21h-1688.561v40.18h1688.561z"/><path d="m2086.62 2776.18h-1688.561v40.18h1688.561z"/><path d="m2086.62 2872.14h-1688.561v40.18h1688.561z"/><path d="m2086.62 2968.11h-1688.561v40.18h1688.561z"/><path d="m2086.62 3064.07h-1688.561v40.18h1688.561z"/><path d="m2086.62 3160.04h-1688.561v40.18h1688.561z"/><path d="m2086.62 3256h-1688.561v40.18h1688.561z"/><path d="m2086.62 3351.96h-1688.561v40.18h1688.561z"/><path d="m2086.62 3447.93h-1688.561v40.18h1688.561z"/><path d="m2086.62 3543.89h-1688.561v40.18h1688.561z"/></g><path d="m1954.35 1974.73h-1419.838l-22.211 160.78h1464.849z" fill="#683817"/><path d="m1427.88 1934.52h-366.31c-12.87 0-23.3 10.43-23.3 23.3v194.63c0 12.86 10.43 23.3 23.3 23.3h366.31c12.87 0 23.3-10.44 23.3-23.3v-194.63c0-12.87-10.43-23.3-23.3-23.3" fill="#f9a300"/><path d="m1385.18 1974.75h-280.91c-9.86 0-17.86 6.95-17.86 15.53v129.71c0 8.57 8 15.52 17.86 15.52h280.91c9.86 0 17.86-6.95 17.86-15.52v-129.71c0-8.58-8-15.53-17.86-15.53" fill="#683817"/><path d="m879.758 2211.59c1.211 6.61-3.164 12.95-9.774 14.16l-90.23 16.56c-6.613 1.21-12.953-3.16-14.164-9.77l-62.594-341.07c-1.215-6.61 3.16-12.95 9.77-14.16l90.234-16.56c6.609-1.22 12.949 3.16 14.164 9.77z" fill="#c4240a"/><path d="m62.2852 1234.96c410.1598 6.15 621.3318 430.72 643.0898 666.9 44.793-14.75 54.348-17.14 99.672-30.16 10.699-808.3-513.317-778.99-742.7618-636.74" fill="#bcbcbc"/><path d="m254.734 1213.37c-4.007.73-8.015 1.52-12.015 2.36 39.328 12.75 77.433 29.61 114.129 50.53 78.437 44.72 149.418 107.26 210.961 185.89 52.55 67.15 97.769 146.21 130.765 228.65 21.41 53.48 37.27 106.93 46.836 157.41 3.582-1.05 7.227-2.11 11.082-3.22-1.008-135.1-18.137-250.96-51.027-344.81-30.477-86.96-74.563-155.23-131.031-202.92-44.082-37.22-95.903-62.08-154.02-73.89-52.191-10.6-107.937-10.6-165.68 0z" fill="#d8d8d8"/><path d="m968.824 2026.47c-40.332-138.9-91.062-246.23-257.211-225.58-56.699 7.04-160.793 66.45-58.461 110.86 71.27 30.93 135.368-53.19 203.731 8.26 57.644 51.82 74.996 144.45 65.555 218.12-10.399 81.18-111.961 91.39-178.84 98.57-18.657 2.01 8.437 25.64 15.601 26.78 47.672 7.59 100.504 10 144.68-13.13 74.711-39.12 86.246-150.52 64.945-223.88-1.883-6.49 10.949 37.72 0 0" fill="#f9a300"/><path d="m890.809 1967.23c-61.672-94.2-216.809 19.75-288.743 44.15 19.528 34.38 35.036 87.25 45.75 124.62 25.164-7.45 54.977 29.42 103.411 18.29 14.921-35.98 112.574-39.53 116.921-5.95 68.844-13.52 48.54-141.59 22.661-181.11" fill="#fc9"/><path d="m629.371 1996.73c-83.18 16.7-160.562 42.74-230.387 77.55-75.304 37.54-142.011 85.32-198.277 142.03-108.4257 109.29-175.8789 249.14-195.07028 404.43-11.33985 91.76-5.5507825 186.01 17.19918 280.13 22.9805 95.07 62.6758 187.33 117.9731 274.21 117.836 185.13 301.07 336.59 529.89 438 44.332 19.64 96.199-.37 115.848-44.7 19.648-44.33-.363-96.2-44.695-115.85-197.09-87.35-353.7-215.9-452.899-371.74-44.89-70.53-77-144.95-95.426-221.18-17.765-73.5-22.347-146.62-13.609-217.33 14.375-116.34 64.672-220.87 145.449-302.28 42.731-43.07 93.856-79.59 151.961-108.56 62.356-31.08 133.059-53.6 210.145-66.94-22.313-81.23-40.051-132.92-58.102-167.77" fill="#0050c6"/><g clip-path="url(#b)" fill="#fff"><path d="m656.773 3644.5 99.004-223.39s-8.824-4.08-17.648-8.16c-4.418-2.03-8.832-4.07-12.145-5.59-1.656-.76-3.035-1.4-4-1.84-.964-.45-1.5-.73-1.5-.73l-105.925 220.19s.648.34 1.8.87c1.157.54 2.805 1.3 4.782 2.22 3.957 1.82 9.234 4.26 14.511 6.7 10.563 4.86 21.121 9.73 21.121 9.73"/><path d="m557.199 3595.65 115.68-215.23s-8.504-4.58-17.012-9.16c-8.336-4.83-16.672-9.67-16.672-9.67l-122.84 211.22s10.141 5.86 20.282 11.73c10.281 5.55 20.562 11.11 20.562 11.11"/><path d="m461.063 3538.99 132.839-205.08s-7.964-5.31-15.929-10.63c-3.977-2.67-8-5.27-10.942-7.32-2.91-2.08-4.851-3.47-4.851-3.47l-140.16 200.14s2.406 1.72 6.007 4.28c3.629 2.53 8.551 5.75 13.442 9.03 9.797 6.53 19.594 13.05 19.594 13.05"/><path d="m369.539 3473.85 150.305-192.65s-1.895-1.44-4.735-3.61c-2.781-2.22-6.425-5.25-10.105-8.25-7.348-6-14.695-12-14.695-12l-157.633 186.69s9.176 7.52 18.347 15.03c4.598 3.74 9.172 7.52 12.649 10.29 3.519 2.7 5.867 4.5 5.867 4.5"/><path d="m283.727 3400.18 167.726-177.68s-1.723-1.61-4.308-4.02c-1.29-1.21-2.793-2.62-4.407-4.13-1.554-1.57-3.215-3.23-4.871-4.9-6.648-6.65-13.293-13.3-13.293-13.3l-174.929 170.6s8.441 8.45 16.882 16.91c2.114 2.11 4.227 4.22 6.207 6.2 2.036 1.91 3.934 3.7 5.559 5.23 3.262 3.06 5.434 5.09 5.434 5.09"/><path d="m204.902 3318 184.711-159.96s-1.535-1.76-3.84-4.4c-1.152-1.32-2.5-2.86-3.941-4.51-1.406-1.67-2.844-3.5-4.316-5.3-5.875-7.23-11.746-14.46-11.746-14.46l-191.594 151.64s7.582 9.34 15.164 18.68c1.906 2.33 3.781 4.69 5.598 6.84 1.843 2.12 3.566 4.11 5.042 5.81 2.954 3.39 4.922 5.66 4.922 5.66"/><path d="m134.512 3227.44 200.777-139.26s-1.332-1.89-3.328-4.73c-2.066-2.8-4.516-6.71-7.035-10.57-5.035-7.73-10.071-15.47-10.071-15.47l-207.113 129.65s6.602 10.17 13.199 20.33c3.313 5.08 6.579 10.19 9.235 13.86 2.601 3.71 4.336 6.19 4.336 6.19"/><path d="m74.082 3128.93 215.363-115.42s-.277-.5-.765-1.38c-.477-.88-1.215-2.11-1.957-3.66-1.543-3.06-3.598-7.14-5.657-11.22-2.066-4.07-4.132-8.14-5.683-11.2-1.422-3.11-2.367-5.18-2.367-5.18l-220.8988 104.44s1.2851 2.78 3.2109 6.95c2.0625 4.09 4.8086 9.54 7.5547 14.99 2.7578 5.45 5.5195 10.89 7.5899 14.97 1.0117 2.06 1.9687 3.7 2.5976 4.88.6445 1.16 1.0117 1.83 1.0117 1.83"/><path d="m25.3555 3023.12 227.8165-88.34s-3.164-8.47-6.328-16.95c-.399-1.06-.797-2.11-1.188-3.16-.347-1.05-.683-2.09-1.015-3.09-.661-2.01-1.274-3.88-1.801-5.49-1.063-3.21-1.77-5.35-1.77-5.35l-232.23016 75.98s.96875 2.93 2.42186 7.32c.7266 2.2 1.5781 4.76 2.4922 7.5.4531 1.37.9297 2.79 1.4063 4.23.5273 1.42 1.0625 2.86 1.5937 4.3 4.3008 11.53 8.6016 23.05 8.6016 23.05"/><path d="m-9.91406 2911.06 237.35906-57.99s-.539-2.17-1.351-5.43c-.383-1.63-.942-3.52-1.344-5.57-.418-2.05-.867-4.23-1.312-6.42-.907-4.36-1.813-8.73-2.493-12-.347-1.64-.632-3-.836-3.96-.16-.95-.25-1.5-.25-1.5l-240.2887 44.31s.1289.77.3633 2.12c.2695 1.33.6601 3.23 1.1289 5.51.9414 4.57 2.2031 10.65 3.4609 16.74.6328 3.04 1.2696 6.08 1.8672 8.94.5821 2.85 1.3047 5.46 1.836 7.73 1.1171 4.51 1.85934 7.52 1.85934 7.52"/><path d="m-30.1406 2794.26 243.1096-24.54s-.75-8.78-1.504-17.57c-.086-1.09-.215-2.19-.274-3.27-.043-1.08-.086-2.14-.128-3.17-.09-2.06-.172-3.98-.243-5.63-.148-3.29-.246-5.48-.246-5.48l-244.156 9.61s.1406 3.14.3515 7.84c.1094 2.36.2344 5.1.3711 8.04.0703 1.47.1446 2.99.2188 4.54.0859 1.54.2422 3.1.3633 4.66 1.0703 12.48 2.1367 24.97 2.1367 24.97"/><path d="m-33.3281 2674.62 244.0621 11.7s.075-2.18.184-5.45c.266-3.24.613-7.57.965-11.9.371-4.32.605-8.67.976-11.9.407-3.22.672-5.36.672-5.36l-242.7849-27.56s-.375 3.15-.9414 7.87c-.5274 4.73-.9453 11.04-1.4766 17.35-.4883 6.32-.9765 12.63-1.3437 17.36-.1875 4.74-.3125 7.89-.3125 7.89"/><path d="m-18.1055 2554.8 239.1995 49.88s.441-2.1 1.101-5.25c.328-1.58.707-3.42 1.118-5.39.402-1.98 1.019-4.03 1.535-6.11 1.062-4.15 2.129-8.3 2.925-11.41.391-1.56.719-2.86.95-3.76.215-.92.386-1.42.386-1.42l-235.21056-66.18s-.2461.76-.58594 2.12c-.34766 1.35-.85156 3.29-1.45313 5.6-1.1914 4.65-2.77737 10.84-4.36717 17.03-.7617 3.1-1.6289 6.18-2.25 9.1-.6211 2.93-1.2031 5.65-1.6992 7.99-.9883 4.68-1.6485 7.8-1.6485 7.8"/><path d="m16.4102 2438.07 227.7028 88.62s3.184-7.88 6.367-15.77c3.543-7.72 7.083-15.43 7.083-15.43l-220.813-104.62s-5.3437 11.7-10.6836 23.39c-4.8281 11.9-9.6562 23.81-9.6562 23.81"/><path d="m70.25 2328.21 209.363 125.98s.246-.46.731-1.25c.504-.78 1.219-1.9 2.082-3.23 1.707-2.68 3.984-6.26 6.265-9.83 1.133-1.79 2.27-3.58 3.332-5.25 1.153-1.62 2.227-3.13 3.149-4.43 1.836-2.6 3.058-4.33 3.058-4.33l-199.7652-140.71s-1.8476 2.63-4.621 6.58c-1.3868 1.98-3 4.29-4.7266 6.76-1.6602 2.51-3.3789 5.24-5.1172 7.94-3.457 5.43-6.9141 10.86-9.5078 14.94-1.2891 2.04-2.3672 3.74-3.1172 4.93-.7344 1.2-1.125 1.9-1.125 1.9"/><path d="m142.141 2229.23 184.941 159.69s1.375-1.63 3.438-4.06c.515-.61 1.074-1.27 1.664-1.97.613-.68 1.289-1.37 1.968-2.1 1.371-1.46 2.832-3.01 4.293-4.56 2.91-3.12 5.817-6.24 8-8.58 1.063-1.19 2.039-2.11 2.715-2.76s1.059-1.02 1.059-1.02l-173.274-172.28s-.57.56-1.57 1.54c-1 .97-2.437 2.36-4.066 4.13-3.289 3.51-7.672 8.18-12.059 12.86-2.184 2.34-4.367 4.68-6.418 6.88-1.019 1.1-2.004 2.17-2.941 3.18-.899 1.05-1.746 2.04-2.532 2.95-3.129 3.66-5.218 6.1-5.218 6.1"/><path d="m228.977 2144.05 156.234 187.87s6.703-5.44 13.402-10.88c3.426-2.65 6.985-5.15 9.582-7.1 2.618-1.93 4.364-3.22 4.364-3.22l-143.469-197.79s-2.551 1.88-6.375 4.7c-3.809 2.84-8.949 6.54-13.969 10.42-9.883 8-19.769 16-19.769 16"/><path d="m327.215 2074.58 125.609 209.59s1.871-1.15 4.68-2.86c2.746-1.81 6.711-3.81 10.562-5.96 3.872-2.13 7.743-4.26 10.645-5.86 1.449-.8 2.656-1.47 3.5-1.94.418-.24.769-.4 1-.52.234-.11.359-.17.359-.17l-112.691-216.81s-.176.09-.5.25c-.328.16-.809.39-1.406.73-1.203.66-2.918 1.59-4.977 2.72-4.109 2.26-9.594 5.27-15.078 8.28-5.465 3.05-10.992 5.95-14.984 8.48-4.032 2.44-6.719 4.07-6.719 4.07"/><path d="m432.965 2020.9 95.242 225.02s.512-.23 1.406-.63c.879-.43 2.207-.92 3.782-1.53 3.148-1.24 7.347-2.89 11.546-4.54 4.2-1.66 8.395-3.32 11.539-4.57 3.223-1.11 5.375-1.85 5.375-1.85l-83-229.81s-2.894 1.01-7.23 2.53c-4.305 1.68-10.039 3.93-15.777 6.18-5.731 2.26-11.461 4.53-15.758 6.23-2.149.85-3.942 1.54-5.176 2.11-1.238.55-1.949.86-1.949.86"/><path d="m543.078 1982.25 66.735 235.05s.542-.18 1.511-.45c.977-.25 2.371-.61 4.047-1.04 3.348-.88 7.813-2.04 12.274-3.2 4.46-1.17 8.921-2.34 12.265-3.22 3.403-.75 5.668-1.25 5.668-1.25l-55.558-237.94s-2.946.66-7.356 1.65c-4.402 1.14-10.269 2.66-16.137 4.19-5.863 1.53-11.726 3.07-16.129 4.22-2.195.58-4.027 1.06-5.308 1.4-1.281.37-2.012.59-2.012.59"/></g><path d="m2679.28 4783.73c29.57-34.7 60.69-79.44 57.85-124.94-.88-14.07-4.41-28.09-2.88-42.1 3.08-28.33 25.63-50.06 46.78-69.17-14.43-26.5-40.14-48.2-63.41-67.41-14.26 14.06-29.58 27.03-45.79 38.77-7.06 5.11-14.82 10.17-23.53 10.38-5.58.13-10.97-1.76-16.36-3.23-41.4-11.26-88.82 4.32-115.47 37.95-4.45 5.61-8.39 11.75-10.64 18.55-4.11 12.4-2.16 26.54 4.69 37.67 2.87 4.66 6.72 9.44 6.07 14.87-.49 4.13-3.49 7.45-6.35 10.46-20.52 21.66-41.04 43.32-61.56 64.98-15.76 16.63-55.78 60.12-62.82 81.92-1.62 5.03-2.73 10.46-1.43 15.59 3.47 13.76 21.78 17.83 35.48 14.11 20.15-5.46 93.2-97.02 106.47-110.57-15.44 12.81 137.18 90.62 152.9 72.17" fill="#ffd399"/><path d="m1549.26 4980.51c2.23 5.56 9.12 8.03 15.39 5.51l814.62-326.57c6.28-2.52 9.56-9.06 7.33-14.62l-19.09-47.62c-2.23-5.56-9.12-8.03-15.4-5.51l-814.61 326.57c-6.28 2.52-9.56 9.06-7.33 14.62z" fill="#727272"/><path d="m1537.05 4993.22c2.09 5.21 8.65 7.48 14.65 5.07l14.85-5.95c6-2.41 9.17-8.58 7.08-13.79l-24.48-61.08c-2.09-5.21-8.65-7.48-14.65-5.07l-14.85 5.95c-6 2.41-9.17 8.58-7.09 13.78z" fill="#adacac"/><path d="m1649.13 5016.91c.8 2 3.29 2.89 5.55 1.98l293.99-117.85c2.27-.91 3.45-3.27 2.65-5.28l-6.89-17.19c-.81-2-3.3-2.89-5.56-1.98l-293.99 117.86c-2.26.91-3.45 3.26-2.64 5.27z" fill="#727272"/><path d="m1644.72 5021.49c.76 1.88 3.12 2.7 5.29 1.83l5.36-2.14c2.16-.87 3.31-3.1 2.56-4.98l-8.84-22.04c-.76-1.88-3.12-2.7-5.29-1.84l-5.36 2.15c-2.16.87-3.31 3.1-2.55 4.98z" fill="#adacac"/><path d="m2361.15 4798.2c.47 14.91 4.51 29.31 15.68 40.48 15.7 15.7 43.53 13.53 63.14 8.27 18.94-5.08 38.03-19.69 39.26-40.56.38-6.43-.71-12.64-2.76-18.61-15.55-15.28-28.32-33.04-38.03-52.57-5.22-3.73-12.3-5.11-18.79-4.29-1.64.21-3.26.53-4.85.94 14.18 16.57 24.73 35.96 30.86 56.94 1.18 4.04-.06 8.57-2.6 11.85-.14.19-.32.38-.51.58-1.77 2.27-5.51 4.45-7.07.71-9.25-22.04-23.71-41.18-42.09-56.24-.19 7 4.73 14.73 2.46 21.66-1.9 5.77-8.05 8.82-13.61 11.27-4.68 2.05-9.36 4.09-14.03 6.14-2.59 4.32-5.05 8.83-7.06 13.43zm130.69-28.28c5.68-9.74 8.28-20.72 8.19-31.84-7.99.78-14.91 2.04-20.82 3.46.64 3.85 1.42 7.67 2.34 11.48 4.11 5.28 7.63 10.92 10.29 16.9zm19.06-20.96c6.09-5.04 12.9-8.7 20.11-11.36-7.38-.45-14.17-.49-20.43-.24-.28 4.55-.89 9.07-1.86 13.53.71-.65 1.42-1.3 2.18-1.93zm-372.65 91.25c76.77-48.16 290.32-197.75 457.04-115.57.65 9.91-22.45 22.65-25.14 22.75-9.57.33-19.15 1.06-28.38 3.02-22.1 10.38-38.73 30.08-43.49 54.76-.36 1.83-1.28 4.34-2.72 6.25-6.72 26.22-30.61 47.42-54.98 56.89-24.86 9.67-57.27 8.45-79.33-7.59-4.65-3.39-7.84-7.54-10.12-12.18-1.02-1.71-1.89-3.44-2.65-5.19-2.27-4.63-4.09-9.55-5.66-14.5-2.96-9.33-5.58-19.74-10.82-28.2-86.65 11.56-185.38 84.3-193.75 39.56" fill="#727272"/><path d="m2683.6 4710.03c-29.78 44.06-32.97 93.93-7.13 111.4 25.85 17.48 86.49 1.78 116.27-42.28 29.79-44.05 17.42-99.79-8.42-117.26-25.85-17.47-70.94 4.08-100.72 48.14" fill="#adacac"/><path d="m2765.15 4647.87c-31.8-10.11-63.6-20.22-95.4-30.33-30.15-9.59-60.61-18.11-91.67-24.39-212.06-42.8-251.88-12.69-229.48 39.28-200.67 78.21-711.3 271.57-693.17 296.87 35.93 50.18 54.17 39.91 104.26 38.68 50.09-1.22 106.22-25.35 153.46-42.28 162.19-58.12 324.38-116.25 486.56-174.37 51.01-18.28 106.3-36.76 158.11-21.72 48.49 14.09 83.51 54.62 115.63 93.19 99.9-25.28 128.27-146.74 91.7-174.93" fill="#683817"/><path d="m2212.5 4662.5c14.45-3.93 24.62-19.64 22.3-34.44-1.85-11.78-10.48-23.16-6.89-34.53 1.86-5.89 7.13-10.56 13.2-11.7 6.07-1.13 12.68 1.32 16.54 6.14 3.91 4.89 4.85 11.42 6.06 17.56 1.29 6.5 3.05 12.9 5.25 19.15 1.23 3.49 2.69 7.06 5.4 9.59 6.18 5.75 15.98 3.97 24.1 1.68 16.1-4.56 32.02-9.74 47.72-15.53 13.23-4.88 26.38-10.21 40.2-13 31.45-6.35 64 .84 96.03-.92 7.44-.41 15.04-1.29 22.25.6 7.2 1.9 14.08 7.39 14.95 14.79.91 7.72-4.76 14.64-10.79 19.56-9.54 7.78-20.75 13.21-31.97 18.3-79.69 36.11-164.86 58.39-246.67 89.39-17.63 6.68-35.15 13.78-53.42 18.41-8.39 2.13-17.45 3.68-25.51.55-8.07-3.14-14.21-12.64-10.79-20.58 3.37-7.82 13.21-9.95 20.25-14.75 11.05-7.54 14.99-23.85 8.59-35.6-3.11-5.71-8.34-10.53-9.33-16.96-1.11-7.16 3.41-13.89 8.02-19.47 3.9-4.71 8.23-9.36 13.89-11.67 5.65-2.32 12.95-1.64 16.83 3.08 2.93 3.57 3.99 9.24 8.4 10.61 1.74.54 3.63.22 5.39-.26" fill="#adacac"/><path d="m2186.05 4675.65s-.01.01-.01.01c-.64.78-1.15 1.43-1.56 1.98.1.15.2.28.29.42 1.51 2.12 3.38 4.77 5.09 7.91 9.4 17.26 7.18 39.03-4.09 54.56 9.34-3.05 18.72-6.64 28.46-10.37 2.55-.98 5.1-1.95 7.65-2.92 32.01-12.13 64.83-23.04 96.57-33.59 37.78-12.56 76.83-25.55 114.02-40.45 12.15-4.88 23.83-9.85 34.71-14.78 5.8-2.63 11.76-5.41 17.22-8.58-.23.01-.47.02-.7.04-14.06.77-27.77 0-41.02-.74-18.35-1.03-35.69-2-51.66 1.23-9.96 2.01-20.07 5.79-30.77 9.8-1.99.74-3.98 1.49-5.97 2.22-16.2 5.97-32.84 11.38-49.45 16.09-7.36 2.08-29.78 8.42-46.42-7.07-.91-.85-1.75-1.72-2.53-2.6-4.95 15.2-16.44 28.32-31.67 34.42-1.82.73-3.69 1.35-5.56 1.86-2.44.67-9.89 2.7-18.49.03-6.47-2.01-10.98-5.77-14.11-9.47z" fill="#cecece"/><path d="m2290.53 4514.14c-.97 36.69 45.23 21.57 64.47 20.74 10.91-.47 22.23 9.02 21.83 20.56-.4 11.77-16.74 19.97-23.96 27.43-19.33 20-26.62 47.62-12.58 73.13 13.22 24.03 58.58 17.49 65.36-9.2 3.98-15.66-10.13-17.91-16.11-28.87-7.14-13.09 6.85-26.33 14.47-35.06 10.04-11.51 20.67-24.87 20.54-41.02-.13-15.76-10.38-16.67-17.79-27-6.03-8.41 8.09-19.24-.19-31.05-8.31-11.87-23.09-12.58-35.97-9.49-15.79 3.78-26.21 14.54-39.03 23.53-9.55 6.69-40.72 4.22-41.04 16.3" fill="#727272"/><path d="m2367.48 4490c-21.76 8.73-34.13 31.52-60.36 30.32 1.63 1.86 3.91 3.47 6.45 4.38 17.48 6.32 34.94-7.93 52.81-2.4 9.6 2.98 17.57 10.5 21.87 20.64 1.91 4.51 2.77 8.76 2.62 12.99-1 28.98-42.65 36.91-44.05 68.15-.42 9.38 2.14 25.38 10.81 31.03 8.91 5.8 27.6-.72 33.24-9.14 1.54-2.3 1.67-5.04 1.08-5.91-4.05-6.04-11.01-8.56-14.74-15.4-4.28-7.84-4.64-17.66-1-26.93 7.78-19.82 34.48-32.85 34.29-55.77-.04-4.93-2.32-9.62-5.56-11.39-3.85-2.11-6.89-3.77-9.59-7.53-4.41-6.14-4.87-14.49-1.25-22.34.86-1.7 1.75-3.39 2.66-5.06-.03-.16-.08-.37-.16-.65-.99-3.34-3.87-6.34-7.17-7.45-6.68-2.26-15.67-.06-21.95 2.46z" fill="#848484"/><path d="m2673.05 4760.81c3.36-13.45 29.74-59.92 8.19-69.35-21.54-9.44-30.32 18.88-45.37 53.27-15.06 34.38-21.62 69.49-.13 73.09 28.93 4.84 33.96-43.55 37.31-57.01" fill="#ffdfb8"/><path d="m2633.02 4753.71c11.9-41.28 36.7-69.12 10.01-80.81-26.68-11.68-41.31 19.94-58.54 59.3s-28.6 72.41-3.86 83.23c24.73 10.83 37.66-10.67 52.39-61.72" fill="#ffdfb8"/><path d="m2583.64 4736.54c17.74-40.51 31.47-73.64 4.78-85.32-26.68-11.68-41.71 20.87-59.45 61.39-17.74 40.51-29.52 74.5-4.78 85.32 24.73 10.83 41.71-20.87 59.45-61.39" fill="#ffdfb8"/><path d="m2649.01 4741.41c-4.68-.32-9.12.73-12.98 2.95 14.95-34.22 23.75-62.3 45.21-52.9 19.65 8.6-.57 48.02-6.82 65.09-6.87-8.28-15.38-15.36-25.41-15.14" fill="#f9c587"/><path d="m2584.93 4731.19c17.04-38.88 31.64-69.87 58.1-58.29 25.24 11.05 4.44 36.56-7.97 74.21-3.05-1.97-6.19-3.91-9.08-6.12-10.76-7.71-28.18-14.32-41.05-9.8" fill="#f9c587"/><path d="m2555.21 4703.88c-8.16-1.45-17.52.32-24.71 5.23 17.09-38.86 32.01-69.24 57.92-57.89 23.99 10.5 15.32 38.34.43 73.3-9.56-9.75-20.15-17.95-33.64-20.64" fill="#f9c587"/><path d="m2505.89 4626.66c10.13-2.77 20.9-1.87 31.24-3.75 29.43-5.32 50.26-31.68 64.04-58.22 4.12-7.94 7.91-17.37 4.24-25.53-3.55-7.89-13.03-11.5-21.69-11.5-8.66-.01-17.06 2.74-25.65 3.86-16.37 2.13-33.14-1.68-49.44.93-26.24 4.19-47.06 24.16-63.35 45.15-16.3 20.99-30.33 44.37-51.37 60.6-7.16 5.53-15.49 10.69-18.68 19.16-4.1 10.89 2.66 23.81 13.04 29.07 10.37 5.25 23.09 3.96 33.76-.66 10.68-4.62 19.73-12.22 28.62-19.73 7.55-6.37 15.1-12.74 22.65-19.12 9.86-8.31 20.14-16.87 32.59-20.26" fill="#ffd399"/><path d="m2762.27 4615.6c52.38-66.74 94.29-136.81 124.76-208.63 32.86-77.46 52.53-157.13 58.46-236.79 11.43-153.52-28.15-303.66-114.45-434.19-51-77.12-116.63-145.01-195.07-201.78-79.24-57.35-169.35-101.7-267.83-131.82-209.85-64.18-447.55-60.28-687.38 11.28-46.47 13.87-72.9 62.78-59.04 109.25 13.87 46.47 62.78 72.9 109.25 59.03 206.58-61.64 409.15-65.66 585.81-11.63 79.95 24.45 152.7 60.17 216.23 106.15 61.26 44.33 112.25 96.94 151.54 156.37 64.66 97.79 94.33 209.93 85.81 324.3-4.5 60.5-19.64 121.48-44.99 181.25-27.21 64.14-66.33 127.2-116.27 187.41 69.74 47.26 116.8 75.03 153.17 89.8" fill="#0050c6"/><g clip-path="url(#c)"><g clip-path="url(#d)" fill="#fff"><path d="m1670.93 3380.74 69.86 234.14s9.36-2.63 18.72-5.26c4.68-1.32 9.36-2.65 12.86-3.64 1.76-.5 3.22-.91 4.24-1.2 1.03-.29 1.62-.42 1.62-.42l-62.53-236.21s-.71.17-1.94.51c-1.22.34-2.97.83-5.07 1.42-4.19 1.18-9.79 2.76-15.39 4.33-11.18 3.17-22.37 6.33-22.37 6.33"/><path d="m1778.37 3353.19 51.88 238.77s9.44-2.04 18.88-4.09c9.48-1.74 18.95-3.48 18.95-3.48l-43.83-240.38s-11.52 2.13-23.04 4.26c-11.42 2.46-22.84 4.92-22.84 4.92"/><path d="m1888.26 3333.8 32.24 242.2s9.51-1.13 19.02-2.26c4.75-.56 9.51-1.19 13.07-1.54 3.57-.31 5.95-.51 5.95-.51l-23.48-243.22s-2.94.26-7.35.65c-4.4.44-10.23 1.19-16.08 1.87-11.69 1.4-23.37 2.81-23.37 2.81"/><path d="m2000.15 3323.86 10.9 244.1s2.38-.13 5.94-.33c3.56-.12 8.3-.18 13.04-.29 9.49-.21 18.98-.42 18.98-.42l-1.46-244.34s-11.86.25-23.71.5c-5.93.14-11.86.24-16.3.39-4.43.24-7.39.39-7.39.39"/><path d="m2113.25 3324.11-12.07 244.05s2.35.1 5.89.26c1.76.08 3.82.17 6.03.27 2.2.18 4.54.37 6.88.56 9.37.74 18.75 1.47 18.75 1.47l22.15-243.33s-11.91-.94-23.82-1.89c-2.98-.23-5.95-.46-8.75-.67-2.79-.14-5.39-.27-7.62-.37-4.47-.21-7.44-.35-7.44-.35"/><path d="m2226.57 3335.39-36.5 241.6s2.31.34 5.77.85c1.74.25 3.76.55 5.93.86 2.15.36 4.44.82 6.73 1.23 9.16 1.68 18.32 3.37 18.32 3.37l47.14-239.76s-11.84-2.18-23.67-4.35c-2.96-.53-5.92-1.1-8.7-1.56-2.78-.42-5.38-.81-7.6-1.14-4.46-.66-7.42-1.1-7.42-1.1"/><path d="m2338.91 3358.5-62.16 236.3s2.24.58 5.6 1.44c3.39.78 7.79 2.16 12.22 3.46 8.85 2.61 17.7 5.22 17.7 5.22l73.22-233.12s-11.62-3.44-23.24-6.88c-5.81-1.7-11.62-3.47-16.02-4.53-4.39-1.13-7.32-1.89-7.32-1.89"/><path d="m2448.85 3394.12-88.74 227.67s.54.2 1.48.55c.93.36 2.3.81 3.86 1.5 3.16 1.33 7.38 3.09 11.59 4.86 4.22 1.75 8.44 3.51 11.6 4.83 3.1 1.43 5.17 2.39 5.17 2.39l100.07-222.91s-2.78-1.27-6.95-3.19c-4.22-1.77-9.85-4.13-15.48-6.49-5.64-2.35-11.27-4.69-15.5-6.45-2.11-.91-3.9-1.54-5.14-2.02-1.25-.47-1.96-.74-1.96-.74"/><path d="m2554.63 3442.91-115.79 215.16s7.91 4.39 15.82 8.77c.99.55 1.98 1.1 2.95 1.63.95.58 1.88 1.15 2.78 1.7 1.81 1.1 3.5 2.12 4.94 3 2.89 1.75 4.82 2.91 4.82 2.91l127.18-208.63s-2.64-1.6-6.59-3.99c-1.98-1.2-4.29-2.59-6.77-4.08-1.24-.75-2.52-1.52-3.82-2.3-1.32-.74-2.66-1.49-4-2.24-10.76-5.97-21.52-11.93-21.52-11.93"/><path d="m2654.25 3505.19-142.77 198.29s1.82 1.3 4.55 3.24c1.36 1 3.01 2.07 4.64 3.37 1.65 1.28 3.41 2.65 5.17 4.02 3.52 2.73 7.05 5.46 9.69 7.51 1.33 1.02 2.43 1.87 3.21 2.46.74.63 1.17.98 1.17.98l153.88-189.8s-.6-.49-1.65-1.36c-1.07-.84-2.6-2.03-4.44-3.46-3.69-2.86-8.6-6.67-13.51-10.48-2.46-1.9-4.92-3.8-7.22-5.58-2.3-1.79-4.55-3.31-6.42-4.68-3.78-2.71-6.3-4.51-6.3-4.51"/><path d="m2745.51 3580.84-168.88 176.59s6.28 6.19 12.56 12.38c.78.78 1.59 1.53 2.33 2.31.74.8 1.46 1.58 2.16 2.33 1.41 1.51 2.72 2.91 3.84 4.12 2.25 2.4 3.75 4.01 3.75 4.01l179.37-165.93s-2.15-2.29-5.36-5.73c-1.62-1.72-3.5-3.73-5.51-5.87-1.01-1.08-2.05-2.18-3.11-3.31-1.07-1.12-2.2-2.2-3.31-3.31-8.92-8.79-17.84-17.59-17.84-17.59"/><path d="m2825.66 3669.72-193.15 149.66s1.36 1.71 3.4 4.26c1.91 2.64 4.46 6.16 7 9.68 2.53 3.53 5.17 6.98 6.99 9.68 1.78 2.71 2.97 4.51 2.97 4.51l202.48-136.77s-1.76-2.64-4.4-6.6c-2.67-3.94-6.45-9.01-10.15-14.15-3.73-5.12-7.46-10.24-10.26-14.07-2.93-3.72-4.88-6.2-4.88-6.2"/><path d="m2891.92 3770.7-214.25 117.48s1.04 1.88 2.58 4.71c.78 1.41 1.69 3.06 2.66 4.82.98 1.76 1.84 3.72 2.8 5.64 1.88 3.85 3.77 7.69 5.19 10.58.71 1.43 1.3 2.63 1.72 3.47.43.84.63 1.33.63 1.33l221.8-102.5s-.31-.74-.93-1.99c-.61-1.25-1.49-3.05-2.54-5.2-2.11-4.31-4.92-10.04-7.74-15.78-1.43-2.85-2.77-5.76-4.2-8.39-1.43-2.62-2.76-5.07-3.9-7.18-2.29-4.19-3.82-6.99-3.82-6.99"/><path d="m2941.53 3881.87-230.69 80.55s2.71 8.06 5.41 16.13c2.32 8.16 4.64 16.33 4.64 16.33l235.83-63.92s-3.53-12.36-7.07-24.73c-4.06-12.18-8.12-24.36-8.12-24.36"/><path d="m2971.96 4000.36-241 40.24s.11.51.26 1.43c.12.92.3 2.23.52 3.81.44 3.14 1.03 7.34 1.61 11.54.3 2.09.6 4.19.88 6.16.18 1.98.35 3.82.49 5.41.29 3.16.49 5.27.49 5.27l243.27-22.81s-.3-3.2-.76-8c-.23-2.41-.5-5.21-.79-8.21-.38-2.99-.84-6.18-1.28-9.36-.9-6.38-1.8-12.75-2.47-17.53-.34-2.39-.63-4.38-.83-5.78-.22-1.39-.39-2.17-.39-2.17"/><path d="m2981.62 4122.31-244.34-1.25s.01 2.13.02 5.32c.01.8.01 1.66.02 2.58-.03.91-.09 1.88-.14 2.88-.09 1.99-.19 4.12-.3 6.25-.18 4.26-.37 8.52-.5 11.72-.04 1.6-.18 2.93-.28 3.86-.09.93-.14 1.46-.14 1.46l243.65 18.41s.07-.8.2-2.19c.12-1.4.32-3.39.4-5.79.22-4.8.52-11.2.82-17.6.14-3.21.27-6.41.4-9.41.06-1.5.12-2.95.17-4.33.01-1.38.01-2.68.01-3.88.01-4.82.01-8.03.01-8.03"/><path d="m2970.94 4243.48-240.82-41.32s-1.56 8.49-3.12 16.98c-.89 4.23-1.97 8.45-2.68 11.62-.73 3.17-1.22 5.28-1.22 5.28l237.57 57.16s.71-3.09 1.79-7.72c1.05-4.63 2.55-10.78 3.85-17 2.32-12.5 4.63-25 4.63-25"/><path d="m2941.39 4360.11-231.65-77.73s-.68 2.09-1.7 5.22c-.92 3.15-2.63 7.25-4.16 11.39-1.56 4.14-3.12 8.27-4.28 11.37-.58 1.55-1.07 2.85-1.4 3.75-.16.46-.33.8-.43 1.05-.1.23-.16.36-.16.36l226.53 91.61s.07-.18.21-.52c.15-.33.36-.82.6-1.47.48-1.28 1.18-3.1 2.01-5.29 1.66-4.39 3.88-10.24 6.09-16.1 2.17-5.87 4.49-11.66 5.88-16.18 1.48-4.48 2.46-7.46 2.46-7.46"/><path d="m2895.87 4469.63-218.59-109.19s-.24.5-.66 1.39c-.39.89-1.08 2.13-1.88 3.62-1.59 2.99-3.71 6.97-5.83 10.95-2.11 3.99-4.22 7.98-5.8 10.97-1.73 2.94-2.89 4.9-2.89 4.9l212.41 120.78s1.54-2.64 3.85-6.62c2.17-4.07 5.07-9.51 7.98-14.95 2.88-5.44 5.77-10.88 7.93-14.97 1.08-2.04 1.99-3.73 2.56-4.97.59-1.22.92-1.91.92-1.91"/><path d="m2837.28 4570.55-203.45-135.34s-.29.49-.85 1.33c-.58.82-1.41 2-2.4 3.42-1.98 2.83-4.62 6.62-7.25 10.4-2.63 3.79-5.26 7.58-7.23 10.42-2.1 2.77-3.5 4.63-3.5 4.63l196.82 144.79s1.81-2.41 4.52-6.03c2.6-3.73 6.07-8.7 9.54-13.67 3.47-4.98 6.93-9.95 9.52-13.69 1.3-1.86 2.38-3.42 3.13-4.51.73-1.12 1.15-1.75 1.15-1.75"/></g></g><path d="m1766.27 3521.3c63.09-85.09-35.77-173.03-114.93-111.42-60.53 47.1-74.8 225.96-24.29 281.24 36.75 40.22 174.65 179.82 213.57 74.07 17.81-48.4 7.26-101.93-29.3-138.5-32.6-32.61-81.5-56.22-45.05-105.39 4.17-5.62-3.27 4.42 0 0" fill="#ffaf87"/><path d="m710.863 3521.3c-63.086-85.09 35.77-173.03 114.934-111.42 60.527 47.1 74.797 225.96 24.289 281.24-36.746 40.22-174.648 179.82-213.566 74.07-17.813-48.4-7.262-101.93 29.3-138.5 32.594-32.61 81.493-56.22 45.043-105.39-4.168-5.62 3.274 4.42 0 0" fill="#ffaf87"/><path d="m1657.26 3484.38c-43.15 33.58-53.32 161.09-17.31 200.5 26.2 28.67 124.51 128.2 152.25 52.81 12.7-34.51 5.18-72.67-20.89-98.75-23.23-23.24-59.31-41.45-46.11-83.03 26.47-83.39-11.5-115.45-67.94-71.53" fill="#ed8e64"/><path d="m819.871 3484.38c43.152 33.58 53.324 161.09 17.317 200.5-26.196 28.67-124.508 128.2-152.254 52.81-12.7-34.51-5.176-72.67 20.89-98.75 23.235-23.24 59.313-41.45 46.11-83.03-26.473-83.39 11.5-115.45 67.937-71.53" fill="#ed8e64"/><path d="m1729.66 3432.73c24.5-8.97 45.37-31.23 53.73-60.93 12.92-45.92-8.95-92.24-48.86-103.47-39.9-11.22-82.72 16.9-95.64 62.81-.96 3.44-1.73 6.87-2.31 10.3.33-9.12 1.76-18.43 4.37-27.72 15.51-55.12 66.92-88.88 114.83-75.41 47.9 13.48 74.17 69.1 58.66 124.22-11.97 42.52-45.28 72.32-81.87 77.55-10.86 1.55-14.47-3.12-2.91-7.35" fill="#f9a300"/><path d="m1671.71 3541.51c0-351.27 48.13-636.03-433.14-636.03-481.269 0-433.144 284.76-433.144 636.03 0 351.26 174.461 636.02 433.144 636.02 258.68 0 433.14-284.76 433.14-636.02" fill="#fc9"/><path d="m1500.54 3626.41c0-66.2-52.59-119.87-117.46-119.87s-117.46 53.67-117.46 119.87 52.59 119.87 117.46 119.87 117.46-53.67 117.46-119.87" fill="#eaad75"/><path d="m1210.62 3611.5c0-62.36-50.18-112.91-112.09-112.91-61.9 0-112.085 50.55-112.085 112.91 0 62.35 50.185 112.91 112.085 112.91 61.91 0 112.09-50.56 112.09-112.91" fill="#b4adb2"/><path d="m1196.86 3631.47c0-45.02-36.31-81.52-81.09-81.52-44.79 0-81.1 36.5-81.1 81.52s36.31 81.52 81.1 81.52c44.78 0 81.09-36.5 81.09-81.52" fill="#fff"/><path d="m1175.18 3634.61c0-17.54-14.09-31.76-31.47-31.76s-31.47 14.22-31.47 31.76 14.09 31.76 31.47 31.76 31.47-14.22 31.47-31.76"/><path d="m1164.69 3646.96c0-4.41-3.54-7.98-7.91-7.98-4.36 0-7.9 3.57-7.9 7.98s3.54 7.98 7.9 7.98c4.37 0 7.91-3.57 7.91-7.98" fill="#fff"/><path d="m1466.15 3645.71c0-52.88-42.65-95.76-95.25-95.76-52.61 0-95.26 42.88-95.26 95.76s42.65 95.76 95.26 95.76c52.6 0 95.25-42.88 95.25-95.76" fill="#fff"/><path d="m1398.08 3634.61c0-20.6-16.55-37.31-36.96-37.31-20.42 0-36.97 16.71-36.97 37.31 0 20.61 16.55 37.31 36.97 37.31 20.41 0 36.96-16.7 36.96-37.31"/><path d="m1385.76 3649.12c0-5.18-4.15-9.38-9.28-9.38s-9.29 4.2-9.29 9.38c0 5.17 4.16 9.37 9.29 9.37s9.28-4.2 9.28-9.37" fill="#fff"/><path d="m1522.9 3804.18c-23.69 4.55-47.56 7.94-71.6 9.97-23.81 2.01-47.93 3.06-71.8 1.6-42.38-2.58-86.88-16.87-109.87-55.14-6.89-11.46-36.72-42.05-5.13-62.59 9.32-6.05 117.8-17.5 96.24 8.86 16.45-1.29 33.04-.33 49.26 2.83 1.49-1.64 3.09-3.19 4.75-4.64 10.63-9.27 25.25-10.22 36.94-2.76 12.38 7.88 13.88 23.41 9.17 36.18-2.25 6.12-5.54 11.74-9.11 17.17 9.24-3.31 19.25-4.53 29.3-3.24 21.75 2.77 40.37 17.44 52.27 35.28 3.94 5.91-4.67 15.38-10.42 16.48" fill="#4f280e"/><path d="m952.301 3772.52c24.363 3.64 48.859 6.09 73.469 7.15 24.38 1.05 49.03 1.11 73.32-1.38 43.14-4.42 87.94-20.87 109.79-60.88 6.54-11.99 10.06-25.82 9.86-39.53 5.24-8.32-.99-18.54-7.26-24.54-8.21-7.85-18.91-8.63-29.51-7.03-22.11 3.33-44.21 6.75-66.31 10.13-3.69.57-4.95 2.99-3.7 6.6.39 1.15.98 2.29 1.69 3.38-16.83-.62-33.72 1.06-50.13 4.95-1.6-1.6-3.29-3.11-5.04-4.52-11.24-9.02-26.2-9.37-37.82-1.27-12.29 8.57-13.17 24.48-7.83 37.3 2.56 6.15 6.15 11.75 10.02 17.14-9.57-2.99-19.83-3.81-30.026-2.08-22.078 3.75-40.457 19.49-51.851 38.2-3.77 6.19 5.414 15.49 11.328 16.38" fill="#4f280e"/><path d="m1641.49 2914.54c38.53-.25 75.85 25.84 88.85 62.11s.75 80.13-29.17 104.41c20.72 10.73 41.6 24.78 51.25 46.04 40.53 89.28-66.36 239.16-79.37 325.03 2.1-269.32-143.52-467.1-193.82-479.25-21.14-5.11-43.17-4.96-64.91-4.33-25.2.74-51.07 2.23-74.07 12.57-23 10.33-23 10.33-46.83 125.82-24.62-2.52-57.31-.89-73.71 0-1.64-56.49-9.01-122.2-33.72-133.02s-53.35-6.7-79.26.8c-87.53 25.32-161.878 86.55-214.71 160.78-52.832 74.24-64.934 226.54-87.93 314.71-126.527-217.2-43.332-240.69-31.313-237.02-30.097-31.98-42.285-79.81-31.164-122.29 5.926-22.62 26.758-47.08 48.477-38.41-80.926-145.77 78.879-156.54 82.512-141.73-6.536-23.42 3.582-49.54 21.726-65.74 18.149-16.19 43.059-23.32 67.375-23.68 22.039-.33 46.947 6.62 56.887 26.29-.18-25.89 16.95-49.67 39.01-63.23s48.39-18.34 74.22-20.2c19.63-1.41 39.82-1.21 58.35 5.41 18.53 6.61 35.31 20.59 41.06 39.41-2.13-19.31 12.24-37.42 29.76-45.83 17.52-8.4 37.59-9.2 57.02-9.67 29.73-.72 60.36-.87 88.03 10.06 27.66 10.93 51.96 35.63 53.43 65.34.46-22.14 29.15-30.82 51.28-30 25.59.94 51.03 6.09 74.96 15.19 20.85 7.93 41.28 19.47 53.89 37.86 12.6 18.4 15.4 44.83 1.89 62.57" fill="#683817"/><path d="m1670.33 3384.39c-119.61 21.98-233.15 68.37-342.96 113.22-131.51 53.73-267.49 109.29-385.436 194.91-76.246 55.35-144.106 123.3-200.434 182.47l21.727 20.68c58.183-61.11 122.238-125.08 196.336-178.87 115.007-83.5 249.297-138.36 379.157-191.41 108.39-44.28 220.47-90.07 337.04-111.5z"/><path d="m1220.7 3622.29c0-72.38-58.69-131.06-131.1-131.06-72.4 0-131.092 58.68-131.092 131.06 0 72.39 58.692 131.06 131.092 131.06 72.41 0 131.1-58.67 131.1-131.06"/><path d="m917.348 3375.97c68.414-31.23 459.822-99.59 624.222 23.17-88.16-162.06-17.32-359.99-283.77-359.92-147.27.05-313.323 226.45-340.452 336.75"/><g clip-path="url(#e)" fill="#fff"><path d="m1122.59 3242.94-75.01 10.41 5.18 179.55 134.74-34.18z"/><path d="m1288.76 3141.28 72.07 23.23 73.37-163.96-136.2-27.78z"/></g><path d="m1742.15 3472.76c-10.34 8.14-22.48 10.38-35.24 8.69-17.12-2.26-29.59-14.19-43.38-23.46-2.72 5.1-6.4 9.75-10.39 13.39-14.95 13.64-34.67 17.39-54.19 14.37-30.09-4.66-52.03-27.16-70.33-50.37-1.57 1.77-3.22 3.44-4.93 4.97-11.41 10.23-25.84 16.29-41.31 14.8-24.44-2.36-41.46-19.34-55.67-37.78-12.5 11.04-30.17 16.44-46.54 13.21-22.53-4.45-37.22-23.67-48.88-42.31-14.65 10.61-33.96 14.09-52.02 8.44-26.62-8.31-41.26-36.29-53.37-59.16-2.59-4.89 3.29-11.98 7.5-15.75 1.01-21.56 20.26-41.78 40.34-47.2 17.22-4.66 36.13 4.39 43.6 20.12 19.3-11.83 42.47-17.67 64.95-14.88 23.19 2.87 44.83 14.43 59.87 32.23 18.96-14.41 43.51-21.04 67.14-16.41 23.83 4.67 43.93 23.5 52.32 46.02 25.23-10.2 57.21-23.77 78.96-.67 8.9 9.46 10.16 21.95 5.84 33.13 18.51.57 36.93 3.83 54.54 9.65 23.2 7.67 54.4 21.3 58.72 48.51 2.52 15.85-5.21 30.76-17.53 40.46" fill="#683817"/><path d="m734.73 3470.86c10.274 8.22 22.395 10.55 35.172 8.96 17.133-2.13 29.696-13.96 43.559-23.14 2.68 5.13 6.316 9.8 10.285 13.48 14.844 13.75 34.531 17.66 54.078 14.78 30.121-4.43 52.235-26.76 70.703-49.83 1.559 1.78 3.2 3.46 4.903 5.01 11.332 10.32 25.715 16.48 41.195 15.11 24.455-2.18 41.605-19.03 55.945-37.36 12.42 11.14 30.05 16.68 46.45 13.57 22.56-4.28 37.4-23.39 49.2-41.94 14.56 10.73 33.85 14.35 51.95 8.84 26.68-8.11 41.53-35.98 53.82-58.75 2.63-4.87-3.2-12.01-7.38-15.81-.85-21.57-19.95-41.93-39.98-47.51-17.18-4.79-36.16 4.12-43.76 19.79-19.2-11.97-42.33-17.99-64.83-15.38-23.21 2.7-44.94 14.1-60.11 31.78-18.85-14.55-43.352-21.37-67.016-16.92-23.867 4.49-44.105 23.16-52.672 45.62-25.144-10.4-57.023-24.21-78.949-1.27-8.973 9.39-10.32 21.87-6.086 33.09-18.516.42-36.961 3.54-54.613 9.23-23.258 7.49-54.567 20.89-59.094 48.06-2.641 15.83 4.977 30.8 17.23 40.59" fill="#683817"/><path d="m1252.18 3532.48c28.56-3.09 70.26-42.33 96.43-81.45 33.65-50.3 41.61-100.41-37.05-73.26-2.14-54.49-111.2-23.65-134.75 8.6-18.73-14.85-53.86-4.69-61.84 14.84-11.77 28.81 71.94 138.32 137.21 131.27" fill="#ff7b73"/><path d="m1798.61 3649.4c2.8 41.06 1.46 82.4-4 123.19 10.01-15.52 22.65-29.35 37.21-40.71 3.12 103.04-19.12 206.75-64.21 299.45-83.65-23.07-168.3-42.49-253.63-58.21 1.44-17.34 9.19-33.46 17.11-48.95 35.73-69.94 77.53-136.77 124.77-199.51 20.94-27.8 43.82-55.54 74.57-71.84-2.72 29.86-5.44 59.71-8.17 89.57 25.45-31 50.9-62 76.35-92.99" fill="#683817"/><path d="m684.902 3692.71c-10.976 16.84-17.605 36.49-19.078 56.54-2.664 36.31 11.203 71.57 16.867 107.54 2.918 18.52 3.661 37.32 6.008 55.92 1.985 15.7 5.11 31.22 8.235 46.73 4.511 22.41 9.023 44.82 13.535 67.23.367 1.82.761 3.72 1.879 5.21 1.558 2.08 4.199 2.98 6.675 3.76 100.68 31.97 201.985 61.97 303.837 89.99-3.77-25.64-7.58-51.46-16.1-75.94-7.975-22.92-19.92-44.22-30.412-66.1-21.016-43.84-36.266-90.22-56.719-134.32-20.149-43.43-45.215-84.36-70.219-125.19-12.23-19.96-24.461-39.93-36.691-59.9-5.024 27.91-10.047 55.82-15.071 83.73-13.976-34.58-24.878-70.4-32.535-106.91-26.883 37.15-50.453 76.7-70.34 118.02 2.254-22.46-1.171-45.48-9.871-66.31" fill="#683817"/><path d="m505.367 4436.83-108.312-225.12c113.422-228.89 431.836-317.3 841.515-317.3 409.68 0 726.24 92.26 839.66 321.15l-103.42 214.94c-323.42-300.85-393.86 241.89-736.24 241.89-342.093 0-404.218-515.03-733.203-235.56" fill="#606060"/><path d="m505.367 4436.83-136.246-283.18c113.426-228.89 459.77-395.44 869.449-395.44 409.68 0 756.02 166.55 869.45 395.44l-133.21 276.85c-323.42-300.85-393.86 105.7-736.24 105.7-342.093 0-404.218-378.84-733.203-99.37"/><g fill="#fff"><path d="m1288.76 4262.9c-15.65 0-28.34 16.54-28.34 36.95 0 20.4 12.69 36.94 28.34 36.94s28.34-16.54 28.34-36.94c0-20.41-12.69-36.95-28.34-36.95zm5.85-132.74h-8.73v-10.48c0-3.85-3.12-6.98-6.98-6.98-3.85 0-6.98 3.13-6.98 6.98v10.48h-16.46v-10.48c0-3.85-3.12-6.98-6.98-6.98s-6.98 3.13-6.98 6.98v10.48h-16.46v-10.48c0-3.85-3.13-6.98-6.98-6.98-3.86 0-6.98 3.13-6.98 6.98v10.48h-16.46v-10.48c0-3.85-3.13-6.98-6.98-6.98-3.86 0-6.99 3.13-6.99 6.98v10.48h-8.72c-4.27 0-7.73 3.46-7.73 7.73s3.46 7.73 7.73 7.73h8.72v7.48c0 3.85 3.13 6.98 6.99 6.98 3.85 0 6.98-3.13 6.98-6.98v-7.48h16.46v7.48c0 3.85 3.12 6.98 6.98 6.98 3.85 0 6.98-3.13 6.98-6.98v-7.48h16.46v7.48c0 3.85 3.12 6.98 6.98 6.98s6.98-3.13 6.98-6.98v-7.48h16.46v7.48c0 3.85 3.13 6.98 6.98 6.98 3.86 0 6.98-3.13 6.98-6.98v-7.48h8.73c4.27 0 7.73-3.46 7.73-7.73s-3.46-7.73-7.73-7.73zm-145.17 169.69c0 20.4 12.69 36.94 28.34 36.94s28.34-16.54 28.34-36.94c0-20.41-12.69-36.95-28.34-36.95s-28.34 16.54-28.34 36.95zm69.14-63.41c5.9 0 10.69-10.4 10.69-23.23s-4.79-23.23-10.69-23.23-10.69 10.4-10.69 23.23 4.79 23.23 10.69 23.23zm29.38 0c5.9 0 10.69-10.4 10.69-23.23s-4.79-23.23-10.69-23.23-10.69 10.4-10.69 23.23 4.79 23.23 10.69 23.23zm-14.69 164.8c-87.68 0-158.75-51.75-158.75-115.58 0-37.19 24.12-70.27 61.59-91.41.07-5.01.12-10.1.12-15.27 0-72.19 39.09-130.73 97.04-130.73s97.04 58.54 97.04 130.73c0 5.17.05 10.26.11 15.27 37.47 21.14 61.6 54.22 61.6 91.41 0 63.83-71.08 115.58-158.75 115.58"/><path d="m1113.97 3898.64 249.89 109.57c7.58-5.49 20.9-7.6 35.2-4.76 20.58 4.09 35.37 16.89 33.04 28.6-1.58 7.96-10.68 13.36-22.82 14.71 6.86 10.9 8.33 21.99 2.72 28.28-7.95 8.9-27.08 4.79-42.73-9.18-8.93-7.98-14.79-17.45-16.7-25.76l-250.01-109.63c-7.59 5.4-20.77 7.51-34.93 4.78-20.6-3.96-35.47-16.68-33.21-28.4 1.53-7.97 10.61-13.42 22.73-14.84-6.92-10.86-8.46-21.95-2.88-28.27 7.9-8.95 27.05-4.95 42.78 8.93 9.09 8.03 15.04 17.59 16.92 25.97"/><path d="m1103.05 4016.89 243.07-123.95c.56-9.34 7.36-20.99 18.62-30.26 16.2-13.33 35.47-16.66 43.06-7.45 5.16 6.27 3.56 16.74-3.08 26.98 12.78 1.6 22.3 7.49 23.61 15.82 1.85 11.79-13.45 23.98-34.18 27.24-11.83 1.85-22.86.39-30.51-3.39l-243.19 124.01c-.64 9.29-7.35 20.82-18.43 30.05-16.12 13.43-35.37 16.88-43.01 7.71-5.2-6.24-3.67-16.71 2.91-27-12.78-1.52-22.34-7.35-23.7-15.67-1.92-11.78 13.31-24.06 34.01-27.44 11.97-1.95 23.14-.5 30.82 3.35"/></g></g></svg>
