<svg viewBox="0 0 210 556" fill="none" xmlns="http://www.w3.org/2000/svg">
<path d="M164.865 229.381C164.865 229.381 165.513 211.532 166.485 195.744C165.448 195.879 163.343 197.681 162.256 197.48C161.38 197.317 160.541 196.988 159.739 196.568C155.839 197.508 149.335 193.293 145.619 194.035C146.225 203.899 147.425 220.651 148.555 230.691C148.555 230.691 146.771 248.039 147.5 259.547C147.709 262.847 147.964 267.328 148.22 272.039L161.229 277.263C162.544 260.588 164.003 241.711 164.865 229.381" fill="#F7916F"/>
<path d="M148.22 272.039C148.857 283.749 149.507 296.891 149.507 296.891L158.777 302.827C158.777 302.827 159.716 296.451 161.229 277.263L148.22 272.039Z" fill="#F7916F"/>
<path d="M145.385 206.616L145.619 211.216C145.619 211.216 164.315 211.637 168.967 203.623L168.137 198.879C168.137 198.879 159.341 204.775 145.385 206.616" fill="#18314D"/>
<path d="M56.312 146.171C62.7347 136.085 71.0773 123.213 71.0773 123.213L64.0667 113.919C64.0667 113.919 60.9773 118.633 48.176 133.733L56.312 146.171" fill="#F7916F"/>
<path d="M64.1586 156.96C58.8093 159.936 49.04 164.795 40.3986 169.019L56.312 146.171L48.176 133.733L17.904 176.456C15.4093 180.151 15.644 184.903 18.4933 188.368C21.7813 192.368 27.6653 193.605 32.476 191.308C37.0347 189.133 41.7893 186.821 43.6853 186.064C55.0533 181.527 71.864 173.82 71.864 173.82L64.1586 156.96" fill="#F7916F"/>
<path d="M98.7653 62.5426C100.619 52.9906 108.275 50.1933 118.671 49.5466C132.825 48.6653 142.959 55.3186 148.832 68.2706C160.54 94.0813 140.341 93.0546 153.956 113.679C159.251 121.7 160.191 127.236 159.517 131.807C157.839 143.193 146.191 150.96 133.94 149.401L102.729 145.431C92.0667 144.075 84.7667 134.735 86.676 124.889L98.7653 62.5426" fill="#1A1D3D"/>
<path d="M100.332 145.827C100.807 145.449 101.237 145.065 101.419 144.78C83.924 137.076 57.5613 156.641 57.5613 156.641C58.1306 158.593 58.7613 160.435 59.4186 162.207C64.9373 157.865 85.3 142.907 100.332 145.827Z" fill="#1E375F"/>
<path d="M100.516 150.123C100.516 150.123 102.019 145.577 102.241 144.653C100.952 144.545 99.6627 144.604 98.3787 144.783C97.788 145.705 97.0453 146.652 97.0453 146.652L90.4866 159.679L89.3827 183.92L91.3853 184.768C88.104 188.772 85.68 191.32 85.68 191.32C85.68 191.32 75.1853 185.979 65.0107 173.569C64.376 174.553 64.0266 175.136 64.0266 175.136C75.148 190.9 89.1506 194.791 89.1506 194.791C89.1506 194.791 91.5746 192.243 94.8546 188.239L92.8533 187.391L93.9573 163.149L100.516 150.123" fill="#18314D"/>
<path d="M74.8453 186.685C74.8453 186.685 76.3173 184.088 80.7226 181.368L79.1053 179.916L88.0266 157.349L98.4626 147.161C98.4626 147.161 99.472 146.507 100.332 145.827C85.3 142.907 64.9373 157.865 59.4186 162.207C65.0093 177.249 74.8453 186.685 74.8453 186.685" fill="#18314D"/>
<path d="M75.5133 184.637L72.64 188.708C72.64 188.708 55.38 178.036 53.9093 155.987L58.768 153.587C58.768 153.587 67.1613 173.305 75.5133 184.637" fill="#18314D"/>
<path d="M80.2306 266.916L76.9253 280.972L67.6973 391.56L66.928 512.119L79.192 510.861L91.5773 382.084L99.3453 256.18L80.2306 266.916Z" fill="#F9AF7F"/>
<path d="M95.0706 297.124L101.367 294.623L100.936 308.224L95.1306 304.881C95.0613 299.955 95.0706 297.124 95.0706 297.124Z" fill="#5F96BA"/>
<path d="M67.024 389.025C67.024 389.025 67.0173 387.933 66.8333 385.969C60.424 317.672 72.7067 291.443 80.2347 256.18L99.812 255.832C99.812 255.832 112.577 268.337 112.2 284.729C112.132 287.685 111.54 293.072 110.62 299.905L103.352 293.833L101.367 294.623L101.375 294.387C101.375 294.387 96.2293 292.16 93.16 288.953C93.16 288.953 93.0907 295.996 95.0693 304.847L95.1307 304.881C95.312 317.633 96.024 344.46 98.8013 372.86C96.7987 384.307 95.388 392.117 95.388 392.117C95.388 392.117 98.6507 407.295 97.4773 420.349C96.3027 433.404 80.6653 506.244 80.6653 506.244C80.6653 506.244 76.3667 509.174 66.5427 505.397C66.5427 505.397 63.8533 431.321 67.024 389.025" fill="#18314D"/>
<path d="M93.16 288.953C96.2293 292.16 101.375 294.387 101.375 294.387L101.367 294.623L95.0707 297.124C95.0707 297.124 95.0613 299.955 95.1307 304.881L95.0693 304.847C93.0907 295.996 93.16 288.953 93.16 288.953Z" fill="#152C3F"/>
<path d="M95.0706 297.124L103.352 293.833L110.62 299.905C107.927 319.879 102.405 352.261 98.8013 372.86C94.9506 333.485 95.0706 297.124 95.0706 297.124" fill="#152C3F"/>
<path d="M103.352 258.683L117.417 415.583L129.584 506.512L140.873 507.25L139.724 412.721L135.399 269.348L103.352 258.683Z" fill="#F9AF7F"/>
<path d="M130.521 257.42C130.521 257.42 142.372 265.213 146.039 286.701C151.357 317.871 141.863 387.519 141.863 387.519C141.863 387.519 147.056 401.049 147.584 414.145C148.112 427.243 141.719 502.432 141.719 502.432C141.719 502.432 138.637 505.207 128.407 502.734C128.407 502.734 117.276 430.271 114.939 387.92C114.939 387.92 104.924 337.745 101.917 300.484L97.4773 250.605L130.521 257.42" fill="#18314D"/>
<path d="M144.033 510.201C143.971 509.729 144.056 507.437 144.209 504.328C144.292 502.633 142.94 501.203 141.243 501.203H128.491C126.739 501.203 125.367 502.712 125.533 504.457L125.984 509.155C123.512 510.472 121.764 513.695 121.773 517.483L121.788 523.033H146.873L146.859 517.483C146.851 514.474 145.731 511.829 144.033 510.201" fill="#151F25"/>
<path d="M83.8213 513.072C83.5333 511.212 82.872 507.871 82.472 505.897C82.3026 505.06 81.464 504.537 80.6386 504.761C79.004 505.207 76.328 505.824 74.0813 505.824C70.5733 505.824 67.752 504.316 65.5546 504.841C63.3573 505.365 62.3453 510.426 62.3453 510.426C57.492 512.307 50.792 512.195 50.792 512.195C50.792 512.195 50.1107 512.224 49.076 512.312C50.0253 513.726 50.9613 515.673 51.5186 518.252H83.9906C84.032 516.417 84.02 514.357 83.8213 513.072" fill="#151F25"/>
<path d="M51.5186 518.252C50.9613 515.673 50.0253 513.726 49.076 512.312C47.524 512.445 45.1573 512.717 42.928 513.268C39.212 514.186 38.5093 518.252 38.5093 518.252L38.46 522.155H52.0053H83.8213C83.8213 522.155 83.9427 520.352 83.9907 518.252H51.5186Z" fill="#151F25"/>
<path d="M128.108 140.861C125.985 139.253 120.031 137.449 119.228 137.695C118.484 137.304 112.299 137.963 109.912 139.144C102.831 142.652 95.848 144.749 90.3933 147.468C91.5653 150.993 92.272 154.869 93.168 158.003C94.74 163.491 95.8147 168.893 96.7373 174.38L115.607 176.083L152.135 179.529C159.345 180.211 160.499 170.983 160.499 170.983C161.703 158.065 141.031 150.647 128.108 140.861" fill="#F7916F"/>
<path d="M110.297 129.433C110.297 129.433 102.523 105.289 103.617 97.756L102.272 67.8493C103.367 60.3173 108.127 52.996 115.077 52.836L132.132 52.4426C139.084 52.2826 145.569 59.8226 144.475 67.356L134.837 111.353C133.743 118.885 128.163 128.859 110.297 129.433" fill="#E2674A"/>
<path d="M110.071 129.457L109.616 129.508C99.5787 129.739 91.5053 121.391 91.2746 111.353L88.5786 76.4306C88.372 67.4813 95.5253 59.9906 104.475 59.7839L126.917 59.2666C129.485 59.2079 134.777 61.2079 134.837 63.7759L132.016 103.415C132.335 117.237 123.893 129.139 110.071 129.457" fill="#F7916F"/>
<path d="M94.3333 92.0106C94.2373 94.6226 95.4853 96.7893 97.12 96.8493C98.756 96.9093 100.159 94.84 100.255 92.228C100.351 89.616 99.1027 87.4493 97.468 87.3893C95.8333 87.3293 94.4293 89.3986 94.3333 92.0106Z" fill="#1A1D3D"/>
<path d="M117.645 92.4386C117.417 95.0426 118.556 97.2693 120.185 97.4107C121.816 97.5533 123.321 95.5573 123.548 92.9533C123.776 90.3493 122.639 88.1227 121.008 87.9813C119.379 87.8387 117.872 89.8346 117.645 92.4386Z" fill="#1A1D3D"/>
<path d="M126.139 97.1666C126.139 97.1666 125.049 94.7839 120.635 94.3893C116.221 93.9946 112.651 97.5733 112.651 97.5733L119.048 100.157L126.139 97.1666" fill="#F7916F"/>
<path d="M103.828 96.76C103.828 96.76 102.737 94.3773 98.324 93.9813C93.9093 93.5866 90.3387 97.1666 90.3387 97.1666L96.736 99.7506L103.828 96.76Z" fill="#F7916F"/>
<path d="M121.375 88.5693L124.999 88.2093L122.799 90.5173L121.375 88.5693Z" fill="#1A1D3D"/>
<path d="M96.9293 87.7399L93.2853 87.7586L95.7226 89.8239L96.9293 87.7399Z" fill="#1A1D3D"/>
<path d="M121.081 88.4053L122.863 87.0226L122.679 89.0906L124.999 89.9933L123.12 91.3959L121.081 88.4053" fill="#1A1D3D"/>
<path d="M96.9053 87.892L95.1226 86.5093L95.3067 88.5787L92.9866 89.48L95.184 90.4173L96.9053 87.892" fill="#1A1D3D"/>
<path d="M116.724 151.336C111.397 151.165 107.217 146.709 107.388 141.384L108.156 117.371L127.444 117.987L126.676 142C126.505 147.327 122.051 151.507 116.724 151.336Z" fill="#F7916F"/>
<path d="M76.688 205.059C68.0733 193.888 73.1867 183.552 77.956 177.089C81.692 172.029 84.4934 166.351 86.4107 160.361L93.5307 146.171L106.297 174.571L140.931 149.501L149.417 179.324L130.521 257.42C123.221 258.541 95.2414 262.261 80.2347 256.18C81.3827 244.412 81.36 211.116 76.688 205.059" fill="#1E375F"/>
<path d="M78.044 206.783C78.044 206.783 83.288 212.24 96.476 209.94C96.476 209.94 89.204 215.881 80.0307 213.293L78.044 206.783" fill="#18314D"/>
<path d="M107.707 208.905C107.707 208.905 125.228 214.88 134.907 207.355L130.144 214.928C130.144 214.928 116.429 216.572 107.707 208.905Z" fill="#18314D"/>
<path d="M141.009 149.105L141.057 149.135L140.931 149.501C140.931 149.501 155.561 161.86 157.628 175.957C158.783 183.831 159.557 195.939 160.019 205.101C156.829 206.344 152.492 207.167 146.256 206.915C146.181 206.623 146.107 206.332 146.032 206.039C144.136 198.62 142.221 190.76 140.317 182.409L137.363 162.819L141.009 149.105" fill="#1E375F"/>
<path d="M140.931 149.501L141.057 149.135L152.665 156.437C158.291 160.377 164.739 170.281 165.12 177.14C165.543 184.737 166.165 191.989 166.927 198.899C166.987 199.444 167.053 199.975 167.115 200.516C165.473 202.005 163.388 203.787 160.019 205.101C159.557 195.939 158.783 183.831 157.628 175.957C155.561 161.86 140.931 149.501 140.931 149.501Z" fill="#18314D"/>
<path d="M144.461 199.807L139.9 179.307C137.521 192.465 138.265 205.775 129.136 214.411C128.912 215.1 128.676 215.784 128.433 216.459C126.26 222.484 125.892 251.297 124.955 258.111C127.32 257.823 129.243 257.547 130.521 257.349L144.461 199.807" fill="#18314D"/>
<path d="M99.3666 143.671C99.3666 143.671 103.097 169.813 107.127 171.215C111.155 172.616 138.483 147.252 138.483 147.252C138.483 147.252 139.867 148.165 141.057 149.135C142.248 150.107 141.811 165.492 141.811 165.492C141.811 165.492 122.016 185.169 105.9 185.169C89.784 185.169 90.3933 149.901 90.3933 149.901L99.3666 143.671Z" fill="#1E375F"/>
<path d="M104.024 106.161C103.568 106.053 99.592 105.031 100.151 102.495C100.541 100.725 102.5 100.22 103.629 100.075L104.699 94.1933L106.519 94.5239L105.184 101.855L104.423 101.865C103.719 101.876 102.12 102.148 101.956 102.892C101.859 103.337 103.247 104.073 104.451 104.363L104.024 106.161" fill="#E2674A"/>
<path d="M136.443 94.6959C136.443 94.6959 136.38 94.5933 136.265 94.3893C136.205 94.4493 136.145 94.5173 136.085 94.5786C138.433 90.788 142.077 88.7866 144.791 90.0253C147.883 91.4359 148.593 96.516 146.38 101.373C144.165 106.229 139.865 109.024 136.773 107.612C136.469 107.473 136.187 107.299 135.928 107.092C134.184 105.695 133.529 102.833 134.109 99.6679C135.34 97.9773 136.96 96.2213 138.489 94.716L136.443 94.6959Z" fill="#E2674A"/>
<path d="M136.085 94.5786C136.145 94.5173 136.205 94.4493 136.265 94.3893C136.38 94.5933 136.443 94.696 136.443 94.696L138.489 94.716C136.96 96.2213 135.34 97.9773 134.109 99.668C134.313 98.5546 134.664 97.404 135.184 96.264C135.455 95.6693 135.757 95.108 136.085 94.5786Z" fill="#E2674A"/>
<path d="M140.065 107.177C140.065 108.44 139.043 109.464 137.78 109.464C136.517 109.464 135.495 108.44 135.495 107.177C135.495 105.916 136.517 104.892 137.78 104.892C139.043 104.892 140.065 105.916 140.065 107.177Z" fill="#1E375F"/>
<path d="M79.404 259.961C79.404 259.961 98.4987 268.027 132.799 259.316L130.825 256.097C130.825 256.097 91.864 262.209 80.3067 255.396L79.404 259.961" fill="#151F25"/>
<path d="M143.901 308.693C142.787 309.447 141.375 310.635 139.873 311.801C135.011 315.577 133.748 312.039 133.748 312.039L138.893 307.025L142.715 303.149C144.8 299.607 153.14 292.808 153.14 292.808L157.735 295.553L158.345 300.231C158.415 300.403 158.509 300.561 158.539 300.751L159.488 308.999L159.489 309.004L160.765 320.097C160.977 321.437 160.885 322.707 159.547 322.917L159.301 322.957C157.961 323.169 157.564 321.976 157.353 320.637L156.392 315.973L157.436 325.048C157.648 326.388 157.556 327.656 156.217 327.868L155.971 327.908C154.632 328.12 154.236 326.927 154.024 325.587L153.833 324.664L154.141 329.696C154.281 331.045 154.123 332.308 152.773 332.449L152.527 332.473C151.177 332.615 150.845 331.403 150.705 330.053L149.683 323.279L149.464 328.365C149.463 329.723 149.173 330.961 147.817 330.961L147.568 330.96C146.212 330.959 146.008 329.719 146.009 328.363L145.228 311.235C144.863 310.303 144.38 309.467 143.901 308.693" fill="#F7916F"/>
<path d="M107.929 172.637C108.048 172.315 95.5293 160.111 95.5293 160.111L99.812 156.799L94.2 157.067L87.4613 148.611L99.22 143.861L107.929 172.637" fill="#18314D"/>
<path d="M107.063 171.78C107.075 171.372 131.143 163.76 131.143 163.76L127.117 158.176L134.571 161.003L148.804 154.008L134.065 144.953L107.063 171.78" fill="#18314D"/>
<path d="M99.3666 143.671C99.3666 143.671 91.6293 145.128 87.6093 148.42L88.96 150.115L99.3666 143.671" fill="#18314D"/>
<path d="M148.691 153.937C148.691 153.937 139.22 145.929 134.065 144.953Z" fill="#18314D"/>
<path d="M106.74 171.139L100.451 260.904L102.305 260.96L107.931 171.393L106.74 171.139Z" fill="#18314D"/>
<path d="M105.944 265.811H96.8306C96.176 265.811 95.6453 265.28 95.6453 264.625V257.367C95.6453 256.712 96.176 256.18 96.8306 256.18H105.944C106.599 256.18 107.129 256.712 107.129 257.367V264.625C107.129 265.28 106.599 265.811 105.944 265.811Z" fill="#E8E2DF"/>
<path d="M122.045 183.504L115.147 187.172C114.757 187.379 114.515 187.783 114.515 188.223V194.935C114.515 195.317 114.7 195.679 115.012 195.901L121.912 200.836C122.327 201.132 122.883 201.132 123.296 200.836L130.195 195.901C130.507 195.679 130.693 195.317 130.693 194.935V188.223C130.693 187.783 130.449 187.379 130.061 187.172L123.163 183.504C122.813 183.319 122.395 183.319 122.045 183.504" fill="#E4C918"/>
<path d="M72.292 288.971L66.1253 287.825C65.0893 287.633 64.4307 286.607 64.6867 285.584L70.5587 262.092L68.8267 261.459C68.2267 261.239 67.9533 260.545 68.24 259.975L70.5533 255.385C71.492 253.524 73.6053 252.575 75.6187 253.108L78.472 253.863C80.808 254.483 82.2107 256.868 81.616 259.211L74.3973 287.624C74.16 288.557 73.2387 289.145 72.292 288.971" fill="#151F25"/>
<path d="M127.752 310.012C126.325 310.012 125.128 308.733 125.044 307.077L122.117 249.341C122.031 247.623 123.173 246.148 124.669 246.049C126.168 245.94 127.451 247.26 127.539 248.979L130.465 306.713C130.553 308.432 129.409 309.907 127.913 310.007C127.86 310.011 127.805 310.012 127.752 310.012" fill="#151F25"/>
<path d="M125.3 261.619C123.879 261.619 122.684 260.352 122.592 258.701C122.496 256.983 123.632 255.501 125.128 255.391L142.729 254.096C144.224 253.981 145.517 255.288 145.613 257.007C145.709 258.724 144.575 260.205 143.077 260.316L125.476 261.612C125.417 261.616 125.359 261.619 125.3 261.619" fill="#151F25"/>
<path d="M86.3053 266.923C83.864 266.923 81.88 268.908 81.88 271.348C81.88 273.788 83.864 275.773 86.3053 275.773C88.7453 275.773 90.7293 273.788 90.7293 271.348C90.7293 268.908 88.7453 266.923 86.3053 266.923ZM86.3053 278.473C82.376 278.473 79.1786 275.277 79.1786 271.348C79.1786 267.419 82.376 264.221 86.3053 264.221C90.2333 264.221 93.4306 267.419 93.4306 271.348C93.4306 275.277 90.2333 278.473 86.3053 278.473Z" fill="#B0AEAD"/>
<path d="M86.3053 261.191H84.7467C83.524 261.191 82.5333 262.18 82.5333 263.403V267.024L86.3053 265.572L90.076 267.024V263.403C90.076 262.18 89.0853 261.191 87.864 261.191H86.3053Z" fill="#B0AEAD"/>
<path d="M86.176 260.033C85.5373 260.033 85.0187 260.553 85.0187 261.191C85.0187 261.828 85.5373 262.347 86.176 262.347C86.8133 262.347 87.332 261.828 87.332 261.191C87.332 260.553 86.8133 260.033 86.176 260.033ZM86.176 263.696C84.7933 263.696 83.668 262.572 83.668 261.191C83.668 259.808 84.7933 258.683 86.176 258.683C87.5573 258.683 88.6827 259.808 88.6827 261.191C88.6827 262.572 87.5573 263.696 86.176 263.696Z" fill="#B0AEAD"/>
<path d="M85.524 266.923C83.084 266.923 81.0987 268.908 81.0987 271.348C81.0987 273.788 83.084 275.773 85.524 275.773C87.964 275.773 89.9494 273.788 89.9494 271.348C89.9494 268.908 87.964 266.923 85.524 266.923ZM85.524 278.473C81.5947 278.473 78.3973 275.277 78.3973 271.348C78.3973 267.419 81.5947 264.221 85.524 264.221C89.4533 264.221 92.6494 267.419 92.6494 271.348C92.6494 275.277 89.4533 278.473 85.524 278.473Z" fill="#CCCCC9"/>
<path d="M85.524 261.191H83.9653C82.7427 261.191 81.752 262.18 81.752 263.403V267.024L85.524 265.572L89.296 267.024V263.403C89.296 262.18 88.3053 261.191 87.0827 261.191H85.524Z" fill="#CCCCC9"/>
<path d="M85.3946 260.033C84.7573 260.033 84.2387 260.553 84.2387 261.191C84.2387 261.828 84.7573 262.347 85.3946 262.347C86.032 262.347 86.552 261.828 86.552 261.191C86.552 260.553 86.032 260.033 85.3946 260.033ZM85.3946 263.696C84.012 263.696 82.888 262.572 82.888 261.191C82.888 259.808 84.012 258.683 85.3946 258.683C86.7773 258.683 87.9013 259.808 87.9013 261.191C87.9013 262.572 86.7773 263.696 85.3946 263.696Z" fill="#CCCCC9"/>
<path d="M93.9107 187.657H79.0266V184.796H93.9107V187.657Z" fill="#E8E2DF"/>
<path d="M121.432 70.5253H121.435C117.367 62.8066 114.389 56.4306 114.389 56.4306L125.855 50.532C170.669 56.9013 131.476 110.047 131.476 110.047C131.932 105.351 132.237 100.311 132.604 95.1613C122.615 84.1306 121.432 70.5253 121.432 70.5253" fill="#1A1D3D"/>
<path d="M125.855 50.532C125.855 50.532 112.969 47.964 103.671 50.0547C94.3186 52.1587 84.2507 65.348 89.5093 88.7813C89.5093 88.7813 88.96 77.7773 101.308 73.728C101.308 73.728 100.459 81.636 99.444 83.52C99.444 83.52 113.668 72.6613 131.016 75.8026L125.855 50.532" fill="#1A1D3D"/>
<path d="M101.419 61.912L78.1547 69.692C79.212 70.7133 81.9107 71.748 87.092 72.716L121.612 59.8813L101.419 61.912" fill="#69A4C7"/>
<path d="M88.4107 63.2213C88.4107 63.2213 74.7106 66.3693 78.1546 69.692L101.419 61.9119L88.4107 63.2213Z" fill="#558FBC"/>
<path d="M144.031 66.6053L133.155 58.7213L121.612 59.8813L87.092 72.716C87.5906 72.8093 88.084 72.9026 88.6307 72.9946C113.332 77.1453 152.813 70.776 152.813 70.776L144.031 66.6053" fill="#558FBC"/>
<path d="M116.849 18.6293C122.419 22.6533 132.319 28.96 142.088 31.0026C144.133 31.4293 145.873 32.7466 146.891 34.5706C149.856 39.8853 156.603 50.612 164.563 54.3413C164.563 54.3413 164.18 63.4586 153.968 63.3479L112.219 58.1613L87.7013 52.5506C87.7013 52.5506 78.78 45.6946 80.252 38.5853C81.7253 31.4773 89.2066 28.7559 89.2066 28.7559C89.2066 28.7559 100.385 24.4613 108.175 18.7053C110.752 16.8 114.252 16.752 116.849 18.6293" fill="#1E375F"/>
<path d="M88.4107 63.2213C88.4107 63.2213 124.517 63.7466 152.813 70.7759L154.197 62.7639C154.536 60.8079 153.609 58.8453 151.869 57.888C143.356 53.2 117.269 40.7426 91.1453 47.6119C89.144 48.1386 87.776 49.9973 87.8747 52.0639L88.4107 63.2213" fill="#18314D"/>
<path d="M111.092 27.528L104.619 30.9533C104.255 31.1466 104.027 31.524 104.027 31.936L104.013 38.2266C104.013 38.5853 104.187 38.924 104.479 39.1333L110.936 43.7706C111.323 44.0479 111.844 44.0493 112.232 43.7733L118.707 39.1613C119 38.952 119.173 38.6146 119.175 38.2546L119.187 31.9653C119.188 31.5533 118.961 31.1746 118.597 30.9813L112.139 27.5306C111.812 27.356 111.419 27.3546 111.092 27.528" fill="#E4C918"/>
<path d="M81.8907 115.292C83.3333 115.288 85.3 115.087 87.3347 114.953C93.92 114.523 92.9347 118.165 92.9347 118.165L85.3573 119.468L79.6387 120.559C75.6667 122.343 64.8587 124.691 64.8587 124.691L61.7227 118.511L63.9707 114.285C64.0107 114.104 64.0213 113.92 64.1093 113.744L68.1853 106.364L68.188 106.36L73.672 96.432C74.2827 95.2013 75.1227 94.1987 76.4427 94.768L76.6853 94.872C78.004 95.4413 77.6453 96.6533 77.0347 97.884L75.108 102.293L79.5933 94.1733C80.204 92.9427 81.044 91.9387 82.3627 92.508L82.6053 92.612C83.9253 93.1827 83.5667 94.3933 82.956 95.624L82.5747 96.4973L85.304 92.144C85.984 90.9453 86.88 89.9853 88.1653 90.62L88.4013 90.736C89.6867 91.3707 89.2587 92.5613 88.5787 93.76L85.4453 99.9573L88.6773 95.8533C89.488 94.7266 90.4853 93.86 91.6933 94.6147L91.9147 94.7533C93.1213 95.5093 92.564 96.6533 91.7533 97.7787L82.2253 112.444C81.9947 113.421 81.9253 114.385 81.8907 115.292" fill="#F7916F"/>
<path d="M101.633 114.157C101.393 113.612 101.211 113.104 101.084 112.707C100.967 112.34 101.36 112.007 101.784 112.113C102.564 112.309 103.763 112.581 105.123 112.789C106.915 113.064 110.644 112.567 112.397 112.3C112.831 112.235 113.183 112.597 113.025 112.949C112.821 113.404 112.516 114.011 112.108 114.653C110.323 114.757 107.08 114.911 105.344 114.761C104.243 114.667 102.845 114.411 101.633 114.157Z" fill="white"/>
<path d="M107.564 116.407C108.741 116.104 110.145 116.133 110.931 116.181C109.861 117.336 108.424 118.308 106.553 118.367C106.136 118.38 105.755 118.305 105.389 118.199C105.917 117.456 106.673 116.636 107.564 116.407" fill="#F1465B"/>
<path d="M101.633 114.157C102.845 114.411 104.243 114.667 105.344 114.761C107.08 114.911 110.323 114.757 112.108 114.652C111.785 115.16 111.388 115.685 110.931 116.181C110.145 116.133 108.741 116.104 107.564 116.407C106.673 116.636 105.917 117.456 105.389 118.199C103.537 117.653 102.331 115.748 101.633 114.157Z" fill="#1A1D3D"/>
</svg>
