<?xml version="1.0" encoding="iso-8859-1"?>
<!-- Generator: Adobe Illustrator 19.0.0, SVG Export Plug-In . SVG Version: 6.00 Build 0)  -->
<svg xmlns="http://www.w3.org/2000/svg" xmlns:xlink="http://www.w3.org/1999/xlink" version="1.1" id="Layer_1" x="0px" y="0px" viewBox="0 0 418.723 418.723" style="enable-background:new 0 0 418.723 418.723;" xml:space="preserve">
<g>
	<g>
		<g>
			<path style="fill:#454F58;" d="M404.505,133.899c-1.919,0-3.839-0.732-5.303-2.197L287.02,19.52     c-2.929-2.929-2.929-7.678,0-10.606c2.929-2.929,7.678-2.929,10.606,0l112.183,112.182c2.929,2.929,2.929,7.678,0,10.607     C408.344,133.166,406.425,133.899,404.505,133.899z"/>
			<path style="fill:#454F58;" d="M381.296,175.446c-1.919,0-3.839-0.732-5.303-2.197L245.473,42.728     c-2.929-2.929-2.929-7.678,0-10.606c2.929-2.929,7.678-2.929,10.606,0L386.6,162.643c2.929,2.929,2.929,7.678,0,10.606     C385.135,174.713,383.216,175.446,381.296,175.446z"/>
			<path style="fill:#454F58;" d="M352.345,211.248c-1.919,0-3.839-0.732-5.303-2.197L209.671,71.682     c-2.929-2.929-2.929-7.678,0-10.606c2.929-2.929,7.678-2.929,10.606,0l137.371,137.37c2.929,2.929,2.929,7.678,0,10.607     C356.184,210.516,354.264,211.248,352.345,211.248z"/>
			<path style="fill:#454F58;" d="M316.542,240.2c-1.919,0-3.839-0.732-5.303-2.197l-130.52-130.52     c-2.929-2.929-2.929-7.678,0-10.606c2.929-2.929,7.678-2.929,10.606,0l130.52,130.521c2.929,2.929,2.929,7.678,0,10.606     C320.381,239.467,318.461,240.2,316.542,240.2z"/>
			<path style="fill:#454F58;" d="M274.997,263.408c-1.919,0-3.839-0.732-5.303-2.197L157.511,149.029     c-2.929-2.929-2.929-7.678,0-10.606c2.929-2.929,7.678-2.929,10.606,0L280.3,250.604c2.929,2.929,2.929,7.678,0,10.607     C278.835,262.675,276.916,263.408,274.997,263.408z"/>
		</g>
		<g>
			<path style="fill:#454F58;" d="M163.114,198.354c-1.919,0-3.839-0.732-5.303-2.197c-2.929-2.929-2.929-7.678,0-10.606     L334.146,9.216c2.929-2.929,7.678-2.929,10.607,0c2.929,2.929,2.929,7.678,0,10.607L168.417,196.157     C166.953,197.622,165.034,198.354,163.114,198.354z"/>
			<path style="fill:#454F58;" d="M186.977,239.247c-1.92,0-3.839-0.732-5.303-2.197c-2.929-2.929-2.929-7.678,0-10.606     L375.04,33.078c2.929-2.929,7.678-2.929,10.606,0c2.929,2.929,2.929,7.678,0,10.607L192.28,237.05     C190.816,238.514,188.896,239.247,186.977,239.247z"/>
			<path style="fill:#454F58;" d="M227.869,263.109c-1.919,0-3.839-0.732-5.303-2.197c-2.929-2.929-2.929-7.678,0-10.606     L398.901,73.971c2.929-2.929,7.678-2.929,10.606,0c2.929,2.929,2.929,7.678,0,10.606L233.172,260.912     C231.707,262.376,229.788,263.109,227.869,263.109z"/>
		</g>
	</g>
	<path style="fill:#FF6361;" d="M391.101,27.623C368.645,5.168,336.127-4.058,299.537,1.647   c-34.741,5.416-69.327,23.85-97.385,51.908c-28.058,28.058-46.493,62.643-51.908,97.385c-1.388,8.904-1.885,17.564-1.53,25.899   c-1.708,23.484,7.609,52.455-16.375,77.078l-25.708,25.708l32.465,32.466l25.675-25.674c24.631-24.028,53.616-14.7,77.111-16.409   c8.336,0.355,16.996-0.141,25.901-1.53c34.742-5.416,69.328-23.851,97.384-51.907c28.058-28.058,46.493-62.644,51.908-97.385   C422.779,82.594,413.555,50.078,391.101,27.623z M385.512,114.266c-4.382,28.1-19.627,56.411-42.933,79.717   c-23.305,23.305-51.616,38.551-79.717,42.932c-26.251,4.092-48.997-1.944-64.053-16.999   c-15.056-15.056-21.093-37.804-17.001-64.056c4.381-28.102,19.629-56.411,42.933-79.715c23.306-23.307,51.616-38.553,79.716-42.934   c26.251-4.093,49,1.945,64.056,17C383.568,65.268,389.603,88.014,385.512,114.266z"/>
	<path style="fill:#454F58;" d="M47.856,415.618c-4.142,4.141-10.917,4.141-15.06-0.001l-29.689-29.69   c-4.142-4.141-4.142-10.918-0.002-15.061l94.873-94.873c4.142-4.141,10.918-4.141,15.061,0.002l29.69,29.689   c4.142,4.143,4.141,10.918,0,15.059L47.856,415.618z"/>
	<g>
		
			<rect x="73.772" y="305.806" transform="matrix(0.7071 0.7071 -0.7071 0.7071 252.4162 17.2247)" style="fill:#5C6670;" width="63.287" height="15"/>
		
			<rect x="53.973" y="325.605" transform="matrix(0.7071 0.7071 -0.7071 0.7071 260.6171 37.0235)" style="fill:#5C6670;" width="63.287" height="15"/>
		
			<rect x="34.175" y="345.403" transform="matrix(0.7071 0.7071 -0.7071 0.7071 268.818 56.8224)" style="fill:#5C6670;" width="63.287" height="15"/>
	</g>
</g>















</svg>
