<?xml version="1.0" encoding="iso-8859-1"?>
<!-- Generator: Adobe Illustrator 19.0.0, SVG Export Plug-In . SVG Version: 6.00 Build 0)  -->
<svg version="1.1" id="Layer_1" xmlns="http://www.w3.org/2000/svg" xmlns:xlink="http://www.w3.org/1999/xlink" x="0px" y="0px"
	 viewBox="0 0 511.844 511.844" style="enable-background:new 0 0 511.844 511.844;" xml:space="preserve">
<path style="fill:#424953;" d="M351.209,339.458L48.013,387.85l-27.772,36.333l0.094,29.787
	c4.475,45.439,377.33,27.07,379.595,6.795l-0.016-33.021L351.209,339.458z"/>
<path style="fill:#967ADA;" d="M147.881,37.738c0,0,60.567,221.448-19.479,305.047C93.921,378.79,20.24,368.621,20.24,427.884
	c0,29.742,384.64,23.603,379.579-0.796c-23.806-114.622-17.808-164.646-9.028-385.655C392.509-1.671,147.881,37.738,147.881,37.738z
	"/>
<path style="fill:#424953;" d="M382.746,0H160.08c-11.73,0-21.321,9.599-21.321,21.321v17.62c0,11.723,9.591,21.322,21.321,21.322
	h222.666c11.73,0,21.322-9.599,21.322-21.322v-17.62C404.068,9.599,394.477,0,382.746,0z"/>
<rect x="155.842" y="439.832" width="20.06" height="33.05"/>
<rect x="236.182" y="437.742" width="20.06" height="33.05"/>
<rect x="316.532" y="432.772" width="20.06" height="33.07"/>
<path style="fill:#646C77;" d="M435.496,360.343l-321.77,51.359l-29.474,38.567l0.094,31.615
	c4.756,48.234,400.479,28.725,402.885,7.217l-0.016-35.053L435.496,360.343z"/>
<g>
	<path style="fill:#424953;" d="M142.898,505.595c6.686,0.922,13.801,1.719,21.283,2.422v-41.145h-21.283V505.595z"/>
	<path style="fill:#424953;" d="M228.169,511.468c7.006,0.156,14.104,0.266,21.282,0.328v-44.924h-21.282V511.468z"/>
	<path style="fill:#424953;" d="M334.714,510.25v-45.596H313.44v46.376C320.594,510.812,327.686,510.546,334.714,510.25z"/>
	<path style="fill:#424953;" d="M419.984,504.251V459.39h-21.29v46.861C406.13,505.626,413.236,504.954,419.984,504.251z"/>
</g>
<path style="fill:#AC92EA;" d="M219.718,40.128c0,0,64.277,235.021-20.673,323.744c-36.599,38.223-114.793,27.43-114.793,90.332
	c0,31.553,408.227,25.055,402.854-0.859c-25.273-121.635-18.9-174.743-9.592-409.296C479.342-1.695,219.718,40.128,219.718,40.128z"
	/>
<path style="fill:#646C77;" d="M491.604,42.714c0,11.723-9.591,21.321-21.306,21.321H231.356c-11.731,0-21.322-9.599-21.322-21.321
	V21.4c0-11.723,9.591-21.322,21.322-21.322h238.942c11.715,0,21.306,9.599,21.306,21.322V42.714z"/>
<g>
</g>
<g>
</g>
<g>
</g>
<g>
</g>
<g>
</g>
<g>
</g>
<g>
</g>
<g>
</g>
<g>
</g>
<g>
</g>
<g>
</g>
<g>
</g>
<g>
</g>
<g>
</g>
<g>
</g>
</svg>
