<svg viewBox="0 0 429 544" fill="none" xmlns="http://www.w3.org/2000/svg">
<path d="M113.713 543.499H187.924V422.687H113.713V543.499Z" fill="#100F0D"/>
<path d="M117.8 447.991H184.556V423.408H117.8V447.991Z" fill="#AD431F"/>
<path d="M184.556 458.986V450.202H117.8V458.986H184.556Z" fill="#AD431F"/>
<path d="M184.556 472.853V461.198H117.8V472.853H184.556Z" fill="#AD431F"/>
<path d="M184.556 490.537V475.063H117.8V490.537H184.556Z" fill="#AD431F"/>
<path d="M117.8 492.745V501.63H184.556V492.745H117.8Z" fill="#AD431F"/>
<path d="M202.267 543.499H97.5826V503.357H202.267V543.499Z" fill="#100F0D"/>
<path d="M199.465 542.07H100.384V505.499H199.465V542.07" fill="#8D9FB1"/>
<path d="M312.684 543.499H238.472V422.687H312.684V543.499Z" fill="#100F0D"/>
<path d="M309.316 447.991V423.409H242.559V447.991H309.316Z" fill="#AD431F"/>
<path d="M309.316 458.986V450.202H242.559V458.986H309.316Z" fill="#AD431F"/>
<path d="M309.316 472.853V461.198H242.559V472.853H309.316Z" fill="#AD431F"/>
<path d="M309.316 490.537V475.063H242.559V490.537H309.316Z" fill="#AD431F"/>
<path d="M242.559 492.745V501.63H309.316V492.745H242.559Z" fill="#AD431F"/>
<path d="M175.405 450.202H137.485V458.986H175.405V450.202Z" fill="#FAB211"/>
<path d="M175.405 461.198H137.485V472.853H175.405V461.198Z" fill="#FAB211"/>
<path d="M175.405 475.063H137.485V490.537H175.405V475.063Z" fill="#FAB211"/>
<path d="M175.405 492.745H137.485V501.63H175.405V492.745Z" fill="#FAB211"/>
<path d="M289.301 450.202H254.268V458.986H289.301V450.202Z" fill="#FAB211"/>
<path d="M289.301 461.198H254.268V472.853H289.301V461.198Z" fill="#FAB211"/>
<path d="M289.301 475.063H254.268V490.537H289.301V475.063Z" fill="#FAB211"/>
<path d="M289.301 492.745H254.268V501.63H289.301V492.745Z" fill="#FAB211"/>
<path d="M166.161 450.202H153.668V458.986H166.161V450.202Z" fill="#F8F568"/>
<path d="M166.161 461.198H153.668V472.853H166.161V461.198Z" fill="#F8F568"/>
<path d="M166.161 475.063H153.668V490.537H166.161V475.063Z" fill="#F8F568"/>
<path d="M166.161 492.745H153.668V501.63H166.161V492.745Z" fill="#F8F568"/>
<path d="M273.109 450.202H266.989V458.986H273.109V450.202Z" fill="#F8F568"/>
<path d="M273.109 461.198H266.989V472.853H273.109V461.198Z" fill="#F8F568"/>
<path d="M273.109 475.063H266.989V490.537H273.109V475.063Z" fill="#F8F568"/>
<path d="M273.109 492.745H266.989V501.63H273.109V492.745Z" fill="#F8F568"/>
<path d="M327.027 543.499H222.341V503.357H327.027V543.499Z" fill="#100F0D"/>
<path d="M324.215 542.07H225.144V505.499H324.215V542.07" fill="#8D9FB1"/>
<path d="M192.297 528.194H107.324V505.499H192.297V528.194Z" fill="#BDC8D3"/>
<path d="M320.747 530.509H232.699V507.817H320.747V530.509Z" fill="#BDC8D3"/>
<path d="M154.715 80.3219C154.715 101.579 141.555 118.801 125.321 118.801C109.087 118.801 95.9187 101.579 95.9187 80.3219C95.9187 59.0752 109.087 41.8459 125.321 41.8459C141.555 41.8459 154.715 59.0752 154.715 80.3219Z" fill="#100F0D"/>
<path d="M151.845 79.7739C151.845 98.9579 139.967 114.499 125.321 114.499C110.667 114.499 98.7893 98.9579 98.7893 79.7739C98.7893 60.6033 110.667 45.054 125.321 45.054C139.967 45.054 151.845 60.6033 151.845 79.7739Z" fill="#741519"/>
<path d="M273.743 80.3219C273.743 101.579 286.904 118.801 303.137 118.801C319.369 118.801 332.529 101.579 332.529 80.3219C332.529 59.0752 319.369 41.8459 303.137 41.8459C286.904 41.8459 273.743 59.0752 273.743 80.3219Z" fill="#100F0D"/>
<path d="M276.604 79.7739C276.604 98.9579 288.481 114.499 303.137 114.499C317.783 114.499 329.66 98.9579 329.66 79.7739C329.66 60.6033 317.783 45.054 303.137 45.054C288.481 45.054 276.604 60.6033 276.604 79.7739Z" fill="#741519"/>
<path d="M98.7893 79.9258C98.7893 79.9218 98.7893 79.9192 98.7893 79.9152C98.7893 79.9192 98.7893 79.9218 98.7893 79.9258ZM98.7893 79.8658C98.7893 79.8352 98.7893 79.8045 98.7893 79.7738C98.7893 79.8045 98.7893 79.8352 98.7893 79.8658ZM98.7893 79.7738C98.7893 79.7392 98.7893 79.7058 98.7893 79.6712C98.7893 79.7058 98.7893 79.7392 98.7893 79.7738ZM98.7893 79.6538C98.7893 79.6205 98.7893 79.5872 98.7893 79.5538C98.7893 79.5872 98.7893 79.6192 98.7893 79.6538ZM98.7893 79.5391C98.7893 79.5071 98.7893 79.4765 98.7907 79.4445C98.7893 79.4751 98.7893 79.5085 98.7893 79.5391ZM98.7907 79.4338C98.7907 79.4005 98.7907 79.3658 98.7907 79.3325C98.7907 79.3658 98.7907 79.4005 98.7907 79.4338ZM98.7907 79.3165C98.792 79.2471 98.792 79.1792 98.7933 79.1098C98.792 79.1792 98.792 79.2471 98.7907 79.3165ZM98.7933 79.0951C98.7947 79.0605 98.7947 79.0258 98.796 78.9911C98.7947 79.0258 98.7947 79.0618 98.7933 79.0951ZM98.796 78.9858C98.7973 78.9125 98.7987 78.8418 98.8 78.7685C98.7987 78.8405 98.7973 78.9125 98.796 78.9858ZM98.8 78.7632C98.92 73.2645 100.016 68.0871 101.872 63.5165C100.017 68.0871 98.92 73.2672 98.8 78.7632ZM101.881 63.4938C101.889 63.4711 101.899 63.4511 101.908 63.4284C101.899 63.4511 101.889 63.4725 101.881 63.4938ZM101.929 63.3765C101.929 63.3752 101.931 63.3725 101.931 63.3712C101.931 63.3738 101.931 63.3738 101.929 63.3765Z" fill="#79161A"/>
<path d="M99.7173 88.7593C99.1453 85.9366 98.8 82.9819 98.7893 79.9259C98.7893 79.9219 98.7893 79.9193 98.7893 79.9153C98.7893 79.8993 98.7893 79.882 98.7893 79.866C98.7893 79.8353 98.7893 79.8047 98.7893 79.774C98.7893 79.7393 98.7893 79.706 98.7893 79.6713C98.7893 79.666 98.7893 79.6593 98.7893 79.654C98.7893 79.6193 98.7893 79.5873 98.7893 79.554C98.7893 79.55 98.7893 79.5446 98.7893 79.5393C98.7893 79.5086 98.7893 79.4753 98.7907 79.4446C98.7907 79.442 98.7907 79.4366 98.7907 79.434C98.7907 79.4006 98.7907 79.366 98.7907 79.3327C98.7907 79.3273 98.7907 79.322 98.7907 79.3166C98.792 79.2473 98.792 79.1793 98.7933 79.11C98.7933 79.1047 98.7933 79.1006 98.7933 79.0953C98.7947 79.0619 98.7947 79.026 98.796 78.9913C98.796 78.99 98.796 78.9873 98.796 78.986C98.7973 78.9126 98.7987 78.8407 98.8 78.7687C98.8 78.7673 98.8 78.7646 98.8 78.7633C98.92 73.2673 100.017 68.0873 101.872 63.5166C101.875 63.51 101.879 63.502 101.881 63.494C101.889 63.4726 101.899 63.4513 101.908 63.4286C101.915 63.4113 101.923 63.394 101.929 63.3767C101.931 63.374 101.931 63.374 101.931 63.3713C103.968 58.4127 106.899 54.1753 110.447 51.0313C114.887 63.6926 109.821 79.8246 99.7173 88.7593Z" fill="#B91D24"/>
<path d="M329.66 79.9885V79.9872V79.9885ZM329.66 79.8819C329.66 79.8459 329.66 79.8099 329.66 79.7739C329.66 79.8099 329.66 79.8459 329.66 79.8819ZM329.66 79.7739C329.66 79.7405 329.66 79.7072 329.66 79.6739C329.66 79.7072 329.66 79.7405 329.66 79.7739ZM329.66 79.6486C329.66 79.6179 329.66 79.5845 329.66 79.5525C329.66 79.5845 329.66 79.6166 329.66 79.6486ZM329.66 79.5472C329.66 79.5152 329.659 79.4819 329.659 79.4499C329.659 79.4819 329.66 79.5152 329.66 79.5472ZM329.659 79.4232C329.659 79.3938 329.659 79.3645 329.659 79.3352C329.659 79.3632 329.659 79.3938 329.659 79.4232ZM329.657 79.3179C329.657 79.2872 329.657 79.2579 329.657 79.2272C329.657 79.2579 329.657 79.2886 329.657 79.3179ZM329.656 79.1992C329.656 79.1712 329.656 79.1445 329.656 79.1165C329.656 79.1445 329.656 79.1712 329.656 79.1992ZM329.655 79.0859C329.655 79.0592 329.655 79.0339 329.653 79.0072C329.655 79.0339 329.655 79.0592 329.655 79.0859ZM329.653 78.9698C329.653 78.9485 329.652 78.9245 329.652 78.9032C329.652 78.9258 329.653 78.9472 329.653 78.9698ZM329.651 78.8512C329.651 78.8299 329.651 78.8099 329.649 78.7885C329.651 78.8085 329.651 78.8312 329.651 78.8512ZM329.649 78.7432C329.648 78.7232 329.648 78.7059 329.648 78.6859C329.648 78.7059 329.648 78.7245 329.649 78.7432ZM329.645 78.6245C329.645 78.6045 329.645 78.5845 329.644 78.5659C329.645 78.5859 329.645 78.6045 329.645 78.6245ZM329.643 78.5165C329.643 78.5032 329.643 78.4898 329.641 78.4752C329.643 78.4885 329.643 78.5032 329.643 78.5165ZM329.639 78.3805C329.639 78.3712 329.639 78.3592 329.639 78.3486C329.639 78.3592 329.639 78.3699 329.639 78.3805ZM329.636 78.2885C329.636 78.2805 329.636 78.2725 329.636 78.2645C329.636 78.2725 329.636 78.2805 329.636 78.2885Z" fill="#79161A"/>
<path d="M327.743 92.7019C316.381 82.9939 312.777 65.2832 316.475 49.8019C324.048 55.5832 329.237 66.0992 329.636 78.2645C329.636 78.2725 329.636 78.2806 329.636 78.2886C329.637 78.3086 329.637 78.3286 329.639 78.3486C329.639 78.3593 329.639 78.3712 329.639 78.3806C329.64 78.4126 329.641 78.4432 329.641 78.4752C329.643 78.4899 329.643 78.5032 329.643 78.5166C329.644 78.5326 329.644 78.5486 329.644 78.5659C329.645 78.5846 329.645 78.6046 329.645 78.6246C329.647 78.6446 329.647 78.6659 329.648 78.6859C329.648 78.7059 329.648 78.7232 329.649 78.7432C329.649 78.7579 329.649 78.7739 329.649 78.7886C329.651 78.8099 329.651 78.8299 329.651 78.8513C329.651 78.8686 329.652 78.8859 329.652 78.9032C329.652 78.9245 329.653 78.9485 329.653 78.9699C329.653 78.9819 329.653 78.9939 329.653 79.0072C329.655 79.0339 329.655 79.0592 329.655 79.0859C329.655 79.0966 329.656 79.1072 329.656 79.1166C329.656 79.1446 329.656 79.1712 329.656 79.1992C329.657 79.2086 329.657 79.2179 329.657 79.2272C329.657 79.2579 329.657 79.2873 329.657 79.3179C329.657 79.3246 329.659 79.3286 329.659 79.3352C329.659 79.3646 329.659 79.3939 329.659 79.4232C329.659 79.4325 329.659 79.4406 329.659 79.4499C329.659 79.4819 329.66 79.5152 329.66 79.5472C329.66 79.5499 329.66 79.5499 329.66 79.5526C329.66 79.5846 329.66 79.6179 329.66 79.6486C329.66 79.6566 329.66 79.6659 329.66 79.6739C329.66 79.7072 329.66 79.7406 329.66 79.7739C329.66 79.8099 329.66 79.8459 329.66 79.8819C329.66 79.9179 329.66 79.9526 329.66 79.9873V79.9886C329.639 84.4899 328.948 88.7672 327.743 92.7019" fill="#B91D24"/>
<path d="M314.727 124.206C314.727 139.967 301.947 152.739 286.187 152.739H142.263C126.503 152.739 113.731 139.967 113.731 124.206V29.2753C113.731 13.5153 126.503 0.73925 142.263 0.73925H286.187C301.947 0.73925 314.727 13.5153 314.727 29.2753V124.206" fill="#100F0D"/>
<path d="M311.031 121.438C311.031 136.502 298.747 148.713 283.593 148.713H145.192C130.04 148.713 117.757 136.502 117.757 121.438V30.6979C117.757 15.6393 130.04 3.42327 145.192 3.42327H283.593C298.747 3.42327 311.031 15.6393 311.031 30.6979V121.438Z" fill="#8D9FB1"/>
<path d="M307.948 111.522C307.948 124.827 296.593 135.607 282.589 135.607H154.681C140.668 135.607 129.313 124.827 129.313 111.522V31.3645C129.313 18.0658 140.668 7.27248 154.681 7.27248H282.589C296.593 7.27248 307.948 18.0658 307.948 31.3645V111.522Z" fill="#BDC8D3"/>
<path d="M282.943 7.27515C282.94 7.27515 282.937 7.27515 282.935 7.27515C282.937 7.27515 282.94 7.27515 282.943 7.27515ZM282.884 7.27384C282.875 7.27384 282.867 7.27384 282.857 7.27384C282.867 7.27384 282.875 7.27384 282.884 7.27384ZM282.813 7.27384C282.801 7.27384 282.789 7.27384 282.777 7.27384C282.789 7.27384 282.801 7.27384 282.813 7.27384ZM282.741 7.27384C282.725 7.27251 282.711 7.27248 282.695 7.27248C282.711 7.27248 282.725 7.27251 282.741 7.27384ZM282.665 7.27248C282.64 7.27248 282.615 7.27248 282.589 7.27248C282.615 7.27248 282.64 7.27248 282.665 7.27248Z" fill="#BDC7D1"/>
<path d="M129.313 108.459V72.0406C135.629 67.9126 141.943 63.7979 148.283 59.7126C178.537 40.2206 210.328 22.7886 242.913 7.27258H282.589C282.615 7.27258 282.64 7.27258 282.665 7.27258C282.675 7.27258 282.685 7.27258 282.695 7.27258C282.711 7.27258 282.725 7.27261 282.741 7.27395C282.753 7.27395 282.765 7.27395 282.777 7.27395C282.789 7.27395 282.801 7.27395 282.813 7.27395C282.828 7.27395 282.843 7.27395 282.857 7.27395C282.867 7.27395 282.875 7.27395 282.884 7.27395C282.901 7.27528 282.917 7.27525 282.935 7.27525C282.937 7.27525 282.94 7.27525 282.943 7.27525C288.748 7.35125 294.072 9.29929 298.308 12.4846C249.456 38.9366 201.019 66.1406 153.128 94.3099C145.176 98.9953 137.241 103.718 129.313 108.459" fill="#DAE0E7"/>
<path d="M153.651 135.543C149.355 135.379 145.336 134.227 141.851 132.277C144.821 130.497 147.796 128.718 150.772 126.942V129.078H165.056C161.263 131.247 157.461 133.405 153.651 135.543Z" fill="#E1E7EC"/>
<path d="M197.225 110.442H178.66C221.332 85.4766 264.481 61.3139 307.948 37.7472V49.3326C296.603 54.6046 285.729 61.0633 274.9 67.1486C253.111 79.3766 230.952 90.8739 209.324 103.411C205.289 105.749 201.257 108.094 197.225 110.442" fill="#E1E7EC"/>
<path d="M181.061 62.8779C181.061 72.3873 173.363 80.0859 163.857 80.0859C154.352 80.0859 146.644 72.3873 146.644 62.8779C146.644 53.3726 154.352 45.674 163.857 45.674C173.363 45.674 181.061 53.3726 181.061 62.8779Z" fill="#100F0D"/>
<path d="M177.66 62.5833C177.66 70.2046 171.48 76.3806 163.857 76.3806C156.235 76.3806 150.055 70.2046 150.055 62.5833C150.055 54.9606 156.235 48.7806 163.857 48.7806C171.48 48.7806 177.66 54.9606 177.66 62.5833Z" fill="#3B7F33"/>
<path d="M281.805 62.8779C281.805 72.3873 274.097 80.0859 264.6 80.0859C255.095 80.0859 247.388 72.3873 247.388 62.8779C247.388 53.3726 255.095 45.674 264.6 45.674C274.097 45.674 281.805 53.3726 281.805 62.8779Z" fill="#100F0D"/>
<path d="M278.395 62.5833C278.395 70.2046 272.215 76.3806 264.6 76.3806C256.969 76.3806 250.789 70.2046 250.789 62.5833C250.789 54.9606 256.969 48.7806 264.6 48.7806C272.215 48.7806 278.395 54.9606 278.395 62.5833Z" fill="#3B7F33"/>
<path d="M150.772 129.078H277.686V110.442H150.772V129.078Z" fill="#100F0D"/>
<path d="M153.643 126.928H274.815V112.586H153.643V126.928Z" fill="#741519"/>
<path d="M274.815 126.928H153.643V120.598C154.411 120.715 155.213 120.799 156.067 120.799H274.815V126.928" fill="#2D1415"/>
<path d="M136.759 446.113C111.037 446.113 90.188 427.41 90.188 404.343V193.674C90.188 170.61 111.037 151.905 136.759 151.905H291.689C317.412 151.905 338.271 170.61 338.271 193.674V404.343C338.271 427.41 317.412 446.113 291.689 446.113H136.759Z" fill="#100F0D"/>
<path d="M333.889 277.106V195.61C333.889 173.147 313.713 154.934 288.828 154.934H138.947C114.06 154.934 93.8839 173.147 93.8839 195.61V277.106H333.889Z" fill="#8D9FB1"/>
<path d="M93.8839 279.318V400.755C93.8839 423.214 114.06 441.423 138.947 441.423H288.828C313.713 441.423 333.889 423.214 333.889 400.755V279.318H93.8839Z" fill="#8D9FB1"/>
<path d="M308.447 274.477V197.041C308.447 175.701 291.969 158.405 271.64 158.405H149.195C128.868 158.405 112.388 175.701 112.388 197.041V274.477H308.447Z" fill="#BDC8D3"/>
<path d="M112.388 281.281V395.467C112.388 416.597 128.868 433.715 149.195 433.715H271.64C291.969 433.715 308.447 416.597 308.447 395.467V281.281H112.388Z" fill="#BDC8D3"/>
<path d="M112.388 196.96C112.388 196.954 112.388 196.946 112.388 196.939C112.388 196.946 112.388 196.954 112.388 196.96ZM112.388 196.862C112.388 196.862 112.388 196.86 112.388 196.859V196.862ZM112.389 196.775C112.389 196.771 112.389 196.767 112.389 196.762C112.389 196.766 112.389 196.771 112.389 196.775ZM112.391 196.59C112.391 196.591 112.391 196.588 112.391 196.59Z" fill="#D6DCE2"/>
<path d="M133.4 274.477H112.388V197.041C112.388 197.014 112.388 196.987 112.388 196.961C112.388 196.954 112.388 196.946 112.388 196.939C112.388 196.914 112.388 196.887 112.388 196.862V196.859C112.388 196.831 112.388 196.803 112.389 196.775C112.389 196.771 112.389 196.766 112.389 196.762C112.389 196.735 112.389 196.709 112.389 196.681C112.389 196.65 112.389 196.621 112.391 196.59C112.391 196.589 112.391 196.591 112.391 196.59C112.556 181.385 121.112 168.33 133.4 162.182V274.477" fill="#E7ECEF"/>
<path d="M195.835 158.405H160.228V274.477H195.835V158.405Z" fill="white"/>
<path d="M195.835 281.281H160.228V433.715H195.835V281.281Z" fill="white"/>
<path d="M112.396 396.279C112.396 396.273 112.396 396.263 112.396 396.255C112.396 396.265 112.396 396.271 112.396 396.279ZM112.395 396.182C112.393 396.171 112.393 396.163 112.393 396.153C112.393 396.162 112.393 396.173 112.395 396.182ZM112.392 396.043C112.392 396.025 112.392 396.003 112.391 395.985C112.392 396.003 112.392 396.025 112.392 396.043ZM112.391 395.937C112.391 395.914 112.391 395.891 112.389 395.867C112.391 395.891 112.391 395.914 112.391 395.937ZM112.389 395.827C112.389 395.793 112.389 395.758 112.388 395.725C112.389 395.758 112.389 395.794 112.389 395.827ZM112.388 395.691C112.388 395.665 112.388 395.638 112.388 395.611C112.388 395.638 112.388 395.665 112.388 395.691ZM112.388 395.577C112.388 395.541 112.388 395.503 112.388 395.467C112.388 395.503 112.388 395.541 112.388 395.577Z" fill="#D6DCE2"/>
<path d="M133.4 429.971C121.212 423.931 112.696 411.17 112.396 396.279C112.396 396.271 112.396 396.265 112.396 396.255C112.395 396.231 112.395 396.207 112.395 396.182C112.393 396.173 112.393 396.162 112.393 396.153C112.393 396.117 112.392 396.079 112.392 396.043C112.392 396.024 112.392 396.003 112.391 395.985C112.391 395.969 112.391 395.953 112.391 395.937C112.391 395.914 112.391 395.891 112.389 395.867C112.389 395.854 112.389 395.842 112.389 395.827C112.389 395.794 112.389 395.758 112.388 395.725C112.388 395.714 112.388 395.702 112.388 395.691C112.388 395.665 112.388 395.638 112.388 395.611C112.388 395.599 112.388 395.588 112.388 395.576C112.388 395.54 112.388 395.503 112.388 395.467V281.281H133.4V429.971Z" fill="#E7ECEF"/>
<path d="M83.9987 399.941C79.7453 377.043 57.7373 361.933 34.8346 366.187C11.9413 370.442 -3.16936 392.454 1.07731 415.343C2.31731 421.99 5.06127 427.963 8.87594 433.011L8.80126 433.027C9.01193 433.306 9.23193 433.582 9.46793 433.843L9.72131 433.806C10.4973 433.877 11.324 433.711 12.152 433.518L12.092 433.446C12.6333 433.366 13.1733 433.269 13.7053 433.181L13.908 433.146C18.5333 432.386 23.16 431.589 27.7773 430.795C28.116 430.263 27.76 429.926 27.364 429.427C27.1946 429.217 27.052 429.006 26.924 428.791C22.232 425.097 18.8053 419.746 17.6306 413.418C15.048 399.543 24.2066 386.21 38.0773 383.633C51.9466 381.057 65.284 390.207 67.8586 404.078C69.04 410.459 67.7493 416.723 64.6506 421.877L64.6 421.89C64.2026 422.953 64.052 424.046 65.0053 424.291C69.6906 423.51 74.392 422.713 79.0613 421.83C79.8973 421.598 80.7747 421.434 81.5267 421.049C82.5733 420.526 83.0799 419.358 83.4679 418.239L83.3493 418.259C84.8613 412.447 85.164 406.23 83.9987 399.941" fill="#100F0D"/>
<path d="M80.8933 418.678C76.0973 419.534 71.304 420.501 66.5253 421.493C69.328 416.271 70.4413 410.095 69.2773 403.819C66.5506 389.17 52.4706 379.491 37.8146 382.213C23.1599 384.945 13.4853 399.029 16.2119 413.681C17.4186 420.177 20.8626 425.685 25.6 429.575C20.8386 430.522 16.0853 431.501 11.324 432.497C7.38266 427.541 4.52932 421.598 3.28799 414.933C-0.73868 393.259 13.5706 372.425 35.2493 368.399C56.9173 364.371 77.752 378.673 81.788 400.351C82.9613 406.665 82.564 412.903 80.8933 418.678" fill="#8D9FB1"/>
<path d="M54.412 384.446C58.3533 381.505 62.288 378.541 66.188 375.545C62.4147 372.775 58.176 370.647 53.6346 369.331C48.256 373.485 42.98 377.786 37.8146 382.222V382.213C43.6733 381.129 49.4213 382.049 54.412 384.446Z" fill="#BDC8D3"/>
<path d="M67.732 418.875C72.772 415.03 77.7359 411.093 82.4373 406.897C82.3959 404.737 82.1933 402.549 81.788 400.351C81.6013 399.389 81.3906 398.434 81.1453 397.502C77.3133 400.385 73.456 403.238 69.5973 406.083C70.0453 410.565 69.3453 414.929 67.732 418.875" fill="#BDC8D3"/>
<path d="M5.74526 423.063C6.96926 421.939 8.16793 420.789 9.41726 419.694C11.6706 417.715 13.9586 415.791 16.2546 413.878L16.2119 413.681C15.4186 409.425 15.7053 405.226 16.8199 401.33C14.2973 403.778 11.8053 406.239 9.3586 408.711C7.3226 410.763 5.3053 412.831 3.28796 414.917V414.933C3.81996 417.783 4.66392 420.493 5.74526 423.063" fill="#BDC8D3"/>
<path d="M60.7933 222.806C58.6146 218.513 52.9173 215.803 48.5946 214.359C44.8626 213.106 39.672 211.638 35.9906 213.747C32.3866 215.815 31.7373 219.218 31.6359 223.013C23.2693 246.134 19.7413 270.365 17.4359 294.791C15.2933 317.587 13.3933 342.458 18.5839 365.166C18.0359 368.538 17.7413 371.906 20.4586 374.515C22.6946 376.654 28.1333 376.042 30.7919 375.781C34.6573 375.397 49.5826 372.974 48.5106 366.719C48.4346 366.285 48.2146 366.102 47.9452 366.065C44.9986 343.193 43.9106 320.13 45.3693 296.918C46.0279 286.498 47.3453 276.343 49.2026 266.339C49.4719 266.065 49.6586 265.669 49.3626 265.478C50.3333 260.359 51.4306 255.277 52.6719 250.223C53.1279 249.917 53.4572 249.245 52.9759 249.029C54.0239 244.821 55.1453 240.639 56.3773 236.465C56.7239 236.366 57.0706 236.155 57.2133 235.927C59.8559 231.729 63.3506 227.833 60.7933 222.806" fill="#100F0D"/>
<path d="M20.02 296.323C20.3906 291.77 20.7973 287.211 21.244 282.661L21.5893 282.565C25.084 283.405 28.6226 284.054 32.1173 284.894C35.9573 285.826 39.664 287.295 43.6053 287.494C43.268 290.246 42.9653 293.027 42.72 295.834C42.5253 297.927 42.3733 300.038 42.2306 302.149C38.1693 300.858 33.2733 301.566 29.1026 301.367C26.528 301.246 22.6946 301.887 19.6733 301.591C19.7839 299.841 19.876 298.087 20.02 296.323Z" fill="#AD431F"/>
<path d="M19.6653 344.83C22.712 345.479 25.9133 344.879 29.044 344.682C33.6027 344.403 38.4066 344.454 42.812 343.193C43.268 348.282 43.884 353.343 44.6187 358.37C41.436 358.231 38.2453 359.361 35.0547 359.813C30.3027 360.493 25.608 361.895 20.9146 362.63C20.424 356.665 19.9773 350.735 19.6653 344.83" fill="#AD431F"/>
<path d="M19.5639 303.194C25.4479 304.587 39.4706 304.829 42.0693 304.741C41.7653 310.393 41.6559 316.047 41.7146 321.694C39.0559 321.122 35.7466 321.506 33.2479 321.333C28.5213 321.011 23.7586 320.939 19.032 321.269C19.0493 315.271 19.2093 309.261 19.5639 303.194Z" fill="#AD431F"/>
<path d="M41.7653 324.042C41.8746 329.791 42.1706 335.53 42.636 341.247C39.0133 341.061 35.24 341.719 31.652 341.993C29.3986 342.171 27.1866 342.419 24.9586 342.795C23.1946 343.086 21.3373 342.906 19.5733 343.049C19.2346 336.151 19.032 329.267 19.032 322.362C26.596 323.071 34.2013 323.387 41.7653 324.042" fill="#AD431F"/>
<path d="M33.1639 371.99C30.3693 372.332 26.8493 372.57 24.072 371.843C22.9066 371.53 22.0959 370.813 21.5306 369.875C21.3453 367.906 21.2013 365.951 21.032 363.997C23.6333 364.187 26.3933 363.418 28.96 363.219C34.304 362.818 39.824 362.397 44.9906 360.907C45.328 363.022 45.6826 365.133 46.0626 367.234C43.2253 370.501 37.2066 371.492 33.1639 371.99" fill="#AD431F"/>
<path d="M43.952 284.958C41.2 283.789 38.084 283.421 35.156 282.931C30.5973 282.171 26.0293 281.306 21.4133 281.083C22.088 274.469 22.8986 267.875 23.8946 261.315C27.5253 263.131 31.6013 263.553 35.5786 264.371C39.2413 265.127 43.244 266.681 47.084 266.697C45.8253 272.693 44.7707 278.769 43.952 284.958Z" fill="#AD431F"/>
<path d="M47.5066 264.81C40.0426 262.321 31.7106 261.987 24.0813 260.122C24.916 254.787 25.8866 249.477 27.0426 244.205C35.24 245.387 42.88 249.515 51.0933 250.287C49.744 255.086 48.5693 259.931 47.5066 264.81" fill="#AD431F"/>
<path d="M55.5333 235.802L55.5093 236.042C54.0653 240.254 52.7493 244.471 51.5253 248.713C43.5293 247.003 35.6293 242.491 27.3973 242.93L27.3306 242.951C28.588 237.346 30.0653 231.801 31.788 226.305L31.8119 226.385C34.5986 228.833 39.992 229.318 43.496 230.226C47.8013 231.331 51.8533 233.066 56.0666 234.278C55.8706 234.788 55.6866 235.299 55.5333 235.802" fill="#AD431F"/>
<path d="M29.1026 301.367C30.7653 301.452 32.5386 301.384 34.328 301.359C34.6493 296.159 35.088 291.002 35.68 285.863C34.4973 285.527 33.3146 285.186 32.1173 284.894C30.0066 284.387 27.8787 283.939 25.76 283.483C24.7547 289.494 23.9359 295.538 23.3199 301.603C25.4053 301.503 27.4986 301.291 29.1026 301.367" fill="#FAB211"/>
<path d="M33.6199 344.446C32.0839 344.522 30.5546 344.593 29.044 344.682C26.9333 344.817 24.7893 345.103 22.6786 345.099C23.1266 350.747 23.7933 356.365 24.7133 361.911C28.0226 361.215 31.3573 360.379 34.708 359.881C34.1346 354.626 33.7879 349.443 33.6199 344.446" fill="#FAB211"/>
<path d="M33.248 321.333L33.6027 321.337C33.6947 315.727 33.864 310.155 34.1507 304.614C30.5547 304.478 26.4347 304.226 23.1187 303.795C22.5787 309.565 22.2227 315.351 22.072 321.122C25.7947 320.994 29.5333 321.075 33.248 321.333" fill="#FAB211"/>
<path d="M22.5107 342.969C23.3293 342.965 24.156 342.93 24.9586 342.795C27.1866 342.419 29.3987 342.171 31.652 341.993C32.2773 341.947 32.9106 341.874 33.5426 341.811C33.5013 339.782 33.468 337.781 33.4747 335.831C33.484 331.678 33.5093 327.549 33.5693 323.434C29.7187 323.177 25.8786 322.915 22.0453 322.602C21.9026 329.423 22.0453 336.223 22.5107 342.969" fill="#FAB211"/>
<path d="M33.164 371.99C34.1506 371.867 35.2493 371.717 36.3973 371.51C35.8573 368.577 35.4013 365.626 35.0373 362.685C33.0026 362.895 30.9693 363.069 28.96 363.219C27.6853 363.317 26.36 363.562 25.0267 363.751C25.524 366.597 26.0733 369.429 26.696 372.241C28.8747 372.405 31.196 372.231 33.164 371.99" fill="#FAB211"/>
<path d="M35.1559 282.931C35.4333 282.973 35.7213 283.021 36.008 283.066C36.768 277.078 37.764 271.134 39.0386 265.229C37.8653 264.917 36.6999 264.599 35.5786 264.371C33.6613 263.975 31.7279 263.65 29.8373 263.219C28.4186 269.259 27.1706 275.362 26.0973 281.526C29.1293 281.897 32.1506 282.425 35.1559 282.931" fill="#FAB211"/>
<path d="M28.6133 284.116C27.66 283.915 26.7133 283.691 25.76 283.483C24.7547 289.494 23.9359 295.538 23.3199 301.603C24.5026 301.544 25.6839 301.456 26.7813 301.406C27.4906 295.647 28.3013 289.895 28.6133 284.116Z" fill="#F8F568"/>
<path d="M26.132 307.035C26.2334 306.078 26.3427 305.107 26.452 304.145C25.296 304.043 24.156 303.929 23.1187 303.795C22.5787 309.565 22.2227 315.351 22.072 321.122C22.9734 321.087 23.8773 321.109 24.7813 321.099C25.2453 316.431 25.6667 311.739 26.132 307.035" fill="#F8F568"/>
<path d="M24.6039 322.789C23.7506 322.725 22.8986 322.674 22.0453 322.602C21.9266 328.306 22.0546 333.986 22.3586 339.646C23.3293 334.067 24.0132 328.435 24.6039 322.789" fill="#F8F568"/>
<path d="M28.7493 279.449C28.732 275.709 28.6813 271.982 28.7226 268.263C27.7693 272.662 26.8746 277.069 26.0973 281.526C26.968 281.627 27.828 281.766 28.6973 281.897C28.7226 281.083 28.7493 280.263 28.7493 279.449" fill="#F8F568"/>
<path d="M34.3786 245.939C32.9026 251.005 31.5266 256.134 30.2759 261.328C33.3493 261.848 36.4653 262.301 39.536 262.865C40.6346 258.122 41.9347 253.418 43.4547 248.73C40.4227 247.873 37.4173 246.834 34.3786 245.939Z" fill="#FAB211"/>
<path d="M43.496 230.226C42.3734 229.934 41.0387 229.673 39.672 229.39C38.0333 234.101 36.48 238.887 35.0214 243.757C38.0934 244.471 41.14 245.538 44.18 246.569C45.808 241.757 47.684 236.974 49.844 232.226C47.7587 231.501 45.6574 230.783 43.496 230.226" fill="#FAB211"/>
<path d="M57.332 230.897C57.1627 231.365 57.012 231.825 56.8426 232.29C54.1333 229.914 49.532 229.326 46.1973 228.462C42.0013 227.377 36.6079 225.461 32.2679 225.739L31.9066 225.933C32.2093 224.963 32.5133 223.978 32.8426 223.003C34.5653 219.403 36.7933 216.297 41.3093 216.883C44.02 217.242 46.7626 218.277 49.2453 219.386C52.0386 220.639 54.4867 222.451 56.496 224.755C58.176 226.681 57.9987 228.782 57.332 230.897" fill="white"/>
<path d="M98.9827 196.956C98.9827 222.032 78.6546 242.369 53.576 242.369C28.4946 242.369 8.16797 222.032 8.16797 196.956C8.16797 171.872 28.4946 151.545 53.576 151.545C78.6546 151.545 98.9827 171.872 98.9827 196.956Z" fill="#100F0D"/>
<path d="M95.6399 196.956C95.6399 220.188 76.8066 239.022 53.5759 239.022C30.3439 239.022 11.5106 220.188 11.5106 196.956C11.5106 173.72 30.3439 154.897 53.5759 154.897C76.8066 154.897 95.6399 173.72 95.6399 196.956" fill="#8D9FB1"/>
<path d="M345.108 418.259L344.981 418.239C345.369 419.358 345.876 420.526 346.923 421.049C347.684 421.434 348.552 421.598 349.388 421.83C354.056 422.713 358.759 423.51 363.452 424.291C364.397 424.046 364.253 422.953 363.849 421.89L363.799 421.877C360.7 416.723 359.409 410.459 360.589 404.078C363.165 390.207 376.503 381.057 390.372 383.633C404.251 386.21 413.401 399.543 410.827 413.418C409.644 419.746 406.217 425.097 401.532 428.791C401.397 429.006 401.253 429.217 401.084 429.427C400.689 429.926 400.343 430.263 400.672 430.795C405.299 431.589 409.916 432.386 414.541 433.146L414.744 433.181C415.284 433.269 415.816 433.366 416.357 433.446L416.297 433.518C417.124 433.711 417.952 433.877 418.728 433.806L418.981 433.843C419.217 433.582 419.437 433.306 419.648 433.027L419.581 433.011C423.388 427.963 426.132 421.99 427.372 415.343C431.628 392.454 416.517 370.442 393.615 366.187C370.72 361.933 348.713 377.043 344.459 399.941C343.285 406.23 343.588 412.447 345.108 418.259" fill="#100F0D"/>
<path d="M346.671 400.351C350.696 378.673 371.531 364.371 393.2 368.399C414.879 372.425 429.188 393.259 425.16 414.933C423.919 421.598 421.076 427.541 417.124 432.497C412.371 431.501 407.611 430.522 402.859 429.575C407.584 425.685 411.037 420.177 412.237 413.681C414.964 399.029 405.289 384.945 390.643 382.213C375.988 379.491 361.899 389.17 359.172 403.819C358.008 410.095 359.121 416.271 361.924 421.493C357.145 420.501 352.36 419.534 347.556 418.678C345.885 412.903 345.497 406.665 346.671 400.351" fill="#8D9FB1"/>
<path d="M359.113 404.242C354.816 406.69 350.512 409.126 346.197 411.539C346.433 413.975 346.889 416.363 347.556 418.678C352.36 419.534 357.145 420.501 361.924 421.493C359.181 416.385 358.075 410.379 359.113 404.242Z" fill="#BDC8D3"/>
<path d="M411.68 401.507C415.664 399.531 419.683 397.615 423.776 395.847L424.004 395.758C421.708 388.457 417.368 381.953 411.52 377.043C406.581 379.373 401.685 381.753 396.797 384.177C404.149 387.485 409.552 393.918 411.68 401.507Z" fill="#BDC8D3"/>
<path d="M412.051 431.454C413.74 431.805 415.436 432.146 417.124 432.497C418.543 430.71 419.817 428.791 420.931 426.765C417.952 428.293 414.997 429.85 412.051 431.454" fill="#BDC8D3"/>
<path d="M371.236 235.927C371.379 236.155 371.725 236.366 372.072 236.465C373.304 240.639 374.425 244.821 375.472 249.029C374.992 249.245 375.321 249.917 375.785 250.223C377.027 255.277 378.124 260.359 379.085 265.478C378.791 265.669 378.976 266.065 379.255 266.339C381.104 276.343 382.42 286.498 383.08 296.918C384.539 320.13 383.451 343.193 380.513 366.065C380.235 366.102 380.015 366.285 379.939 366.719C378.867 372.974 393.792 375.397 397.667 375.781C400.316 376.042 405.761 376.654 407.991 374.515C410.717 371.906 410.421 368.538 409.864 365.166C415.056 342.458 413.156 317.587 411.013 294.791C408.708 270.365 405.188 246.134 396.813 223.013C396.712 219.218 396.063 215.815 392.459 213.747C388.777 211.638 383.585 213.106 379.855 214.359C375.54 215.803 369.843 218.513 367.656 222.806C365.099 227.833 368.601 231.729 371.236 235.927" fill="#100F0D"/>
<path d="M408.784 301.591C405.753 301.887 401.92 301.246 399.347 301.367C395.185 301.566 390.28 300.858 386.219 302.149C386.076 300.038 385.924 297.927 385.739 295.834C385.484 293.027 385.181 290.246 384.844 287.494C388.795 287.295 392.492 285.826 396.332 284.894C399.827 284.054 403.364 283.405 406.867 282.565L407.205 282.661C407.661 287.211 408.059 291.77 408.429 296.323C408.581 298.087 408.665 299.841 408.784 301.591Z" fill="#AD431F"/>
<path d="M407.535 362.63C402.849 361.895 398.147 360.493 393.395 359.813C390.212 359.361 387.013 358.231 383.831 358.37C384.565 353.343 385.181 348.282 385.645 343.193C390.052 344.454 394.856 344.403 399.405 344.682C402.537 344.879 405.737 345.479 408.784 344.83C408.48 350.735 408.032 356.665 407.535 362.63Z" fill="#AD431F"/>
<path d="M409.417 321.269C404.691 320.939 399.928 321.011 395.201 321.333C392.711 321.506 389.393 321.122 386.735 321.694C386.803 316.047 386.684 310.393 386.38 304.741C388.979 304.829 403.001 304.587 408.885 303.194C409.24 309.261 409.4 315.271 409.417 321.269Z" fill="#AD431F"/>
<path d="M409.417 322.362C409.417 329.267 409.215 336.151 408.876 343.049C407.121 342.906 405.264 343.086 403.5 342.795C401.263 342.419 399.051 342.171 396.805 341.993C393.217 341.719 389.444 341.061 385.813 341.247C386.287 335.53 386.583 329.791 386.693 324.042C394.248 323.387 401.853 323.071 409.417 322.362" fill="#AD431F"/>
<path d="M382.387 367.234C382.775 365.133 383.121 363.022 383.459 360.907C388.625 362.397 394.155 362.818 399.489 363.219C402.064 363.418 404.816 364.187 407.424 363.997C407.256 365.951 407.112 367.906 406.927 369.875C406.353 370.813 405.543 371.53 404.385 371.843C401.608 372.57 398.08 372.332 395.285 371.99C391.243 371.492 385.223 370.501 382.387 367.234" fill="#AD431F"/>
<path d="M381.365 266.697C385.215 266.681 389.208 265.127 392.88 264.371C396.848 263.553 400.924 263.131 404.555 261.315C405.559 267.875 406.369 274.469 407.045 281.083C402.419 281.306 397.852 282.171 393.293 282.931C390.372 283.421 387.257 283.789 384.497 284.958C383.679 278.769 382.624 272.693 381.365 266.697Z" fill="#AD431F"/>
<path d="M377.364 250.287C385.569 249.515 393.217 245.387 401.415 244.205C402.571 249.477 403.533 254.787 404.368 260.122C396.739 261.987 388.415 262.321 380.943 264.81C379.88 259.931 378.705 255.086 377.364 250.287Z" fill="#AD431F"/>
<path d="M372.384 234.278C376.596 233.066 380.656 231.331 384.953 230.226C388.457 229.318 393.86 228.833 396.637 226.385L396.671 226.305C398.392 231.801 399.861 237.346 401.119 242.951L401.06 242.93C392.82 242.491 384.928 247.003 376.924 248.713C375.709 244.471 374.384 240.254 372.94 236.042L372.916 235.802C372.763 235.299 372.579 234.788 372.384 234.278" fill="#AD431F"/>
<path d="M393.479 285.658C393.944 290.997 394.255 296.255 394.484 301.359C396.155 301.392 397.801 301.443 399.347 301.367C401.152 301.283 403.567 301.566 405.897 301.642C405.745 295.403 405.509 289.174 405.061 282.961C402.157 283.615 399.228 284.201 396.332 284.894C395.369 285.13 394.424 285.393 393.479 285.658" fill="#FAB211"/>
<path d="M399.405 344.682C397.497 344.569 395.547 344.497 393.588 344.369C393.125 349.439 392.551 354.491 391.8 359.523C392.331 359.633 392.863 359.738 393.395 359.813C397.228 360.359 401.019 361.362 404.8 362.118C405.441 356.487 405.829 350.798 406.057 345.103C403.855 345.142 401.617 344.821 399.405 344.682Z" fill="#FAB211"/>
<path d="M394.644 305.094C394.856 310.506 394.88 315.917 394.805 321.345C394.931 321.333 395.075 321.337 395.201 321.333C398.881 321.083 402.58 320.994 406.268 321.113C406.193 315.694 406.075 310.333 405.972 305.078C405.965 304.626 405.948 304.179 405.948 303.727C402.639 304.179 398.375 304.453 394.628 304.605C394.628 304.765 394.636 304.934 394.644 305.094Z" fill="#FAB211"/>
<path d="M406.285 322.611C402.453 322.923 398.612 323.186 394.779 323.438C394.652 329.537 394.332 335.633 393.825 341.706C394.829 341.811 395.817 341.917 396.805 341.993C399.051 342.171 401.263 342.419 403.5 342.795C404.361 342.938 405.255 342.969 406.149 342.981C406.377 336.165 406.377 329.353 406.285 322.611" fill="#FAB211"/>
<path d="M403.356 372.017C403.82 369.323 404.235 366.609 404.572 363.887C402.859 363.689 401.136 363.351 399.489 363.219C396.78 363.018 394.036 362.806 391.301 362.457C390.837 365.317 390.348 368.179 389.791 371.025C391.715 371.497 393.665 371.793 395.285 371.99C397.751 372.295 400.764 372.475 403.356 372.017" fill="#FAB211"/>
<path d="M393.293 282.931C397.16 282.286 401.027 281.589 404.935 281.255C404.436 274.849 403.695 268.454 402.621 262.097C399.499 263.242 396.164 263.693 392.88 264.371C392.204 264.511 391.521 264.681 390.837 264.858C391.892 270.861 392.652 276.929 393.235 282.935L393.293 282.931" fill="#FAB211"/>
<path d="M402.175 259.475C401.321 254.887 400.477 249.717 399.228 244.627C395.075 245.475 391.031 246.906 386.971 248.159C388.347 252.861 389.477 257.698 390.407 262.595C394.4 261.911 398.452 261.379 402.36 260.557C402.292 260.197 402.243 259.835 402.175 259.475" fill="#FAB211"/>
<path d="M392.517 228.473C389.976 229.267 387.105 229.673 384.953 230.226C383.492 230.597 382.067 231.057 380.648 231.529C382.86 236.093 384.725 240.905 386.279 245.889C390.416 244.483 394.568 243.141 398.805 242.938C397.405 237.679 395.455 232.631 392.517 228.473Z" fill="#FAB211"/>
<path d="M400.411 301.367C402.047 301.393 403.997 301.579 405.897 301.642C405.745 295.403 405.509 289.174 405.061 282.961C403.111 283.395 401.161 283.817 399.211 284.249C399.565 289.959 399.955 295.666 400.411 301.367" fill="#F8F568"/>
<path d="M402.216 321.087C403.567 321.083 404.917 321.071 406.268 321.113C406.193 315.694 406.075 310.333 405.972 305.078C405.965 304.626 405.948 304.179 405.948 303.727C404.344 303.951 402.521 304.119 400.639 304.263C401.101 309.885 401.641 315.49 402.216 321.087Z" fill="#F8F568"/>
<path d="M403.457 332.551C403.855 335.958 404.303 339.422 404.757 342.93C405.221 342.965 405.687 342.977 406.149 342.981C406.377 336.165 406.377 329.353 406.285 322.611C405.003 322.717 403.701 322.797 402.411 322.89C402.749 326.11 403.077 329.339 403.457 332.551Z" fill="#F8F568"/>
<path d="M399.076 281.977C401.019 281.686 402.976 281.419 404.935 281.255C404.436 274.849 403.695 268.454 402.621 262.097C401.161 262.634 399.649 263.009 398.123 263.338C398.384 269.555 398.704 275.769 399.076 281.977" fill="#F8F568"/>
<path d="M398.028 261.338C399.481 261.093 400.933 260.857 402.36 260.557C402.292 260.197 402.243 259.835 402.175 259.475C401.321 254.887 400.477 249.717 399.228 244.627C398.645 244.746 398.072 244.902 397.489 245.041C397.633 250.465 397.809 255.906 398.028 261.338" fill="#F8F568"/>
<path d="M371.961 224.755C373.963 222.451 376.411 220.639 379.204 219.386C381.687 218.277 384.429 217.242 387.139 216.883C391.656 216.297 393.884 219.403 395.615 223.003C395.936 223.978 396.24 224.963 396.552 225.933L396.189 225.739C391.851 225.461 386.448 227.377 382.251 228.462C378.917 229.326 374.325 229.914 371.607 232.29C371.447 231.825 371.287 231.365 371.127 230.897C370.459 228.782 370.281 226.681 371.961 224.755" fill="white"/>
<path d="M329.467 196.956C329.467 222.032 349.793 242.369 374.883 242.369C399.955 242.369 420.281 222.032 420.281 196.956C420.281 171.872 399.955 151.545 374.883 151.545C349.793 151.545 329.467 171.872 329.467 196.956Z" fill="#100F0D"/>
<path d="M332.817 196.956C332.817 220.188 351.651 239.022 374.883 239.022C398.105 239.022 416.939 220.188 416.939 196.956C416.939 173.72 398.105 154.897 374.883 154.897C351.651 154.897 332.817 173.72 332.817 196.956Z" fill="#8D9FB1"/>
<path d="M301.643 218.939C301.643 239.402 285.055 255.989 264.6 255.989C244.139 255.989 227.549 239.402 227.549 218.939C227.549 198.485 244.139 181.893 264.6 181.893C285.055 181.893 301.643 198.485 301.643 218.939Z" fill="#100F0D"/>
<path d="M297.759 218.166C297.759 236.485 282.911 251.33 264.6 251.33C246.281 251.33 231.433 236.485 231.433 218.166C231.433 199.853 246.281 185.007 264.6 185.007C282.911 185.007 297.759 199.853 297.759 218.166Z" fill="#FAB211"/>
<path d="M290.508 197.506C289.115 215.773 274.435 234.859 254.453 233.927C245.328 233.505 237.367 229.427 231.864 223.261C234.32 239.153 248.013 251.33 264.6 251.33C282.911 251.33 297.759 236.485 297.759 218.166C297.759 210.346 295.032 203.174 290.508 197.506" fill="#AD431F"/>
<path d="M291.841 218.702C291.841 233.754 279.643 245.953 264.6 245.953C249.548 245.953 237.351 233.754 237.351 218.702C237.351 203.655 249.548 191.462 264.6 191.462C279.643 191.462 291.841 203.655 291.841 218.702Z" fill="#100F0D"/>
<path d="M288.988 218.136C288.988 231.606 278.065 242.519 264.6 242.519C251.128 242.519 240.204 231.606 240.204 218.136C240.204 204.659 251.128 193.746 264.6 193.746C278.065 193.746 288.988 204.659 288.988 218.136Z" fill="#741519"/>
<path d="M326.301 289.507C326.301 291.39 324.781 292.914 322.899 292.914C321.016 292.914 319.496 291.39 319.496 289.507C319.496 287.63 321.016 286.101 322.899 286.101C324.781 286.101 326.301 287.63 326.301 289.507Z" fill="#100F0D"/>
<path d="M326.301 318.141C326.301 320.021 324.781 321.547 322.899 321.547C321.016 321.547 319.496 320.021 319.496 318.141C319.496 316.262 321.016 314.735 322.899 314.735C324.781 314.735 326.301 316.262 326.301 318.141Z" fill="#100F0D"/>
<path d="M326.301 346.779C326.301 348.658 324.781 350.186 322.899 350.186C321.016 350.186 319.496 348.658 319.496 346.779C319.496 344.902 321.016 343.373 322.899 343.373C324.781 343.373 326.301 344.902 326.301 346.779Z" fill="#100F0D"/>
<path d="M326.301 375.414C326.301 377.293 324.781 378.819 322.899 378.819C321.016 378.819 319.496 377.293 319.496 375.414C319.496 373.535 321.016 372.007 322.899 372.007C324.781 372.007 326.301 373.535 326.301 375.414Z" fill="#100F0D"/>
<path d="M326.301 404.051C326.301 405.93 324.781 407.458 322.899 407.458C321.016 407.458 319.496 405.93 319.496 404.051C319.496 402.166 321.016 400.646 322.899 400.646C324.781 400.646 326.301 402.166 326.301 404.051Z" fill="#100F0D"/>
<path d="M107.264 289.507C107.264 291.39 105.737 292.914 103.855 292.914C101.972 292.914 100.452 291.39 100.452 289.507C100.452 287.63 101.972 286.101 103.855 286.101C105.737 286.101 107.264 287.63 107.264 289.507Z" fill="#100F0D"/>
<path d="M107.264 318.141C107.264 320.021 105.737 321.547 103.855 321.547C101.972 321.547 100.452 320.021 100.452 318.141C100.452 316.262 101.972 314.735 103.855 314.735C105.737 314.735 107.264 316.262 107.264 318.141Z" fill="#100F0D"/>
<path d="M107.264 346.779C107.264 348.658 105.737 350.186 103.855 350.186C101.972 350.186 100.452 348.658 100.452 346.779C100.452 344.902 101.972 343.373 103.855 343.373C105.737 343.373 107.264 344.902 107.264 346.779Z" fill="#100F0D"/>
<path d="M107.264 375.414C107.264 377.293 105.737 378.819 103.855 378.819C101.972 378.819 100.452 377.293 100.452 375.414C100.452 373.535 101.972 372.007 103.855 372.007C105.737 372.007 107.264 373.535 107.264 375.414Z" fill="#100F0D"/>
<path d="M107.264 404.051C107.264 405.93 105.737 407.458 103.855 407.458C101.972 407.458 100.452 405.93 100.452 404.051C100.452 402.166 101.972 400.646 103.855 400.646C105.737 400.646 107.264 402.166 107.264 404.051Z" fill="#100F0D"/>
<path d="M88.7013 188.864C88.7013 206.774 74.1813 221.294 56.2773 221.294C38.3627 221.294 23.844 206.774 23.844 188.864C23.844 170.952 38.3627 156.432 56.2773 156.432C74.1813 156.432 88.7013 170.952 88.7013 188.864Z" fill="#BDC8D3"/>
<path d="M338.212 190.018C338.212 208.142 352.9 222.835 371.025 222.835C389.148 222.835 403.837 208.142 403.837 190.018C403.837 171.894 389.148 157.209 371.025 157.209C352.9 157.209 338.212 171.894 338.212 190.018Z" fill="#BDC8D3"/>
<path d="M48.916 157.053C37.4173 157.053 37.4173 174.886 48.916 174.886C60.4133 174.886 60.4133 157.053 48.916 157.053Z" fill="white"/>
<path d="M31.1893 172.358C23.524 172.358 23.524 184.251 31.1893 184.251C38.8533 184.251 38.8533 172.358 31.1893 172.358Z" fill="white"/>
<path d="M375.187 163.279C373.743 160.818 371.361 158.978 368.611 158.222C367.091 157.809 365.631 157.758 364.195 157.981C359.121 158.167 354.309 163.178 354.656 168.285C354.681 168.478 354.673 168.674 354.631 168.862C354.208 172.598 357.028 176.57 360.084 178.361C361.799 179.357 363.645 179.854 365.639 179.862C368.788 179.862 371.059 178.567 373.413 176.642L373.464 176.595C374.832 175.228 375.768 173.611 376.292 171.746C377.069 168.914 376.672 165.815 375.187 163.279" fill="white"/>
<path d="M388.853 167.357C380.697 167.357 380.697 180.002 388.853 180.002C397.016 180.002 397.016 167.357 388.853 167.357Z" fill="white"/>
<path d="M261.392 220.177C254.976 220.177 249.625 214.823 249.625 208.408C249.625 201.992 254.976 196.644 261.392 196.644C267.809 196.644 273.16 201.992 273.16 208.408C273.16 214.823 267.809 220.177 261.392 220.177Z" fill="#B91D24"/>
<path d="M281.155 227.702C278.497 227.702 275.945 226.289 274.544 223.937L274.46 223.798C273.236 221.729 272.949 218.423 274.46 216.377L274.544 216.262C275.777 214.609 277.025 213.342 279.095 212.773C279.765 212.591 280.439 212.501 281.112 212.501C281.785 212.501 282.459 212.591 283.131 212.773C286.388 213.667 288.719 216.723 288.719 220.103C288.719 223.485 286.388 226.531 283.131 227.435C282.476 227.615 281.812 227.702 281.155 227.702" fill="#B91D24"/>
<path d="M164.161 55.3433C160.743 51.9287 154.976 55.2393 155.829 59.6953C155.812 60.7073 156.133 61.6887 156.977 62.5353C157.821 63.3753 158.801 63.7007 159.823 63.6887C164.271 64.5327 167.588 58.766 164.161 55.3433Z" fill="#6EC72E"/>
<path d="M170.712 57.6978C168.264 57.6978 168.264 61.4978 170.712 61.4978C173.16 61.4978 173.16 57.6978 170.712 57.6978Z" fill="#6EC72E"/>
<path d="M260.127 52.4992C253.947 52.4992 253.947 62.0725 260.127 62.0725C266.297 62.0725 266.297 52.4992 260.127 52.4992Z" fill="#6EC72E"/>
<path d="M270.915 53.262C265.732 53.262 265.732 61.3047 270.915 61.3047C276.097 61.3047 276.097 53.262 270.915 53.262Z" fill="#6EC72E"/>
</svg>
