<svg viewBox="0 0 743 962" fill="none" xmlns="http://www.w3.org/2000/svg">
<g clip-path="url(#clip0_14_8197)">
<path d="M458.509 255.503C450.16 255.247 441.721 255.262 433.571 257.05C425.412 258.839 417.465 262.544 411.824 268.704L458.509 255.503" fill="#425638"/>
<path d="M391.976 216.137C394.663 219.06 398.371 220.793 401.714 222.944C410.087 228.341 416.426 236.806 419.245 246.363L391.976 216.137" fill="#425638"/>
<path d="M532.326 156.179C525.698 152.804 518.134 151.898 510.74 151.137C507.683 150.822 504.61 150.528 501.536 150.487C494.898 150.401 488.245 151.502 481.996 153.731L532.326 156.179Z" fill="#425638"/>
<path d="M447.056 123.424C456.967 137.177 466.887 151.743 469.548 168.487C469.97 168.363 470.401 168.237 470.832 168.112L447.056 123.424Z" fill="#425638"/>
<path d="M389.065 344.378C395.011 276.234 423.18 210.214 468.26 158.757C513.333 107.31 575.092 70.7023 641.868 55.8505C528.334 89.1615 435.402 185.122 405.758 299.654C402.681 311.529 400.239 323.594 399.225 335.812C397.494 356.751 401.401 404.037 407.603 427.194C415.393 456.275 405.698 489.205 426.669 490.516C404.074 489.714 408.013 440.237 395.554 418.603C384.297 399.074 387.159 366.267 389.065 344.378Z" fill="#425638"/>
<path d="M543.994 58.8666C555.355 44.8273 571.956 35.1182 589.762 32.096C588.898 33.4876 588.025 34.8802 587.161 36.2718C614.554 26.4352 645.997 28.4836 671.884 41.7994C671.74 41.0081 670.332 41.5043 670.386 42.3047C670.44 43.1051 671.235 43.613 671.944 43.9937C679.646 48.1371 687.357 52.2795 695.059 56.4229C678.982 76.99 659.961 97.9195 634.411 103.34C637.55 104.19 640.698 105.047 643.837 105.905C636.103 110.901 627.768 114.972 619.073 117.992C619.949 118.854 620.833 119.715 621.709 120.576C610.989 128.275 596.713 128.775 583.613 127.217C573.564 126.011 563.645 123.759 554.053 120.532C547.911 118.466 531.906 114.514 528.202 108.905C524.444 103.202 528.941 89.4348 530.839 83.4287C533.666 74.5213 538.111 66.1286 543.994 58.8666Z" fill="#425638"/>
<path d="M595.953 150.53C594.502 150.867 593.126 151.587 592.034 152.603C605.517 157.843 617.676 166.46 627.096 177.437C628.361 178.92 629.629 180.53 629.996 182.449C639.107 197.605 644.597 214.921 645.901 232.563C630.643 236.866 614.372 237.523 598.821 234.476C599.091 236.332 599.371 238.196 599.65 240.06C576.574 239.516 553.84 229.773 537.545 213.437C538.169 216.814 538.802 220.191 539.435 223.567C536.179 222.449 533.181 220.581 530.751 218.147C530.675 220.156 530.608 222.173 530.531 224.182C512.291 213.295 499.825 193.291 498.083 172.126C494.078 123.528 570.673 132.933 595.953 150.53" fill="#425638"/>
<path d="M477.184 126.34C479.636 114.99 477.336 102.691 470.944 92.991C470.137 93.5167 469.799 94.6467 470.178 95.5318C459.955 77.2654 444.259 62.0994 425.643 52.518C426.129 53.5552 426.078 54.837 425.49 55.8204C407.304 40.1286 382.714 32.0868 358.772 33.9849C368.724 44.048 375.313 57.3775 377.289 71.3929C376.492 70.5866 375.572 69.9103 374.575 69.3687C378.169 83.5276 383.449 97.2617 390.259 110.179C388.563 109.718 386.858 109.248 385.154 108.787C391.177 123.949 399.124 139.051 412.157 148.865C436.084 166.88 470.665 156.576 477.184 126.34" fill="#425638"/>
<path d="M493.07 225.208C511.492 226.469 528.674 235.671 542.488 247.923C543.832 249.117 545.23 250.478 545.483 252.254C545.735 254.031 544.126 256.105 542.414 255.563C556.84 262.872 560.215 281.382 565.927 296.511C572.382 313.603 583.56 328.431 594.635 342.953C581.49 341.3 568.177 340.941 554.96 341.895C556.238 343.857 554.783 346.658 552.654 347.625C550.515 348.594 548.045 348.257 545.74 347.857C530.363 345.19 515.313 340.571 501.085 334.148C502.235 336.023 502.755 338.279 502.533 340.466C494.858 339.353 487.395 336.761 480.686 332.861C482.243 333.563 481.436 336.235 479.787 336.674C478.139 337.122 476.469 336.187 475.026 335.274C462.2 327.133 449.901 317.589 441.352 305.029C414.065 264.908 448.145 222.13 493.07 225.208" fill="#425638"/>
<path d="M397.239 169.178C389.361 160.896 378.496 156.105 367.568 152.751C366.39 152.382 364.999 152.061 363.994 152.779C362.989 153.497 363.394 155.611 364.611 155.379C347.207 149.785 328.649 147.804 310.455 149.589C304.366 150.189 298.329 151.201 292.3 152.212C281.598 154.015 270.885 155.809 260.173 157.604C266.89 172.288 276.66 185.556 288.685 196.324C286.62 197.031 284.546 197.749 282.481 198.457C291.593 207.736 301.255 216.47 311.41 224.602C309.905 222.899 308.666 226.927 309.927 228.818C319.901 243.733 337.17 253.523 355.1 254.4C373.031 255.286 391.178 247.24 402.565 233.37C417.224 215.509 412.875 185.627 397.239 169.178" fill="#425638"/>
<path d="M315.979 635.873C311.211 627.9 309.48 616.92 308.911 607.751C308.65 603.494 308.808 599.159 309.512 594.95C310.128 591.211 310.884 586.353 313.327 583.388C314.915 581.452 318.464 582.866 317.894 585.46C317.067 589.265 314.956 592.558 314.217 596.509C313.452 600.571 313.222 604.723 313.342 608.849C313.607 617.877 316.751 626.631 316.738 635.587C316.738 635.949 316.218 636.265 315.979 635.873" fill="#58754B"/>
<path d="M266.747 576.584C271.853 579.86 275.606 584.802 280.589 588.299C285.971 592.062 291.751 594.49 298.385 594.631C302.896 594.725 302.448 601.462 298.182 600.655C292.069 599.492 286.221 596.845 281.225 593.133C275.191 588.648 272.193 581.609 266.546 576.831C266.387 576.693 266.582 576.474 266.747 576.584" fill="#58754B"/>
<path d="M252.397 733.877C246.262 728.134 243.069 720.599 240.056 712.864C236.505 703.763 234.322 694.577 234.122 684.763C234.097 683.534 234.464 682.066 235.625 681.378C235.933 681.202 236.233 681.027 236.54 680.841C237.497 680.282 238.38 680.319 239.292 680.924C242.746 683.181 241.443 688.185 241.739 691.813C242.167 697.184 243.174 702.46 244.649 707.626C247.102 716.259 249.588 725.035 253.3 733.224C253.533 733.734 252.817 734.269 252.397 733.877" fill="#58754B"/>
<path d="M203.909 653.651C217.851 659.478 231.128 665.455 246.657 663.913C249.149 663.66 250.329 666.456 249.045 668.343C248.839 668.636 248.633 668.928 248.437 669.229C247.727 670.261 246.087 670.074 245.404 669.148C245.182 668.835 244.952 668.533 244.731 668.22C245.556 668.589 246.381 668.958 247.207 669.327C231.831 669.521 216.625 661.767 203.664 654.174C203.355 653.988 203.559 653.496 203.909 653.651Z" fill="#58754B"/>
<path d="M372.316 544.653C317.293 566.17 269.703 609.869 238.528 667.51C207.361 725.15 192.768 796.437 197.501 867.897C196.129 744.564 252.013 628.028 339.474 571.813C348.536 565.984 357.931 560.756 367.815 556.954C384.74 550.435 408.019 552.888 424.235 563.899C444.655 577.779 463.973 607.925 470.426 629.011C463.983 606.15 450.686 547.91 429.543 540.107C410.461 533.063 389.998 537.741 372.316 544.653Z" fill="#58754B"/>
<path d="M175.354 767.302C166.603 782.072 162.786 801.203 164.827 820.047C165.765 818.847 166.703 817.647 167.641 816.448C166.476 846.619 176.215 878.209 193.877 901.587C193.184 901.622 193.235 900.077 193.911 899.954C194.586 899.822 195.218 900.518 195.708 901.148C201.12 908.068 206.523 914.99 211.927 921.911C224.893 900.845 237.391 876.694 235.363 849.418C236.873 852.425 238.383 855.432 239.903 858.446C242.074 849.424 243.317 839.999 243.606 830.453C244.547 831.154 245.488 831.855 246.428 832.557C250.066 819.872 246.838 805.205 242.192 792.195C238.625 782.216 234.226 772.612 229.096 763.572C225.799 757.776 218.444 742.342 212.839 739.851C207.147 737.306 196.863 745.015 192.371 748.314C185.705 753.211 179.876 759.662 175.354 767.302" fill="#58754B"/>
<path d="M229.039 763.369C225.751 757.573 218.388 742.14 212.781 739.64C212.497 739.515 212.197 739.418 211.89 739.341C206.375 748.259 203.288 765.469 201.937 771.247C197.977 788.166 196.087 805.843 196.352 823.609C196.494 833.383 197.29 843.181 198.748 852.893C199.814 860.002 201.228 867.057 202.641 874.103C205.766 889.704 208.899 905.304 212.423 920.819C225.184 899.964 237.314 876.113 235.306 849.215C236.816 852.222 238.335 855.228 239.845 858.235C242.017 849.222 243.261 839.796 243.549 830.241C244.489 830.942 245.43 831.644 246.371 832.345C250.019 819.669 246.781 805.003 242.135 791.992C238.568 782.014 234.169 772.41 229.039 763.369" fill="#607F4B"/>
<path d="M264.344 799.597C264.241 798.041 264.489 796.476 265.049 795.124C272.855 807.687 283.109 818.136 294.627 825.251C296.182 826.207 297.843 827.134 299.521 827.072C314.433 832.919 330.208 834.594 345.178 831.923C344.848 815.386 341.236 798.649 334.732 783.472C336.348 783.335 337.964 783.198 339.579 783.052C333.226 759.648 319.331 738.676 301.609 725.762C304.576 725.633 307.543 725.513 310.501 725.393C308.74 722.321 306.427 719.695 303.786 717.772C305.434 717.233 307.083 716.704 308.731 716.174C295.039 700.044 275.253 691.867 257.248 694.891C215.896 701.836 243.275 777.805 264.344 799.597" fill="#607F4B"/>
<path d="M213.909 683.974C205.114 689.042 194.319 689.486 184.643 685.172C184.865 684.235 185.717 683.623 186.552 683.819C168.78 677.539 152.188 664.963 139.477 648.154C140.464 648.425 141.506 648.074 142.175 647.255C124.513 632.261 111.547 609.022 107.002 584.166C117.899 592.032 130.647 595.736 142.781 594.566C141.91 593.93 141.107 593.152 140.409 592.254C153.08 592.714 165.817 594.979 178.28 599.001C177.461 597.363 176.644 595.735 175.817 594.108C189.939 596.811 204.505 601.479 215.982 612.556C237.045 632.863 237.333 670.466 213.909 683.974" fill="#58754B"/>
<path d="M225.477 662.697C195.046 662.592 165.988 644.536 140.673 623.475C128.743 613.549 117.256 602.547 109.044 588.305C108.405 587.192 107.755 585.873 107.038 584.515C111.701 609.114 124.575 632.074 142.086 646.919C141.418 647.739 140.367 648.09 139.389 647.827C152.091 664.637 168.682 677.204 186.455 683.485C185.63 683.297 184.776 683.9 184.546 684.838C194.222 689.161 205.018 688.716 213.812 683.639C221.699 679.089 226.901 671.806 229.521 663.363C228.281 662.837 226.782 662.709 225.477 662.697" fill="#607F4B"/>
<path d="M300.009 677.744C305.764 696.238 317.793 711.677 331.493 722.98C332.819 724.086 334.317 725.192 335.852 725.055C337.395 724.907 338.692 722.792 337.812 721.17C347.562 734.233 363.785 733.463 377.803 735.86C393.636 738.562 408.798 746.601 423.685 754.606C418.946 741.568 415.249 728.081 412.662 714.381C414.614 715.233 416.572 713.115 416.827 710.725C417.083 708.336 416.173 705.893 415.255 703.632C409.104 688.547 401.43 674.25 392.461 661.199C394.311 661.943 396.315 661.966 398.071 661.244C395.191 653.668 391.127 646.647 386.175 640.694C387.162 642.115 389.163 640.689 389.119 638.91C389.065 637.132 387.862 635.633 386.738 634.371C376.702 623.13 365.642 612.763 353.028 606.9C312.763 588.172 285.971 632.628 300.009 677.744" fill="#58754B"/>
<path d="M375.131 708.668C369.34 702.927 363.966 696.654 358.75 690.239C344.738 673.01 331.663 654.49 322.228 633.653C341.539 643.037 361.166 651.438 381.044 658.827C383.453 659.723 387.813 661.009 392.121 661.513C392.079 661.454 392.037 661.395 391.994 661.336C392.23 661.43 392.465 661.515 392.698 661.582C394.026 661.718 395.334 661.767 396.569 661.705C396.923 661.623 397.266 661.525 397.605 661.382C394.725 653.806 390.661 646.785 385.709 640.832C386.697 642.262 388.697 640.827 388.652 639.048C388.598 637.269 387.396 635.771 386.271 634.508C376.237 623.277 365.166 612.902 352.562 607.038C312.297 588.31 285.505 632.766 299.543 677.882C305.298 696.376 317.327 711.815 331.027 723.118C332.353 724.224 333.842 725.331 335.386 725.192C336.928 725.045 338.226 722.93 337.346 721.308C347.095 734.371 363.319 733.61 377.337 735.998C393.17 738.699 408.332 746.739 423.219 754.743C422.997 754.159 422.8 753.563 422.595 752.969C418.281 747.413 413.409 742.339 408.363 737.681C397.518 727.654 385.683 719.114 375.131 708.668" fill="#607F4B"/>
<path d="M229.028 592.722C220.135 586.572 213.387 576.582 207.804 566.202C207.201 565.077 206.576 563.737 206.917 562.552C207.258 561.358 209.117 561.296 209.23 562.589C200.148 546.108 193.752 527.634 190.585 508.678C189.524 502.329 188.821 495.945 188.128 489.568C186.877 478.24 185.636 466.912 184.386 455.585C198.282 459.099 211.794 466.057 223.804 475.874C223.864 473.605 223.923 471.335 223.982 469.065C234.013 476.25 243.734 484.127 253.074 492.631C251.282 491.482 254.303 489.301 256.192 490.16C271.127 496.946 283.659 512.343 288.973 530.42C294.288 548.506 292.25 568.832 283.652 583.596C272.578 602.596 246.671 604.947 229.028 592.722" fill="#58754B"/>
<path d="M269.691 584.788C236.512 559.056 209.659 522.142 193.605 480.191C197.565 499.556 204.157 518.354 213.062 535.677C211.34 534.412 209.352 533.655 207.354 533.513C208.3 538.099 210.344 542.437 213.18 545.924C211.94 545.398 210.58 545.292 209.327 545.619C214.719 553.41 219.754 561.519 224.417 569.892C220.035 567.938 215.652 565.983 211.279 564.028C209.893 563.408 208.042 562.926 207.257 564.292C206.325 565.899 207.937 567.953 209.268 569.285C214.759 574.749 218.198 582.395 223.082 588.572C230.615 598.093 241.679 603.769 252.558 603.705C261.663 603.65 270.505 599.573 276.988 592.603C278.416 591.064 283.177 586.134 279.344 586.288C278.288 586.332 277.381 588.452 276.041 588.543C274.025 588.676 271.303 586.036 269.691 584.788" fill="#607F4B"/>
<path d="M202.401 784.465C204.849 800.715 212.763 815.856 223.362 827.384C220.756 821.799 219.358 815.521 219.353 809.319C224.918 815.69 229.883 822.755 234.122 830.338C239.983 816.088 241.119 799.104 237.251 783.406C234.219 771.119 228.334 759.909 222.48 748.904C220.509 745.193 216.467 737.59 212.029 740.078C208.73 741.926 206.244 749.73 204.972 753.436C201.669 763.089 200.828 773.977 202.401 784.465Z" fill="#73964D"/>
<path d="M236.848 737.63C238.441 749.384 242.481 760.627 246.688 771.636C251.005 782.933 255.892 794.669 264.557 802.047C265.37 794.63 263.02 787.1 260.863 779.858C257.158 767.458 253.868 754.327 255.832 741.75C258.011 750.982 260.189 760.205 262.367 769.437C265.074 780.924 267.851 792.576 273.151 802.931C279.645 815.6 290.356 826.093 302.72 828.875C300.312 821.034 298.899 812.838 298.547 804.643C300.281 810.126 304.414 814.351 308.964 816.968C313.513 819.584 318.5 820.798 323.421 821.991C322.282 820.767 321.499 819.117 321.242 817.386C326.576 820.955 332.104 824.106 337.775 826.799C329.999 817.294 322.192 807.755 313.435 799.472C306.373 792.801 298.735 786.976 291.769 780.177C273.997 762.85 261.077 739.623 251.849 715.198C250.537 711.737 248.874 707.224 246.006 705.016C241.798 701.758 240.357 705.934 238.982 709.959C236.012 718.609 235.569 728.252 236.848 737.63" fill="#73964D"/>
<path d="M186.374 679.654C185.626 679.512 184.869 679.372 184.121 679.231C187.061 679.729 189.99 680.219 192.93 680.717C192.845 681.668 192.474 682.556 191.897 683.213C204.222 685.791 215.992 677.822 224.383 667.797C224.698 667.421 225.028 667.016 225.139 666.498C225.482 664.978 223.924 663.724 222.602 663.188C217.594 661.143 212.254 661.169 207.058 660.212C195.586 658.1 185.028 651.25 173.981 646.722C167.715 644.153 160.48 642.289 154.172 644.65C149.112 646.541 147.05 649.693 151.421 654.474C156.433 659.95 162.363 664.653 168.195 668.842C173.227 672.46 180.529 678.554 186.374 679.654" fill="#73964D"/>
<path d="M297.974 632.658C296.465 636.796 295.774 641.312 295.484 645.86C293.957 670.055 304.73 695.51 322.527 709.783C318.382 701.43 320.863 689.923 327.788 685.353C328.035 685.192 328.291 685.039 328.567 684.993C330.037 684.753 330.668 687.134 330.861 688.853C331.636 695.946 335.504 702.38 340.291 707.155C345.078 711.929 350.762 715.282 356.384 718.559C351.337 709.174 354.727 697.167 351.909 686.724C350.43 681.26 347.331 676.522 344.392 671.84C336.161 658.741 328.716 645.01 322.129 630.802C319.937 626.08 317.9 620.021 320.635 616.013C321.762 614.359 323.54 613.409 324.668 611.755C325.804 610.1 325.865 607.052 324.101 606.18C323.414 605.834 322.638 605.949 321.919 606.094C311.512 608.311 301.885 621.947 297.974 632.658Z" fill="#73964D"/>
<path d="M210.604 912.546C207.397 906.38 206.31 898.893 205.061 892.129C203.793 885.259 202.73 878.358 201.8 871.435C199.833 856.713 198.52 841.915 197.243 827.113C196.037 813.191 195.547 799.459 197.992 785.638C199.161 778.963 200.84 772.4 202.762 765.912C203.585 763.13 204.445 760.371 205.334 757.619C206.337 754.474 206.99 750.831 209.121 748.27C210.033 747.172 212.154 747.635 212.213 749.196C212.414 754.563 209.029 760.557 207.408 765.639C205.327 772.171 203.445 778.782 202.053 785.497C199.05 799.882 199.558 813.974 200.755 828.522C201.907 842.449 203.087 856.382 204.777 870.255C205.617 877.187 206.591 884.096 207.77 890.976C208.973 898.007 211.07 905.273 211.081 912.426C211.083 912.715 210.738 912.795 210.604 912.546" fill="#73964D"/>
<path d="M183.247 873.166C183.972 864.97 186.485 856.819 189.307 849.108C190.739 845.204 192.35 841.355 194.141 837.597C195.619 834.486 196.927 830.876 199.548 828.59C200.147 828.067 201.138 828.727 200.977 829.468C200.23 832.985 197.706 836.13 196.074 839.32C194.289 842.797 192.668 846.357 191.196 849.966C188.092 857.57 186.07 865.473 183.536 873.255C183.482 873.432 183.227 873.331 183.247 873.166" fill="#73964D"/>
<path d="M174.417 812.635C178.136 800.93 187.025 791.343 196.862 784.322C198.762 782.97 200.909 785.912 198.998 787.247C189.081 794.204 182.275 803.516 174.996 812.993C174.741 813.327 174.307 812.981 174.417 812.635Z" fill="#73964D"/>
<path d="M180.862 771.686C185.976 762.836 194.765 755.741 204.039 751.557C205.64 750.824 206.701 753.514 205.032 754.109C195.655 757.461 188.334 765.277 181.336 771.982C181.13 772.184 180.685 771.994 180.862 771.686Z" fill="#73964D"/>
<path d="M225.115 872.281C218.573 869.215 213.268 861.397 209.328 855.594C204.568 848.59 200.791 841.005 197.884 833.07C197.233 831.298 199.995 830.229 200.619 832.004C203.355 839.767 206.898 847.185 211.436 854.058C213.48 857.147 215.71 860.116 218.066 862.974C220.503 865.932 223.529 868.522 225.494 871.818C225.646 872.074 225.42 872.432 225.115 872.281Z" fill="#73964D"/>
<path d="M292.657 711.098C285.122 714.58 277.116 713.863 269.081 712.678C261.046 711.502 251.674 710.625 244.184 707.411C242.811 706.826 243.6 705.053 244.891 705.103C252.505 705.434 260.406 707.972 267.95 709.216C276.119 710.55 284.287 711.35 292.566 710.736C292.791 710.722 292.848 711.015 292.657 711.098" fill="#73964D"/>
<path d="M303.164 740.092C288.186 747.146 271.13 746.579 255.616 741.409C253.91 740.84 255.081 738.285 256.787 738.854C271.931 743.944 287.565 743.442 302.893 739.386C303.352 739.267 303.605 739.884 303.164 740.092" fill="#73964D"/>
<path d="M322.099 773.854C315.383 778.257 306.809 779.174 298.903 779.352C290.952 779.535 281.879 779.108 274.458 776.04C273.116 775.488 273.81 773.498 275.187 773.675C283.412 774.76 291.016 776.694 299.429 776.419C307.082 776.158 314.476 774.148 322.084 773.792C322.11 773.789 322.133 773.832 322.099 773.854" fill="#73964D"/>
<path d="M378.319 658.66C372.483 658.003 367.087 655.346 361.797 652.923C356.022 650.277 350.364 647.356 344.815 644.262C339.553 641.319 334.39 638.195 329.329 634.906C324.383 631.687 318.678 628.481 314.618 624.176C313.543 623.045 315.197 621.229 316.486 621.886C321.569 624.493 326.096 628.579 330.856 631.754C336.305 635.383 341.887 638.8 347.601 642.005C352.682 644.857 357.868 647.499 363.124 650.026C368.359 652.528 373.932 654.524 378.636 657.949C378.988 658.203 378.695 658.703 378.319 658.66" fill="#73964D"/>
<path d="M390.224 685.367C380.075 688.698 367.875 683.155 358.17 680.166C348.943 677.318 338.59 674.458 332.986 666C332.526 665.313 333.396 664.419 334.06 664.985C341.149 670.939 348.933 674.458 357.671 677.301C368.012 680.669 379.076 685.014 390.112 684.889C390.374 684.881 390.514 685.274 390.224 685.367Z" fill="#73964D"/>
<path d="M364.642 724.783C365.796 717.331 366.981 710.103 367.356 702.558C367.379 701.985 368.172 702.122 368.283 702.591C369.956 710.054 369.293 718.325 365.24 724.967C365.06 725.247 364.589 725.159 364.642 724.783Z" fill="#73964D"/>
<path d="M402.665 709.674C396.742 710.837 391.02 710.757 385.062 709.705C379.898 708.79 373.46 707.642 369.038 704.678C367.774 703.828 368.872 701.978 370.184 702.144C375.644 702.848 380.966 705.304 386.44 706.324C391.831 707.333 397.277 708.075 402.689 708.929C403.131 709.001 403.064 709.597 402.665 709.674Z" fill="#73964D"/>
<path d="M319.67 611.865C318.381 626.275 325.25 640.137 332.766 651.897C340.153 663.452 348.268 674.598 356.709 685.394C364.911 695.88 373.973 705.562 382.507 715.751C386.992 721.118 391.824 726.169 396.772 731.099C401.609 735.923 406.156 740.921 411.461 745.271C411.5 745.295 411.452 745.354 411.421 745.321C405.906 740.512 399.959 736.262 394.494 731.412C389.39 726.896 384.382 722.261 379.333 717.676C368.829 708.149 359.701 696.744 350.912 685.648C341.915 674.293 333.186 662.448 325.9 649.914C319.063 638.158 314.954 625.075 318.998 611.752C319.118 611.332 319.715 611.416 319.67 611.865" fill="#73964D"/>
<path d="M189.04 460.753C191.714 467.1 193.365 473.905 195.98 480.303C198.384 486.226 201.334 491.993 204.24 497.692C210.317 509.634 217.291 521.231 224.829 532.318C239.278 553.569 257.183 572.386 278.061 587.396C280.787 589.356 277.504 593.321 274.792 591.414C253.18 576.224 234.762 556.816 219.947 534.987C212.427 523.898 206.174 512.092 201.041 499.719C198.38 493.316 196.331 486.787 194.108 480.24C191.999 474.007 189.516 467.396 188.563 460.865C188.516 460.58 188.932 460.492 189.04 460.753" fill="#73964D"/>
<path d="M264.515 506.383C265.911 511.302 264.803 517.065 264.508 522.093C264.169 528.113 263.647 534.124 263.381 540.146C263.107 546.639 263.063 553.154 263.631 559.634C264.172 565.944 265.753 571.968 266.944 578.167C267.185 579.465 265.27 579.777 264.778 578.686C259.811 567.764 259.991 554.208 260.382 542.451C260.586 536.355 260.999 530.255 261.468 524.177C261.914 518.491 261.523 511.612 263.879 506.366C263.989 506.11 264.431 506.092 264.515 506.383" fill="#73964D"/>
<path d="M233.614 490.688C233.877 494.346 232.544 498.167 232.081 501.809C231.45 506.735 231.04 511.703 231.001 516.669C230.925 525.641 232.36 534.414 233.343 543.288C233.466 544.416 231.722 544.892 231.353 543.761C228.481 534.835 227.992 525.296 228.284 515.958C228.423 511.353 228.797 506.742 229.576 502.199C230.234 498.338 230.641 493.787 232.782 490.437C233.011 490.097 233.585 490.31 233.614 490.688Z" fill="#73964D"/>
<path d="M116.484 598.786C131.96 614.816 148.408 629.806 167.74 641.099C176.857 646.42 186.419 651.036 196.312 654.721C205.855 658.27 216.109 660.072 225.537 663.822C225.773 663.916 225.701 664.277 225.459 664.301C215.618 665.22 205.098 662.051 195.873 658.958C185.194 655.38 174.937 650.609 165.299 644.788C146.106 633.182 128.619 617.854 116.17 599.08C116.042 598.885 116.302 598.596 116.484 598.786" fill="#73964D"/>
<path d="M140.603 600.229C142.411 603.224 143.407 606.699 144.846 609.894C146.531 613.644 148.502 617.265 150.745 620.713C154.898 627.101 160.308 631.948 165.133 637.715C165.926 638.657 164.576 639.636 163.695 639.074C157.403 635.086 152.322 627.679 148.568 621.396C144.925 615.31 140.481 607.585 140.211 600.378C140.2 600.18 140.484 600.033 140.603 600.229" fill="#73964D"/>
<path d="M159.439 607.615C165.388 618.927 171.529 630.165 179.133 640.467C186.463 650.398 194.912 659.572 203.499 668.416C204.167 669.108 203.363 670.113 202.548 669.572C181.563 655.749 165.442 632.024 158.333 608.044C158.122 607.305 159.09 606.944 159.439 607.615" fill="#73964D"/>
<path d="M185.134 617.527C190.289 626.647 195.705 635.74 202.152 644.013C208.485 652.153 216.455 658.488 223.289 666.033C224.318 667.16 222.725 669.034 221.421 668.324C212.637 663.521 205.527 654.772 199.574 646.811C192.98 637.982 187.686 628.478 184.37 617.949C184.235 617.51 184.87 617.074 185.134 617.527" fill="#73964D"/>
<path d="M298.931 652.69C299.293 664.814 303.825 676.967 311.336 685.92C312.46 687.263 314.342 688.584 315.459 687.366C314.49 683.625 313.515 679.822 313.459 675.97C313.403 672.118 314.394 668.151 316.841 665.666C318.425 664.056 320.533 663.145 321.893 661.286C323.874 658.586 323.836 654.56 323.253 650.962C321.85 642.411 317.924 634.253 317.854 625.631C317.826 622.057 317.032 616.823 312.8 617.244C309.537 617.575 306.908 623.167 305.343 625.951C300.954 633.732 298.652 643.165 298.931 652.69" fill="#7FA053"/>
<path d="M223.741 580.084C235.764 591.82 251.911 597.605 267.057 595.595C250.382 584.956 237.398 567.966 224.807 551.353C225.686 560.717 231.37 568.706 236.795 576.023C235.483 574.255 227.239 574.939 225.299 575.009C222.484 575.114 219.83 576.271 223.741 580.084" fill="#73964D"/>
<path d="M435.448 580.589C446.859 594.669 459.074 621.39 466.837 638.349C459.725 614.967 445.886 579.918 432.032 562.202C422.892 550.508 407.752 547.491 394.513 548.311C381.273 549.122 368.744 554.424 356.889 560.663C351.955 563.265 350.536 564.813 341.532 570.499C349.447 565.765 362.464 560.178 369.935 558.305C377.159 556.494 384.675 555.332 392.168 555.54C408.752 556.001 424.059 566.534 435.448 580.589" fill="#425638"/>
<path d="M667.401 370.123C667.269 380.857 665.465 392.069 663.593 402.618C661.95 411.849 660.351 426.246 654.403 433.841C647.847 442.221 644.625 430.307 645.9 424.753C647.935 415.899 653.799 407.48 657.972 399.522C662.774 390.36 667.267 380.658 667.401 370.123" fill="#58754B"/>
<path d="M631.481 481.616C637.196 480.012 642.241 476.638 647.166 473.322C654.855 468.149 662.684 462.844 668.284 455.475C674.003 447.94 677.082 438.672 682.773 431.131C690.004 421.54 701.033 415.376 712.555 412.006C698.781 418.792 687.953 431.302 683.195 445.892C681.339 451.604 680.372 457.597 678.036 463.123C676.093 467.712 673.247 471.877 670.07 475.731C658.113 490.238 641.176 500.561 622.798 504.547C618.705 505.442 614.435 506.021 610.328 505.18C606.222 504.338 602.265 501.852 600.562 498.013C592.666 480.199 623.158 483.937 631.481 481.616Z" fill="#58754B"/>
<path d="M596.716 486.632C557.103 537.796 522.423 580.735 501.852 638.82C489.466 673.799 484.935 717.714 484.9 754.815C484.918 736.178 475.546 717.744 477.706 699.062C479.949 679.692 485.954 660.175 492.565 641.901C506.197 604.206 526.503 569.102 550.99 537.439C564.942 519.397 580.281 502.437 596.716 486.632" fill="#58754B"/>
<path d="M564.317 493.899C566.134 485.755 571.609 478.498 578.947 474.502C581.478 473.122 584.246 472.108 587.115 471.825C589.679 471.565 592.284 471.889 594.762 472.57C605.223 475.428 613.474 485.066 614.687 495.845C615.899 506.615 609.994 517.845 600.433 522.954C579.499 534.136 559.401 515.84 564.317 493.899Z" fill="#58754B"/>
<path d="M603.754 437.881C615.342 426.517 631.049 420.576 646.27 414.936C654.71 411.806 663.15 408.685 671.589 405.555C672.515 405.216 673.467 404.866 674.451 404.929C677.013 405.094 678.497 407.76 680.019 409.814C681.533 411.879 684.696 413.595 686.443 411.715C685.372 409.914 684.302 408.112 683.221 406.302C686.619 408.193 689.502 410.979 691.498 414.317C693.483 417.628 694.262 422.538 691.175 424.862C690.207 425.594 689 425.925 687.959 426.547C684.967 428.3 683.76 431.927 682.579 435.189C672.285 463.481 646.189 484.115 617.476 493.171C580.84 504.725 586.894 454.408 603.754 437.881" fill="#D31A1A"/>
<path d="M674.063 403.601C674.69 403.175 675.492 403.139 676.248 403.18C681.073 403.432 685.597 406.776 687.263 411.315C687.728 412.599 687.975 414.05 687.461 415.315C686.946 416.581 685.447 417.512 684.173 417.008C682.863 416.498 682.348 414.821 681.096 414.178C679.558 413.384 677.749 414.482 676.442 415.611C671.199 420.164 667.393 426.11 663.358 431.772C647.675 453.811 627.024 473.05 601.862 482.995C607.555 481.801 612.624 478.569 617.039 474.78C621.453 470.981 625.31 466.605 629.521 462.591C634.74 457.624 640.487 453.219 645.505 448.055C652.394 440.981 657.778 432.647 663.895 424.935C665.428 422.996 667.01 421.096 668.671 419.262C670.137 417.646 672.831 415.905 673.857 414.053C675.458 411.183 671.037 405.638 674.063 403.601" fill="#B70D0D"/>
<path d="M586.247 450.263C591.528 440.473 600.128 432.944 608.864 426.053C617.611 419.17 626.77 412.607 633.8 403.979C642.916 392.803 647.983 378.407 647.877 363.984C649.602 384.002 642.749 404.618 629.376 419.623C620.369 429.737 608.363 437.703 602.799 450.058C598.268 460.107 598.707 471.562 597.612 482.53C596.311 495.403 586.016 487.303 583.435 479.642C580.179 469.968 581.446 459.172 586.247 450.263Z" fill="#58754B"/>
<path d="M617.267 458.313C630.924 453.856 645.259 451.974 659.323 449.024C673.387 446.074 687.526 441.903 699.2 433.527C692.36 442.77 680.999 447.275 670.27 451.407C649.301 459.486 627.335 468.627 613.905 486.643C611.163 490.317 608.834 494.312 605.705 497.654C600.601 503.125 593.1 506.142 586.53 501.368C580.956 497.316 580.225 491.722 583.194 485.824C590.097 472.12 603.023 462.965 617.267 458.313" fill="#58754B"/>
<path d="M660.291 411.031C646.349 430.158 626.946 444.471 607.866 458.48C620.956 452.188 633.412 444.557 644.961 435.75C650.903 431.217 656.675 426.339 663.433 423.153C666.673 421.619 670.895 420.204 673.057 417.15C674.705 414.827 675.997 408.557 675.387 405.938C673.256 396.647 662.881 407.472 660.291 411.031" fill="#F73E39"/>
<path d="M671.679 424.715C673.69 420.88 675.146 416.585 678.313 413.619C679.099 412.887 680.227 412.22 681.189 412.684C682.074 413.11 682.322 414.208 682.831 415.034C683.771 416.524 686.236 416.988 687.308 415.594C688.292 414.317 687.662 412.479 686.901 411.053C685.828 409.052 684.549 407.163 683.094 405.409C686.03 407.828 689.07 410.389 690.559 413.896C692.037 417.395 691.377 422.125 688.094 424.044C686.922 424.724 685.491 424.987 684.187 424.631C682.882 424.265 681.747 423.258 681.361 421.957C681.125 421.148 681.127 420.188 680.491 419.636C678.23 422.067 677.177 425.343 675.551 428.233C672.6 433.513 667.736 437.512 662.433 440.405C658.408 442.597 653.882 444.397 651.228 448.135C652.756 445.979 653.326 443.566 655.325 441.58C657.004 439.924 659.134 438.866 660.998 437.427C665.415 434.017 669.093 429.65 671.679 424.715" fill="#F73E39"/>
<path d="M596.599 497.873C590.002 493.463 581.664 491.711 573.846 493.112C569.691 493.851 565.42 495.671 563.186 499.266C563.879 498.145 563.687 495.276 564.028 493.91C564.506 492.024 565.154 490.192 565.971 488.434C567.596 484.91 569.858 481.674 572.614 478.94C573.956 477.617 579.583 472.12 581.562 473.322C582.479 473.881 582.759 477.529 583.092 478.491C583.875 480.757 584.944 482.903 586.175 484.951C589.049 489.702 592.804 493.857 596.599 497.873" fill="#6A8959"/>
<path d="M580.626 452.428C582.488 443.664 589.214 436.678 596.671 431.719C604.136 426.751 612.519 423.336 620.126 418.607C616.596 420.948 613.059 423.3 609.53 425.65C607.206 427.199 604.873 428.749 602.819 430.642C600.484 432.799 598.551 435.34 596.556 437.816C594.319 440.579 591.985 443.27 590.002 446.215C584.277 454.674 581.64 465.174 582.671 475.328C581.88 467.54 578.921 460.434 580.626 452.428Z" fill="#7FA053"/>
<path d="M596.942 465.856C600.412 463.194 604.539 461.571 608.616 459.979C614.504 457.679 620.411 455.377 626.526 453.795C639.171 450.519 652.424 450.377 665.187 447.631C680.405 444.365 694.791 437.371 706.758 427.426C698.688 438.732 685.228 444.771 672.09 449.257C659.353 453.593 646.292 456.967 633.056 459.325C626.358 460.522 619.571 461.465 613.106 463.616C606.65 465.766 600.437 469.24 596.246 474.61C592.064 479.979 590.216 487.465 592.681 493.806C591.675 491.21 588.262 489.71 587.742 486.82C587.33 484.553 587.958 481.374 588.475 479.148C589.693 473.936 592.682 469.123 596.942 465.856" fill="#7FA053"/>
<path d="M445.533 531.782C415.838 443.888 374.124 355.992 301.697 298.01C243.918 251.751 168.654 227.895 94.7778 232.412C124.725 235.509 154.987 238.674 183.452 248.495C249.056 271.132 326.265 319.926 390.045 445.494C419.685 503.866 443.8 570.079 456.306 634.348C473.15 720.894 481.626 809.586 451.463 892.442C447.273 903.969 441.837 915.722 431.983 923.025C433.69 937.955 461.508 926.156 473.956 914.614C484.973 904.404 485.107 888.78 487.281 874.614C493.096 836.735 494.541 798.277 492.549 760.033C488.495 682.156 470.435 605.476 445.533 531.782" fill="#58754B"/>
<path d="M450.709 396.864C446.77 400.17 442.372 403.143 439.24 407.084C435.851 411.34 434.177 416.436 432.202 421.336C414.56 465.188 367.338 498.78 315.835 504.13C312.369 515.836 301.595 525.135 289.327 530.338C277.051 535.551 263.369 537.186 249.916 537.946C214.449 539.973 176.911 535.791 148.921 516.831C120.677 497.697 106.172 466.165 99.7046 434.777C93.2383 403.398 93.6021 371.053 88.6496 339.42C80.2978 286.093 83.8756 257.126 91.5396 203.394C97.9816 158.226 125.403 89.9281 191.982 94.4376C242.501 97.8531 232.991 31.967 281.526 44.2859C297.181 48.2642 320.582 56.1009 330.461 67.584C332.105 69.5086 333.679 71.6305 336.117 72.7139C338.649 73.8331 341.652 73.6186 344.5 73.5737C370.029 73.1172 392.589 87.4771 410.023 103.798C453.71 144.706 475.655 201.234 473.523 258.161C471.815 303.754 494.116 360.49 450.709 396.864Z" fill="#D31A1A"/>
<path d="M149.361 399.661C143.072 380.633 149.793 357.639 136.457 341.898C124.49 327.784 100.645 325.29 88.459 311.333C82.6687 304.705 80.2161 296.252 77.9073 288.057C73.3836 272.055 68.8589 256.043 65.5146 239.795C63.5263 230.118 61.9607 220.144 63.9125 210.384C66.2575 198.701 73.46 188.208 80.9296 178.294C93.0606 162.203 106.282 146.77 119.487 131.358C110.098 158.924 102.884 187.048 97.8987 215.443C96.1846 225.224 94.8112 235.596 99.1303 244.592C106.091 259.088 124.951 265.014 138.643 274.896C151.749 284.358 160.476 298.059 165.239 312.579C170.011 327.107 171.04 342.496 170.669 357.737C170.263 374.249 168.301 391.217 173.83 406.864C175.597 411.864 178.173 416.718 182.148 420.543C190.576 428.624 202.29 428.394 212.189 433.21C186.396 439.272 156.477 421.204 149.361 399.661" fill="#F42A25"/>
<path d="M270.293 376.057C264.409 375.722 258.801 373.829 253.472 371.654C243.532 367.593 234.217 362.463 224.921 357.341C219.012 354.084 212.995 350.756 208.521 346.022C202.028 339.167 199.383 330.072 196.918 321.313C194.82 313.857 192.722 306.401 190.624 298.944C196.248 302.774 201.88 306.602 207.808 310.038C213.467 313.321 219.387 316.233 225.233 319.225C240.415 327.009 255.185 335.387 269.508 344.345C276.674 348.824 283.719 353.45 290.641 358.207C294.691 360.992 307.089 366.868 306.577 371.991C295.373 373.5 281.662 376.713 270.293 376.057" fill="#B70D0D"/>
<path d="M204.887 221.199C199.699 226.118 193.45 230.121 188.685 235.377C179.826 245.16 177.079 258.061 174.644 270.37C173.647 275.352 173.01 281.293 177.218 284.569C179.814 286.587 183.658 286.975 186.188 289.064C189.992 292.181 189.489 297.846 192.506 301.597C196.746 306.879 205.533 306.277 212.81 307.031C226.054 308.402 238.26 315.964 251.558 314.477C242.966 310.94 234.113 307.239 227.847 300.913C221.873 294.883 218.774 286.939 216.952 278.984C211.833 256.677 215.729 233.336 221.578 210.947C223.006 205.486 219.305 195.703 214.237 203.226C212.749 205.433 213.102 209.173 212.039 211.635C210.501 215.214 207.829 218.419 204.887 221.199Z" fill="#B70D0D"/>
<path d="M285.54 317.354C278.107 320.771 271.21 325.356 263.219 327.463C255.228 329.569 245.369 328.443 240.862 322.318C243.886 321.241 246.919 320.163 249.943 319.086C250.878 318.747 251.864 318.384 252.431 317.638C253.903 315.723 251.587 313.432 249.686 311.923C243.705 307.161 240.024 300.517 237.115 293.814C232.265 282.625 229.18 270.534 230.664 258.485C232.148 246.436 238.688 234.417 249.917 227.454C254.134 224.834 259.068 222.947 264.142 222.975C271.998 223.01 278.718 227.471 285.946 230.068C292.507 232.426 299.668 233.292 306.236 235.631C319.335 240.304 329.337 251.123 332.048 263.551C332.492 265.598 332.747 267.754 332.083 269.777C330.721 273.927 325.851 276.45 321.129 277.392C316.415 278.332 311.506 278.143 306.8 279.155C306.773 282.545 309.375 285.784 312.973 286.795C315.313 287.454 317.881 287.229 320.261 287.748C322.651 288.275 325.055 290.005 324.752 292.199C324.374 294.982 320.377 295.931 317.25 295.995C314.133 296.067 310.224 296.374 309.031 298.976C308.319 300.533 308.957 302.261 309.107 303.921C309.414 307.295 307.479 310.715 304.289 312.569C304.709 312.155 305.182 311.817 305.553 311.363C298.75 311.882 291.622 314.553 285.54 317.354" fill="#B70D0D"/>
<path d="M331.106 290.83C334.458 288.515 336.795 285.226 338.746 281.877C341.979 276.342 344.414 270.182 343.673 264.046C342.684 255.915 336.389 249.311 330.365 243.24C328.066 240.929 325.726 238.586 322.788 236.938C319.186 234.913 314.907 234.071 310.723 233.265C306.99 232.54 303.249 231.815 299.508 231.09C297.77 230.751 295.811 230.452 294.308 231.347C291.03 233.31 292.895 239.015 289.313 240.484C299.134 236.416 311.52 239.595 318.107 247.021C324.694 254.456 325.633 265.299 321.524 274.246C320.99 275.405 320.364 276.555 319.428 277.501C316.814 280.121 312.245 280.522 308.605 279.37C305.097 278.26 302.131 275.99 299.475 273.742C303.351 278.999 302.193 286.677 308.077 290.842C314.058 295.07 325.081 294.991 331.106 290.83" fill="#F42A25"/>
<path d="M291.248 266.121C288.334 271.587 288.789 277.934 290.081 283.788C291.246 289.102 293.105 294.382 296.652 298.722C300.199 303.061 305.651 306.364 311.705 306.673C314.109 306.8 316.612 306.473 318.866 307.186C321.13 307.897 322.981 310.245 321.854 312.17C314.959 308.923 306.574 312.328 298.784 313.473C288.246 315.023 277.05 311.968 269.584 305.338C262.117 298.699 258.63 288.622 260.721 279.246C261.712 274.826 263.841 270.644 266.386 266.727C270.93 259.746 277.578 253.067 286.374 251.485C295.241 249.887 304.506 253.727 311.736 257.764C307.91 258.615 304.098 257.472 300.263 258.676C297.481 259.547 292.476 265.996 291.248 266.121" fill="#F42A25"/>
<path d="M162.851 305.831C157.759 295.918 151.619 286.02 141.865 279.513C134.277 274.444 124.957 271.759 117.2 266.897C101.772 257.227 94.2477 239.855 93.3014 222.874C92.3462 205.893 97.1135 188.992 101.988 172.434C106.411 157.397 111.059 142.174 119.85 128.686C128.65 115.197 142.242 103.421 159.03 99.379C163.335 98.344 167.802 97.8269 171.977 96.4067C179.359 93.9182 212.108 85.4661 219.739 86.855C221.737 92.1665 192.663 101.323 187.857 105.089C183.058 108.845 177.011 111.008 171.451 113.782C151.844 123.588 138.155 141.64 132.617 161.028C127.078 180.406 129.175 200.956 135.826 219.803C138.375 227.06 141.748 234.323 147.801 239.612C157.949 248.487 164.295 252.922 167.257 265.678C168.807 272.375 169.431 279.139 168.679 286.007C168.31 289.503 161.767 303.723 162.851 305.831" fill="#B70D0D"/>
<path d="M374.598 113.726C366.732 109.4 357.045 108.537 347.711 108.48C340.688 108.442 333.142 108.955 327.483 112.799C321.815 116.643 319.453 124.951 324.523 129.217C299.999 108.003 265.539 96.2371 231.033 97.2888C225.228 97.471 219.43 97.9876 213.624 98.1519C211.6 98.2036 209.338 98.1345 207.965 96.8343C205.4 94.4056 208.128 90.4159 210.945 88.1015C224.529 76.9513 242.569 70.2652 260.798 69.6266C277.024 69.0558 292.838 73.0814 308.33 77.0671C319.685 79.9883 331.096 82.9308 341.705 87.5124C355.021 93.2495 366.764 101.419 378.392 109.528C382.309 112.254 387.382 115.651 388.436 120.234C383.999 121.482 378.273 115.761 374.598 113.726" fill="#B70D0D"/>
<path d="M334.25 164.43C330.851 166.813 326.348 167.325 322.11 167.864C307.25 169.745 292.575 173.011 278.395 177.584C276.743 181.827 275.091 186.06 273.438 190.294C273.137 191.076 272.779 191.918 272.01 192.376C270.729 193.14 269.061 192.495 267.692 191.946C260.431 189.025 251.681 189.099 244.337 192.136C239.512 194.121 234.882 197.398 229.638 197.043C226.913 194.64 227.253 190.413 229.275 187.4C231.287 184.389 234.568 182.272 237.602 180.044C243.85 175.489 249.413 170.17 254.098 164.306C259.072 158.087 263.12 149.889 259.412 143.166C255.073 135.304 242.907 134.294 233.171 136.071C220.216 138.437 207.921 143.906 197.904 151.751C215.987 135.055 240.173 123.253 265.771 120.798C284.14 119.04 303.086 122.34 318.945 130.472C329.819 136.059 351.48 152.348 334.25 164.43" fill="#B70D0D"/>
<path d="M208.794 257.248C209.605 244.199 212.423 231.109 210.909 218.161C210.286 212.927 208.972 207.654 209.999 202.434C210.456 200.16 211.401 197.873 213.205 196.195C214.994 194.547 217.436 193.62 219.837 192.833C230.74 189.253 242.32 187.443 253.848 187.53C258.234 187.555 262.705 187.88 266.725 189.382C271.695 191.24 275.61 194.745 280.266 197.161C287.12 200.711 295.602 201.742 303.391 199.964C299.521 207.329 289.122 209.273 280.369 211.367C259.786 216.292 239.323 229.173 235.188 247.839C233.277 256.481 235.042 265.302 235.639 274.034C236.161 281.578 235.817 289.337 238.427 296.479C241.298 304.327 247.426 310.532 253.234 316.715C242.804 310.06 228.22 304.325 219.75 295.741C209.554 285.413 207.961 270.625 208.794 257.248" fill="#F42A25"/>
<path d="M174.582 483.528C165.234 477.985 156.134 471.856 149.252 463.926C138.482 451.519 133.919 435.575 131.886 419.836C129.86 404.087 130.111 388.107 127.683 372.408C144.9 392.21 137.433 423.366 154.659 443.157C158.997 448.149 164.656 452.066 170.257 455.934C178.603 461.687 186.94 467.45 195.287 473.212C199.056 475.817 202.968 478.571 204.904 482.476C207.865 488.441 204.701 495.273 197.417 494.265C189.544 493.173 181.029 487.355 174.582 483.528" fill="#B70D0D"/>
<path d="M84.8504 440.551C74.1298 414.72 72.3015 385.849 79.6538 358.734C84.5404 340.689 93.3883 321.699 86.4285 304.45C93.976 313.933 101.522 323.408 109.061 332.892C114.688 339.963 120.476 347.37 121.951 356.012C123.166 363.151 121.318 370.456 119.503 377.558C115.759 392.227 112.118 407.022 111.556 421.992C110.417 452.052 121.744 483.943 141.062 508.113C138.217 502.751 132.594 499.818 127.735 496.029C121.313 491.022 115.375 485.522 109.967 479.625C99.2913 467.969 90.7375 454.731 84.8504 440.551" fill="#B70D0D"/>
<path d="M210.052 541.353C180.24 538.514 151.281 525.972 133.307 504.789C125.23 495.26 119.514 484.287 114.133 473.307C105.234 455.15 96.8909 435.606 100.137 415.763C103.868 392.946 122.619 371.945 119.207 349.238C134.603 384.002 121.422 425.327 136.18 460.328C145.7 482.895 166.438 500.717 190.8 510.974C215.171 521.22 242.925 524.304 270.063 522.661C285.232 521.763 300.269 519.13 313.699 512.261C299.974 522.909 291.177 530.186 273.346 535.104C252.865 540.761 231.249 543.365 210.052 541.353" fill="#F42A25"/>
<path d="M486.926 190.853C484.575 185.541 481.407 180.294 476.282 176.921C471.148 173.54 463.652 172.5 458.227 175.704C450.956 179.993 450.446 189.244 451.547 196.865C453.826 212.706 459.584 228.465 456.97 244.368C456.585 246.725 455.995 249.122 454.562 251.151C453.075 253.267 450.796 254.82 448.74 256.514C442.763 261.413 438.387 267.635 434.083 273.767C431.686 277.18 429.288 280.593 426.901 284.014C421.102 292.282 415.214 300.73 412.585 310.152C411.157 315.268 410.796 320.892 413.491 325.489C415.517 328.942 419.071 331.478 421.217 334.864C425.932 342.317 422.883 351.709 420.303 360.093C412.355 385.983 409.993 412.835 407.666 439.493C419.284 435.379 427.037 425.582 434.074 416.31C439.73 408.872 445.377 401.435 450.918 393.927C473.304 363.601 494.265 331.382 501.755 295.904C505.676 277.36 505.719 258.259 502.028 239.845C500.17 230.554 496.907 221.884 493.762 212.95C491.19 205.632 490.119 198.035 486.926 190.853" fill="#B70D0D"/>
<path d="M524.488 311.877C522.612 338.698 510.651 366.444 486.377 382.727C476.271 389.513 464.53 394.02 453.913 400.142C443.305 406.263 433.375 414.688 430.252 425.581C431.183 412.819 435.434 400.19 442.563 388.98C450.201 376.976 461.165 366.427 465.855 353.31C469.144 344.139 469.094 334.383 469.02 324.828C468.887 308.543 468.754 292.258 468.631 275.98C468.592 271.131 468.582 266.134 470.63 261.597C472.805 256.804 477.058 253.021 480.443 248.811C487.408 240.171 479.024 185.906 478.05 175.429C478.245 177.519 497.317 198.282 510.828 232.241C513.199 238.194 515.659 244.228 517.137 250.299C522.046 270.454 525.94 291.048 524.488 311.877" fill="#F42A25"/>
<path d="M466.177 238.09C467.868 230.937 467.563 223.57 466.802 216.341C461.719 168.096 435.978 122.241 395.991 90.2104C390.707 85.9753 385.059 81.9128 378.392 79.6655C364.644 75.0226 348.658 78.7564 334.604 74.8509C328.286 73.1022 322.614 69.8663 316.322 68.0155C302.451 63.9464 287.191 66.9726 272.812 70.027C284.944 78.7277 297.304 87.5411 311.772 92.7539C325.383 97.6551 340.261 99.1498 354.42 102.664C368.588 106.178 382.835 112.346 390.318 123.601C397.696 134.714 397.179 148.62 400.837 161.179C408.487 187.449 434.57 208.224 435.663 235.477C436.844 264.758 408.586 290.049 406.855 319.363C407.684 305.416 426.862 289.251 436.624 279.35C448.71 267.093 462.27 254.551 466.177 238.09" fill="#F42A25"/>
<path d="M392.563 471.262C381.952 481.449 367.75 487.944 353.684 493.819C342.139 498.65 330.175 503.279 317.561 504.181C307.455 504.908 297.403 503.213 287.285 503.109C265.672 502.887 243.902 509.943 222.679 506.694C191.72 501.934 170.041 476.003 161.875 448.934C179.539 463.864 205.883 467.771 230.46 466.333C255.028 464.888 279.111 458.846 303.635 456.699C328.743 454.501 356.685 455.602 375.966 440.712C405.853 417.638 396.45 370.367 426.065 347.012C418.359 353.092 416.882 373.407 416.491 381.768C416.011 391.931 416.78 401.995 415.913 412.188C414.151 433.085 409.249 455.251 392.563 471.262" fill="#F42A25"/>
<path d="M207.534 427.508C203.619 426.593 199.433 426.656 195.595 425.525C188.537 423.435 183.642 417.512 181.429 411.154C179.226 404.795 179.284 397.971 179.373 391.27C179.611 372.303 179.849 353.345 180.078 334.379C180.252 321.114 180.462 307.583 185.161 294.909C188.255 296.749 189.453 300.25 190.379 303.488C196.055 323.248 199.805 343.494 206.38 363.019C212.963 382.533 222.638 401.634 238.434 416.183C246.797 423.891 246.206 439.109 233.21 444.187C228.62 445.984 221.03 444.908 217.84 441.411C212.988 436.081 217.415 429.828 207.534 427.508" fill="#B70D0D"/>
<path d="M175.166 235.129C176.5 227.84 178.428 220.437 182.947 214.192C186.101 209.842 191.128 205.936 196.857 206.078C205.237 206.277 210.085 214.685 210.833 222.143C212.275 236.512 205.156 250.772 205.294 265.228C205.374 273.151 207.716 283.454 199.707 289.392C193.829 293.765 186.066 290.896 180.179 288.035C165.613 280.958 172.83 247.88 175.166 235.129" fill="#B70D0D"/>
<path d="M375.056 328.443C381.442 322.75 383.601 314.309 384.014 306.344C384.436 298.378 383.422 290.359 384.802 282.459C386.459 273 391.46 264.198 394 254.876C398.927 236.782 394.376 218.012 389.54 200.094C401.037 207.719 406.29 221.093 406.671 234.03C407.052 246.958 403.225 259.743 399.643 272.358C396.061 284.973 392.676 297.913 393.964 310.775C394.254 313.716 395.167 317.091 398.183 318.243C401.452 319.495 405.148 317.363 407.763 315.114C412.75 310.805 416.748 305.581 419.419 299.877C419.293 300.143 421.426 304.21 420.988 305.775C420.657 306.977 418.25 309.313 417.362 310.381C414.007 314.435 410.412 318.005 405.783 320.939C396.892 326.578 385.797 329.507 375.056 328.443" fill="#B70D0D"/>
<path d="M370.893 332.298C379.276 323.976 383.637 313.065 386.402 302.218C389.168 291.379 390.558 280.272 394.026 269.57C396.384 262.295 399.718 255.174 400.703 247.667C401.401 242.417 400.927 237.122 400.358 231.883C399.061 219.827 397.22 207.591 391.365 196.758C386.524 187.797 379.051 180.108 370.264 174.028C364.273 169.883 357.49 166.407 349.999 165.149C342.242 163.854 334.208 164.996 326.363 166.137C317.92 167.357 309.293 168.641 301.744 172.342C299.726 173.334 297.547 174.534 295.31 174.172C293.956 173.948 292.828 173.184 291.658 172.542C286.413 169.68 277.437 170.736 276.383 176.231C283.599 178.622 289.85 183.184 293.902 189.012C294.974 190.56 295.98 192.269 297.754 193.148C302.15 195.327 307.062 191.26 311.343 188.734C322.134 182.359 337.266 185.919 346.171 193.961C355.075 202.002 359.056 213.378 361.966 224.465C366.738 242.642 369.419 261.358 369.025 280.123C368.712 294.969 365.449 311.518 352.16 320.673C342.985 326.993 330.938 328.398 319.529 329.575C325.521 337.831 325.573 350.376 339.924 346.337C351.203 343.163 362.586 340.567 370.893 332.298" fill="#F42A25"/>
<path d="M373.764 417.439C366.5 431.161 351.924 441.724 335.458 445.19C328.64 446.625 321.612 446.895 314.645 447.042C296.045 447.419 277.458 446.944 258.886 446.341C256.814 446.27 254.621 446.167 252.898 445.165C251.166 444.164 250.177 441.919 251.379 440.375C252.189 439.342 253.652 438.949 255.004 438.613C268.835 435.252 282.658 431.892 296.49 428.531C303.843 426.742 311.248 424.931 318.127 421.95C330.522 416.571 340.74 407.501 347.997 397.003C355.254 386.513 359.679 374.627 362.232 362.579C362.899 359.432 363.466 356.187 365.228 353.382C366.543 351.266 368.466 349.513 370.364 347.781C372.843 345.528 375.257 342.992 377.972 341.005C380.719 346.829 377.096 352.711 376.347 358.528C375.568 364.592 378.281 371.244 379.073 377.248C380.835 390.67 380.419 404.855 373.764 417.439" fill="#B70D0D"/>
<path d="M350.833 359.671C343.399 368.322 331.983 374.163 319.99 375.472C307.986 376.773 295.564 373.508 286.428 366.658C280.203 361.993 275.557 355.837 269.422 351.073C261.949 345.267 252.628 341.768 244.115 337.227C235.612 332.685 227.45 326.515 224.716 317.964C230.866 321.36 237.642 323.877 244.706 325.387C253.582 327.274 263.083 327.64 271.129 331.422C276.112 333.759 280.228 337.28 284.393 340.651C292.476 347.209 301.07 353.444 311.028 357.503C320.986 361.562 332.501 363.308 343.188 360.629C360.145 356.389 371.687 342.34 386.898 334.285C373.69 347.624 358.633 359.513 342.203 369.567L350.833 359.671" fill="#F42A25"/>
<path d="M297.435 432.129C284.569 434.559 271.065 434.283 258.738 438.469C252.19 440.691 246.048 444.15 239.169 445.165C232.289 446.181 224.049 443.695 222.195 437.744C220.712 432.951 223.821 427.628 222.293 422.839C210.614 427.602 197.508 417.697 194.497 406.693C191.488 395.698 194.789 384.071 195.037 372.691C195.642 345.755 179.224 318.927 188.064 293.001C205.436 322.259 212.84 356.712 236.588 382.052C243.566 389.502 251.832 395.978 261.01 401.185C263.258 402.46 265.61 403.679 268.224 404.183C271.125 404.749 274.16 404.404 277.133 404.066C289.018 402.677 300.914 401.297 312.8 399.908C319.361 399.151 326.019 398.357 332.154 396.077C351.743 388.771 360.802 368.827 367.786 350.922C361.405 367.271 361.399 384.603 350.452 400.131C339.013 416.351 318.013 428.227 297.435 432.129Z" fill="#F42A25"/>
<path d="M277.075 327.196C276.512 328.421 276.048 329.745 274.983 330.668C273.626 331.838 271.551 332.094 269.735 331.781C267.918 331.458 266.27 330.657 264.612 329.938C260.776 328.281 256.693 327.048 252.495 326.288C247.282 325.342 241.887 325.102 236.789 323.773C232.593 322.678 228.705 320.864 224.883 318.988C214.206 313.735 203.886 307.892 194.027 301.505C203.131 306.076 214.338 305.409 224.742 306.724C235.44 308.082 245.714 311.693 254.495 317.184C253.191 314.953 251.244 313.087 249.462 311.149C237.516 298.119 232.315 280.266 235.564 263.402C238.303 270.386 238.863 277.953 241.365 285.015C243.763 291.78 247.964 297.999 253.509 303.023C255.105 304.464 256.856 305.834 258.985 306.559C261.114 307.276 263.7 307.239 265.568 306.008C263.469 302.916 262.444 299.236 262.661 295.583C264.691 302.91 271.247 308.782 279.044 311.63C286.842 314.487 295.714 314.545 304.053 312.919C300.978 313.232 297.568 314.692 294.589 315.502C292.024 316.197 289.297 316.718 286.796 317.597C282.327 319.165 278.839 323.34 277.075 327.196" fill="#A50717"/>
<path d="M306.563 279.949C310.291 281.608 314.612 282.871 318.655 281.745C322.221 280.749 324.973 277.97 326.342 274.861C327.709 271.743 327.86 268.323 327.534 265.024C326.994 259.619 325.201 254.269 321.73 249.877C318.268 245.484 313.043 242.112 307.093 241.122C313.437 243.756 317.898 249.605 318.365 255.896C318.586 258.871 317.984 261.856 317.175 264.773C315.923 269.3 313.296 274.457 308.174 275.303C304.862 275.857 302.025 274.325 299.151 273.223C298.996 275.801 304.211 278.902 306.563 279.949" fill="#A50717"/>
<path d="M253.73 230.933C261.159 227.489 270.033 226.316 277.876 228.552C281.831 229.681 285.572 231.646 289.744 231.711C283.098 229.851 276.943 226.673 271.834 222.475C269.64 220.669 267.464 218.59 264.529 218.046C260.856 217.369 257.166 219.292 254.184 221.406C245.508 227.558 237.383 237.175 235.221 247.002C240.987 240.821 245.393 234.813 253.73 230.933" fill="#A50717"/>
<path d="M419.867 349.661C418.482 341.372 413.671 333.865 407.799 327.417C406.27 325.734 404.54 324.035 402.203 323.412C400.462 322.946 398.57 323.13 396.745 323.351C390.123 324.133 383.546 325.272 377.056 326.737C384.123 324.181 391.178 321.599 398.221 318.982C400.648 318.083 403.126 317.162 405.125 315.618C407.083 314.125 408.474 312.127 409.833 310.169C414.856 302.922 419.879 295.666 424.894 288.419C426.972 285.428 429.082 282.398 431.992 280.02C436.54 276.298 442.67 274.498 447.471 271.031C441.431 278.354 437.631 287.125 436.623 296.101C434.789 312.369 441.914 328.569 439.321 344.769C437.686 355.058 432.286 364.481 427.337 373.803C424.838 378.53 422.368 383.281 420.498 388.234C418.92 392.397 418.793 397.118 417.134 401.117C413.595 395.699 415.384 385.584 416.408 379.703C418.134 369.776 421.542 359.732 419.867 349.661" fill="#A50717"/>
<path d="M298.669 519.248C287.802 521.121 276.937 517.589 266.494 514.639C257.302 512.05 247.961 509.875 238.502 508.138C254.288 507.521 269.852 503.649 285.638 503.304C293.346 503.136 301.004 503.807 308.689 504.041C315.421 504.244 322.152 503.108 328.741 503.163C326.216 505.855 321.538 507.679 318.322 509.89C312.261 514.064 306.314 517.928 298.669 519.248" fill="#A50717"/>
<path d="M132.733 242.492C122.096 237.986 115.055 228.406 111.857 218.236C108.65 208.058 108.828 197.238 109.388 186.614C110.399 167.414 112.644 148.062 119.308 129.683C120.906 125.265 122.78 120.891 125.51 116.919C131.956 107.545 142.83 101.097 154.332 97.2668C165.834 93.4361 178.065 91.9673 190.18 90.5192C192.998 90.1786 195.88 89.8405 198.648 90.3471C201.408 90.8545 204.088 92.366 205.053 94.7309C206.67 98.7047 203.026 102.86 199.494 105.799C189.439 114.155 177.858 121.045 165.383 126.08C158.119 129.018 150.453 131.381 144.079 135.678C133.104 143.086 127.392 155.42 125.971 167.544C124.557 179.658 126.91 191.77 129.262 203.691C130.478 209.861 131.73 216.126 134.808 221.727C137.662 226.915 141.977 231.321 146.274 235.638C151.094 240.473 157.224 245.899 159.586 252.124C151.808 246.34 141.704 246.289 132.733 242.492" fill="#A50717"/>
<path d="M141.057 207.645C140.069 188.468 139.944 167.002 154.577 152.631C168.065 139.371 189.582 136.606 208.469 130.848C231.94 123.691 254.652 110.663 279.156 112.42C302.035 114.053 320.684 128.24 337.662 141.764C308.922 106.78 260.4 85.6762 211.324 86.8318C203.952 87.0103 195.222 88.4403 191.982 94.4378C190.487 97.1975 190.51 100.455 188.845 103.141C184.111 110.739 171.671 108.101 162.051 108.616C148.251 109.348 136.441 119.059 130.475 130.314C124.509 141.569 123.303 154.214 122.337 166.545C121.261 180.373 120.383 194.379 123.244 207.915C126.113 221.451 133.126 234.674 145.298 242.972C153.276 248.4 163.652 252.028 167.946 260.157C158.506 242.291 142.118 228.074 141.057 207.645" fill="#F42A25"/>
<path d="M82.5876 322.361C66.5293 309.333 59.8062 289.153 58.7877 269.589C57.7683 250.017 61.7399 230.453 63.6817 210.878C68.3834 239.241 75.9569 267.166 86.2741 294.197C87.3733 297.083 88.5191 299.982 90.3028 302.562C91.9381 304.931 94.0669 306.988 96.3095 308.915C105.925 317.183 117.623 323.302 127.536 331.295C137.134 339.031 145.778 349.68 145.648 361.863C145.235 357.794 143.901 351.347 140.651 348.245C136.259 344.055 127.5 342.527 121.633 340.579C107.838 336.013 93.6118 331.301 82.5876 322.361" fill="#A50717"/>
<path d="M325.752 341.62C321.399 338.621 319.097 333.884 315.851 329.921C312.158 325.398 307.092 321.793 301.315 319.572C293.691 316.653 285.158 316.188 276.82 315.768C287.281 314.533 297.899 314.659 308.247 316.134C312.612 316.759 317.205 317.759 320.196 320.633C323.077 323.401 323.905 327.365 325.231 330.97C326.693 334.932 328.938 338.752 332.406 341.514C335.875 344.277 340.7 345.86 345.337 345.063C342.015 346.414 338.639 347.772 335.053 348.217C331.466 348.663 327.574 348.063 324.953 345.884C323.4 344.593 322.418 342.864 321.458 341.168C319.271 337.289 317.075 333.41 314.888 329.539L325.752 341.62" fill="#A50717"/>
<path d="M274.529 377.456C264.488 378.729 254.049 376.883 245.45 372.297C235.886 367.211 228.807 359.038 219.29 353.884C234.555 362.04 251.015 370.464 268.967 369.509C272.166 369.347 275.49 368.819 278.136 367.138C280.782 365.457 282.522 362.355 281.54 359.639C281.385 362.308 283.767 364.447 286.087 366.068C292.231 370.378 299.394 373.943 306.942 375.938C296.083 371.662 285.651 376.036 274.529 377.456Z" fill="#A50717"/>
<path d="M236.234 281.317C236.665 275.306 238.514 269.432 240.006 263.53C241.54 257.498 242.723 251.401 244.072 245.342C245.255 240.043 246.643 234.632 249.957 230.076C254.877 223.328 263.36 219.378 271.717 216.42C280.065 213.453 288.861 211.074 296.067 206.231C288.731 209.965 279.697 207.867 271.724 205.789C263.743 203.711 254.521 201.904 247.472 206.061C246.592 206.585 245.741 207.215 245.302 208.065C244.72 209.193 244.917 210.513 244.391 211.662C243.658 213.276 241.646 214.15 239.736 214.426C237.826 214.702 235.869 214.52 233.947 214.76C227.402 215.588 222.654 221.277 221.149 227.053C219.653 232.828 220.612 238.798 220.957 244.685C221.544 254.658 220.351 264.839 222.742 274.556C223.851 279.053 225.71 283.355 227.61 287.617C229.697 292.295 231.868 296.991 235.067 301.121C238.258 305.252 242.588 308.823 247.918 310.473C240.533 301.525 235.399 292.883 236.234 281.317" fill="#FF3E3E"/>
<path d="M315.806 313.074C311.891 314.034 308.14 315.619 304.124 316.117C299.86 316.659 295.567 315.945 291.397 315.101C284.981 313.816 278.434 312.126 273.425 308.379C264.554 301.738 262.484 289.652 266.223 279.656C269.466 288.933 275.441 298.178 285.448 301.924C292.622 304.609 300.793 304.096 308.579 304.781C315.833 305.411 324.853 307.728 328.105 314.152C324.315 312.147 320.181 312.014 315.806 313.074" fill="#FF3E3E"/>
<path d="M332.625 309.972C336.467 310.251 340.355 308.408 342.659 305.593C343.933 304.051 344.764 302.246 345.43 300.422C348.014 293.314 348.148 285.549 345.799 278.472C346.359 281.665 345.453 284.954 344.319 288.057C342.808 292.177 340.774 296.313 337.228 299.29C333.682 302.276 328.31 303.863 323.904 302.21C323.546 302.075 325.664 306.26 326.04 306.657C327.745 308.466 329.888 309.77 332.625 309.972" fill="#F73E39"/>
<path d="M283.468 438.61C267.797 443.661 251.175 448.791 235.015 445.995C229.456 445.03 223.706 442.816 221.106 438.344C218.757 434.3 219.508 429.307 221.173 424.918C215.026 425.751 208.559 423.864 204.25 419.964C199.942 416.064 197.894 410.26 198.885 404.772C204.941 407.244 211.988 407.787 218.519 406.281C221.757 405.536 225.396 404.351 228.18 405.906C229.736 406.781 230.607 408.313 231.521 409.732C237.719 419.398 248.755 426.399 261.067 428.49C275.194 430.894 289.773 427.04 303.677 423.237C311.502 421.093 319.345 418.956 327.023 416.356C331.602 414.804 336.587 411.907 341.331 411.262C337.324 416.215 328.739 419.876 322.979 422.997C310.559 429.728 297.034 434.244 283.468 438.61" fill="#FF3E3E"/>
<path d="M155.783 227.084C153.104 220.945 151.758 214.382 151.079 207.786C149.28 190.348 152.7 171.42 165.652 157.971C173.952 149.367 185.354 143.745 196.494 138.321C205.839 133.759 215.185 129.206 224.521 124.654C217.537 128.378 209.145 128.86 201.133 129.692C179.939 131.899 157.896 137.869 143.382 152.084C134.142 161.145 128.675 173.037 127.313 185.128C125.96 197.208 128.598 209.454 134.061 220.435C135.357 223.029 136.82 225.579 138.903 227.712C140.71 229.548 142.942 231.015 145.016 232.615C147.56 234.566 149.897 236.71 152.225 238.864C155.362 241.75 158.521 244.671 160.898 248.097C164.912 253.91 165.706 260.394 167.72 266.845C168.213 252.171 161.522 240.246 155.783 227.084" fill="#F73E39"/>
<path d="M502.142 377.984C488.929 387.883 472.22 392.958 455.951 397.825C476.272 383.998 491.463 364.146 498.435 342.295C501.663 332.169 503.171 321.703 504.668 311.292C507.828 289.266 510.995 267.131 510.377 245.009C510.161 237.443 509.483 229.788 506.592 222.729C522.617 261.812 542.478 309.153 523.381 351.26C518.74 361.466 511.651 370.851 502.142 377.984" fill="#F73E39"/>
<path d="M417.675 438.35C418.162 445.997 418.645 453.69 417.755 461.341C417.103 466.949 415.718 472.486 414.184 477.975C411.947 485.999 408.389 495.017 399.828 498.196C399.216 496.365 396.089 496.339 394.463 497.627C392.837 498.915 392.185 500.883 391.135 502.583C388.765 506.437 384.249 508.969 379.536 510.181C374.833 511.402 369.886 511.469 365.016 511.484C335.113 511.588 305.241 510.213 275.573 507.369C264.086 506.263 252.085 505.001 241.168 508.7C254.063 505.48 267.016 502.479 280.03 499.708C305.587 494.269 331.631 489.622 355.444 479.488C363.144 476.216 370.655 472.32 376.66 466.892C382.815 461.332 387.138 454.41 391.162 447.481C398.987 434.028 406.053 420.053 409.488 405.28C412.707 391.416 412.734 376.88 418.724 363.722C418.197 376.361 419.127 389.885 416.628 402.372C414.323 413.916 416.936 426.708 417.675 438.35" fill="#FF3E3E"/>
<path d="M458.151 788.546C446.897 782.427 433.424 780.491 420.902 783.194C436.557 777.719 453.706 779.644 470.174 781.638C477.299 782.508 491.152 795.045 481.818 801.942C474.91 807.045 463.874 791.659 458.151 788.546Z" fill="#58754B"/>
<path d="M497.81 537.971C483.108 552.114 468.406 566.248 453.704 580.391C453.143 580.928 452.558 581.504 452.345 582.259C452.1 583.144 452.431 584.079 452.754 584.943C454.029 588.317 459.514 608.251 462.987 607.047C466.61 605.801 468.034 590.136 468.906 586.86C473.898 568.162 483.915 551.407 497.81 537.971" fill="#58754B"/>
<path d="M455.345 914.875C455.513 911.897 457.192 909.255 458.754 906.715C473.524 882.722 481.758 855.11 485.442 827.182C489.116 799.254 488.374 770.916 486.155 742.826C491.216 756.546 491.12 771.551 490.639 786.16C489.682 815.432 487.416 844.656 483.849 873.732C482.727 882.919 482.157 894.965 477.672 903.317C476.025 906.363 473.489 908.586 470.663 910.548C469.47 911.376 455.211 917.397 455.345 914.875" fill="#7FA053"/>
</g>
<defs>
<clipPath id="clip0_14_8197">
<rect width="742.32" height="961.844" fill="white"/>
</clipPath>
</defs>
</svg>
