<svg viewBox="0 0 365 268" fill="none" xmlns="http://www.w3.org/2000/svg">
<path d="M364.801 27.246C364.835 26.859 364.713 26.474 364.462 26.177L343.077 0.904998C342.637 0.384999 341.895 0.240002 341.295 0.552002L87.602 131.771C87.11 132.026 86.804 132.538 86.814 133.091L88.758 242.927C88.769 243.494 89.106 244.004 89.624 244.234L98.372 248.121L111.6 255.78L111.964 241.807L127.274 240.714L128.731 226.984L143.676 227.348L144.649 214.226L160.807 215.928L161.294 201.226L175.874 201.348L175.631 186.282L191.547 189.32L191.668 174.983L207.707 176.077L208.8 161.983L221.922 163.441V148.617L239.662 149.954V135.617L253.998 135.496L254.242 122.495L270.279 122.252L270.4 109.373L284.859 109.13L286.195 95.036L302.476 96.13L301.747 80.577L317.3 81.671L317.664 68.428L334.187 69.886L334.066 57.007L348.767 56.643L349.86 41.941L364.926 42.306L364.801 27.246Z" fill="#C0C8C9"/>
<path d="M343.077 0.903991C342.637 0.383991 341.895 0.238995 341.295 0.550995L87.602 131.771C87.11 132.026 86.804 132.538 86.814 133.091L100.543 186.647L352.41 11.933L343.077 0.903991Z" fill="#D7DBDB"/>
<path d="M107.447 181.057L89.449 131.493C89.282 130.991 88.853 130.618 88.332 130.521C88.26 130.507 87.592 130.389 86.537 130.389C83.336 130.389 75.638 132.643 71.369 143.213C67.512 152.76 61.566 154.186 58.365 154.186C57.267 154.186 56.566 154.014 56.566 154.014C56.5 153.996 56.431 153.983 56.361 153.975C54.736 153.787 53.099 153.692 51.5 153.692C30.796 153.692 18.904 169.054 16.518 172.468C8.05501 172.908 2.78702 175.208 0.85702 179.308C-1.87198 185.11 3.30002 191.983 3.52202 192.273C3.76302 192.589 4.12401 192.793 4.51901 192.836C11.711 193.635 19.731 197.218 21.92 198.246C25.742 211.598 39.619 233.212 42.723 237.95C39.048 243.147 36.577 257.468 36.29 259.187C36.26 259.368 36.265 259.553 36.303 259.732C37.731 266.394 41.399 267.794 44.225 267.794C49.039 267.794 54.012 263.633 54.221 263.456C54.371 263.329 54.495 263.172 54.584 262.996C55.919 260.323 61.143 257.829 63.306 256.984C83.08 255.907 91.096 244.212 91.43 243.713C91.515 243.585 91.579 243.444 91.62 243.296L107.469 181.911C107.547 181.629 107.54 181.332 107.447 181.057ZM76.085 226.708L58.338 232.624C58.109 232.7 57.877 232.736 57.647 232.736C56.846 232.736 56.086 232.296 55.704 231.55L33.355 188.169C32.812 187.117 33.206 185.825 34.241 185.253L53.883 176.592C54.461 176.273 55.158 176.231 55.771 176.484C56.385 176.736 56.852 177.253 57.039 177.888L77.492 224.015C77.823 225.145 77.202 226.336 76.085 226.708Z" fill="#DD891B"/>
<path d="M107.447 181.057L89.449 131.493C89.282 130.991 88.853 130.618 88.332 130.521C88.26 130.507 87.592 130.389 86.537 130.389C83.336 130.389 75.638 132.643 71.369 143.213C67.512 152.76 61.566 154.186 58.365 154.186C57.267 154.186 56.566 154.014 56.566 154.014C56.5 153.996 56.431 153.983 56.361 153.975C54.736 153.787 53.099 153.692 51.5 153.692C30.796 153.692 18.904 169.054 16.518 172.468C8.05501 172.908 2.78702 175.208 0.85702 179.308C-1.87198 185.11 3.30002 191.983 3.52202 192.273C3.76302 192.589 4.12401 192.793 4.51901 192.836C11.711 193.635 19.731 197.218 21.92 198.246C24.625 207.697 32.365 221.281 37.76 230.097L50.43 221.316L33.355 188.17C32.812 187.118 33.206 185.826 34.241 185.254L53.883 176.593C54.461 176.274 55.158 176.232 55.771 176.485C56.385 176.737 56.852 177.254 57.039 177.889L70.216 207.605L107.488 181.774C107.529 181.534 107.525 181.289 107.447 181.057Z" fill="#EFA645"/>
<path d="M96.201 193.384C98.594 193.384 100.534 191.444 100.534 189.051C100.534 186.658 98.594 184.718 96.201 184.718C93.8079 184.718 91.868 186.658 91.868 189.051C91.868 191.444 93.8079 193.384 96.201 193.384Z" fill="#B76B11"/>
<path d="M86.201 149.054C88.594 149.054 90.534 147.114 90.534 144.721C90.534 142.328 88.594 140.388 86.201 140.388C83.8079 140.388 81.868 142.328 81.868 144.721C81.868 147.114 83.8079 149.054 86.201 149.054Z" fill="#CE8320"/>
<path d="M86.201 237.724C88.594 237.724 90.534 235.784 90.534 233.391C90.534 230.998 88.594 229.058 86.201 229.058C83.8079 229.058 81.868 230.998 81.868 233.391C81.868 235.784 83.8079 237.724 86.201 237.724Z" fill="#B76B11"/>
</svg>
