<svg viewBox="0 0 207 183" fill="none" xmlns="http://www.w3.org/2000/svg">
<g clip-path="url(#clip0_3_217)">
<path d="M47.5467 25.0188L66.7824 11.9063L63.991 7.81132L44.7552 20.9238L47.5467 25.0188Z" fill="#C99352"/>
<path d="M45.4123 21.8979C45.7961 21.1412 46.2454 20.3883 46.6648 19.6238L48.1379 18.6191C47.5294 19.9485 46.7268 21.2617 45.6742 22.2817L45.4123 21.8979Z" fill="#B8874A"/>
<path d="M66.0639 10.8601C65.0722 10.7002 64.0771 10.5619 63.0637 10.5176C61.9832 10.4709 60.729 10.7251 59.4871 10.8813L60.9747 9.86681C62.3068 9.68955 63.6296 9.48929 64.8015 9.58163C64.9383 9.59324 65.0819 9.60911 65.22 9.62023L66.0639 10.8601Z" fill="#B8874A"/>
<path d="M46.3805 23.3166L46.2275 23.0903C47.3697 22.0766 48.2886 20.8834 49.0494 19.4847C49.4134 18.8135 49.6248 18.1576 49.7754 17.5021L50.4977 17.0092C50.3462 17.543 50.1746 18.0487 50.0225 18.4885C49.3379 20.4626 48.0155 22.0839 46.3805 23.3166Z" fill="#B8874A"/>
<path d="M58.4996 17.5515L57.2765 18.3855C56.9293 18.3998 56.5834 18.4301 56.237 18.5022C54.6092 18.8466 53.3259 20.153 52.5098 21.6353L51.5595 22.2827C52.1907 19.2753 55.4146 17.6084 58.4996 17.5515Z" fill="#B8874A"/>
<path d="M47.9766 24.1986C47.9203 24.2915 47.7833 24.228 47.8237 24.1266C50.0909 18.3648 56.6059 13.8731 62.8062 14.6164L61.2879 15.6519C59.5005 15.6369 57.8398 15.7004 55.9034 16.8629C52.9405 18.6397 49.7654 21.1976 47.9766 24.1986Z" fill="#B8874A"/>
<path d="M66.1567 12.3315L65.1875 12.9911C62.6869 12.522 60.1616 12.1561 57.7744 13.0854C57.0752 13.3576 56.3608 13.4674 55.6481 13.4997L57.2725 12.3921C58.355 12.1564 59.4557 11.8885 60.6722 11.8131C62.4536 11.7008 64.3511 11.8991 66.1567 12.3315Z" fill="#B8874A"/>
<path d="M69.1221 27.4053L60.8041 33.0765L113.791 110.793L122.11 105.122L69.1221 27.4053Z" fill="#C99352"/>
<path d="M90.721 63.5892C93.2657 64.9262 95.4091 67.519 97.7133 69.3343L99.6793 72.2196C93.2636 68.4501 87.745 61.932 80.2389 61.5754L79.6543 60.7181C83.4587 60.4644 87.3433 61.8141 90.721 63.5892Z" fill="#B8874A"/>
<path d="M99.4735 80.4965C97.129 78.3804 95.3534 75.7409 93.4794 73.2256C91.3174 70.3234 88.2543 69.3368 85.0566 68.6405L83.884 66.9209C87.4802 67.4018 91.2496 68.6695 93.5246 71.2329C96.3656 74.4345 98.6041 77.8946 101.818 80.8118C103.874 82.6774 106.164 84.0427 108.552 85.23L110.032 87.4009C106.127 85.8289 102.611 83.3283 99.4735 80.4965Z" fill="#B8874A"/>
<path d="M93.3805 80.8511L92.517 79.5846C92.7181 77.5384 92.2159 75.6567 89.8285 74.1633C89.3294 73.8515 88.8124 73.6042 88.2863 73.3791L87.1974 71.781C89.1888 72.4736 91.0768 73.6033 92.3915 74.9567C93.8831 76.4945 93.9125 78.7544 93.3805 80.8511Z" fill="#B8874A"/>
<path d="M82.0857 52.0884C81.2982 49.7758 80.8573 47.3384 81.1998 45.1109L82.2793 46.6937C82.2348 47.1227 82.2177 47.5733 82.2562 48.0728C82.4403 50.4507 83.0326 52.7136 85.2009 54.0471C85.9556 54.5115 86.7716 54.5866 87.5844 54.474L88.3468 55.5923C85.8413 56.0898 82.9949 54.7616 82.0857 52.0884Z" fill="#B8874A"/>
<path d="M67.516 42.9138C69.021 43.7855 70.3752 44.9753 71.318 46.0824C72.2242 47.145 72.6718 48.7666 72.5133 50.2428L70.8851 47.8558C70.6584 47.3771 70.342 46.8921 69.8827 46.3849L67.516 42.9138Z" fill="#B8874A"/>
<path d="M78.2663 47.8944C77.964 53.5452 84.57 57.5627 90.0509 58.0961L90.9873 59.4691C85.6816 59.6398 80.7523 55.8571 78.0846 51.3063C76.3284 48.3111 76.857 44.4669 78.4814 41.1263L79.525 42.6582C78.8318 44.225 78.3728 45.9311 78.2663 47.8944Z" fill="#B8874A"/>
<path d="M70.6426 29.6266L71.5238 30.919C71.3725 30.9172 71.2197 30.9235 71.0729 30.9073C69.5248 30.7397 67.9939 30.0335 66.9458 28.8941L67.8821 28.2556C68.6513 28.9218 69.5404 29.4078 70.6426 29.6266Z" fill="#B8874A"/>
<path d="M74.9731 45.4829C76.5571 47.8153 76.2748 51.5609 76.4929 54.2245C76.5427 54.8351 76.4847 55.3836 76.3725 55.9014L75.4993 54.6204C76.1165 50.2806 73.7267 44.9592 71.1248 42.4283C69.2452 40.6004 67.1884 39.8587 65.0191 39.2478L63.5079 37.0319C68.2536 37.0492 72.5709 41.9479 74.9731 45.4829Z" fill="#B8874A"/>
<path d="M69.6041 36.3756C71.7677 37.7334 73.5289 38.1166 75.6735 37.0065L76.2611 37.8696C75.1722 38.5233 73.9836 38.95 72.5887 38.956C70.6052 38.9647 68.5976 37.0752 67.1389 35.999C65.4794 34.7758 63.9127 33.4191 62.473 31.9428L63.2962 31.382C65.2597 33.2025 67.2891 34.9235 69.6041 36.3756Z" fill="#B8874A"/>
<path d="M70.255 33.5802C71.27 33.7564 72.3132 33.7362 73.3367 33.5779L73.7231 34.145C72.9257 34.1865 72.1797 34.1813 71.5983 34.173C68.5993 34.1299 65.9724 32.9442 64.3399 30.6688L65.2999 30.0148C66.6016 31.6509 67.899 33.1726 70.255 33.5802Z" fill="#B8874A"/>
<path d="M103.16 87.562C107.334 90.1151 110.687 94.9328 113.805 98.6063C114.099 98.9524 113.524 99.4683 113.209 99.1416C110.088 95.8995 107.189 92.3941 103.775 89.4528C101.833 87.7802 99.5688 87.0491 97.23 86.4997L96.1435 84.906C98.6292 85.4475 101.055 86.2745 103.16 87.562Z" fill="#B8874A"/>
<path d="M99.4451 89.7462C104.891 91.7987 109.655 96.9199 112.009 101.834C112.112 102.051 111.772 102.201 111.643 102.017C109.764 99.3757 107.706 97.0381 105.247 94.9218C103.977 93.8283 102.594 93.021 101.177 92.2859L99.4451 89.7462Z" fill="#B8874A"/>
<path d="M116.076 96.2689L116.638 97.0938C114.368 97.2483 112.084 96.2471 110.858 94.1954C110.212 93.1143 111.282 91.493 111.797 90.6106C111.859 90.505 111.939 90.4033 112.006 90.2975L112.705 91.3237C112.342 91.8893 112.026 92.4857 111.744 93.098C111.169 94.3503 113.516 95.5528 114.334 95.9057C114.892 96.1465 115.483 96.2475 116.076 96.2689Z" fill="#B8874A"/>
<path d="M117.492 92.7063L103.918 101.96L118.419 123.233L131.994 113.98L117.492 92.7063Z" fill="#6B8D9D"/>
<path d="M118.96 101.749C112.809 97.932 107.076 99.2902 107.521 107.24L103.918 101.956L117.493 92.7017L131.995 113.975L130.503 114.992L126.605 112.965C126.605 112.962 125.982 106.105 118.96 101.749Z" fill="#618190"/>
<path d="M158.445 167.353C150.007 173.105 124.768 172.337 120.846 166.584C116.924 160.832 96.7924 131.303 96.7924 131.303L122.104 114.048L147.415 96.7922C147.415 96.7922 167.547 126.321 171.468 132.074C175.389 137.827 166.882 161.601 158.445 167.353Z" fill="#618190"/>
<path d="M169.425 150.138C165.243 134.024 152.953 105.374 127.856 122.485C103.629 139.001 128.564 161.974 140.714 171.288C131.869 171.45 123.035 169.797 120.845 166.585C116.924 160.833 96.792 131.304 96.792 131.304L122.104 114.048L147.415 96.7922C147.415 96.7922 167.547 126.321 171.468 132.074C173.466 135.006 172.228 142.616 169.425 150.138Z" fill="#526D7B"/>
<path d="M69.1285 27.4049L64.9693 30.2407L60.81 33.0766C60.81 33.0766 50.0438 33.8685 42.3411 22.5697L45.942 20.1154C45.942 20.1154 54.4244 30.3362 61.6675 25.3983C68.9093 20.4608 62.496 8.8294 62.496 8.8294L66.0961 6.37473C73.7997 17.674 69.1285 27.4049 69.1285 27.4049Z" fill="#6B8D9D"/>
<path d="M69.1285 27.4049L68.3891 27.9086C68.3891 27.9086 71.6894 19.1119 63.9862 7.81392L66.0979 6.37557C73.7997 17.674 69.1285 27.4049 69.1285 27.4049Z" fill="#618190"/>
<path d="M61.5495 32.5728L60.81 33.0766C60.81 33.0766 50.0438 33.8685 42.3411 22.5697L44.4527 21.1313C52.1545 32.4297 61.5495 32.5728 61.5495 32.5728Z" fill="#618190"/>
</g>
<defs>
<clipPath id="clip0_3_217">
<rect width="205.222" height="182.798" fill="white" transform="translate(0.963043 0.175278)"/>
</clipPath>
</defs>
</svg>
