<?xml version="1.0" encoding="iso-8859-1"?>
<!-- Generator: Adobe Illustrator 19.0.0, SVG Export Plug-In . SVG Version: 6.00 Build 0)  -->
<svg xmlns="http://www.w3.org/2000/svg" xmlns:xlink="http://www.w3.org/1999/xlink" version="1.1" id="Layer_1" x="0px" y="0px" viewBox="0 0 511.822 511.822" style="enable-background:new 0 0 511.822 511.822;" xml:space="preserve">
<g transform="translate(1082 623)">
	<g>
		<path style="fill:#CC66A1;" d="M-1025.682-111.178h-17.356c-9.433,0-17.087-7.654-17.087-17.087l-0.269-139.117h52.068    l-0.269,139.117C-1008.595-118.832-1016.249-111.178-1025.682-111.178"/>
		<path style="fill:#CC66A1;" d="M-609.14-111.178h-17.356c-9.433,0-17.087-7.654-17.087-17.087l-0.269-139.117h52.068    l-0.269,139.117C-592.053-118.832-599.707-111.178-609.14-111.178"/>
		<path style="fill:#CC66A1;" d="M-1008.326-267.381h-52.068c-9.589,0-17.356-7.767-17.356-17.356s7.767-17.356,17.356-17.356    h52.068c9.589,0,17.356,7.767,17.356,17.356S-998.737-267.381-1008.326-267.381"/>
		<path style="fill:#CC66A1;" d="M-591.784-267.381h-52.068c-9.589,0-17.356-7.767-17.356-17.356s7.767-17.356,17.356-17.356h52.068    c9.589,0,17.356,7.767,17.356,17.356S-582.195-267.381-591.784-267.381"/>
	</g>
	<g>
		<path style="fill: #a3abad;" d="M-826.089-397.729c-62.107,0-112.635-50.528-112.635-112.636S-888.197-623-826.089-623    s112.636,50.528,112.636,112.636S-763.981-397.729-826.089-397.729z M-826.089-606c-52.733,0-95.635,42.902-95.635,95.636    s42.902,95.636,95.635,95.636c52.734,0,95.636-42.902,95.636-95.636S-773.355-606-826.089-606z"/>
		<path style="fill:#a3abad;" d="M-609.318-302.093h-17c0-167.575-89.617-303.907-199.771-303.907s-199.771,136.332-199.771,303.907    h-17c0-85.173,22.158-165.318,62.393-225.671C-939.526-589.178-884.7-623-826.089-623s113.437,33.822,154.379,95.236    C-631.476-467.412-609.318-387.267-609.318-302.093z"/>
	</g>
	<g>
		<polygon style="fill:#F2B0F4;" points="-1060.397,-154.564 -1008.33,-154.564 -1008.33,-223.988 -1060.397,-223.988   "/>
		<polygon style="fill:#F2B0F4;" points="-643.855,-154.564 -591.787,-154.564 -591.787,-223.988 -643.855,-223.988   "/>
	</g>
</g>
<g>
</g>
<g>
</g>
<g>
</g>
<g>
</g>
<g>
</g>
<g>
</g>
<g>
</g>
<g>
</g>
<g>
</g>
<g>
</g>
<g>
</g>
<g>
</g>
<g>
</g>
<g>
</g>
<g>
</g>
</svg>