<?xml version="1.0" encoding="iso-8859-1"?>
<!-- Generator: Adobe Illustrator 19.0.0, SVG Export Plug-In . SVG Version: 6.00 Build 0)  -->
<svg version="1.1" id="Layer_1" xmlns="http://www.w3.org/2000/svg" xmlns:xlink="http://www.w3.org/1999/xlink" x="0px" y="0px"
	 viewBox="0 0 511.936 511.936" style="enable-background:new 0 0 511.936 511.936;" xml:space="preserve">
<g>
	<path style="fill:#C39FBE;" d="M434.247,206.647V0.002H257.695v199.38c0,28.222-13.489,54.731-36.299,71.345L74.205,377.911
		c-29.917,29.917-30.755,78.142-1.889,109.074c30.305,32.486,81.496,33.368,112.914,1.96L335.51,381.715
		c13.374-9.551,29.519-13.798,45.956-13.833c6.029-0.018,12.235-0.742,18.564-2.313c32.132-7.962,56.77-35.628,60.248-68.546
		c2.119-20.153-3.337-38.93-13.842-53.937C438.899,232.317,434.247,219.8,434.247,206.647"/>
	<g>
		<polygon style="fill:#9A7BA8;" points="434.247,88.207 257.695,88.278 257.695,52.967 434.247,52.967 		"/>
		<path style="fill:#9A7BA8;" d="M337.144,308.78c0,24.373,11.008,46.159,28.292,60.734c5.261-0.962,10.602-1.624,16.031-1.642
			c6.029-0.009,12.235-0.733,18.564-2.304c32.132-7.962,56.77-35.628,60.248-68.555c2.119-20.145-3.337-38.921-13.842-53.928
			c-2.225-3.187-4.105-6.559-5.782-10.028c-7.592-2.41-15.669-3.725-24.064-3.725C372.71,229.332,337.144,264.898,337.144,308.78"/>
		<path style="fill:#9A7BA8;" d="M72.829,379.427c-28.495,29.996-28.902,77.135-0.512,107.564
			c28.01,30.014,73.834,32.98,105.419,8.466c0.318-3.337,0.512-6.709,0.512-10.125C178.248,426.999,131.1,379.71,72.829,379.427"/>
		<path style="fill:#9A7BA8;" d="M398.937,26.414c4.873,0,8.828-3.955,8.828-8.828V0.002h-17.655v17.585
			C390.109,22.459,394.064,26.414,398.937,26.414"/>
		<path style="fill:#9A7BA8;" d="M363.626,26.297c4.873,0,8.828-3.955,8.828-8.828V0h-17.655v17.47
			C354.799,22.343,358.754,26.297,363.626,26.297"/>
		<path style="fill:#9A7BA8;" d="M328.316,26.297c4.873,0,8.828-3.955,8.828-8.828V0h-17.655v17.47
			C319.488,22.343,323.443,26.297,328.316,26.297"/>
		<path style="fill:#9A7BA8;" d="M293.006,26.297c4.873,0,8.828-3.955,8.828-8.828V0h-17.655v17.47
			C284.178,22.343,288.133,26.297,293.006,26.297"/>
	</g>
</g>
<g>
</g>
<g>
</g>
<g>
</g>
<g>
</g>
<g>
</g>
<g>
</g>
<g>
</g>
<g>
</g>
<g>
</g>
<g>
</g>
<g>
</g>
<g>
</g>
<g>
</g>
<g>
</g>
<g>
</g>
</svg>
