<?xml version="1.0" encoding="iso-8859-1"?>
<!-- Generator: Adobe Illustrator 19.0.0, SVG Export Plug-In . SVG Version: 6.00 Build 0)  -->
<svg version="1.1" id="Layer_1" xmlns="http://www.w3.org/2000/svg" xmlns:xlink="http://www.w3.org/1999/xlink" x="0px" y="0px"
	 viewBox="0 0 511.999 511.999" style="enable-background:new 0 0 511.999 511.999;" xml:space="preserve">
<g>
	<circle style="fill:#57555C;" cx="255.748" cy="172.022" r="134.862"/>
	<path style="fill:#57555C;" d="M253.972,306.881c-20.283-0.068-39.193-5.092-56.419-13.169
		c-7.372,10.991-11.967,24.538-12.014,38.766c-0.128,38.38,30.883,69.598,69.262,69.726c38.379,0.128,69.598-30.88,69.726-69.262
		c0.049-14.591-4.033-27.505-11.676-38.711C295.127,302.706,274.933,306.952,253.972,306.881z"/>
</g>
<g>
	<path style="fill:#787780;" d="M149.2,172.022c0-69.7,52.879-127.033,120.709-134.112c-4.654-0.485-9.375-0.752-14.159-0.752
		c-74.485,0-134.864,60.381-134.864,134.864s60.38,134.864,134.864,134.864c4.784,0,9.505-0.267,14.159-0.752
		C202.079,299.055,149.2,241.722,149.2,172.022z"/>
	<path style="fill:#787780;" d="M213.854,332.478c0.036-10.786,2.604-21.055,7.029-30.141c-8.142-2.124-15.846-5.124-23.329-8.633
		c-7.371,10.991-11.964,24.547-12.014,38.774c-0.125,38.382,30.886,69.597,69.266,69.726c4.905,0.016,9.689-0.506,14.311-1.46
		C237.473,394.161,213.741,366.063,213.854,332.478z"/>
</g>
<g>
	<path style="fill:#3B3A3C;" d="M362.301,172.022c0-69.7-52.879-127.033-120.709-134.112c4.654-0.485,9.375-0.752,14.159-0.752
		c74.485,0,134.864,60.381,134.864,134.864s-60.38,134.864-134.864,134.864c-4.784,0-9.505-0.267-14.159-0.752
		C309.423,299.055,362.301,241.722,362.301,172.022z"/>
	<path style="fill:#3B3A3C;" d="M296.215,332.478c-0.036-10.786-2.478-20.724-6.904-29.811c8.142-2.124,16.058-4.926,23.54-8.435
		c7.371,10.991,11.627,24.019,11.676,38.246c0.125,38.382-30.886,69.597-69.266,69.726c-4.905,0.016-9.689-0.506-14.311-1.46
		C272.596,394.161,296.327,366.063,296.215,332.478z"/>
</g>
<g>
	<circle style="fill:#787780;" cx="223.427" cy="139.314" r="49.355"/>
	<circle style="fill:#787780;" cx="228.394" cy="353.357" r="17.78"/>
</g>
<g>
	<circle style="fill:#FFFFFF;" cx="222.291" cy="356.145" r="8.786"/>
	<path style="fill:#FFFFFF;" d="M216.226,88.419c-3.466,0-6.751-2.065-8.14-5.474c-1.831-4.494,0.328-9.62,4.822-11.45
		c2.971-1.21,6.031-2.3,9.097-3.239c4.644-1.418,9.553,1.191,10.973,5.831c1.42,4.64-1.19,9.552-5.829,10.973
		c-2.564,0.785-5.125,1.696-7.611,2.708C218.453,88.21,217.331,88.419,216.226,88.419z"/>
	<path style="fill:#FFFFFF;" d="M160.231,146.289c-1.01,0-2.037-0.175-3.04-0.546c-4.552-1.68-6.881-6.731-5.201-11.285
		c6.627-17.959,17.969-33.922,32.802-46.161c3.743-3.087,9.281-2.559,12.369,1.186c3.088,3.742,2.559,9.281-1.184,12.37
		c-12.439,10.265-21.948,23.644-27.501,38.691C167.165,144.091,163.805,146.289,160.231,146.289z"/>
</g>
<g>
	<path style="fill:#1C2042;" d="M347.665,86.545c1.731,1.878,4.092,2.828,6.46,2.828c2.131,0,4.267-0.77,5.956-2.329
		c3.566-3.291,3.79-8.849,0.499-12.415c-1.537-1.666-3.126-3.308-4.723-4.884c-3.456-3.407-9.018-3.368-12.425,0.088
		c-3.407,3.455-3.368,9.018,0.088,12.425C344.92,83.64,346.315,85.083,347.665,86.545z"/>
	<path style="fill:#1C2042;" d="M510.189,334.828l-56.241-73.457c-2.054-2.682-5.463-3.949-8.77-3.259l-78.846,16.441l119.13-62.028
		c3.09-1.61,4.938-4.893,4.709-8.371L477.93,18.216c-0.319-4.841-4.509-8.53-9.345-8.189c-4.842,0.317-8.509,4.502-8.19,9.345
		l11.866,180.217l-96.62,50.306c14.539-22.45,22.994-49.192,22.994-77.874c0-14.386-2.123-28.59-6.307-42.218
		c-1.423-4.639-6.337-7.241-10.978-5.821c-4.638,1.425-7.244,6.34-5.82,10.978c3.671,11.956,5.533,24.426,5.533,37.061
		c0,49.421-28.588,92.283-70.09,112.941c-0.787,0.134-1.569,0.375-2.32,0.733c-17.171,8.209-35.364,12.378-54.09,12.398
		c-0.819-0.002-1.635-0.013-2.45-0.032c-0.151-0.002-0.301-0.005-0.452-0.007c-28.194-0.733-54.111-10.771-74.794-27.143
		c-0.091-0.076-0.184-0.151-0.279-0.225c-29.034-23.118-47.681-58.754-47.681-98.665c0-69.52,56.558-126.078,126.078-126.078
		c22.297,0,44.206,5.896,63.359,17.051c4.194,2.445,9.572,1.024,12.015-3.17c2.441-4.193,1.023-9.572-3.17-12.014
		c-21.834-12.717-46.802-19.44-72.202-19.44c-79.209,0-143.651,64.441-143.651,143.651c0,27.811,7.953,53.796,21.691,75.815
		l-91.566-47.675L53.327,19.945c0.319-4.843-3.348-9.026-8.19-9.345c-4.845-0.335-9.025,3.348-9.345,8.189L23.548,204.73
		c-0.228,3.478,1.619,6.761,4.711,8.371l118.445,61.67l-79.882-16.657c-3.307-0.69-6.716,0.576-8.77,3.259L1.81,334.828
		c-2.95,3.853-2.218,9.367,1.635,12.318c1.594,1.221,3.471,1.81,5.335,1.81c2.641,0,5.253-1.186,6.982-3.444l52.882-69.07
		l115.102,24.001c-0.028,0.061-0.055,0.122-0.082,0.182l-114.77,42.006c-2.001,0.732-3.669,2.168-4.691,4.038l-40.556,74.223
		c-2.327,4.258-0.76,9.596,3.497,11.923c1.338,0.73,2.781,1.077,4.204,1.077c3.109,0,6.122-1.653,7.718-4.575l38.97-71.32
		l99.518-36.425c-0.514,3.584-0.791,7.215-0.802,10.875c-0.013,3.974,0.276,7.878,0.838,11.696l-31.323,88.75
		c-0.902,2.554-0.575,5.379,0.884,7.66l36.73,57.389c1.678,2.621,4.513,4.051,7.409,4.051c1.621,0,3.261-0.449,4.728-1.387
		c4.087-2.616,5.28-8.049,2.664-12.137l-34.416-53.775l22.501-63.751c5.535,9.845,13.134,18.376,22.214,25.007
		c-1.931,5.17-2.954,10.666-2.954,16.243c0,15.43,7.642,29.803,20.441,38.449c1.508,1.018,3.218,1.507,4.91,1.507
		c2.821,0,5.59-1.355,7.289-3.869c2.717-4.022,1.659-9.483-2.363-12.199c-7.956-5.375-12.705-14.304-12.705-23.889
		c0-2.507,0.332-4.987,0.965-7.383c9.293,3.942,19.499,6.143,30.21,6.18c0.09,0,0.178,0,0.268,0c10.386,0,20.468-2.013,29.798-5.852
		c0.578,2.294,0.887,4.661,0.887,7.055c0,9.585-4.749,18.514-12.705,23.889c-4.022,2.716-5.078,8.177-2.363,12.199
		c1.697,2.514,4.468,3.869,7.289,3.869c1.692,0,3.402-0.488,4.91-1.507c12.8-8.647,20.441-23.02,20.441-38.449
		c0-5.408-0.957-10.744-2.776-15.778c3.404-2.441,6.648-5.158,9.678-8.168c5.82-5.781,10.603-12.324,14.292-19.393l23.238,65.84
		l-34.416,53.775c-2.616,4.087-1.423,9.521,2.664,12.137c1.467,0.938,3.107,1.387,4.728,1.387c2.896,0,5.732-1.432,7.409-4.051
		l36.73-57.389c1.46-2.281,1.786-5.107,0.884-7.66l-32.139-91.058c-0.177-0.503-0.402-0.973-0.656-1.421
		c0.239-2.46,0.371-4.943,0.38-7.444c0.014-4.093-0.296-8.15-0.909-12.144l101.554,37.17l38.97,71.32
		c1.596,2.922,4.609,4.576,7.718,4.575c1.423,0,2.868-0.347,4.204-1.077c4.258-2.327,5.825-7.665,3.497-11.923l-40.555-74.222
		c-1.022-1.871-2.689-3.306-4.691-4.038l-115.117-42.134l115.366-24.057l52.882,69.07c1.73,2.26,4.342,3.445,6.982,3.444
		c1.863,0,3.742-0.59,5.335-1.81C512.407,344.197,513.139,338.681,510.189,334.828z M297.819,375.78
		c-3.49,3.466-7.33,6.451-11.434,8.935c-0.551,0.191-1.089,0.439-1.611,0.749c-0.417,0.248-0.798,0.532-1.159,0.834
		c-8.692,4.651-18.445,7.119-28.575,7.119c-0.069,0-0.139,0-0.209,0c-29.4-0.098-53.91-21.191-59.365-49.003
		c-0.03-0.781-0.17-1.548-0.401-2.282c-0.491-3.137-0.75-6.351-0.738-9.625c0.032-9.541,2.297-18.845,6.603-27.278
		c16.977,6.87,34.773,10.377,53.013,10.438c0.135,0,0.268-0.004,0.402-0.004c0.213,0.001,0.425,0.008,0.638,0.008
		c19.119,0,37.373-3.764,54.073-10.575c4.418,8.592,6.717,18.075,6.685,27.815C315.689,349.129,309.323,364.354,297.819,375.78z"/>
</g>
<g>
</g>
<g>
</g>
<g>
</g>
<g>
</g>
<g>
</g>
<g>
</g>
<g>
</g>
<g>
</g>
<g>
</g>
<g>
</g>
<g>
</g>
<g>
</g>
<g>
</g>
<g>
</g>
<g>
</g>
</svg>
