<svg viewBox="0 0 131 186" fill="none" xmlns="http://www.w3.org/2000/svg">
<rect x="27" y="10" width="16" height="14" fill="black"/>
<rect x="27" y="10" width="16" height="14" fill="black"/>
<rect x="12" y="113" width="10" height="24" fill="black"/>
<path d="M113 7.95656C110.878 10.7939 109.567 14.7647 109.192 18.4914C108.756 22.2201 109.192 25.4608 110.315 28.2982C95.6436 23.5975 80.7232 20.3568 65.6769 19.3021C58.6222 18.8161 51.8176 18.4107 46.3226 22.6255C46.0725 22.6255 45.8239 22.6255 45.5738 22.7868C30.8398 29.7562 32.8377 58.5254 30.7155 75.5436C26.3453 110.471 21.1642 145.319 18.4796 180.489C12.9225 183.001 6.68032 184.784 0 186C11.2369 134.621 16.794 76.3543 19.7909 22.1395C23.3501 7.95858 26.6576 2.60848 41.1415 0.339782C48.5706 -0.795575 57.1867 1.23113 64.6158 1.7978C80.849 3.25582 96.8927 5.92986 113 7.95656ZM42.0161 17.7614C43.4516 16.9507 42.4527 13.8713 40.9551 14.5186C38.1462 15.8153 35.8982 17.7614 33.9625 20.8387C32.8392 22.5408 34.6491 24.9728 35.8361 23.2708C37.646 20.8408 39.706 19.1387 42.0161 17.7614ZM35.5238 15.0873C36.5849 14.0347 35.7118 12.0886 34.4627 12.8186C31.4037 14.44 29.4058 17.7614 28.0325 21.5708C27.4701 23.3535 29.3437 24.8942 30.0304 23.1115C31.3416 19.7881 33.2136 17.356 35.5238 15.0873ZM21.1021 117.764C21.5386 116.467 20.041 115.981 19.4786 116.872C17.2306 120.682 16.2953 124.894 15.9194 129.595C15.7951 131.297 18.0415 131.702 18.2295 130C18.7919 125.788 19.9167 121.817 21.1021 117.764Z" fill="#FFED33"/>
<path d="M114.707 29.5996C115.251 34.5558 115.1 39.6336 113.934 44.3636C112.587 48.3636 114.861 53.4485 118.537 54.895C120.121 55.5834 121.884 55.5821 123.43 54.9929C124.97 54.3861 126.318 53.1816 127.113 51.5711C129.049 47.9499 127.705 42.5043 124.249 40.3659C120.489 37.5449 117.296 33.763 114.707 29.5996Z" fill="#2980B9"/>
<path d="M115.068 30.5859C115.6 34.0075 115.735 37.4581 115.28 40.6371C114.669 43.2508 116.179 46.7941 118.341 47.9577C119.265 48.4752 120.28 48.5826 121.136 48.2508C121.991 47.9195 122.701 47.1434 123.096 46.1147C124.045 43.7454 123.051 40.0021 120.999 38.4205C118.723 36.3 116.735 33.5679 115.068 30.5859Z" fill="#3498DB"/>
<ellipse cx="111.965" cy="18.3063" rx="4.04509" ry="10.3538" transform="rotate(5.49728 111.965 18.3063)" fill="#AD9F0D"/>
</svg>
