<svg viewBox="0 0 615 212" fill="none" xmlns="http://www.w3.org/2000/svg">
<path d="M286.784 4.42944C499.377 2.32011 614.676 49.5334 566.019 71.4548C517.359 93.3734 613.255 89.4628 614.265 133.98C614.916 162.647 553.368 213.243 364.743 210.98C165.863 208.593 125.702 173.796 124.044 152.563C122.103 127.797 179.993 125.548 87.5407 113.444C16.4079 104.133 0.707315 86.1654 0.0198152 71.1014C-1.15466 45.1201 50.7214 6.76944 286.784 4.42944Z" fill="#558CC1"/>
<path d="M286.784 0.0720562C499.377 -2.03594 614.676 45.176 566.019 67.092C517.359 89.012 613.255 85.1027 614.265 129.621C614.916 158.288 553.368 208.887 364.743 206.623C165.863 204.235 125.702 169.433 124.044 148.201C122.103 123.439 179.993 121.192 87.5407 109.084C16.4079 99.7734 0.707315 81.8041 0.0198152 66.7428C-1.15466 40.7614 50.7214 2.41072 286.784 0.0720562Z" fill="#BDDCC4"/>
<path d="M530.797 65.5253C533.831 63.6307 537.731 61.5867 542.625 59.3627C584.196 40.4947 429.773 12.844 279.305 15.5C83.186 18.96 24.613 44.3294 24.613 62.54C24.613 66.8547 28.3193 70.6947 35.013 74.16C59.1057 58.8134 128.587 43.212 279.305 40.552C383.184 38.72 488.937 51.3293 530.797 65.5253" fill="#6B90A0"/>
<path d="M565.978 116.413C563.858 89.0574 498.529 85.6494 530.797 65.5254C488.937 51.3294 383.184 38.7201 279.305 40.5521C128.587 43.2121 59.1059 58.8134 35.0132 74.1601C51.0887 82.4747 84.4247 88.624 125.195 93.9334C233.108 107.984 179.993 118.099 179.993 134.964C179.993 151.124 223.783 166.419 359.849 166.716C512.488 167.048 567.656 138.091 565.978 116.413" fill="#59C8F4"/>
<path d="M565.977 116.413C564.3 94.808 523.184 88.1387 521.887 76.368V100.031H521.924L521.887 100.364V101.36C522.799 110.656 548.567 116.76 560.305 129.503C564.501 125.04 566.3 120.592 565.977 116.413" fill="#558CC1"/>
<path d="M193.064 138.084V113.393C193.276 119.783 179.993 126.532 179.993 134.964C179.993 138.899 182.604 142.788 188.508 146.419C190.961 143.744 192.999 141.201 193.064 138.715V138.687C193.071 138.487 193.059 138.292 193.037 138.095L193.064 138.084Z" fill="#558CC1"/>
<path d="M22.2605 92.68C22.2605 92.68 22.7074 92.4693 23.4808 92.092C24.2657 91.728 25.3709 91.18 26.7137 90.5773C28.0641 89.9693 29.6241 89.2347 31.3116 88.4987C33.0017 87.7587 34.81 86.9746 36.6137 86.192C38.4308 85.4306 40.2517 84.676 41.9522 83.9666C43.6537 83.2533 45.2673 82.64 46.6356 82.0813C48.0037 81.5333 49.1616 81.1133 49.9637 80.8026C50.7709 80.504 51.237 80.332 51.237 80.332C51.237 80.332 50.796 80.548 50.0225 80.9226C49.2381 81.288 48.1345 81.832 46.784 82.44C45.4418 83.0467 43.8813 83.78 42.185 84.516C40.4949 85.2533 38.6886 86.0373 36.8829 86.824C35.0652 87.58 33.2537 88.3413 31.5512 89.0506C29.849 89.7626 28.237 90.376 26.8689 90.9293C25.4922 91.4787 24.337 91.9 23.5324 92.2146C22.7241 92.5146 22.2605 92.68 22.2605 92.68" fill="#6B90A0"/>
<path d="M0.115723 67.968C0.115723 67.968 0.503743 67.9014 1.17718 67.7787C1.85791 67.6734 2.82822 67.4973 3.99124 67.3293C5.16155 67.1627 6.51468 66.9493 7.97302 66.7613C9.43343 66.5626 10.9938 66.3787 12.5558 66.1933C14.1162 66.0227 15.6756 65.8427 17.1418 65.704C18.599 65.56 19.9752 65.4573 21.1496 65.3586C22.3241 65.248 23.3074 65.2093 23.9897 65.1573C24.6756 65.124 25.0662 65.1 25.0662 65.1C25.0662 65.1 24.6808 65.168 24.0105 65.2866C23.3298 65.396 22.3646 65.58 21.198 65.744C20.0252 65.9027 18.6704 66.1213 17.2121 66.308C15.7537 66.504 14.1944 66.6907 12.6313 66.8734C11.072 67.0467 9.50947 67.22 8.04436 67.3613C6.58083 67.5066 5.20479 67.6093 4.03551 67.7146C2.86468 67.8173 1.88447 67.864 1.19697 67.916C0.507909 67.9493 0.115723 67.968 0.115723 67.968" fill="#6B90A0"/>
<path d="M18.2527 40.372C18.2527 40.372 18.5599 40.4627 19.1016 40.6133C19.6396 40.784 20.4178 40.996 21.3307 41.3014C22.2484 41.6027 23.3219 41.9333 24.4574 42.328C25.6031 42.7173 26.8126 43.1507 28.0167 43.588C29.2266 44.0373 30.4246 44.484 31.5506 44.9267C32.676 45.3587 33.711 45.8053 34.6016 46.1613C35.4974 46.5227 36.2276 46.8613 36.7407 47.084C37.2568 47.316 37.5522 47.4493 37.5522 47.4493C37.5522 47.4493 37.2422 47.364 36.6979 47.208C36.164 47.04 35.387 46.8293 34.4672 46.5226C33.5547 46.2253 32.4766 45.892 31.3412 45.496C30.2031 45.1067 28.9948 44.6694 27.7798 44.2347C26.5798 43.7867 25.3708 43.3373 24.2536 42.8973C23.1292 42.4653 22.0938 42.0213 21.2016 41.6613C20.3084 41.3013 19.5766 40.96 19.0563 40.7427C18.5402 40.508 18.2527 40.372 18.2527 40.372" fill="#6B90A0"/>
<path d="M72.5522 19.5707C72.5522 19.5707 72.7501 19.7467 73.099 20.068C73.4392 20.392 73.9351 20.8453 74.508 21.4107C75.6564 22.5413 77.1449 24.08 78.6059 25.66C80.0496 27.2413 81.4574 28.86 82.4777 30.1067C82.9922 30.7227 83.4012 31.2627 83.699 31.6293C83.987 31.9987 84.1485 32.216 84.1485 32.216C84.1485 32.216 83.9402 32.04 83.598 31.7146C83.2621 31.392 82.7621 30.9374 82.1903 30.376C81.0329 29.248 79.5419 27.7027 78.0913 26.1267C76.6449 24.5427 75.2381 22.9227 74.2162 21.6773C73.7032 21.0573 73.2918 20.524 72.9974 20.1573C72.7058 19.7893 72.5522 19.5707 72.5522 19.5707Z" fill="#6B90A0"/>
<path d="M138.537 8.24932C138.537 8.24932 138.725 8.45596 139.027 8.82796C139.32 9.19996 139.772 9.72134 140.259 10.3733C140.76 11.024 141.352 11.7773 141.956 12.6053C142.573 13.428 143.201 14.3173 143.833 15.208C144.455 16.1066 145.079 17.004 145.644 17.8613C146.208 18.7093 146.709 19.5293 147.159 20.2187C147.603 20.9067 147.939 21.504 148.187 21.908C148.432 22.3226 148.567 22.564 148.567 22.564C148.567 22.564 148.38 22.3573 148.079 21.988C147.783 21.6133 147.333 21.092 146.84 20.4373C146.344 19.784 145.747 19.0373 145.149 18.208C144.532 17.3853 143.904 16.496 143.265 15.6026C142.651 14.7053 142.027 13.8067 141.463 12.952C140.895 12.1013 140.396 11.2853 139.945 10.5973C139.503 9.90796 139.169 9.31064 138.916 8.90264C138.673 8.48664 138.537 8.24932 138.537 8.24932" fill="#6B90A0"/>
<path d="M210.133 2.35328C210.133 2.35328 210.253 2.57728 210.468 2.98128C210.665 3.38261 210.975 3.95195 211.308 4.64795C211.989 6.03995 212.844 7.91598 213.645 9.81331C214.445 11.712 215.187 13.6307 215.709 15.088C215.973 15.8173 216.165 16.4347 216.313 16.8627C216.453 17.2893 216.525 17.5386 216.525 17.5386C216.525 17.5386 216.395 17.3146 216.191 16.9106C215.985 16.508 215.68 15.9426 215.343 15.2466C214.663 13.8546 213.809 11.9759 213.011 10.0813C212.213 8.17995 211.461 6.26133 210.949 4.804C210.684 4.07467 210.492 3.45729 210.344 3.03063C210.201 2.60263 210.133 2.35328 210.133 2.35328" fill="#6B90A0"/>
<path d="M72.5522 106.865C72.5522 106.865 72.9897 106.589 73.7673 106.108C74.5428 105.641 75.6418 104.945 76.9922 104.157C78.335 103.371 79.896 102.427 81.5834 101.463C83.2856 100.496 85.0913 99.468 86.8974 98.44C88.723 97.4387 90.5428 96.432 92.2517 95.4973C93.9594 94.5493 95.5766 93.7253 96.9532 92.9826C98.3282 92.252 99.4913 91.676 100.3 91.2573C101.117 90.8467 101.585 90.6146 101.585 90.6146C101.585 90.6146 101.141 90.888 100.371 91.3733C99.5886 91.84 98.4897 92.536 97.1397 93.3226C95.797 94.1066 94.2345 95.0546 92.5392 96.0186C90.8491 96.98 89.0392 98.0093 87.2308 99.04C85.4132 100.043 83.5886 101.045 81.8813 101.985C80.1736 102.924 78.5532 103.756 77.1788 104.496C75.8048 105.232 74.6418 105.807 73.8308 106.227C73.0157 106.632 72.5522 106.865 72.5522 106.865" fill="#6B90A0"/>
<path d="M136.52 118.504C136.52 118.504 136.939 118.199 137.676 117.659C138.423 117.136 139.472 116.361 140.755 115.481C142.039 114.595 143.524 113.54 145.149 112.455C146.768 111.369 148.496 110.209 150.217 109.051C151.967 107.917 153.713 106.781 155.352 105.719C156.984 104.656 158.537 103.708 159.855 102.869C161.171 102.035 162.303 101.376 163.073 100.9C163.859 100.435 164.3 100.168 164.3 100.168C164.3 100.168 163.881 100.476 163.148 101.013C162.397 101.536 161.352 102.311 160.067 103.192C158.78 104.079 157.296 105.135 155.68 106.216C154.06 107.307 152.332 108.463 150.601 109.623C148.856 110.756 147.109 111.889 145.477 112.952C143.84 114.017 142.283 114.965 140.965 115.8C139.648 116.635 138.527 117.293 137.749 117.775C136.964 118.241 136.52 118.504 136.52 118.504" fill="#6B90A0"/>
<path d="M129.657 134.276C129.657 134.276 130.469 134.184 131.883 134.023C133.296 133.873 135.311 133.636 137.743 133.403C140.169 133.167 142.996 132.865 146.036 132.595C149.069 132.327 152.307 132.036 155.541 131.747C158.78 131.491 162.02 131.232 165.059 130.993C168.095 130.747 170.936 130.572 173.372 130.396C175.801 130.219 177.829 130.119 179.249 130.027C180.671 129.949 181.477 129.904 181.477 129.904C181.477 129.904 180.671 130.001 179.264 130.16C177.847 130.308 175.824 130.545 173.405 130.784C170.975 131.012 168.148 131.317 165.111 131.588C162.079 131.857 158.84 132.145 155.6 132.432C152.36 132.692 149.117 132.949 146.087 133.191C143.044 133.435 140.209 133.611 137.775 133.788C135.339 133.961 133.315 134.064 131.895 134.157C130.475 134.235 129.657 134.276 129.657 134.276" fill="#6B90A0"/>
<path d="M141.796 171.499C141.796 171.499 142.603 171.131 144.029 170.491C145.449 169.861 147.495 168.959 149.943 167.879C152.396 166.819 155.248 165.556 158.327 164.256C161.405 162.952 164.688 161.559 167.969 160.167C171.267 158.805 174.561 157.447 177.644 156.168C180.735 154.889 183.64 153.743 186.112 152.736C188.589 151.732 190.671 150.939 192.125 150.36C193.579 149.795 194.411 149.472 194.411 149.472C194.411 149.472 193.595 149.84 192.177 150.48C190.744 151.108 188.721 152.032 186.265 153.096C183.805 154.151 180.952 155.416 177.876 156.72C174.8 158.02 171.516 159.411 168.233 160.804C164.936 162.164 161.647 163.529 158.559 164.805C155.468 166.083 152.568 167.229 150.089 168.236C147.603 169.22 145.528 170.037 144.081 170.616C142.625 171.176 141.796 171.499 141.796 171.499Z" fill="#6B90A0"/>
<path d="M200.072 192.359C200.072 192.359 200.481 191.812 201.208 190.86C201.941 189.916 202.969 188.547 204.236 186.941C205.508 185.335 206.971 183.439 208.579 181.447C210.185 179.453 211.892 177.325 213.608 175.197C215.343 173.088 217.084 170.979 218.716 169.004C220.343 167.024 221.903 165.212 223.213 163.643C224.529 162.072 225.66 160.793 226.445 159.884C227.229 158.985 227.679 158.468 227.679 158.468C227.679 158.468 227.267 159.013 226.547 159.968C225.816 160.913 224.785 162.277 223.515 163.887C222.243 165.492 220.784 167.387 219.179 169.379C217.572 171.375 215.857 173.5 214.141 175.635C212.408 177.737 210.665 179.848 209.039 181.824C207.408 183.803 205.853 185.615 204.536 187.185C203.22 188.755 202.088 190.033 201.311 190.943C200.523 191.843 200.072 192.359 200.072 192.359" fill="#6B90A0"/>
<path d="M270.061 202.495C270.061 202.495 270.247 201.893 270.58 200.851C270.923 199.809 271.383 198.311 271.987 196.529C272.589 194.751 273.273 192.664 274.051 190.449C274.825 188.232 275.655 185.868 276.483 183.504C277.34 181.149 278.199 178.795 279.003 176.591C279.807 174.381 280.603 172.337 281.265 170.579C281.927 168.817 282.511 167.368 282.911 166.344C283.321 165.329 283.551 164.748 283.551 164.748C283.551 164.748 283.365 165.343 283.037 166.389C282.692 167.429 282.229 168.925 281.624 170.705C281.021 172.488 280.347 174.573 279.568 176.791C278.791 179.007 277.963 181.371 277.135 183.735C276.273 186.089 275.413 188.441 274.612 190.647C273.812 192.857 273.009 194.901 272.355 196.661C271.693 198.419 271.1 199.869 270.701 200.895C270.299 201.911 270.061 202.495 270.061 202.495Z" fill="#6B90A0"/>
<path d="M341.301 206.173C341.301 206.173 341.276 205.556 341.239 204.479C341.212 203.4 341.141 201.859 341.107 200.008C341.084 198.157 341.019 196.003 341.005 193.687C340.987 191.379 340.975 188.912 340.953 186.445C340.975 183.981 340.987 181.52 341.005 179.199C341.011 176.889 341.079 174.735 341.107 172.884C341.141 171.037 341.212 169.491 341.239 168.413C341.276 167.337 341.301 166.72 341.301 166.72C341.301 166.72 341.327 167.337 341.372 168.413C341.399 169.491 341.463 171.037 341.496 172.884C341.525 174.735 341.589 176.889 341.601 179.199C341.615 181.52 341.631 183.981 341.648 186.445C341.631 188.912 341.608 191.379 341.601 193.687C341.584 196.003 341.525 198.157 341.496 200.008C341.463 201.859 341.399 203.4 341.372 204.479C341.327 205.556 341.301 206.173 341.301 206.173Z" fill="#6B90A0"/>
<path d="M415.511 205.883C415.511 205.883 415.324 205.264 414.997 204.181C414.688 203.092 414.213 201.547 413.697 199.68C413.185 197.813 412.548 195.643 411.935 193.301C411.308 190.963 410.641 188.463 409.979 185.968C409.344 183.465 408.712 180.96 408.115 178.611C407.52 176.267 407.012 174.06 406.555 172.179C406.093 170.295 405.757 168.713 405.504 167.616C405.257 166.511 405.116 165.881 405.116 165.881C405.116 165.881 405.301 166.499 405.632 167.58C405.939 168.671 406.412 170.217 406.928 172.084C407.441 173.949 408.071 176.121 408.693 178.464C409.315 180.803 409.979 183.301 410.648 185.795C411.275 188.3 411.913 190.801 412.504 193.149C413.101 195.495 413.608 197.699 414.071 199.585C414.527 201.467 414.868 203.044 415.125 204.144C415.371 205.251 415.511 205.883 415.511 205.883" fill="#6B90A0"/>
<path d="M495.624 197.573C495.624 197.573 495.165 197.015 494.371 196.031C493.587 195.035 492.451 193.636 491.113 191.925C489.787 190.213 488.208 188.232 486.572 186.08C484.928 183.928 483.175 181.632 481.421 179.333C479.692 177.019 477.964 174.704 476.337 172.533C474.713 170.365 473.24 168.311 471.965 166.563C470.679 164.813 469.645 163.329 468.905 162.307C468.18 161.272 467.759 160.681 467.759 160.681C467.759 160.681 468.217 161.247 469.012 162.225C469.797 163.219 470.94 164.619 472.271 166.331C473.601 168.04 475.175 170.019 476.813 172.173C478.457 174.329 480.211 176.623 481.965 178.92C483.693 181.236 485.421 183.548 487.049 185.72C488.668 187.892 490.139 189.944 491.421 191.692C492.707 193.439 493.74 194.923 494.48 195.948C495.205 196.981 495.624 197.573 495.624 197.573" fill="#6B90A0"/>
<path d="M567.232 176.803C567.232 176.803 566.512 176.399 565.247 175.688C563.993 174.965 562.189 173.955 560.048 172.701C557.912 171.444 555.399 170.007 552.729 168.413C550.067 166.827 547.225 165.131 544.387 163.436C541.56 161.715 538.733 159.993 536.079 158.38C533.431 156.772 530.984 155.22 528.871 153.916C526.763 152.608 525.031 151.484 523.803 150.712C522.588 149.929 521.887 149.476 521.887 149.476C521.887 149.476 522.615 149.888 523.872 150.597C525.125 151.316 526.937 152.329 529.076 153.583C531.216 154.837 533.728 156.28 536.392 157.871C539.053 159.461 541.9 161.152 544.741 162.845C547.565 164.571 550.385 166.289 553.04 167.903C555.687 169.515 558.135 171.065 560.245 172.371C562.356 173.68 564.089 174.804 565.316 175.576C566.539 176.36 567.232 176.803 567.232 176.803" fill="#6B90A0"/>
<path d="M612.144 139.747C612.144 139.747 611.349 139.595 609.941 139.332C608.547 139.052 606.536 138.68 604.139 138.181C601.743 137.684 598.948 137.132 595.956 136.485C592.969 135.84 589.783 135.157 586.596 134.469C583.416 133.755 580.236 133.039 577.248 132.364C574.265 131.697 571.491 131.019 569.108 130.467C566.725 129.911 564.753 129.404 563.364 129.069C561.976 128.723 561.188 128.52 561.188 128.52C561.188 128.52 561.988 128.671 563.391 128.937C564.792 129.217 566.795 129.589 569.191 130.087C571.587 130.585 574.387 131.135 577.376 131.78C580.361 132.421 583.556 133.113 586.744 133.799C589.921 134.517 593.103 135.231 596.088 135.904C599.072 136.576 601.847 137.251 604.232 137.807C606.607 138.363 608.585 138.865 609.972 139.2C611.356 139.548 612.144 139.747 612.144 139.747" fill="#6B90A0"/>
<path d="M599.936 104.519C599.936 104.519 599.367 104.601 598.369 104.749C597.371 104.884 595.949 105.105 594.233 105.317C592.519 105.529 590.529 105.807 588.381 106.047C586.241 106.291 583.955 106.548 581.665 106.807C579.379 107.039 577.088 107.267 574.939 107.479C572.795 107.695 570.787 107.845 569.068 108C567.347 108.155 565.908 108.239 564.905 108.317C563.899 108.379 563.325 108.419 563.325 108.419C563.325 108.419 563.891 108.329 564.895 108.184C565.888 108.048 567.313 107.827 569.025 107.619C570.741 107.405 572.731 107.125 574.877 106.885C577.021 106.644 579.308 106.384 581.591 106.124C583.883 105.896 586.171 105.667 588.316 105.456C590.464 105.239 592.473 105.089 594.195 104.936C595.911 104.784 597.349 104.699 598.353 104.617C599.36 104.553 599.936 104.519 599.936 104.519" fill="#6B90A0"/>
<path d="M563.325 86.48C563.325 86.48 563.041 86.6093 562.545 86.8347C562.047 87.0427 561.34 87.368 560.48 87.7133C559.611 88.056 558.611 88.472 557.524 88.8907C556.443 89.3107 555.283 89.736 554.12 90.1586C552.949 90.5746 551.78 90.988 550.681 91.3533C549.577 91.728 548.536 92.0387 547.657 92.324C546.769 92.6107 546.017 92.8053 545.496 92.968C544.971 93.108 544.675 93.192 544.675 93.192C544.675 93.192 544.959 93.0667 545.452 92.8373C545.953 92.6293 546.663 92.3013 547.52 91.9613C548.388 91.6146 549.389 91.1946 550.476 90.7826C551.556 90.3613 552.717 89.9373 553.88 89.5093C555.051 89.0973 556.219 88.6853 557.317 88.3186C558.423 87.9493 559.457 87.6346 560.343 87.3479C561.229 87.0626 561.983 86.8666 562.504 86.7053C563.021 86.5653 563.325 86.48 563.325 86.48" fill="#6B90A0"/>
<path d="M557.06 71.8493C557.06 71.8493 556.651 71.772 555.917 71.6427C555.189 71.496 554.151 71.316 552.916 71.0493C551.679 70.784 550.228 70.4893 548.684 70.144C547.136 69.8 545.492 69.4119 543.852 69.0226C542.207 68.6213 540.569 68.22 539.035 67.8213C537.505 67.4293 536.079 67.0267 534.852 66.7013C533.632 66.372 532.623 66.0573 531.909 65.86C531.201 65.6466 530.797 65.5253 530.797 65.5253C530.797 65.5253 531.216 65.5973 531.941 65.7293C532.667 65.8773 533.707 66.0573 534.948 66.324C536.189 66.5866 537.635 66.876 539.175 67.2293C540.723 67.5667 542.367 67.9626 544.012 68.352C545.651 68.7533 547.288 69.1546 548.825 69.5533C550.355 69.9439 551.78 70.3467 553.007 70.6733C554.228 71.0013 555.236 71.312 555.949 71.5133C556.656 71.728 557.06 71.8493 557.06 71.8493Z" fill="#6B90A0"/>
<path d="M574.292 48.752C574.292 48.752 573.907 48.8306 573.232 48.9693C572.559 49.0933 571.591 49.2933 570.436 49.488C569.276 49.6853 567.931 49.9306 566.472 50.1573C565.021 50.388 563.471 50.6093 561.924 50.8347C560.369 51.0427 558.813 51.2573 557.359 51.436C555.9 51.6186 554.535 51.7506 553.368 51.8813C552.197 52.0173 551.221 52.084 550.533 52.1493C549.853 52.2026 549.461 52.236 549.461 52.236C549.461 52.236 549.847 52.1546 550.521 52.0199C551.196 51.8973 552.156 51.696 553.316 51.5C554.475 51.308 555.821 51.056 557.272 50.832C558.727 50.6 560.275 50.3786 561.827 50.1573C563.385 49.9453 564.931 49.7306 566.389 49.5559C567.848 49.3733 569.216 49.2387 570.384 49.1067C571.556 48.976 572.532 48.9053 573.213 48.8373C573.901 48.7827 574.292 48.752 574.292 48.752" fill="#6B90A0"/>
<path d="M279.235 0.154656C279.235 0.154656 279.292 0.393307 279.396 0.805307C279.484 1.21731 279.633 1.80529 279.781 2.52262C280.076 3.94262 280.415 5.84663 280.704 7.7613C280.988 9.67196 281.213 11.5933 281.343 13.0413C281.404 13.7653 281.432 14.372 281.467 14.7933C281.489 15.2173 281.496 15.4653 281.496 15.4653C281.496 15.4653 281.432 15.2266 281.329 14.816C281.24 14.4013 281.089 13.8133 280.951 13.1C280.647 11.6786 280.308 9.77199 280.024 7.85732C279.743 5.95066 279.519 4.02665 279.388 2.57731C279.321 1.85465 279.292 1.24796 279.26 0.822625C279.235 0.398625 279.235 0.154656 279.235 0.154656" fill="#6B90A0"/>
<path d="M340.735 0.610686C340.735 0.610686 340.763 0.853381 340.803 1.27338C340.831 1.69738 340.889 2.29869 340.928 3.01869C341.019 4.46003 341.079 6.38669 341.079 8.31069C341.079 10.236 341.019 12.1587 340.928 13.604C340.889 14.3267 340.831 14.9281 340.803 15.3454C340.763 15.7694 340.735 16.0067 340.735 16.0067C340.735 16.0067 340.704 15.7694 340.667 15.3454C340.633 14.9281 340.576 14.3267 340.533 13.604C340.448 12.1587 340.392 10.236 340.392 8.31069C340.392 6.38669 340.448 4.46003 340.539 3.01869C340.576 2.29869 340.64 1.69738 340.673 1.27338C340.704 0.853381 340.735 0.610686 340.735 0.610686Z" fill="#6B90A0"/>
<path d="M405.16 4.32135C405.16 4.32135 405.135 4.56668 405.092 4.98534C405.031 5.40801 404.969 6.01736 404.853 6.73736C404.64 8.18003 404.3 10.0906 403.908 11.9893C403.508 13.8866 403.061 15.7786 402.673 17.184C402.489 17.8866 402.303 18.468 402.187 18.8747C402.067 19.2867 401.988 19.5187 401.988 19.5187C401.988 19.5187 402.007 19.2746 402.057 18.8506C402.116 18.4293 402.173 17.8227 402.289 17.104C402.501 15.6627 402.841 13.7506 403.233 11.8506C403.637 9.95198 404.087 8.06398 404.467 6.65598C404.652 5.95198 404.841 5.37065 404.957 4.96132C405.079 4.55199 405.16 4.32135 405.16 4.32135" fill="#6B90A0"/>
<path d="M468.327 12.268C468.327 12.268 468.237 12.4973 468.064 12.884C467.884 13.2773 467.64 13.836 467.316 14.4946C466.684 15.8173 465.788 17.5533 464.848 19.26C463.895 20.972 462.897 22.6467 462.112 23.888C461.721 24.5067 461.375 25.012 461.139 25.3707C460.9 25.7253 460.757 25.9213 460.757 25.9213C460.757 25.9213 460.848 25.696 461.023 25.3067C461.209 24.9187 461.445 24.3493 461.764 23.6933C462.396 22.3707 463.297 20.6373 464.24 18.9267C465.191 17.2213 466.187 15.5413 466.969 14.3053C467.363 13.6853 467.709 13.18 467.948 12.82C468.184 12.468 468.327 12.268 468.327 12.268" fill="#6B90A0"/>
<path d="M518.528 22.936C518.528 22.936 518.393 23.136 518.141 23.472C517.88 23.804 517.532 24.292 517.081 24.848C516.191 25.9746 514.955 27.436 513.677 28.8666C512.4 30.2893 511.081 31.6773 510.061 32.6866C509.553 33.1933 509.112 33.5946 508.807 33.8866C508.499 34.18 508.319 34.3373 508.319 34.3373C508.319 34.3373 508.455 34.1373 508.705 33.804C508.963 33.468 509.313 32.9813 509.765 32.4213C510.657 31.296 511.888 29.8333 513.169 28.4067C514.441 26.984 515.765 25.5946 516.787 24.5866C517.295 24.08 517.739 23.676 518.039 23.3827C518.348 23.096 518.528 22.936 518.528 22.936" fill="#6B90A0"/>
<path d="M84.1485 57.2693C84.1485 57.2693 84.1225 56.8773 84.0782 56.196C84.0522 55.5093 83.9829 54.5319 83.949 53.3533C83.9246 52.1813 83.8673 50.812 83.8386 49.3453C83.8152 47.876 83.8089 46.308 83.8037 44.7413C83.8089 43.1733 83.8152 41.6093 83.8386 40.1413C83.8673 38.6773 83.9246 37.304 83.949 36.132C83.9829 34.9573 84.0522 33.98 84.0782 33.2933C84.1225 32.6053 84.1485 32.216 84.1485 32.216C84.1485 32.216 84.1668 32.6053 84.2126 33.2933C84.2386 33.98 84.3023 34.9573 84.3351 36.132C84.3689 37.304 84.4246 38.6773 84.4428 40.1413C84.4766 41.6093 84.4818 43.1733 84.4897 44.7413C84.4818 46.308 84.4767 47.876 84.4507 49.3453C84.4247 50.812 84.3761 52.1813 84.3351 53.3533C84.31 54.5319 84.2386 55.5093 84.2126 56.196C84.1668 56.8773 84.1485 57.2693 84.1485 57.2693Z" fill="#456070"/>
<path d="M37.5499 72.64C37.5426 72.5347 37.5187 72.1693 37.4802 71.5946C37.4546 70.908 37.3906 69.9307 37.3578 68.7573C37.3265 67.58 37.2682 66.212 37.251 64.7467C37.2187 63.28 37.2187 61.7133 37.2046 60.1467C37.2187 58.58 37.2187 57.016 37.251 55.544C37.2682 54.08 37.3265 52.7066 37.3578 51.5333C37.3906 50.36 37.4546 49.38 37.4879 48.696C37.5259 48.012 37.5521 47.616 37.5521 47.616C37.5521 47.616 37.5781 48.012 37.6145 48.696C37.6483 49.38 37.7125 50.36 37.7447 51.5333C37.7786 52.7066 37.8349 54.08 37.8541 55.544C37.8863 57.016 37.8863 58.58 37.8906 60.1467C37.8863 61.7133 37.8863 63.28 37.8541 64.7467C37.8349 66.212 37.7786 67.58 37.7447 68.7573C37.7125 69.9307 37.6483 70.908 37.6145 71.5946C37.5843 72.1653 37.5614 72.5293 37.5541 72.6373C37.5526 72.6373 37.5515 72.6387 37.5499 72.64Z" fill="#456070"/>
<path d="M37.5522 72.6707C37.5522 72.6707 37.5511 72.66 37.55 72.64C37.5516 72.6387 37.5527 72.6373 37.5542 72.6373C37.5527 72.6587 37.5522 72.6707 37.5522 72.6707Z" fill="#3C87B5"/>
<path d="M148.567 47.616C148.567 47.616 148.541 47.2267 148.496 46.5427C148.469 45.8573 148.4 44.876 148.365 43.7026C148.343 42.5293 148.284 41.1599 148.265 39.6919C148.232 38.2199 148.227 36.656 148.22 35.0906C148.227 33.5253 148.232 31.9599 148.265 30.4919C148.284 29.0226 148.343 27.6507 148.373 26.4787C148.407 25.3067 148.469 24.324 148.496 23.6386C148.54 22.9706 148.565 22.58 148.567 22.564C148.568 22.58 148.587 22.9706 148.632 23.6386C148.664 24.324 148.728 25.3067 148.759 26.4787C148.793 27.6507 148.849 29.0226 148.869 30.4919C148.896 31.9599 148.9 33.5253 148.908 35.0906C148.9 36.656 148.9 38.2199 148.869 39.6919C148.849 41.1599 148.793 42.5293 148.759 43.7026C148.728 44.876 148.664 45.8573 148.636 46.5427C148.585 47.2267 148.567 47.616 148.567 47.616Z" fill="#456070"/>
<path d="M216.525 42.5946C216.523 42.5693 216.5 42.1786 216.461 41.516C216.429 40.8346 216.367 39.8533 216.331 38.68C216.301 37.5066 216.244 36.132 216.225 34.668C216.191 33.1986 216.191 31.6346 216.185 30.068C216.191 28.5 216.197 26.9359 216.225 25.4639C216.249 23.9999 216.301 22.6279 216.331 21.4559C216.367 20.2799 216.429 19.3 216.461 18.616C216.5 17.96 216.523 17.572 216.525 17.5413C216.527 17.572 216.552 17.96 216.596 18.616C216.621 19.3 216.687 20.2799 216.719 21.4559C216.751 22.6279 216.809 23.9999 216.827 25.4639C216.859 26.9359 216.859 28.5 216.872 30.068C216.859 31.6346 216.859 33.1986 216.827 34.668C216.809 36.132 216.751 37.5066 216.723 38.68C216.687 39.8533 216.621 40.8346 216.596 41.516C216.551 42.1786 216.527 42.5693 216.525 42.5946Z" fill="#456070"/>
<path d="M281.487 15.464C281.487 15.4547 281.488 15.4454 281.488 15.4374C281.492 15.4507 281.495 15.46 281.496 15.464H281.487ZM281.496 15.464C281.496 15.456 281.495 15.4227 281.493 15.368C281.495 15.336 281.496 15.3187 281.496 15.3187C281.496 15.3187 281.499 15.3694 281.505 15.4627C281.496 15.464 281.505 15.4627 281.496 15.464Z" fill="#749188"/>
<path d="M281.496 40.376C281.496 40.376 281.471 39.9826 281.432 39.2999C281.4 38.6146 281.329 37.636 281.301 36.46C281.272 35.288 281.213 33.9159 281.197 32.4479C281.161 30.9786 281.161 29.4159 281.149 27.8479C281.161 26.2826 281.161 24.716 281.197 23.2493C281.213 21.78 281.272 20.4119 281.301 19.2359C281.336 18.0599 281.4 17.084 281.432 16.396C281.456 15.9546 281.476 15.6346 281.487 15.4639H281.496V15.4653V15.4639C281.505 15.4626 281.496 15.464 281.505 15.4626C281.516 15.6346 281.536 15.9546 281.565 16.396C281.593 17.084 281.657 18.0599 281.688 19.2359C281.721 20.4119 281.78 21.78 281.797 23.2493C281.831 24.716 281.837 26.2826 281.841 27.8479C281.837 29.4159 281.831 30.9786 281.797 32.4479C281.78 33.9159 281.721 35.288 281.688 36.46C281.657 37.636 281.593 38.6146 281.565 39.2999C281.52 39.9826 281.496 40.376 281.496 40.376Z" fill="#456070"/>
<path d="M281.496 15.4653V15.464C281.495 15.46 281.492 15.4507 281.488 15.4373C281.491 15.4093 281.492 15.3853 281.493 15.368C281.495 15.4227 281.496 15.456 281.496 15.464V15.4653Z" fill="#456070"/>
<path d="M340.735 41.0627C340.735 41.0627 340.711 40.6746 340.667 39.9866C340.64 39.3 340.568 38.3267 340.539 37.1493C340.509 35.9747 340.452 34.6027 340.427 33.14C340.404 31.6667 340.397 30.1027 340.392 28.5374C340.397 26.9707 340.404 25.4067 340.427 23.936C340.452 22.468 340.509 21.0986 340.539 19.9226C340.568 18.748 340.64 17.7706 340.673 17.084C340.709 16.44 340.732 16.0507 340.735 16.0107C340.737 16.0507 340.757 16.44 340.803 17.084C340.827 17.7706 340.895 18.748 340.928 19.9226C340.953 21.0986 341.011 22.468 341.039 23.936C341.063 25.4067 341.071 26.9707 341.079 28.5374C341.071 30.1027 341.063 31.6667 341.039 33.14C341.019 34.6027 340.953 35.9747 340.928 37.1493C340.895 38.3267 340.831 39.3 340.803 39.9866C340.755 40.6746 340.735 41.0627 340.735 41.0627Z" fill="#456070"/>
<path d="M401.988 44.572C401.987 44.5573 401.959 44.1707 401.916 43.4987C401.891 42.8133 401.82 41.8306 401.796 40.6586C401.761 39.4826 401.704 38.1147 401.685 36.6453C401.655 35.1747 401.644 33.6107 401.639 32.0453C401.644 30.4773 401.655 28.9147 401.685 27.4453C401.704 25.9747 401.761 24.6106 401.796 23.4333C401.825 22.2613 401.891 21.2826 401.916 20.5946C401.959 19.9213 401.987 19.532 401.988 19.5186C401.989 19.532 402.015 19.9213 402.052 20.5946C402.08 21.2826 402.147 22.2613 402.179 23.4333C402.208 24.6106 402.263 25.9747 402.289 27.4453C402.315 28.9147 402.321 30.4773 402.333 32.0453C402.321 33.6107 402.321 35.1747 402.289 36.6453C402.269 38.1147 402.213 39.4826 402.179 40.6586C402.147 41.8306 402.08 42.8133 402.052 43.4987C402.015 44.1707 401.989 44.5573 401.988 44.572Z" fill="#456070"/>
<path d="M460.758 25.924H460.757C460.757 25.922 460.757 25.922 460.757 25.922C460.757 25.922 460.757 25.922 460.758 25.924Z" fill="#749188"/>
<path d="M460.757 50.9773C460.756 50.944 460.732 50.556 460.687 49.904C460.661 49.2187 460.593 48.2359 460.567 47.0613C460.533 45.8919 460.476 44.52 460.459 43.052C460.424 41.584 460.417 40.0199 460.411 38.4506C460.417 36.8839 460.424 35.3186 460.459 33.8479C460.476 32.3839 460.533 31.012 460.567 29.8386C460.593 28.66 460.661 27.684 460.687 27C460.732 26.3493 460.756 25.9613 460.757 25.924H460.759C460.76 25.9626 460.787 26.3506 460.824 27C460.855 27.684 460.92 28.66 460.949 29.8386C460.983 31.012 461.035 32.3839 461.061 33.8479C461.085 35.3186 461.099 36.8839 461.099 38.4506C461.099 40.0199 461.093 41.584 461.061 43.052C461.041 44.52 460.983 45.8919 460.949 47.0613C460.92 48.2359 460.855 49.2187 460.824 49.904C460.785 50.556 460.76 50.944 460.757 50.9773Z" fill="#456070"/>
<path d="M508.319 59.3893C508.316 59.3493 508.292 58.9613 508.249 58.3133C508.223 57.6253 508.152 56.652 508.127 55.476C508.092 54.3013 508.035 52.932 508.013 51.464C507.985 49.9933 507.979 48.4293 507.973 46.8613C507.979 45.2973 507.985 43.7333 508.02 42.264C508.035 40.796 508.092 39.424 508.127 38.2493C508.161 37.0773 508.223 36.0973 508.249 35.4106C508.295 34.7253 508.319 34.3373 508.319 34.3373C508.319 34.3373 508.339 34.7253 508.383 35.4106C508.409 36.0973 508.48 37.0773 508.513 38.2493C508.543 39.424 508.6 40.796 508.62 42.264C508.652 43.7333 508.652 45.2973 508.659 46.8613C508.652 48.4293 508.652 49.9933 508.62 51.464C508.6 52.932 508.543 54.3013 508.513 55.476C508.48 56.652 508.413 57.6253 508.383 58.3133C508.341 58.9626 508.321 59.3506 508.319 59.3893Z" fill="#456070"/>
<path d="M544.675 118.243C544.673 118.228 544.648 117.841 544.612 117.168C544.579 116.485 544.513 115.507 544.483 114.331C544.449 113.157 544.391 111.787 544.372 110.319C544.343 108.852 544.337 107.283 544.329 105.719C544.337 104.152 544.347 102.588 544.372 101.119C544.391 99.648 544.449 98.28 544.483 97.1067C544.513 95.928 544.579 94.952 544.612 94.2667C544.648 93.584 544.675 93.192 544.675 93.192C544.675 93.192 544.7 93.584 544.741 94.2667C544.771 94.952 544.835 95.928 544.868 97.1067C544.9 98.28 544.959 99.648 544.977 101.119C545.011 102.588 545.019 104.152 545.025 105.719C545.019 107.283 545.011 108.852 544.977 110.319C544.959 111.787 544.9 113.157 544.868 114.331C544.835 115.507 544.771 116.485 544.741 117.168C544.701 117.843 544.676 118.228 544.675 118.243" fill="#396289"/>
<path d="M181.477 129.907C181.477 129.906 181.477 129.905 181.477 129.905C181.477 129.905 181.477 129.905 181.478 129.906L181.477 129.907" fill="#749188"/>
<path d="M181.477 129.908V129.907L181.478 129.906C181.477 129.907 181.477 129.907 181.477 129.908" fill="#3C87B5"/>
<path d="M181.477 139.175C181.477 139.175 181.363 138.596 181.281 137.725C181.196 136.859 181.141 135.699 181.141 134.543C181.141 133.38 181.196 132.223 181.281 131.353C181.365 130.528 181.468 129.96 181.477 129.908C181.477 129.907 181.477 129.907 181.479 129.905C181.485 129.943 181.599 130.515 181.68 131.353C181.763 132.223 181.821 133.38 181.829 134.543C181.821 135.699 181.769 136.859 181.68 137.725C181.595 138.596 181.477 139.175 181.477 139.175Z" fill="#396289"/>
<path d="M563.325 125.677C563.325 125.677 563.293 125.408 563.259 124.935C563.229 124.464 563.165 123.791 563.133 122.979C563.101 122.169 563.041 121.228 563.021 120.216C562.991 119.207 562.991 118.125 562.979 117.045C562.991 115.967 562.991 114.891 563.021 113.876C563.041 112.865 563.101 111.921 563.133 111.116C563.165 110.305 563.229 109.632 563.259 109.156C563.293 108.688 563.325 108.419 563.325 108.419C563.325 108.419 563.357 108.688 563.391 109.156C563.42 109.632 563.487 110.305 563.521 111.116C563.551 111.921 563.608 112.865 563.627 113.876C563.655 114.891 563.66 115.967 563.672 117.045C563.66 118.125 563.66 119.207 563.627 120.216C563.608 121.228 563.551 122.169 563.521 122.979C563.487 123.791 563.42 124.464 563.391 124.935C563.357 125.408 563.325 125.677 563.325 125.677Z" fill="#396289"/>
<path d="M115.863 72.8666C114.779 72.8666 113.697 72.8013 112.629 72.6613C109.876 72.3173 107.258 71.496 104.886 70.4146C103.712 69.8506 102.515 69.2933 101.487 68.6467C100.957 68.3387 100.445 68.0267 99.9072 67.7213C99.3983 67.432 98.901 67.1493 98.3983 66.8666C96.3619 65.856 94.3384 65.0746 92.3723 64.7146C91.0223 64.4733 89.725 64.3653 88.5144 64.3653C87.9702 64.3653 87.4436 64.3866 86.9374 64.428C85.3083 64.5866 83.9166 64.9333 82.7916 65.2933C80.5468 66.0387 79.3999 66.812 79.3999 66.812C79.3999 66.812 79.6639 66.5973 80.2108 66.2547C80.7535 65.9253 81.565 65.4306 82.6822 64.984C83.7942 64.54 85.1968 64.0853 86.8592 63.8093C87.7791 63.668 88.7791 63.5827 89.8406 63.5827C90.6994 63.5827 91.5983 63.6373 92.527 63.764C94.6083 64.0373 96.7854 64.7453 98.9572 65.744C99.4911 66.0226 100.03 66.3026 100.575 66.584C101.091 66.848 101.637 67.1546 102.169 67.4413C103.246 68.0586 104.338 68.544 105.479 69.0573C107.765 70.0507 110.256 70.732 112.827 71.0493C113.761 71.164 114.708 71.2187 115.659 71.2187C117.324 71.2187 119.005 71.052 120.664 70.748C123.281 70.292 125.855 69.5227 128.353 68.6467C130.862 67.7693 133.251 66.764 135.66 65.8093C136.101 65.6373 136.544 65.468 136.984 65.2987C136.855 65.8547 136.739 66.4266 136.635 67.0146C136.492 67.0733 136.349 67.132 136.205 67.192C133.887 68.1546 131.451 69.2893 128.901 70.1787C126.351 71.0907 123.704 71.9106 120.955 72.408C119.277 72.704 117.566 72.8666 115.863 72.8666M157.872 65.124C157.004 64.872 156.023 64.628 154.935 64.4253C153.492 64.168 151.871 64.024 150.119 64.024C149.903 64.024 149.685 64.0266 149.467 64.0306C148.101 64.0653 146.66 64.1973 145.175 64.452C145.351 64.004 145.54 63.5866 145.741 63.2026C146.749 63.1 147.733 63.0533 148.683 63.0533C148.947 63.0533 149.208 63.0573 149.467 63.064C151.547 63.112 153.436 63.4013 155.063 63.812C155.816 64.0053 156.516 64.216 157.16 64.4333C157.393 64.652 157.631 64.8813 157.872 65.124Z" fill="#4B87CE"/>
<path d="M285.504 57.8613C283.419 57.8613 281.337 57.6067 279.344 57.108C276.401 56.388 273.659 55.1987 271.157 53.8693C268.712 52.5373 266.281 51.4894 263.86 50.7734C261.453 50.048 259.081 49.672 256.877 49.56C256.464 49.5427 256.055 49.5347 255.653 49.5347C253.924 49.5347 252.317 49.6866 250.877 49.948C249.103 50.2693 247.592 50.732 246.383 51.1973C243.952 52.1333 242.711 53.0067 242.711 53.0067C242.711 53.0067 243 52.768 243.585 52.38C244.179 51.9933 245.056 51.4413 246.249 50.9027C247.453 50.348 248.956 49.7773 250.748 49.3387C252.524 48.8987 254.575 48.5987 256.833 48.5987C256.857 48.5987 256.88 48.5987 256.904 48.5987C259.184 48.6094 261.664 48.8787 264.195 49.5667C266.719 50.224 269.333 51.2427 271.833 52.5507C274.292 53.808 276.947 54.856 279.724 55.5267C281.553 55.9707 283.439 56.196 285.336 56.196C286.321 56.196 287.309 56.1347 288.295 56.0133C291.171 55.6893 294.009 54.872 296.753 53.9187C299.509 52.9614 302.169 51.872 304.816 50.8827C307.477 49.9 310.141 49.1547 312.724 48.7307C314.377 48.4493 315.996 48.3187 317.54 48.3187C318.411 48.3187 319.257 48.36 320.076 48.4387C322.351 48.652 324.384 49.144 326.141 49.708C327.881 50.292 329.359 50.9094 330.547 51.468C331.137 51.756 331.659 52.0173 332.113 52.2413C332.563 52.4853 332.941 52.7 333.247 52.8693C333.864 53.2067 334.189 53.396 334.189 53.396C334.189 53.396 333.849 53.2334 333.208 52.952C332.884 52.8067 332.495 52.6307 332.033 52.4227C331.561 52.232 331.021 52.0107 330.419 51.7693C329.204 51.284 327.708 50.7707 325.967 50.3053C324.212 49.8653 322.207 49.5187 320.009 49.3987C319.599 49.3787 319.181 49.368 318.759 49.368C316.915 49.368 314.964 49.5614 312.952 49.9627C310.467 50.4494 307.933 51.268 305.351 52.264C302.767 53.276 300.096 54.4747 297.293 55.452C294.492 56.4467 291.548 57.32 288.485 57.6867C287.497 57.804 286.5 57.8613 285.504 57.8613" fill="#4B87CE"/>
<path d="M341.695 120.057C339.951 120.057 338.193 119.841 336.501 119.468C333.597 118.808 330.849 117.749 328.191 116.615C326.853 116.053 325.575 115.443 324.316 114.832C323.681 114.517 323.037 114.256 322.417 113.991C321.791 113.728 321.18 113.444 320.556 113.204C319.915 113.008 319.277 112.815 318.655 112.624C318.341 112.527 318.024 112.425 317.717 112.333C317.396 112.269 317.083 112.201 316.767 112.14C316.132 112.012 315.507 111.884 314.891 111.757C314.268 111.689 313.641 111.627 313.032 111.563C312.724 111.533 312.423 111.501 312.12 111.468C311.82 111.452 311.517 111.46 311.215 111.452C310.619 111.44 310.032 111.436 309.456 111.431C308.88 111.452 308.307 111.504 307.747 111.54C307.187 111.568 306.635 111.611 306.109 111.704C305.576 111.78 305.047 111.859 304.54 111.931C304.027 112.021 303.537 112.147 303.057 112.24C302.085 112.413 301.196 112.7 300.34 112.928C299.497 113.181 298.72 113.459 298 113.707C297.293 113.997 296.627 114.228 296.053 114.501C294.9 115.008 294.005 115.463 293.4 115.787C292.811 116.111 292.501 116.305 292.501 116.305C292.501 116.305 292.791 116.088 293.368 115.725C293.947 115.368 294.801 114.835 295.951 114.273C296.511 113.972 297.165 113.704 297.864 113.376C298.579 113.084 299.349 112.767 300.192 112.472C301.036 112.199 301.932 111.863 302.907 111.637C303.399 111.511 303.889 111.369 304.405 111.26C304.924 111.164 305.455 111.067 306.001 110.968C306.54 110.856 307.1 110.791 307.669 110.74C308.241 110.683 308.82 110.611 309.419 110.564C310.015 110.553 310.619 110.543 311.236 110.535C311.472 110.535 311.709 110.524 311.951 110.524C312.023 110.524 312.095 110.524 312.168 110.527C312.475 110.551 312.789 110.573 313.103 110.597C313.741 110.649 314.384 110.701 315.032 110.748C315.675 110.865 316.321 110.976 316.977 111.092C317.309 111.155 317.641 111.208 317.976 111.267C318.296 111.361 318.623 111.452 318.951 111.549C319.605 111.747 320.268 111.935 320.937 112.128C321.585 112.365 322.228 112.651 322.884 112.911C323.539 113.184 324.195 113.439 324.821 113.74C326.093 114.328 327.387 114.921 328.691 115.463C331.299 116.564 334.011 117.585 336.784 118.199C338.436 118.567 340.115 118.781 341.783 118.781C342.913 118.781 344.04 118.683 345.149 118.468C347.893 117.983 350.56 117.089 353.16 116.271C355.763 115.443 358.301 114.679 360.781 114.157C362.787 113.724 364.765 113.484 366.625 113.484C367.052 113.484 367.472 113.496 367.885 113.523C370.103 113.637 372.088 114.116 373.789 114.641C375.491 115.165 376.939 115.728 378.12 116.207C379.301 116.689 380.215 117.104 380.832 117.389C381.453 117.672 381.784 117.823 381.784 117.823C381.784 117.823 381.441 117.697 380.807 117.453C380.169 117.205 379.227 116.868 378.029 116.444C376.835 116.028 375.364 115.54 373.663 115.112C371.953 114.679 370.001 114.312 367.855 114.267C367.7 114.263 367.545 114.261 367.391 114.261C365.376 114.261 363.223 114.571 360.993 115.103C358.596 115.671 356.097 116.503 353.515 117.361C350.931 118.204 348.26 119.192 345.361 119.708C344.164 119.948 342.932 120.057 341.695 120.057" fill="#4B87CE"/>
<path d="M485.001 135.465C483.749 135.465 482.489 135.311 481.272 135.043C479.191 134.572 477.225 133.811 475.315 132.997C474.352 132.595 473.441 132.156 472.533 131.719C472.079 131.493 471.624 131.307 471.18 131.116C470.731 130.928 470.293 130.723 469.841 130.553C469.385 130.415 468.931 130.273 468.48 130.135C468.256 130.065 468.031 129.996 467.805 129.927C467.584 129.881 467.351 129.837 467.125 129.789C466.669 129.699 466.224 129.605 465.78 129.516C465.331 129.468 464.889 129.423 464.453 129.377C464.235 129.352 464.019 129.332 463.799 129.307C463.584 129.299 463.364 129.304 463.147 129.299C462.724 129.293 462.295 129.288 461.88 129.281C461.471 129.299 461.061 129.336 460.661 129.359C460.257 129.38 459.864 129.411 459.487 129.477C459.1 129.535 458.728 129.591 458.363 129.643C457.997 129.704 457.643 129.796 457.296 129.86C456.603 129.991 455.957 130.191 455.355 130.355C454.745 130.536 454.185 130.733 453.671 130.916C453.171 131.121 452.689 131.285 452.285 131.485C451.449 131.851 450.805 132.172 450.381 132.403C449.952 132.639 449.735 132.776 449.735 132.776C449.735 132.776 449.939 132.621 450.357 132.359C450.769 132.101 451.384 131.723 452.208 131.321C452.605 131.101 453.081 130.913 453.576 130.676C454.089 130.469 454.643 130.241 455.248 130.027C455.849 129.829 456.492 129.592 457.193 129.425C457.539 129.339 457.891 129.236 458.267 129.159C458.639 129.092 459.019 129.021 459.404 128.949C459.796 128.869 460.193 128.824 460.604 128.787C461.013 128.749 461.433 128.693 461.857 128.66C462.28 128.655 462.716 128.644 463.161 128.639C463.323 128.639 463.489 128.633 463.655 128.633C463.713 128.633 463.772 128.633 463.831 128.636C464.053 128.648 464.273 128.668 464.504 128.687C464.959 128.723 465.416 128.756 465.884 128.796C466.341 128.876 466.811 128.956 467.28 129.037C467.519 129.083 467.755 129.124 467.993 129.165C468.223 129.233 468.455 129.299 468.691 129.367C469.161 129.505 469.64 129.643 470.111 129.783C470.581 129.953 471.036 130.155 471.513 130.34C471.98 130.54 472.451 130.72 472.9 130.936C473.812 131.356 474.737 131.787 475.679 132.172C477.537 132.956 479.485 133.695 481.477 134.132C482.665 134.396 483.872 134.551 485.072 134.551C485.877 134.551 486.679 134.481 487.472 134.328C489.436 133.979 491.353 133.341 493.216 132.751C495.079 132.156 496.896 131.611 498.675 131.233C500.119 130.921 501.541 130.752 502.88 130.752C503.18 130.752 503.475 130.76 503.765 130.777C505.356 130.861 506.779 131.208 507.997 131.588C509.225 131.961 510.257 132.363 511.105 132.707C511.955 133.052 512.601 133.348 513.047 133.553C513.492 133.755 513.728 133.864 513.728 133.864C513.728 133.864 513.492 133.772 513.027 133.599C512.572 133.421 511.897 133.181 511.043 132.875C510.183 132.577 509.128 132.227 507.908 131.921C506.687 131.611 505.283 131.347 503.744 131.311C503.648 131.309 503.552 131.308 503.455 131.308C502.001 131.308 500.437 131.527 498.832 131.916C497.108 132.323 495.316 132.917 493.471 133.529C491.616 134.139 489.701 134.848 487.627 135.217C486.769 135.388 485.887 135.465 485.001 135.465" fill="#4B87CE"/>
<path d="M231.833 140.751C231.073 140.751 230.309 140.655 229.575 140.491C228.307 140.205 227.107 139.744 225.952 139.252C225.364 139.001 224.807 138.739 224.253 138.475C223.977 138.336 223.7 138.223 223.431 138.105C223.161 137.992 222.892 137.868 222.623 137.764C222.34 137.679 222.063 137.593 221.793 137.511C221.653 137.467 221.517 137.424 221.381 137.381C221.241 137.353 221.104 137.324 220.964 137.299C220.947 137.295 220.928 137.291 220.911 137.288C221.056 137.164 221.192 137.029 221.316 136.887C221.375 136.897 221.433 136.908 221.491 136.92C221.633 136.961 221.773 137 221.92 137.044C222.204 137.125 222.493 137.208 222.784 137.296C223.073 137.395 223.349 137.52 223.633 137.637C223.921 137.755 224.201 137.863 224.479 137.996C225.036 138.249 225.596 138.509 226.168 138.747C227.299 139.227 228.48 139.676 229.696 139.939C230.421 140.101 231.156 140.196 231.887 140.196C232.375 140.196 232.859 140.153 233.337 140.061C234.537 139.845 235.703 139.457 236.833 139.097C237.971 138.739 239.069 138.403 240.155 138.18C241.031 137.987 241.899 137.884 242.713 137.884C242.896 137.884 243.076 137.889 243.252 137.9C244.221 137.953 245.083 138.16 245.823 138.391C246.567 138.619 247.197 138.863 247.711 139.072C248.231 139.28 248.628 139.46 248.889 139.589C249.161 139.712 249.308 139.775 249.308 139.775C249.308 139.775 249.161 139.72 248.885 139.615C248.609 139.509 248.197 139.359 247.677 139.175C247.149 138.991 246.516 138.78 245.769 138.596C245.024 138.403 244.171 138.244 243.239 138.223C243.184 138.221 243.129 138.221 243.073 138.221C242.183 138.221 241.229 138.357 240.244 138.589C239.203 138.84 238.109 139.2 236.987 139.573C235.86 139.943 234.693 140.372 233.433 140.595C232.911 140.701 232.372 140.751 231.833 140.751M210.391 139.116C210.391 139.116 210.519 139.021 210.769 138.861C211.02 138.705 211.393 138.475 211.892 138.231C212.137 138.095 212.419 137.979 212.728 137.843C213.036 137.709 213.376 137.572 213.745 137.44C214.109 137.324 214.501 137.176 214.924 137.081C215.137 137.023 215.355 136.961 215.58 136.917C215.589 136.915 215.6 136.913 215.609 136.911C215.691 137.004 215.777 137.092 215.867 137.175C215.789 137.187 215.713 137.197 215.637 137.208C215.413 137.248 215.203 137.303 214.991 137.345C214.565 137.42 214.18 137.541 213.809 137.645C213.44 137.751 213.099 137.873 212.788 137.983C212.477 138.108 212.188 138.207 211.939 138.329C211.432 138.551 211.045 138.747 210.781 138.885C210.524 139.031 210.391 139.116 210.391 139.116" fill="#4B87CE"/>
<path d="M438.188 69.072C436.935 69.0733 435.673 68.9173 434.456 68.6493C432.375 68.1773 430.409 67.4173 428.501 66.6067C427.544 66.2027 426.625 65.7613 425.72 65.3253C425.269 65.1039 424.808 64.9186 424.365 64.7253C423.915 64.5346 423.476 64.3333 423.027 64.1586C422.571 64.0213 422.115 63.8787 421.667 63.7453C421.441 63.6733 421.213 63.604 420.992 63.532C420.764 63.488 420.54 63.4426 420.311 63.3946C419.86 63.3039 419.411 63.212 418.967 63.1213C418.519 63.0733 418.073 63.0306 417.635 62.9826C417.42 62.9613 417.199 62.9386 416.98 62.916C416.763 62.9066 416.551 62.9107 416.337 62.9067C415.912 62.9013 415.484 62.8933 415.067 62.8906C414.657 62.9066 414.244 62.9413 413.847 62.9653C413.445 62.9866 413.049 63.0159 412.672 63.0813C412.292 63.1399 411.913 63.1986 411.547 63.2506C411.18 63.3106 410.833 63.4013 410.485 63.468C409.787 63.596 409.149 63.7959 408.537 63.9639C407.937 64.1439 407.377 64.3386 406.865 64.5226C406.356 64.7306 405.873 64.8946 405.467 65.0893C404.636 65.4573 403.997 65.7787 403.568 66.0093C403.137 66.2413 402.92 66.3839 402.92 66.3839C402.92 66.3839 403.131 66.2306 403.541 65.968C403.96 65.7106 404.572 65.3319 405.392 64.9253C405.799 64.7119 406.267 64.5226 406.767 64.2853C407.276 64.072 407.829 63.848 408.431 63.632C409.033 63.44 409.677 63.1987 410.377 63.0373C410.732 62.9493 411.087 62.8426 411.449 62.7693C411.823 62.6973 412.201 62.6266 412.593 62.5586C412.977 62.4759 413.384 62.4306 413.788 62.3919C414.197 62.3533 414.617 62.2999 415.043 62.2666C415.472 62.2613 415.904 62.2546 416.345 62.2479C416.527 62.2479 416.709 62.24 416.896 62.24C416.936 62.24 416.976 62.24 417.017 62.2413C417.239 62.2573 417.464 62.2773 417.691 62.2933C418.143 62.328 418.6 62.3626 419.072 62.4053C419.527 62.4853 419.993 62.5666 420.469 62.6479C420.701 62.6879 420.937 62.7333 421.177 62.7746C421.409 62.8386 421.647 62.9106 421.876 62.9773C422.347 63.112 422.821 63.2506 423.303 63.388C423.767 63.5613 424.228 63.7639 424.697 63.9533C425.167 64.1453 425.636 64.3293 426.085 64.54C426.997 64.9627 427.924 65.3919 428.861 65.7813C430.731 66.5693 432.668 67.3 434.661 67.744C435.845 68.004 437.051 68.1573 438.247 68.1573C439.057 68.1573 439.864 68.088 440.657 67.932C442.623 67.588 444.536 66.9479 446.401 66.3586C448.264 65.7613 450.081 65.216 451.859 64.84C453.295 64.5293 454.711 64.3586 456.044 64.3586C456.352 64.3586 456.656 64.3679 456.955 64.3866C458.544 64.4693 459.968 64.8133 461.181 65.1933C462.411 65.5653 463.445 65.9679 464.295 66.3146C465.141 66.6613 465.788 66.9493 466.232 67.16C466.684 67.3613 466.92 67.472 466.92 67.472C466.92 67.472 466.669 67.3813 466.221 67.2067C465.756 67.0307 465.088 66.7866 464.228 66.4813C463.364 66.1839 462.317 65.8333 461.093 65.5253C459.872 65.2159 458.473 64.9519 456.929 64.9199C456.825 64.9186 456.72 64.9173 456.613 64.9173C455.168 64.9173 453.62 65.1386 452.015 65.5213C450.295 65.928 448.507 66.5253 446.656 67.14C444.8 67.7467 442.892 68.4546 440.811 68.824C439.955 68.9946 439.073 69.072 438.188 69.072" fill="#4B87CE"/>
<path d="M147.667 52.7946C140.389 54.06 136.047 62.088 136.047 74.2746V95.408V107.945C136.047 110.035 137.743 111.739 139.843 111.739C141.939 111.739 143.632 110.035 143.632 107.945V96.5293V74.2746C143.632 66.5746 145.829 60.8146 148.964 60.2693C150.224 60.0506 154.992 60.212 163.215 71.492C168.792 79.1506 174.657 90.3253 180.471 104.28C185.443 105.917 188.684 107.536 190.621 109.159C170.62 57.3973 155.268 51.4746 147.667 52.7946" fill="#51636C"/>
<path d="M218.453 138.195C216.899 138.195 215.44 137.228 214.881 135.681C206.992 113.649 198.748 96.4294 191.052 85.8627C182.828 74.584 178.061 74.4214 176.801 74.64C173.667 75.1867 171.472 80.9454 171.472 88.6467V122.316C171.472 124.412 169.775 126.108 167.673 126.108C165.579 126.108 163.881 124.412 163.881 122.316V88.6467C163.881 76.4654 168.227 68.4307 175.503 67.1693C183.549 65.7653 200.291 72.4787 222.025 133.119C222.732 135.089 221.704 137.26 219.732 137.969C219.305 138.121 218.876 138.195 218.453 138.195" fill="#5E727A"/>
<path d="M65.6458 98.7386C63.1702 98.7386 61.1614 97.8013 61.1614 96.644C61.1614 95.484 63.1702 94.544 65.6458 94.544C68.1275 94.544 70.1343 95.484 70.1343 96.644C70.1343 97.8013 68.1275 98.7386 65.6458 98.7386" fill="#C8E5D3"/>
<path d="M581.628 113.837C579.151 113.837 577.14 112.895 577.14 111.739C577.14 110.58 579.151 109.637 581.628 109.637C584.109 109.637 586.119 110.58 586.119 111.739C586.119 112.895 584.109 113.837 581.628 113.837Z" fill="#C8E5D3"/>
<path d="M157.877 128.227C156.64 128.227 155.641 127.759 155.641 127.184C155.641 126.608 156.64 126.137 157.877 126.137C159.108 126.137 160.112 126.608 160.112 127.184C160.112 127.759 159.108 128.227 157.877 128.227Z" fill="#D5EEE6"/>
<path d="M159.468 15.096C158.041 15.096 156.743 14.8013 155.763 14.3187C158.705 13.924 161.667 13.5427 164.624 13.176C163.819 14.2987 161.813 15.096 159.468 15.096Z" fill="#D5EEE6"/>
<path d="M201.783 11.0653C200.496 11.0653 199.461 10.4986 199.461 9.79864C199.461 9.67731 199.492 9.55996 199.551 9.44929C200.939 9.32263 202.307 9.20129 203.692 9.07996C203.951 9.28396 204.101 9.53197 204.101 9.79864C204.101 10.4986 203.061 11.0653 201.783 11.0653" fill="#C8E5D3"/>
<path d="M325.844 10.7866C324.22 10.7866 322.896 10.0679 322.896 9.18128C322.896 8.29462 324.22 7.57464 325.844 7.57464C327.469 7.57464 328.793 8.29462 328.793 9.18128C328.793 10.0679 327.469 10.7866 325.844 10.7866Z" fill="#C8E5D3"/>
<path d="M438.781 16.66C436.011 16.66 433.767 15.596 433.767 14.2827C433.767 12.9654 436.011 11.9014 438.781 11.9014C441.544 11.9014 443.789 12.9654 443.789 14.2827C443.789 15.596 441.544 16.66 438.781 16.66Z" fill="#C8E5D3"/>
<path d="M536.519 34.384C535.373 34.384 534.44 33.944 534.44 33.4027C534.44 32.856 535.373 32.42 536.519 32.42C537.659 32.42 538.589 32.856 538.589 33.4027C538.589 33.944 537.659 34.384 536.519 34.384Z" fill="#D5EEE6"/>
<path d="M359.539 9.18127C358.571 9.18127 357.781 8.74794 357.781 8.21728C357.781 7.69061 358.571 7.25595 359.539 7.25595C360.519 7.25595 361.3 7.69061 361.3 8.21728C361.3 8.74794 360.519 9.18127 359.539 9.18127Z" fill="#D5EEE6"/>
<path d="M495.624 177.111C494.089 177.111 492.843 176.199 492.843 175.075C492.843 173.955 494.089 173.04 495.624 173.04C497.153 173.04 498.399 173.955 498.399 175.075C498.399 176.199 497.153 177.111 495.624 177.111Z" fill="#D5EEE6"/>
<path d="M578.853 160.533C577.319 160.533 576.072 159.621 576.072 158.493C576.072 157.369 577.319 156.46 578.853 156.46C580.383 156.46 581.628 157.369 581.628 158.493C581.628 159.621 580.383 160.533 578.853 160.533Z" fill="#D5EEE6"/>
<path d="M547.027 175.319C543.684 175.319 540.98 173.723 540.98 171.755C540.98 169.787 543.684 168.193 547.027 168.193C550.369 168.193 553.079 169.787 553.079 171.755C553.079 173.723 550.369 175.319 547.027 175.319Z" fill="#C8E5D3"/>
<path d="M436.912 193.979C433.537 193.979 430.801 192.476 430.801 190.613C430.801 188.755 433.537 187.247 436.912 187.247C440.277 187.247 443.015 188.755 443.015 190.613C443.015 192.476 440.277 193.979 436.912 193.979Z" fill="#C8E5D3"/>
<path d="M297.513 173.088C296.015 173.088 294.801 172.344 294.801 171.424C294.801 170.5 296.015 169.755 297.513 169.755C299.005 169.755 300.221 170.5 300.221 171.424C300.221 172.344 299.005 173.088 297.513 173.088Z" fill="#C8E5D3"/>
</svg>
