<svg viewBox="0 0 461 232" fill="none" xmlns="http://www.w3.org/2000/svg">
<path d="M411.83 118.715C433.62 118.715 451.36 136.445 451.36 158.245V163.205H401.14V158.245C401.14 141.955 393.06 127.525 380.71 118.715H411.83Z" fill="#E4EAF0"/>
<path d="M165.29 9.845C174.2 14.455 182.14 20.665 188.73 28.105L256.48 61.695C252.65 48.445 245.03 36.465 234.46 27.315C221.44 16.055 204.78 9.845 187.53 9.845H165.29ZM9 206.205C9 215.195 16.31 222.515 25.3 222.515H331.8C340.79 222.515 348.11 215.195 348.11 206.205V118.715H322.75C316.46 118.715 311.35 123.825 311.35 130.115C311.35 160.795 286.39 185.755 255.7 185.755C225.02 185.755 200.06 160.795 200.06 130.115V81.585C200.06 42.025 167.88 9.845 128.32 9.845H80.74C41.18 9.845 9 42.025 9 81.585V206.205ZM209.06 130.115C209.06 144.085 215.24 156.635 225.01 165.185C234.89 151.045 240.1 134.505 240.1 117.065C240.1 114.205 239.95 111.365 239.67 108.595L209.06 93.425V130.115ZM255.7 176.755C263.59 176.755 271.01 174.785 277.53 171.315C266 160.825 259.28 145.855 259.28 130.115V118.315L249.01 113.225C249.06 114.505 249.1 115.785 249.1 117.065C249.1 136.415 243.31 154.755 232.32 170.445C239.2 174.455 247.19 176.755 255.7 176.755ZM199.48 43.475C205.58 54.835 209.06 67.815 209.06 81.585V83.375L302.37 129.635C302.63 118.605 311.66 109.715 322.75 109.715H333.06L199.48 43.475ZM401.14 158.245V163.205H451.36V158.245C451.36 136.445 433.62 118.715 411.83 118.715H380.71C393.06 127.525 401.14 141.955 401.14 158.245ZM460.36 158.245V172.205H416.33V206.205C416.33 220.165 404.97 231.515 391.02 231.515H331.8H25.3C11.35 231.515 0 220.165 0 206.205V81.585C0 37.065 36.22 0.845001 80.74 0.845001H128.32H187.53C206.94 0.845001 225.7 7.835 240.35 20.515C254.25 32.535 263.61 48.935 266.93 66.875L353.32 109.715H411.83C438.59 109.715 460.36 131.485 460.36 158.245ZM407.33 206.205V172.205H392.14V158.245C392.14 137.975 376.79 121.225 357.11 118.975V206.205C357.11 212.415 354.86 218.105 351.13 222.515H391.02C400.01 222.515 407.33 215.205 407.33 206.205ZM301.45 139.225L268.28 122.775V130.115C268.28 144.075 274.59 157.295 285.3 166.135C293.47 159.415 299.31 149.975 301.45 139.225Z" fill="black"/>
<path d="M357.11 118.975C376.79 121.225 392.14 137.975 392.14 158.245V172.205H407.33V206.205C407.33 215.205 400.01 222.515 391.02 222.515H351.13C354.86 218.105 357.11 212.415 357.11 206.205V118.975Z" fill="#C30808"/>
<path d="M333.06 109.715H322.75C311.66 109.715 302.63 118.605 302.37 129.635L209.06 83.375V81.585C209.06 67.815 205.58 54.835 199.48 43.475L333.06 109.715Z" fill="#E4EAF0"/>
<path d="M259.28 130.115C259.28 145.855 266 160.825 277.53 171.315C271.01 174.785 263.59 176.755 255.7 176.755C247.19 176.755 239.2 174.455 232.32 170.445C243.31 154.755 249.1 136.415 249.1 117.065C249.1 115.785 249.06 114.505 249.01 113.225L259.28 118.315V130.115Z" fill="#AC0F0F"/>
<path d="M65.56 116.185C65.56 138.705 83.88 157.025 106.4 157.025C128.92 157.025 147.24 138.705 147.24 116.185C147.24 93.665 128.92 75.345 106.4 75.345C83.88 75.345 65.56 93.665 65.56 116.185ZM255.7 185.755C286.39 185.755 311.35 160.795 311.35 130.115C311.35 123.825 316.46 118.715 322.75 118.715H348.11V206.205C348.11 215.195 340.79 222.515 331.8 222.515H25.3C16.31 222.515 9 215.195 9 206.205V81.585C9 42.025 41.18 9.845 80.74 9.845H128.32C167.88 9.845 200.06 42.025 200.06 81.585V130.115C200.06 160.795 225.02 185.755 255.7 185.755Z" fill="#C40808"/>
<path d="M234.46 27.315C245.03 36.465 252.65 48.445 256.48 61.695L188.73 28.105C182.14 20.665 174.2 14.455 165.29 9.845H187.53C204.78 9.845 221.44 16.055 234.46 27.315Z" fill="#AC0F0F"/>
<path d="M239.67 108.595C239.95 111.365 240.1 114.205 240.1 117.065C240.1 134.505 234.89 151.045 225.01 165.185C215.24 156.635 209.06 144.085 209.06 130.115V93.425L239.67 108.595Z" fill="#E4EAF0"/>
<path d="M74.56 116.185C74.56 133.735 88.84 148.025 106.4 148.025C123.95 148.025 138.24 133.735 138.24 116.185C138.24 98.625 123.95 84.345 106.4 84.345C88.84 84.345 74.56 98.625 74.56 116.185ZM106.4 75.345C128.92 75.345 147.24 93.665 147.24 116.185C147.24 138.705 128.92 157.025 106.4 157.025C83.88 157.025 65.56 138.705 65.56 116.185C65.56 93.665 83.88 75.345 106.4 75.345Z" fill="black"/>
<path d="M74.56 116.185C74.56 98.625 88.84 84.345 106.4 84.345C123.95 84.345 138.24 98.625 138.24 116.185C138.24 133.735 123.95 148.025 106.4 148.025C88.84 148.025 74.56 133.735 74.56 116.185Z" fill="#AC0F0F"/>
</svg>
