<svg width="461" height="232" viewBox="0 0 461 232" fill="none" xmlns="http://www.w3.org/2000/svg">
<path d="M391.779 118.264C411.185 118.264 426.985 134.098 426.985 153.566V157.996H382.258V153.566C382.258 139.018 375.062 126.132 364.063 118.264H391.779Z" fill="#E4EAF0"/>
<path d="M172.208 21.0375C180.144 25.1544 187.215 30.7003 193.084 37.3446L253.423 67.3421C250.012 55.5092 243.226 44.8105 233.812 36.6391C222.216 26.5833 207.379 21.0375 192.016 21.0375H172.208ZM33.0155 196.397C33.0155 204.425 39.5258 210.963 47.5324 210.963H320.504C328.51 210.963 335.029 204.425 335.029 196.397V118.264H312.444C306.842 118.264 302.291 122.827 302.291 128.445C302.291 155.843 280.061 178.134 252.728 178.134C225.404 178.134 203.175 155.843 203.175 128.445V85.1049C203.175 49.7758 174.515 21.0375 139.283 21.0375H96.9076C61.6752 21.0375 33.0155 49.7758 33.0155 85.1049V196.397ZM211.19 128.445C211.19 140.921 216.694 152.128 225.396 159.764C234.195 147.136 238.835 132.365 238.835 116.79C238.835 114.236 238.701 111.7 238.452 109.226L211.19 95.6786V128.445ZM252.728 170.097C259.755 170.097 266.363 168.337 272.17 165.238C261.902 155.87 255.917 142.501 255.917 128.445V117.907L246.77 113.361C246.815 114.504 246.85 115.647 246.85 116.79C246.85 134.071 241.694 150.449 231.906 164.461C238.033 168.043 245.149 170.097 252.728 170.097ZM202.658 51.0707C208.091 61.2158 211.19 72.8076 211.19 85.1049V86.7035L294.293 128.016C294.525 118.166 302.567 110.226 312.444 110.226H321.626L202.658 51.0707ZM382.258 153.566V157.996H426.985V153.566C426.985 134.098 411.185 118.264 391.779 118.264H364.063C375.062 126.132 382.258 139.018 382.258 153.566ZM435 153.566V166.033H395.787V196.397C395.787 208.864 385.669 219 373.245 219H320.504H47.5324C35.1084 219 25 208.864 25 196.397V85.1049C25 45.3463 57.2578 13 96.9076 13H139.283H192.016C209.302 13 226.01 19.2424 239.057 30.5663C251.437 41.3008 259.773 55.9468 262.73 71.9681L339.669 110.226H391.779C415.611 110.226 435 129.668 435 153.566ZM387.771 196.397V166.033H374.243V153.566C374.243 135.464 360.572 120.505 343.045 118.496V196.397C343.045 201.943 341.041 207.024 337.719 210.963H373.245C381.252 210.963 387.771 204.434 387.771 196.397ZM293.474 136.58L263.932 121.89V128.445C263.932 140.912 269.552 152.718 279.09 160.612C286.367 154.611 291.568 146.181 293.474 136.58Z" fill="black"/>
<path d="M343.045 118.496C360.572 120.505 374.243 135.464 374.243 153.566V166.033H387.771V196.397C387.771 204.434 381.252 210.963 373.245 210.963H337.719C341.041 207.024 343.045 201.943 343.045 196.397V118.496Z" fill="#C30808"/>
<path d="M321.626 110.226H312.444C302.567 110.226 294.524 118.166 294.293 128.016L211.19 86.7035V85.1049C211.19 72.8076 208.091 61.2158 202.658 51.0707L321.626 110.226Z" fill="#E4EAF0"/>
<path d="M255.917 128.445C255.917 142.501 261.902 155.87 272.17 165.238C266.364 168.337 259.755 170.097 252.728 170.097C245.149 170.097 238.033 168.043 231.906 164.461C241.694 150.449 246.85 134.071 246.85 116.79C246.85 115.647 246.815 114.504 246.77 113.361L255.917 117.907V128.445Z" fill="#AC0F0F"/>
<path d="M83.3882 116.004C83.3882 136.116 99.7041 152.477 119.761 152.477C139.817 152.477 156.133 136.116 156.133 116.004C156.133 95.893 139.817 79.5323 119.761 79.5323C99.7041 79.5323 83.3882 95.893 83.3882 116.004ZM252.728 178.134C280.061 178.134 302.291 155.843 302.291 128.445C302.291 122.827 306.842 118.264 312.444 118.264H335.029V196.397C335.029 204.425 328.51 210.963 320.503 210.963H47.5323C39.5258 210.963 33.0154 204.425 33.0154 196.397V85.1049C33.0154 49.7758 61.6752 21.0375 96.9076 21.0375H139.283C174.515 21.0375 203.175 49.7758 203.175 85.1049V128.445C203.175 155.843 225.404 178.134 252.728 178.134Z" fill="#C40808"/>
<path d="M233.812 36.6391C243.226 44.8105 250.012 55.5092 253.423 67.3422L193.084 37.3446C187.215 30.7003 180.144 25.1544 172.208 21.0375H192.016C207.379 21.0375 222.216 26.5833 233.812 36.6391Z" fill="#AC0F0F"/>
<path d="M238.452 109.226C238.701 111.7 238.835 114.236 238.835 116.79C238.835 132.365 234.195 147.136 225.396 159.764C216.694 152.128 211.19 140.921 211.19 128.445V95.6786L238.452 109.226Z" fill="#E4EAF0"/>
<path d="M91.4037 116.004C91.4037 131.678 104.122 144.439 119.761 144.439C135.391 144.439 148.118 131.678 148.118 116.004C148.118 100.323 135.391 87.5697 119.761 87.5697C104.122 87.5697 91.4037 100.323 91.4037 116.004ZM119.761 79.5323C139.817 79.5323 156.133 95.893 156.133 116.004C156.133 136.116 139.817 152.477 119.761 152.477C99.7041 152.477 83.3882 136.116 83.3882 116.004C83.3882 95.893 99.7041 79.5323 119.761 79.5323Z" fill="black"/>
<path d="M91.4037 116.004C91.4037 100.322 104.122 87.5697 119.761 87.5697C135.391 87.5697 148.118 100.322 148.118 116.004C148.118 131.677 135.391 144.439 119.761 144.439C104.122 144.439 91.4037 131.677 91.4037 116.004Z" fill="#AC0F0F"/>
</svg>
