<?xml version="1.0" encoding="iso-8859-1"?>
<!-- Generator: Adobe Illustrator 19.0.0, SVG Export Plug-In . SVG Version: 6.00 Build 0)  -->
<svg version="1.1" id="Layer_1" xmlns="http://www.w3.org/2000/svg" xmlns:xlink="http://www.w3.org/1999/xlink" x="0px" y="0px"
	 viewBox="0 0 512 512" style="enable-background:new 0 0 512 512;" xml:space="preserve">
<path style="fill:#308532;" d="M94.006,354.049c-14.103,0-25.578-11.475-25.578-25.578v-9.606
	c14.692-3.796,25.578-17.163,25.578-33.024c0-18.805-15.299-34.104-34.104-34.104c-6.209,0-12.031,1.676-17.052,4.588v-17.702
	c5.021,2.912,10.843,4.588,17.052,4.588c18.805,0,34.104-15.299,34.104-34.104s-15.299-34.104-34.104-34.104
	c-6.209,0-12.031,1.676-17.052,4.588v-38.692c0-4.708-3.818-8.526-8.526-8.526s-8.526,3.818-8.526,8.526v144.942
	c0,15.862,10.886,29.229,25.578,33.024v9.606c0,23.506,19.124,42.63,42.63,42.63c4.708,0,8.526-3.818,8.526-8.526
	C102.532,357.867,98.714,354.049,94.006,354.049z M59.902,192.055c9.402,0,17.052,7.65,17.052,17.052s-7.65,17.052-17.052,17.052
	s-17.052-7.65-17.052-17.052S50.499,192.055,59.902,192.055z M42.849,285.841c0-9.402,7.65-17.052,17.052-17.052
	s17.052,7.65,17.052,17.052c0,9.402-7.65,17.052-17.052,17.052S42.849,295.243,42.849,285.841z"/>
<g>
	<path style="fill:#A6DE64;" d="M435.046,13.008H76.954c-42.311,0-76.734,34.423-76.734,76.734L9,142.966
		c0.949,3.796,4.359,6.458,8.271,6.458h102.312c3.912,0,7.323-2.662,8.271-6.458l6.911-27.646h242.467l6.911,27.646
		c0.949,3.796,4.359,6.458,8.271,6.458h102.312c3.912,0,7.323-2.662,8.271-6.458l8.781-53.224
		C511.78,47.431,477.358,13.008,435.046,13.008z"/>
	<path style="fill:#A6DE64;" d="M435.046,13.008H76.954c-42.311,0-80.189,34.563-76.734,76.734C1.32,103.184,9,142.966,9,142.966
		c0.949,3.796,4.359,6.458,8.271,6.458h102.312c3.912,0,7.323-2.662,8.271-6.458l6.911-27.646h242.467l6.911,27.646
		c0.949,3.796,4.359,6.458,8.271,6.458h102.312c3.912,0,7.323-2.662,8.271-6.458c0,0,7.68-39.783,8.781-53.224
		C515.235,47.572,477.358,13.008,435.046,13.008z"/>
</g>
<path style="fill:#7DBB34;" d="M443.572,13.493c-2.801-0.311-5.643-0.485-8.526-0.485H76.954c-2.883,0-5.725,0.174-8.526,0.485
	c38.312,4.257,73.559,36.952,70.34,76.249c-0.456,5.571-2.043,15.665-3.745,25.578h241.954c-1.701-9.913-3.288-20.007-3.745-25.578
	C370.013,50.445,405.259,17.75,443.572,13.493z"/>
<g>
	<path style="fill:#60A333;" d="M9,142.966c0.949,3.796,4.359,6.458,8.271,6.458h102.312c3.912,0,7.323-2.662,8.271-6.458
		l1.893-10.061H7.107L9,142.966z"/>
	<path style="fill:#60A333;" d="M382.252,132.906l1.893,10.061c0.949,3.796,4.359,6.458,8.271,6.458h102.312
		c3.912,0,7.323-2.662,8.271-6.458l1.893-10.061C504.892,132.905,382.252,132.905,382.252,132.906z"/>
</g>
<path style="fill:#A6DE64;" d="M341.175,139.692l-8.526-59.682c-0.6-4.199-4.197-7.32-8.441-7.32h-31.973
	c-4.243,0-7.84,3.121-8.441,7.32l-8.526,59.682c-0.724,5.061,3.332,9.732,8.441,9.732h49.025
	C337.843,149.425,341.898,144.753,341.175,139.692z"/>
<g>
	<path style="fill:#7DBB34;" d="M290.187,139.692l8.526-59.682c0.6-4.199,4.197-7.32,8.441-7.32h-17.051
		c-4.243,0-7.84,3.121-8.441,7.32l-8.526,59.682c-0.724,5.061,3.332,9.732,8.441,9.732h17.051
		C293.52,149.425,289.464,144.753,290.187,139.692z"/>
</g>
<path style="fill:#A6DE64;" d="M238.863,139.692l-8.526-59.682c-0.6-4.199-4.197-7.32-8.441-7.32h-31.973
	c-4.243,0-7.84,3.121-8.441,7.32l-8.526,59.682c-0.724,5.061,3.332,9.732,8.441,9.732h49.025
	C235.531,149.425,239.586,144.753,238.863,139.692z"/>
<g>
	<path style="fill:#7DBB34;" d="M187.875,139.692l8.526-59.682c0.6-4.199,4.197-7.32,8.441-7.32h-17.05
		c-4.243,0-7.84,3.121-8.441,7.32l-8.526,59.682c-0.724,5.061,3.332,9.732,8.441,9.732h17.05
		C191.207,149.425,187.152,144.753,187.875,139.692z"/>
	<path style="fill:#7DBB34;" d="M417.994,379.627H94.006c-4.708,0-8.526,3.818-8.526,8.526v102.312c0,4.708,3.818,8.526,8.526,8.526
		h323.989c4.708,0,8.526-3.818,8.526-8.526V388.153C426.52,383.445,422.703,379.627,417.994,379.627z"/>
</g>
<path style="fill:#60A333;" d="M102.532,490.465V388.153c0-4.708,3.818-8.526,8.526-8.526H94.006c-4.708,0-8.526,3.818-8.526,8.526
	v102.312c0,4.708,3.818,8.526,8.526,8.526h17.052C106.349,498.991,102.532,495.174,102.532,490.465z"/>
<path style="fill:#A6DE64;" d="M426.281,386.153l-59.682-247.254c-0.924-3.828-4.349-6.526-8.287-6.526H153.688
	c-3.938,0-7.363,2.697-8.287,6.526L85.718,386.153c-0.613,2.541-0.028,5.221,1.589,7.275c1.617,2.053,4.085,3.252,6.698,3.252
	h323.989c2.613,0,5.083-1.199,6.698-3.252C426.31,391.374,426.894,388.693,426.281,386.153z"/>
<path style="fill:#7DBB34;" d="M170.74,132.373h-17.052c-3.938,0-7.363,2.697-8.287,6.526L85.718,386.153
	c-0.613,2.541-0.028,5.221,1.589,7.275c1.617,2.053,4.085,3.252,6.698,3.252h8.526l59.92-257.781
	C163.375,135.07,166.801,132.373,170.74,132.373z"/>
<path style="fill:#B169BF;" d="M208.574,157.418h-25.578c-4.415,0-7.993,3.578-7.993,7.993v25.578c0,4.415,3.578,7.993,7.993,7.993
	h25.578c4.415,0,7.993-3.578,7.993-7.993v-25.578C216.567,160.996,212.988,157.418,208.574,157.418z"/>
<path style="fill:#844A8F;" d="M182.996,186.726v-29.308c-4.415,0-7.993,3.578-7.993,7.993v25.578c0,4.415,3.578,7.993,7.993,7.993
	h25.578c4.415,0,7.993-3.578,7.993-7.993h-29.308C184.905,190.989,182.996,189.08,182.996,186.726z"/>
<path style="fill:#B169BF;" d="M268.789,157.418h-25.578c-4.415,0-7.993,3.578-7.993,7.993v25.578c0,4.415,3.578,7.993,7.993,7.993
	h25.578c4.415,0,7.993-3.578,7.993-7.993v-25.578C276.782,160.996,273.203,157.418,268.789,157.418z"/>
<path style="fill:#844A8F;" d="M243.211,186.726v-29.308c-4.415,0-7.993,3.578-7.993,7.993v25.578c0,4.415,3.578,7.993,7.993,7.993
	h25.578c4.415,0,7.993-3.578,7.993-7.993h-29.308C245.12,190.989,243.211,189.08,243.211,186.726z"/>
<path style="fill:#B169BF;" d="M329.004,157.418h-25.578c-4.415,0-7.993,3.578-7.993,7.993v25.578c0,4.415,3.578,7.993,7.993,7.993
	h25.578c4.415,0,7.993-3.578,7.993-7.993v-25.578C336.997,160.996,333.418,157.418,329.004,157.418z"/>
<path style="fill:#844A8F;" d="M303.426,186.726v-29.308c-4.415,0-7.993,3.578-7.993,7.993v25.578c0,4.415,3.578,7.993,7.993,7.993
	h25.578c4.415,0,7.993-3.578,7.993-7.993h-29.308C305.335,190.989,303.426,189.08,303.426,186.726z"/>
<path style="fill:#B169BF;" d="M208.574,217.633h-25.578c-4.415,0-7.993,3.578-7.993,7.993v25.578c0,4.415,3.578,7.993,7.993,7.993
	h25.578c4.415,0,7.993-3.578,7.993-7.993v-25.578C216.567,221.211,212.988,217.633,208.574,217.633z"/>
<path style="fill:#844A8F;" d="M182.996,246.941v-29.308c-4.415,0-7.993,3.578-7.993,7.993v25.578c0,4.415,3.578,7.993,7.993,7.993
	h25.578c4.415,0,7.993-3.578,7.993-7.993h-29.308C184.905,251.204,182.996,249.295,182.996,246.941z"/>
<path style="fill:#B169BF;" d="M268.789,217.633h-25.578c-4.415,0-7.993,3.578-7.993,7.993v25.578c0,4.415,3.578,7.993,7.993,7.993
	h25.578c4.415,0,7.993-3.578,7.993-7.993v-25.578C276.782,221.211,273.203,217.633,268.789,217.633z"/>
<path style="fill:#844A8F;" d="M243.211,246.941v-29.308c-4.415,0-7.993,3.578-7.993,7.993v25.578c0,4.415,3.578,7.993,7.993,7.993
	h25.578c4.415,0,7.993-3.578,7.993-7.993h-29.308C245.12,251.204,243.211,249.295,243.211,246.941z"/>
<path style="fill:#B169BF;" d="M329.004,217.633h-25.578c-4.415,0-7.993,3.578-7.993,7.993v25.578c0,4.415,3.578,7.993,7.993,7.993
	h25.578c4.415,0,7.993-3.578,7.993-7.993v-25.578C336.997,221.211,333.418,217.633,329.004,217.633z"/>
<path style="fill:#844A8F;" d="M303.426,246.941v-29.308c-4.415,0-7.993,3.578-7.993,7.993v25.578c0,4.415,3.578,7.993,7.993,7.993
	h25.578c4.415,0,7.993-3.578,7.993-7.993h-29.308C305.335,251.204,303.426,249.295,303.426,246.941z"/>
<path style="fill:#B169BF;" d="M208.574,277.848h-25.578c-4.415,0-7.993,3.578-7.993,7.993v25.578c0,4.415,3.578,7.993,7.993,7.993
	h25.578c4.415,0,7.993-3.578,7.993-7.993v-25.578C216.567,281.425,212.988,277.848,208.574,277.848z"/>
<path style="fill:#844A8F;" d="M182.996,307.156v-29.308c-4.415,0-7.993,3.578-7.993,7.993v25.578c0,4.415,3.578,7.993,7.993,7.993
	h25.578c4.415,0,7.993-3.578,7.993-7.993h-29.308C184.905,311.419,182.996,309.51,182.996,307.156z"/>
<path style="fill:#B169BF;" d="M268.789,277.848h-25.578c-4.415,0-7.993,3.578-7.993,7.993v25.578c0,4.415,3.578,7.993,7.993,7.993
	h25.578c4.415,0,7.993-3.578,7.993-7.993v-25.578C276.782,281.425,273.203,277.848,268.789,277.848z"/>
<path style="fill:#844A8F;" d="M243.211,307.156v-29.308c-4.415,0-7.993,3.578-7.993,7.993v25.578c0,4.415,3.578,7.993,7.993,7.993
	h25.578c4.415,0,7.993-3.578,7.993-7.993h-29.308C245.12,311.419,243.211,309.51,243.211,307.156z"/>
<path style="fill:#B169BF;" d="M329.004,277.848h-25.578c-4.415,0-7.993,3.578-7.993,7.993v25.578c0,4.415,3.578,7.993,7.993,7.993
	h25.578c4.415,0,7.993-3.578,7.993-7.993v-25.578C336.997,281.425,333.418,277.848,329.004,277.848z"/>
<path style="fill:#844A8F;" d="M303.426,307.156v-29.308c-4.415,0-7.993,3.578-7.993,7.993v25.578c0,4.415,3.578,7.993,7.993,7.993
	h25.578c4.415,0,7.993-3.578,7.993-7.993h-29.308C305.335,311.419,303.426,309.51,303.426,307.156z"/>
<path style="fill:#B169BF;" d="M208.574,338.063h-25.578c-4.415,0-7.993,3.578-7.993,7.993v25.578c0,4.415,3.578,7.993,7.993,7.993
	h25.578c4.415,0,7.993-3.578,7.993-7.993v-25.578C216.567,341.64,212.988,338.063,208.574,338.063z"/>
<path style="fill:#844A8F;" d="M182.996,367.371v-29.308c-4.415,0-7.993,3.578-7.993,7.993v25.578c0,4.415,3.578,7.993,7.993,7.993
	h25.578c4.415,0,7.993-3.578,7.993-7.993h-29.308C184.905,371.634,182.996,369.725,182.996,367.371z"/>
<path style="fill:#B169BF;" d="M268.789,338.063h-25.578c-4.415,0-7.993,3.578-7.993,7.993v25.578c0,4.415,3.578,7.993,7.993,7.993
	h25.578c4.415,0,7.993-3.578,7.993-7.993v-25.578C276.782,341.64,273.203,338.063,268.789,338.063z"/>
<path style="fill:#844A8F;" d="M243.211,367.371v-29.308c-4.415,0-7.993,3.578-7.993,7.993v25.578c0,4.415,3.578,7.993,7.993,7.993
	h25.578c4.415,0,7.993-3.578,7.993-7.993h-29.308C245.12,371.634,243.211,369.725,243.211,367.371z"/>
<path style="fill:#B169BF;" d="M329.004,338.063h-25.578c-4.415,0-7.993,3.578-7.993,7.993v25.578c0,4.415,3.578,7.993,7.993,7.993
	h25.578c4.415,0,7.993-3.578,7.993-7.993v-25.578C336.997,341.64,333.418,338.063,329.004,338.063z"/>
<path style="fill:#844A8F;" d="M303.426,367.371v-29.308c-4.415,0-7.993,3.578-7.993,7.993v25.578c0,4.415,3.578,7.993,7.993,7.993
	h25.578c4.415,0,7.993-3.578,7.993-7.993h-29.308C305.335,371.634,303.426,369.725,303.426,367.371z"/>
<path style="fill:#E9E9EA;" d="M358.312,413.731H153.688c-4.708,0-8.526,3.818-8.526,8.526v51.156c0,4.708,3.818,8.526,8.526,8.526
	h204.624c4.708,0,8.526-3.818,8.526-8.526v-51.156C366.838,417.549,363.021,413.731,358.312,413.731z"/>
<g>
	<path style="fill:#909296;" d="M187.792,455.828h-8.526c-4.415,0-7.993-3.578-7.993-7.993s3.578-7.993,7.993-7.993h8.526
		c4.415,0,7.993,3.578,7.993,7.993S192.206,455.828,187.792,455.828z"/>
	<path style="fill:#909296;" d="M221.896,455.828h-8.526c-4.415,0-7.993-3.578-7.993-7.993s3.578-7.993,7.993-7.993h8.526
		c4.415,0,7.993,3.578,7.993,7.993S226.31,455.828,221.896,455.828z"/>
	<path style="fill:#909296;" d="M260.263,455.828h-8.526c-4.415,0-7.993-3.578-7.993-7.993s3.578-7.993,7.993-7.993h8.526
		c4.415,0,7.993,3.578,7.993,7.993S264.677,455.828,260.263,455.828z"/>
	<path style="fill:#909296;" d="M298.63,455.828h-8.526c-4.415,0-7.993-3.578-7.993-7.993s3.578-7.993,7.993-7.993h8.526
		c4.415,0,7.993,3.578,7.993,7.993S303.044,455.828,298.63,455.828z"/>
	<path style="fill:#909296;" d="M332.734,455.828h-8.526c-4.415,0-7.993-3.578-7.993-7.993s3.578-7.993,7.993-7.993h8.526
		c4.415,0,7.993,3.578,7.993,7.993S337.148,455.828,332.734,455.828z"/>
</g>
<g>
</g>
<g>
</g>
<g>
</g>
<g>
</g>
<g>
</g>
<g>
</g>
<g>
</g>
<g>
</g>
<g>
</g>
<g>
</g>
<g>
</g>
<g>
</g>
<g>
</g>
<g>
</g>
<g>
</g>
</svg>
