<svg viewBox="0 0 1442 1045" fill="none" xmlns="http://www.w3.org/2000/svg">
<path d="M12.324 1044.31C18.2173 1044.31 23.348 1039.96 24.1613 1033.95L150.137 104.16C151.024 97.6137 146.436 91.587 139.889 90.6937C133.355 89.8003 127.317 94.4002 126.431 100.947L0.454617 1030.75C-0.43205 1037.28 4.15596 1043.31 10.7026 1044.2C11.2466 1044.28 11.788 1044.31 12.324 1044.31Z" fill="#233862"/>
<path d="M215.673 1044.31C221.568 1044.31 226.699 1039.96 227.512 1033.95L353.487 104.16C354.375 97.6137 349.787 91.587 343.24 90.6937C336.703 89.8003 330.667 94.4002 329.78 100.947L203.805 1030.75C202.917 1037.28 207.507 1043.31 214.053 1044.2C214.597 1044.28 215.139 1044.31 215.673 1044.31" fill="#233862"/>
<path d="M500.761 18.0271C552.72 35.6271 600.322 66.0137 642.245 108.334C692.438 159.014 734.396 227 766.956 310.414C843.017 505.267 913.033 657.08 1007.51 764.6C1107.44 878.334 1228 931.44 1386.85 931.667C1416.92 931.707 1442.11 956.214 1441.68 986.28C1441.27 1015.64 1417.32 1039.32 1387.85 1039.32C1288.29 1039.32 1201.61 1021.67 1122.85 985.347C1049.65 951.587 985.48 902.627 926.629 835.654C821.772 716.307 746.87 555.014 666.668 349.56C619.473 228.654 553.816 152.04 471.523 121.867C444.833 112.08 420.411 108.947 401.443 108.494C377.484 107.934 356.731 91.7603 350.511 68.6137C341.207 34.0003 367.663 -0.0529979 403.499 0.747002C430.697 1.347 464.141 5.62708 500.761 18.0271" fill="#283250"/>
<path d="M1378.29 1039.35C1378.29 1039.35 1371.12 977.747 1280.81 977.747C1190.49 977.747 955.587 913.627 812.512 586.027C639.06 188.867 587.625 13.0268 250.935 85.4402L450.088 327.654L665.389 754.667L918.368 975.36L1113.64 1039.28L1378.29 1039.35" fill="#4A75CB"/>
<path d="M237.601 18.0537C289.56 35.6537 337.164 66.0403 379.085 108.36C429.279 159.04 471.237 227.027 503.797 310.44C579.858 505.307 649.874 657.107 744.344 764.627C844.278 878.374 964.84 931.467 1123.69 931.694C1153.76 931.734 1178.95 956.24 1178.52 986.307C1178.11 1015.67 1154.16 1039.35 1124.69 1039.35C1025.13 1039.35 938.453 1021.69 859.694 985.374C786.5 951.627 722.316 902.667 663.47 835.694C558.612 716.347 483.712 555.054 403.509 349.587C356.313 228.68 290.656 152.067 208.363 121.894C181.673 112.107 157.251 108.974 138.283 108.534C114.324 107.974 93.5718 91.7869 87.3505 68.6403C78.0478 34.0269 104.503 -0.0130533 140.339 0.773613C167.537 1.37361 200.982 5.65369 237.601 18.0537" fill="#2B478B"/>
<path d="M23.256 966.52H226.197C232.804 966.52 238.16 961.16 238.16 954.56C238.16 947.947 232.804 942.6 226.197 942.6H23.256C16.6507 942.6 11.2947 947.947 11.2947 954.56C11.2947 961.16 16.6507 966.52 23.256 966.52Z" fill="#233862"/>
<path d="M43.5907 822.974H244.14C250.747 822.974 256.103 817.627 256.103 811.014C256.103 804.414 250.747 799.054 244.14 799.054H43.5907C36.9854 799.054 31.6294 804.414 31.6294 811.014C31.6294 817.627 36.9854 822.974 43.5907 822.974Z" fill="#233862"/>
<path d="M62.7307 679.44H264.476C271.081 679.44 276.437 674.08 276.437 667.48C276.437 660.867 271.081 655.52 264.476 655.52H62.7307C56.1241 655.52 50.7681 660.867 50.7681 667.48C50.7681 674.08 56.1241 679.44 62.7307 679.44Z" fill="#233862"/>
<path d="M81.8693 535.894H283.615C290.22 535.894 295.576 530.547 295.576 523.934C295.576 517.334 290.22 511.974 283.615 511.974H81.8693C75.2626 511.974 69.908 517.334 69.908 523.934C69.908 530.547 75.2626 535.894 81.8693 535.894Z" fill="#233862"/>
<path d="M102.204 392.36H302.753C309.36 392.36 314.715 387 314.715 380.387C314.715 373.787 309.36 368.427 302.753 368.427H102.204C95.5987 368.427 90.2427 373.787 90.2427 380.387C90.2427 387 95.5987 392.36 102.204 392.36Z" fill="#233862"/>
<path d="M123.736 248.813H321.892C328.499 248.813 333.855 243.454 333.855 236.854C333.855 230.24 328.499 224.893 321.892 224.893H123.736C117.129 224.893 111.773 230.24 111.773 236.854C111.773 243.454 117.129 248.813 123.736 248.813" fill="#233862"/>
</svg>
