<svg viewBox="0 0 101 100" fill="none" xmlns="http://www.w3.org/2000/svg">
<g clip-path="url(#clip0_3_294)">
<path fill-rule="evenodd" clip-rule="evenodd" d="M79.993 26H100.993L101 100H40.865V99.996L40.51 100C18.682 100 0.989014 94.27 0.989014 87.199L0.993014 13H79.993V26Z" fill="#FEBDF7"/>
<path d="M41 13H80V26H41V13Z" fill="#CC6DC2"/>
<path d="M40.5 26C62.3152 26 80 20.1797 80 13C80 5.8203 62.3152 0 40.5 0C18.6848 0 1 5.8203 1 13C1 20.1797 18.6848 26 40.5 26Z" fill="#D680CC"/>
<path opacity="0.2" d="M41.334 17.312C50.1705 17.312 57.334 15.2973 57.334 12.812C57.334 10.3267 50.1705 8.31201 41.334 8.31201C32.4974 8.31201 25.334 10.3267 25.334 12.812C25.334 15.2973 32.4974 17.312 41.334 17.312Z" fill="black"/>
<path fill-rule="evenodd" clip-rule="evenodd" d="M41.668 93C41.1376 93 40.6289 93.2107 40.2538 93.5858C39.8787 93.9609 39.668 94.4696 39.668 95C39.668 95.5304 39.8787 96.0391 40.2538 96.4142C40.6289 96.7893 41.1376 97 41.668 97C42.1984 97 42.7071 96.7893 43.0822 96.4142C43.4573 96.0391 43.668 95.5304 43.668 95C43.668 94.4696 43.4573 93.9609 43.0822 93.5858C42.7071 93.2107 42.1984 93 41.668 93ZM41.668 85C41.1376 85 40.6289 85.2107 40.2538 85.5858C39.8787 85.9609 39.668 86.4696 39.668 87C39.668 87.5304 39.8787 88.0391 40.2538 88.4142C40.6289 88.7893 41.1376 89 41.668 89C42.1984 89 42.7071 88.7893 43.0822 88.4142C43.4573 88.0391 43.668 87.5304 43.668 87C43.668 86.4696 43.4573 85.9609 43.0822 85.5858C42.7071 85.2107 42.1984 85 41.668 85ZM41.668 77C41.1376 77 40.6289 77.2107 40.2538 77.5858C39.8787 77.9609 39.668 78.4696 39.668 79C39.668 79.5304 39.8787 80.0391 40.2538 80.4142C40.6289 80.7893 41.1376 81 41.668 81C42.1984 81 42.7071 80.7893 43.0822 80.4142C43.4573 80.0391 43.668 79.5304 43.668 79C43.668 78.4696 43.4573 77.9609 43.0822 77.5858C42.7071 77.2107 42.1984 77 41.668 77ZM41.668 69C41.1376 69 40.6289 69.2107 40.2538 69.5858C39.8787 69.9609 39.668 70.4696 39.668 71C39.668 71.5304 39.8787 72.0391 40.2538 72.4142C40.6289 72.7893 41.1376 73 41.668 73C42.1984 73 42.7071 72.7893 43.0822 72.4142C43.4573 72.0391 43.668 71.5304 43.668 71C43.668 70.4696 43.4573 69.9609 43.0822 69.5858C42.7071 69.2107 42.1984 69 41.668 69ZM41.668 53C41.1376 53 40.6289 53.2107 40.2538 53.5858C39.8787 53.9609 39.668 54.4696 39.668 55C39.668 55.5304 39.8787 56.0391 40.2538 56.4142C40.6289 56.7893 41.1376 57 41.668 57C42.1984 57 42.7071 56.7893 43.0822 56.4142C43.4573 56.0391 43.668 55.5304 43.668 55C43.668 54.4696 43.4573 53.9609 43.0822 53.5858C42.7071 53.2107 42.1984 53 41.668 53ZM41.668 45C41.1376 45 40.6289 45.2107 40.2538 45.5858C39.8787 45.9609 39.668 46.4696 39.668 47C39.668 47.5304 39.8787 48.0391 40.2538 48.4142C40.6289 48.7893 41.1376 49 41.668 49C42.1984 49 42.7071 48.7893 43.0822 48.4142C43.4573 48.0391 43.668 47.5304 43.668 47C43.668 46.4696 43.4573 45.9609 43.0822 45.5858C42.7071 45.2107 42.1984 45 41.668 45ZM41.668 33C41.9358 33.0085 42.2026 32.963 42.4526 32.8664C42.7025 32.7698 42.9305 32.6239 43.1229 32.4374C43.3154 32.2509 43.4684 32.0277 43.5729 31.781C43.6774 31.5342 43.7312 31.269 43.7312 31.001C43.7312 30.733 43.6774 30.4678 43.5729 30.2211C43.4684 29.9743 43.3154 29.7511 43.1229 29.5646C42.9305 29.3781 42.7025 29.2323 42.4526 29.1356C42.2026 29.039 41.9358 28.9935 41.668 29.002C41.1488 29.0184 40.6563 29.2362 40.2948 29.6093C39.9334 29.9824 39.7312 30.4815 39.7312 31.001C39.7312 31.5205 39.9334 32.0196 40.2948 32.3927C40.6563 32.7658 41.1488 32.9836 41.668 33V33ZM41.668 37C41.1376 37 40.6289 37.2107 40.2538 37.5858C39.8787 37.9609 39.668 38.4696 39.668 39C39.668 39.5304 39.8787 40.0391 40.2538 40.4142C40.6289 40.7893 41.1376 41 41.668 41C42.1984 41 42.7071 40.7893 43.0822 40.4142C43.4573 40.0391 43.668 39.5304 43.668 39C43.668 38.4696 43.4573 37.9609 43.0822 37.5858C42.7071 37.2107 42.1984 37 41.668 37ZM41.668 61C41.1376 61 40.6289 61.2107 40.2538 61.5858C39.8787 61.9609 39.668 62.4696 39.668 63C39.668 63.5304 39.8787 64.0391 40.2538 64.4142C40.6289 64.7893 41.1376 65 41.668 65C42.1984 65 42.7071 64.7893 43.0822 64.4142C43.4573 64.0391 43.668 63.5304 43.668 63C43.668 62.4696 43.4573 61.9609 43.0822 61.5858C42.7071 61.2107 42.1984 61 41.668 61Z" fill="#FF88F2"/>
</g>
<defs>
<clipPath id="clip0_3_294">
<rect width="101" height="100" fill="white"/>
</clipPath>
</defs>
</svg>
