<svg viewBox="0 0 514 514" fill="none" xmlns="http://www.w3.org/2000/svg">
<g clip-path="url(#clip0_3_30)">
<path d="M149.224 475.874L148.958 162.33L365.615 162.146L365.882 475.69L149.224 475.874Z" fill="#63D3B6"/>
<path d="M200.97 107.677L218.538 9.61453L295.776 9.54896L313.51 107.582L200.97 107.677Z" fill="#AFDDF9"/>
<path d="M272.665 107.617L264.056 9.57589L295.776 9.54896L313.51 107.582L272.665 107.617Z" fill="#8FC6E0"/>
<path d="M149.25 504.059L365.909 503.875L365.87 458.075L149.211 458.259L149.25 504.059Z" fill="#B3B3B3"/>
<path d="M341.247 503.896L365.909 503.875L365.87 458.075L341.208 458.096L341.247 503.896Z" fill="#999999"/>
<path opacity="0.2" d="M188.978 504.025L213.64 504.004L213.601 458.204L188.939 458.225L188.978 504.025Z" fill="white"/>
<path d="M148.958 162.33L200.97 107.677L313.51 107.582L365.615 162.146L148.958 162.33Z" fill="#CCCCCC"/>
<path d="M272.665 107.617L293.394 162.207L365.615 162.146L313.51 107.582L272.665 107.617Z" fill="#B3B3B3"/>
<path opacity="0.3" d="M234.305 107.649L213.67 162.275L188.685 162.296L210.297 107.67L234.305 107.649Z" fill="white"/>
<path d="M341.203 458.096L340.951 162.168L365.614 162.147L365.866 458.075L341.203 458.096Z" fill="#57BC9F"/>
<path d="M326.811 285.431C326.799 294.227 324.722 302.433 321.131 309.393C312.737 325.694 307.3 343.338 304.34 361.442C304.293 361.736 304.245 362.041 304.198 362.335C302.067 375.191 284.309 376.636 280.074 364.311C274.202 347.264 266.435 332.081 257.369 332.069C248.303 332.057 240.486 347.22 234.58 364.252C230.301 376.566 212.558 375.075 210.462 362.213C210.415 361.919 210.357 361.614 210.31 361.321C207.398 343.208 202.019 325.551 193.655 309.228C190.082 302.259 188.038 294.048 188.049 285.252C188.082 260.074 205.007 239.697 225.864 239.724C229.845 239.729 233.661 240.474 237.252 241.841C250.211 246.814 264.75 246.832 277.709 241.893C281.305 240.536 285.134 239.801 289.103 239.806C309.96 239.831 326.844 260.252 326.811 285.431Z" fill="#E6E6E6"/>
<path opacity="0.2" d="M188.936 458.225L188.685 162.297L213.348 162.276L213.599 458.204L188.936 458.225Z" fill="white"/>
<path d="M185.58 314.732C193.424 329.397 199.031 345.946 202.245 363.903L202.419 364.829C204.19 374.602 212.009 381.625 221.875 382.304C222.516 382.348 223.151 382.364 223.782 382.354C232.878 382.205 240.703 376.469 243.608 367.61C251.011 344.978 256.768 341.521 257.599 341.13C258.441 341.494 264.295 344.765 272.446 367.138C275.849 376.5 284.772 382.116 294.635 381.116C304.481 380.118 312.072 372.843 313.529 362.978L313.653 362.1C316.276 344.06 321.342 327.334 328.705 312.395C332.9 303.899 335.033 294.181 334.872 284.293C334.382 254.308 313.093 230.257 287.415 230.676C282.466 230.757 277.597 231.736 272.922 233.596C262.142 237.923 249.69 238.127 238.739 234.145C234.031 232.448 229.133 231.628 224.184 231.708C198.512 232.128 178.024 256.861 178.514 286.846C178.675 296.751 181.119 306.393 185.58 314.732ZM224.47 249.323C227.279 249.277 230.069 249.746 232.74 250.709C247.912 256.227 264.513 255.955 279.458 249.954C282.119 248.896 284.892 248.335 287.702 248.29C303.669 248.029 316.927 264.309 317.258 284.581C317.374 291.68 315.871 298.6 312.909 304.602C304.726 321.204 299.112 339.696 296.219 359.582L296.098 360.441C295.73 362.933 293.911 363.484 292.861 363.591C291.799 363.698 289.876 363.52 289.002 361.114C279.577 335.243 269.508 323.287 257.313 323.486C245.101 323.685 235.426 335.967 226.868 362.129C226.071 364.565 224.155 364.806 223.086 364.731C222.034 364.658 220.203 364.166 219.761 361.725L219.591 360.819C216.048 341.021 209.834 322.722 201.115 306.423C197.969 300.545 196.246 293.676 196.13 286.561C195.795 266.287 208.51 249.584 224.47 249.323Z" fill="black"/>
<path d="M148.887 513.092L365.546 512.908C370.41 512.904 374.351 508.956 374.347 504.092L374.057 162.364L374.041 162.364C374.038 160.144 373.213 157.957 371.619 156.289L321.339 103.637L304.076 8.20694C303.317 4.01259 299.664 0.963679 295.402 0.967297L218.164 1.03287C213.902 1.03649 210.253 4.0916 209.502 8.28724L203.661 40.8882C202.804 45.6769 205.99 50.2532 210.778 51.1112C215.569 51.9751 220.144 48.7822 221.001 43.9945L225.544 18.6426L288.054 18.5895L302.602 99.0092L211.133 99.0869L214.281 81.5142C215.139 76.7255 211.952 72.1492 207.164 71.2912C206.637 71.1967 206.112 71.1511 205.594 71.1516C201.413 71.1551 197.705 74.1473 196.941 78.4079L192.403 103.747L142.213 156.483C140.622 158.156 139.8 160.343 139.801 162.562L139.785 162.562L140.075 504.291C140.076 509.155 144.023 513.096 148.887 513.092ZM157.68 495.469L157.656 467.284L302.819 467.161C307.683 467.157 311.624 463.21 311.62 458.346C311.616 453.482 307.668 449.541 302.804 449.545L157.642 449.668L157.405 171.356L356.448 171.187L356.684 449.499L332.164 449.52C327.3 449.524 323.36 453.472 323.364 458.336C323.368 463.2 327.315 467.14 332.179 467.136L356.699 467.115L356.723 495.3L157.68 495.469ZM204.383 116.708L309.378 116.618L344.675 153.582L169.148 153.731L204.383 116.708Z" fill="black"/>
</g>
<defs>
<clipPath id="clip0_3_30">
<rect width="512" height="512" fill="white" transform="translate(513.217 512.783) rotate(179.951)"/>
</clipPath>
</defs>
</svg>
