<?xml version="1.0" encoding="iso-8859-1"?>
<!-- Generator: Adobe Illustrator 19.0.0, SVG Export Plug-In . SVG Version: 6.00 Build 0)  -->
<svg version="1.1" id="Layer_1" xmlns="http://www.w3.org/2000/svg" xmlns:xlink="http://www.w3.org/1999/xlink" x="0px" y="0px"
	 viewBox="0 0 512 512" style="enable-background:new 0 0 512 512;" xml:space="preserve">
<path style="fill:#A13838;" d="M399.17,344.456c12.494,0,22.621,10.13,22.621,22.623c0,12.491-10.127,22.621-22.621,22.621H30.751
	c-12.494,0-22.621-10.13-22.621-22.621c0-12.493,10.127-22.623,22.621-22.623H399.17z"/>
<path style="fill:#FF5959;" d="M281.687,341.545c-13.296,0-24.078,10.779-24.078,24.079c0,13.296,10.781,24.078,24.078,24.078
	h198.104c13.297,0,24.079-10.781,24.079-24.078c0-13.299-10.781-24.079-24.079-24.079H281.687z"/>
<path style="fill:#E4E4E4;" d="M278.231,248.084l13.531-13.536c3.454-3.45,9.101-3.45,12.554,0l7.256,7.26
	c3.454,3.451,9.102,3.451,12.555,0l7.256-7.26c3.453-3.45,9.102-3.45,12.554,0l7.256,7.26c3.453,3.451,9.1,3.451,12.555,0
	l7.253-7.26c3.454-3.45,9.103-3.45,12.555,0l7.256,7.26c3.453,3.451,9.101,3.451,12.554,0l7.257-7.26
	c3.453-3.45,9.102-3.45,12.55,0.003l7.259,7.253c3.45,3.456,9.1,3.456,12.552,0.003l7.256-7.26c3.451-3.45,9.101-3.45,12.554,0
	l13.534,13.536v93.461H278.231V248.084z"/>
<path style="fill:#6FD1E6;" d="M475.726,122.301c0.003,0.003,0.003,0.008,0.01,0.009l0,0L475.726,122.301z M475.736,122.309
	c-2.793,20.548-19.913,36.821-41.367,37.835c-35.503,1.681-96.667-18.043-129.394-16.495c-20.565,0.973-36.446,18.43-35.475,38.996
	c0.771,16.284,11.878,29.62,26.674,33.992c18.968,7.347,163.022,18.339,185.892-25.939l0.01,0.007
	c6.489-9.306,10.065-20.748,9.488-32.957C490.903,143.81,484.946,131.382,475.736,122.309z"/>
<g>
	<circle style="fill:#99DAEA;" cx="302.694" cy="163.575" r="5.76"/>
	<circle style="fill:#99DAEA;" cx="355.116" cy="161.103" r="5.759"/>
</g>
<g>
	<circle style="fill:#61B8CC;" cx="386.519" cy="174.805" r="5.76"/>
	<path style="fill:#61B8CC;" d="M303.961,190.24c-0.15-3.176-2.847-5.63-6.027-5.482c-3.176,0.151-5.631,2.851-5.482,6.025
		c0.151,3.18,2.85,5.631,6.027,5.482C301.659,196.114,304.112,193.418,303.961,190.24z"/>
	<circle style="fill:#61B8CC;" cx="332.395" cy="177.363" r="5.76"/>
	<path style="fill:#61B8CC;" d="M476.794,182.062c-0.152-3.176-2.847-5.63-6.027-5.481c-3.177,0.15-5.631,2.849-5.481,6.025
		c0.151,3.18,2.848,5.63,6.025,5.482C474.492,187.936,476.943,185.243,476.794,182.062z"/>
</g>
<g>
	<circle style="fill:#99DAEA;" cx="452.99" cy="171.661" r="5.759"/>
	<path style="fill:#99DAEA;" d="M481.011,149.378c-0.151-3.178-2.847-5.632-6.025-5.482c-3.176,0.151-5.631,2.848-5.482,6.028
		c0.152,3.175,2.85,5.628,6.026,5.479C478.707,155.251,481.161,152.553,481.011,149.378z"/>
</g>
<path style="fill:#1E252B;" d="M484.462,333.757v-85.673c0-2.156-0.856-4.223-2.38-5.748l-13.536-13.538
	c-6.632-6.628-17.419-6.624-24.052,0.003l-7.255,7.257c-0.274,0.274-0.767,0.284-1.057-0.005l-7.253-7.248
	c-0.61-0.611-1.272-1.153-1.956-1.659c4.245-0.73,8.45-1.562,12.546-2.534c25.486-6.049,42.121-16.006,49.461-29.601
	c7.643-11.115,11.343-24.124,10.703-37.65c-0.733-15.471-7.212-29.977-18.243-40.845c-0.115-0.113-0.233-0.223-0.353-0.328
	c-3.29-2.888-8.278-2.651-11.281,0.539c-1.299,1.38-2.024,3.097-2.179,4.855c-2.468,16.857-16.559,29.633-33.644,30.441
	c-1.298,0.062-2.677,0.092-4.102,0.092c-16.837,0.001-39.386-4.286-61.192-8.432c-22.313-4.243-43.388-8.25-59.883-8.25
	c-1.455,0-2.873,0.033-4.217,0.096c-25.008,1.184-44.393,22.492-43.21,47.499c0.907,19.189,13.83,35.752,32.192,41.315
	c0.05,0.018,0.107,0.036,0.158,0.055c-2.827,0.736-5.505,2.191-7.717,4.401l-13.531,13.536c-1.524,1.524-2.38,3.592-2.38,5.748
	v87.496c-0.599,0.232-1.189,0.481-1.77,0.747H30.751C13.795,336.326,0,350.122,0,367.08c0,16.957,13.795,30.751,30.751,30.751
	h449.041c17.76,0,32.209-14.449,32.209-32.208C512,349.45,500.015,336.027,484.462,333.757z M436.709,252.526h0.003
	c4.548,0,8.819-1.765,12.026-4.971l7.253-7.256c0.278-0.276,0.783-0.275,1.058-0.002l11.153,11.155v81.963h-41.995v-84.528
	C429.187,251.238,432.844,252.526,436.709,252.526z M277.62,182.262c-0.758-16.053,11.684-29.731,27.738-30.492
	c1.088-0.051,2.247-0.077,3.448-0.077c14.963,0,35.307,3.868,56.846,7.964c22.547,4.287,45.862,8.721,64.231,8.72
	c1.679,0,3.317-0.037,4.869-0.112c19.101-0.903,35.632-12.094,43.897-28.364c2.838,5.615,4.489,11.81,4.793,18.231
	c0.468,9.913-2.232,19.446-7.81,27.595c-0.298,0.385-0.564,0.8-0.789,1.24c-9.174,17.759-49.072,28.362-106.728,28.362
	c-35.164,0-63.194-4.022-69.005-6.272c-0.207-0.081-0.419-0.153-0.633-0.216C286.589,205.327,278.207,194.645,277.62,182.262z
	 M409.117,247.556l0.83-0.83v86.689h-23.739v-84.826C392.882,254.16,402.854,253.819,409.117,247.556z M391.473,230.967
	c3.933-0.214,7.977-0.494,12.09-0.853l-5.944,5.945c-0.275,0.277-0.779,0.275-1.055,0.002L391.473,230.967z M369.501,247.554
	l0.447-0.447v86.307h-23.738v-85.169C352.88,254.158,363.11,253.941,369.501,247.554z M352.195,231.308
	c3.429,0.116,6.876,0.201,10.309,0.244l-4.5,4.504c-0.279,0.279-0.785,0.279-1.059,0.004L352.195,231.308z M324.84,229.595
	l-6.462,6.464c-0.275,0.277-0.78,0.275-1.056,0.002l-7.259-7.263c-0.392-0.392-0.801-0.758-1.222-1.105
	C313.576,228.406,318.99,229.048,324.84,229.595z M286.36,251.451l11.147-11.15c0.276-0.277,0.783-0.279,1.059-0.005l7.258,7.262
	c6.633,6.631,17.422,6.631,24.053-0.002l0.07-0.07v85.93h-43.588v-81.964H286.36z M30.751,381.571
	c-7.99,0-14.491-6.501-14.491-14.491c0-7.991,6.501-14.493,14.491-14.493h221.495c-1.772,3.989-2.766,8.398-2.766,13.036
	c0,5.799,1.549,11.242,4.244,15.948H30.751z M479.791,381.571H281.687c-8.793,0-15.948-7.154-15.948-15.948
	c0-8.793,7.154-15.949,15.948-15.949h198.104c8.793,0,15.949,7.154,15.949,15.949C495.74,374.417,488.586,381.571,479.791,381.571z"
	/>
<g>
</g>
<g>
</g>
<g>
</g>
<g>
</g>
<g>
</g>
<g>
</g>
<g>
</g>
<g>
</g>
<g>
</g>
<g>
</g>
<g>
</g>
<g>
</g>
<g>
</g>
<g>
</g>
<g>
</g>
</svg>
