<?xml version="1.0" encoding="iso-8859-1"?>
<!-- Generator: Adobe Illustrator 19.0.0, SVG Export Plug-In . SVG Version: 6.00 Build 0)  -->
<svg version="1.1" id="Layer_1" xmlns="http://www.w3.org/2000/svg" xmlns:xlink="http://www.w3.org/1999/xlink" x="0px" y="0px"
	 viewBox="0 0 512 512" style="enable-background:new 0 0 512 512;" xml:space="preserve">
<g>
	<path style="fill:#707487;" d="M238.345,459.034l7.377,44.262c0.838,5.023,5.183,8.704,10.275,8.704h0.007
		c5.092,0,9.438-3.681,10.275-8.704l7.377-44.262H238.345z"/>
	<rect x="247.172" y="115.862" style="fill:#707487;" width="17.655" height="94.908"/>
</g>
<path style="fill:#A0EB64;" d="M281.379,264.828l-6.758-54.06c-0.552-4.417-4.308-7.733-8.759-7.733h-19.724
	c-4.452,0-8.207,3.315-8.759,7.733l-6.759,54.06H281.379z"/>
<path style="fill:#87D25A;" d="M264.897,203.034h-18.759c-4.452,0-8.207,3.315-8.759,7.733l-6.759,54.06h18.759l6.758-54.06
	C256.69,206.349,260.445,203.034,264.897,203.034z"/>
<path style="fill:#00BEA5;" d="M256,467.862c80.764,0,150.674-43.054,185.379-105.931H70.621
	C105.326,424.808,175.236,467.862,256,467.862z"/>
<path style="fill:#00AA9A;" d="M304.36,462.472c-59.719-13.318-109.475-50.639-137.02-100.541H70.621
	c28.196,51.083,79.629,89.083,141.241,101.54v4.391c0,4.875,3.953,8.828,8.828,8.828h70.621c4.875,0,8.828-3.953,8.828-8.828v-4.564
	C301.542,463.012,302.966,462.782,304.36,462.472z"/>
<path style="fill:#A0EB64;" d="M256,256c80.764,0,150.674,43.054,185.379,105.931H70.621C105.326,299.054,175.236,256,256,256z"/>
<path style="fill:#87D25A;" d="M167.34,361.931H70.621C105.326,299.054,175.236,256,256,256c16.666,0,32.832,1.928,48.36,5.39
	C244.641,274.708,194.884,312.03,167.34,361.931z"/>
<rect x="247.172" y="115.862" style="fill:#5B5D6E;" width="17.655" height="25.379"/>
<path style="fill:#009D93;" d="M441.379,370.759H70.621c-4.875,0-8.828-3.953-8.828-8.828l0,0c0-4.875,3.953-8.828,8.828-8.828
	h370.759c4.875,0,8.828,3.953,8.828,8.828l0,0C450.207,366.806,446.254,370.759,441.379,370.759z"/>
<path style="fill:#00AA9A;" d="M441.379,370.759H167.724c-4.875,0-8.828-3.953-8.828-8.828l0,0c0-4.875,3.953-8.828,8.828-8.828
	h273.655c4.875,0,8.828,3.953,8.828,8.828l0,0C450.207,366.806,446.254,370.759,441.379,370.759z"/>
<path style="fill:#FFD558;" d="M265.436,123.586h-18.871c-4.631,0-8.476-3.58-8.806-8.199l-6.891-96.474
	C230.138,8.693,238.232,0,248.479,0h15.043c10.246,0,18.34,8.693,17.61,18.913l-6.891,96.474
	C273.911,120.007,270.067,123.586,265.436,123.586z"/>
<path style="fill:#FFC34B;" d="M256.719,115.388l-6.891-96.474c-0.682-9.549,6.369-17.668,15.651-18.707
	C264.828,0.134,264.194,0,263.521,0h-15.043c-10.247,0-18.34,8.693-17.61,18.913l6.891,96.474c0.33,4.62,4.174,8.199,8.804,8.199
	h18.872c0.015,0,0.029-0.009,0.044-0.009C260.87,123.553,257.048,119.991,256.719,115.388z"/>
<g>
</g>
<g>
</g>
<g>
</g>
<g>
</g>
<g>
</g>
<g>
</g>
<g>
</g>
<g>
</g>
<g>
</g>
<g>
</g>
<g>
</g>
<g>
</g>
<g>
</g>
<g>
</g>
<g>
</g>
</svg>
