<?xml version="1.0" encoding="iso-8859-1"?>
<!-- Generator: Adobe Illustrator 19.0.0, SVG Export Plug-In . SVG Version: 6.00 Build 0)  -->
<svg version="1.1" id="Layer_1" xmlns="http://www.w3.org/2000/svg" xmlns:xlink="http://www.w3.org/1999/xlink" x="0px" y="0px"
	 viewBox="0 0 512 512" style="enable-background:new 0 0 512 512;" xml:space="preserve">
<path style="fill:#515151;" d="M348,384V208c5.2,0,14,12.8,22,28s14.4,33.2,15.2,42.8v16.8C385.2,337.2,358.4,384,348,384z"/>
<path style="fill:#C4EFF2;" d="M381.2,279.2c-0.8-10-7.6-27.6-15.2-42.8c-7.6-15.2-16.8-28-22-28v176c20.8,0,37.2-46.8,37.2-88
	V279.2z M128.8,296c0-70.8,57.2-128,128-128s128,57.6,128,128s-57.6,128-128,128S128.8,366.8,128.8,296z"/>
<path style="fill:#58595B;" d="M345.2,28c11.2,0,20,8.8,20,20s-8.8,20-20,20s-20-8.8-20-20C325.2,37.2,334.4,28,345.2,28z"/>
<path style="fill:#EAAA0A;" d="M296,36c4.4,0,8,3.6,8,8v8c0,4.4-3.6,8-8,8h-16V36H296z"/>
<rect x="248" y="36" style="fill:#5FF2C8;" width="32" height="24"/>
<path style="fill:#97A0AF;" d="M128.8,296c0,70.8,57.2,128,128,128s128-57.2,128-128s-57.2-128-128-128S128.8,225.6,128.8,296z
	 M256.8,140c86.4,0,156.4,70,156.4,156.4s-70,156.4-156.4,156.4s-156.4-70-156.4-156.4C100.8,210,170.4,140,256.8,140z"/>
<path style="fill:#F23B3B;" d="M248,36v24h-16c-4.4,0-8-3.6-8-8v-8c0-4.4,3.6-8,8-8H248z"/>
<path style="fill:#E6E7E8;" d="M325.2,48c0,11.2,8.8,20,20,20s20-8.8,20-20s-8.8-20-20-20C334.4,28,325.2,37.2,325.2,48z M401.2,68
	c11.2,0,20-8.8,20-20s-8.8-20-20-20s-20,8.8-20,20S390,68,401.2,68z M200,88V4h239.6C456,4,468,17.6,468,33.6V88v420H44V88H200z
	 M100.8,296c0,86.4,70,156.4,156.4,156.4s156.4-70,156.4-156.4s-70-156.4-156.4-156.4S100.8,210,100.8,296z M224,52c0,4.4,3.6,8,8,8
	h16h32h16c4.4,0,8-3.6,8-8v-8c0-4.4-3.6-8-8-8h-16h-32h-16c-4.4,0-8,3.6-8,8V52z"/>
<path style="fill:#58595B;" d="M401.2,28c11.2,0,20,8.8,20,20s-8.8,20-20,20s-20-8.8-20-20C381.2,37.2,390,28,401.2,28z"/>
<path style="fill:#CDCFD3;" d="M200,4v84H44V33.6C44,17.2,58.4,4,74.8,4H200z"/>
<path d="M468,512H44c-2.4,0-4-1.6-4-4V33.6C40,15.2,56,0,74.8,0h364.8c18,0,32.4,14.8,32.4,33.6V508C472,510.4,470.4,512,468,512z
	 M48,504h416V33.6C464,19.2,453.2,8,439.6,8H74.8C60.4,8,48,20,48,33.6V504z"/>
<path d="M396,92H44c-2.4,0-4-1.6-4-4s1.6-4,4-4h352c2.4,0,4,1.6,4,4S398.4,92,396,92z"/>
<path d="M468,92h-40c-2.4,0-4-1.6-4-4s1.6-4,4-4h40c2.4,0,4,1.6,4,4S470.4,92,468,92z"/>
<path d="M256.8,456.4c-88.4,0-160.4-72-160.4-160.4s72-160.4,160.4-160.4s160.4,72,160.4,160.4C417.2,384.4,345.2,456.4,256.8,456.4
	z M256.8,144c-84,0-152.4,68.4-152.4,152.4s68.4,152.4,152.4,152.4s152.4-68.4,152.4-152.4S340.8,144,256.8,144z"/>
<path d="M401.2,72c-13.2,0-24-10.8-24-24s10.8-24,24-24s24,10.8,24,24S414.4,72,401.2,72z M401.2,32c-8.8,0-16,7.2-16,16
	s7.2,16,16,16s16-7.2,16-16S410,32,401.2,32z"/>
<path d="M345.2,72c-13.2,0-24-10.8-24-24s10.8-24,24-24s24,10.8,24,24S358.4,72,345.2,72z M345.2,32c-8.8,0-16,7.2-16,16
	s7.2,16,16,16s16-7.2,16-16S354,32,345.2,32z"/>
<path d="M256.8,428.4c-72.8,0-132-59.2-132-132s59.2-132,132-132s132,59.2,132,132C389.2,369.2,329.6,428.4,256.8,428.4z M256.8,172
	c-68.4,0-124,55.6-124,124s55.6,124,124,124s124-55.6,124-124C381.2,227.6,325.2,172,256.8,172z"/>
<path d="M344,392c-2.4,0-4-1.6-4-4V208c0-2.4,1.6-4,4-4s4,1.6,4,4v180C348,390.4,346.4,392,344,392z"/>
<path d="M161.2,260c-0.4,0-1.2,0-1.6-0.4c-2-0.8-2.8-3.2-2-5.2c8.8-20.4,23.2-37.6,42-49.6c2-1.2,4.4-0.8,5.6,1.2
	c1.2,2,0.8,4.4-1.2,5.6c-17.6,10.8-30.8,26.8-38.8,46C164.4,259.2,162.8,260,161.2,260z"/>
<path d="M218.8,203.6c-1.6,0-3.2-0.8-3.6-2.4c-0.8-2,0-4.4,2.4-5.2c9.2-3.6,18.8-6,28.4-6.8c2.4-0.4,4,1.2,4.4,3.6
	c0.4,2-1.2,4-3.6,4.4c-9.2,0.8-18,3.2-26.4,6.4C219.6,203.6,219.2,203.6,218.8,203.6z"/>
<path d="M200,92c-2.4,0-4-1.6-4-4V4c0-2.4,1.6-4,4-4s4,1.6,4,4v84C204,90.4,202.4,92,200,92z"/>
<path d="M172,76H72c-2.4,0-4-1.6-4-4s1.6-4,4-4h100c2.4,0,4,1.6,4,4S174.4,76,172,76z"/>
<path d="M296,64h-64c-6.8,0-12-5.2-12-12v-8c0-6.8,5.2-12,12-12h64c6.8,0,12,5.2,12,12v8C308,58.8,302.8,64,296,64z M232,40
	c-2.4,0-4,1.6-4,4v8c0,2.4,1.6,4,4,4h64c2.4,0,4-1.6,4-4v-8c0-2.4-1.6-4-4-4H232z"/>
<path d="M248,64c-2.4,0-4-1.6-4-4V36c0-2.4,1.6-4,4-4s4,1.6,4,4v24C252,62.4,250.4,64,248,64z"/>
<path d="M280,64c-2.4,0-4-1.6-4-4V36c0-2.4,1.6-4,4-4s4,1.6,4,4v24C284,62.4,282.4,64,280,64z"/>
<g>
</g>
<g>
</g>
<g>
</g>
<g>
</g>
<g>
</g>
<g>
</g>
<g>
</g>
<g>
</g>
<g>
</g>
<g>
</g>
<g>
</g>
<g>
</g>
<g>
</g>
<g>
</g>
<g>
</g>
</svg>
