<?xml version="1.0" encoding="iso-8859-1"?>
<!-- Generator: Adobe Illustrator 19.0.0, SVG Export Plug-In . SVG Version: 6.00 Build 0)  -->
<svg version="1.1" id="Layer_1" xmlns="http://www.w3.org/2000/svg" xmlns:xlink="http://www.w3.org/1999/xlink" x="0px" y="0px"
	 viewBox="0 0 496 496" style="enable-background:new 0 0 496 496;" xml:space="preserve">
<path style="fill:#9F633C;" d="M492,481.2c0,6-4.8,10.8-10.8,10.8H14.8c-6,0-10.8-4.8-10.8-10.8V14.8C4,8.8,8.8,4,14.8,4h466.4
	c6,0,10.8,4.8,10.8,10.8L492,481.2L492,481.2z"/>
<path style="fill:#140500;" d="M481.2,496H14.8c-8,0-14.8-6.8-14.8-14.8V14.8C0,6.8,6.8,0,14.8,0h466.4c8,0,14.8,6.8,14.8,14.8
	v466.4C496,489.2,489.2,496,481.2,496z M14.8,8C11.2,8,8,11.2,8,14.8v466.4c0,3.6,3.2,6.8,6.8,6.8h466.4c3.6,0,6.8-3.2,6.8-6.8V14.8
	c0-3.6-3.2-6.8-6.8-6.8H14.8z"/>
<polyline style="fill:#80DEEA;" points="460,428 460,460 36,460 36,36 460,36 460,300 "/>
<g>
	<path style="fill:#140500;" d="M460,464H36c-2.4,0-4-1.6-4-4V36c0-2.4,1.6-4,4-4h424c2.4,0,4,1.6,4,4v264c0,2.4-1.6,4-4,4
		c-2.4,0-4-1.6-4-4V40H40v416h416v-28c0-2.4,1.6-4,4-4c2.4,0,4,1.6,4,4v32C464,462.4,462.4,464,460,464z"/>
	<path style="fill:#140500;" d="M460,252H36c-2.4,0-4-1.6-4-4s1.6-4,4-4h424c2.4,0,4,1.6,4,4S462.4,252,460,252z"/>
	<path style="fill:#140500;" d="M248,464c-2.4,0-4-1.6-4-4V36c0-2.4,1.6-4,4-4s4,1.6,4,4v424C252,462.4,250.4,464,248,464z"/>
</g>
<path style="fill:#EEEEEE;" d="M248,36c0,120-96,212.4-212,212.4V36H248z"/>
<path style="fill:#140500;" d="M36,252.4c-2.4,0-4-1.6-4-4V36c0-2.4,1.6-4,4-4h212c2.4,0,4,1.6,4,4c0,58.8-22.4,113.6-63.6,154
	C147.6,230.4,93.6,252.4,36,252.4z M40,40v204.4c113.2-2,201.6-90.8,203.6-204.4H40z"/>
<path style="fill:#EEEEEE;" d="M248,36c0,120,94.4,210.8,210.8,210.8V36H248z"/>
<g>
	<path style="fill:#140500;" d="M458.8,250.8C338.4,250.8,244,156.4,244,36c0-2.4,1.6-4,4-4h210.8c1.2,0,2,0.4,2.8,1.2
		s1.2,1.6,1.2,2.8v210.8C462.8,249.2,460.8,250.8,458.8,250.8z M252,40c2,112.8,90,200.8,202.8,202.8V40H252z"/>
	<path style="fill:#140500;" d="M418.8,196c-65.2,0-118.4-53.2-118.4-118.4c0-2.4,1.6-4,4-4s4,1.6,4,4
		c0,60.8,49.6,110.4,110.4,110.4c2.4,0,4,1.6,4,4S421.2,196,418.8,196z"/>
	<path style="fill:#140500;" d="M76.4,196c-2.4,0-4-1.6-4-4s1.6-4,4-4c60.8,0,110.4-49.6,110.4-110.4c0-2.4,1.6-4,4-4s4,1.6,4,4
		C194.8,142.8,141.6,196,76.4,196z"/>
	<path style="fill:#140500;" d="M460,400c-2.4,0-4-1.6-4-4v-64c0-2.4,1.6-4,4-4c2.4,0,4,1.6,4,4v64C464,398.4,462.4,400,460,400z"/>
</g>
<g>
</g>
<g>
</g>
<g>
</g>
<g>
</g>
<g>
</g>
<g>
</g>
<g>
</g>
<g>
</g>
<g>
</g>
<g>
</g>
<g>
</g>
<g>
</g>
<g>
</g>
<g>
</g>
<g>
</g>
</svg>
