<svg viewBox="0 0 272 401" fill="none" xmlns="http://www.w3.org/2000/svg">
<path d="M194.97 163.301C191.857 134.055 167.112 111.26 137.032 111.26C106.952 111.26 82.2 134.059 79.094 163.316L116.628 185.007H152.474L194.97 163.301Z" fill="#3A2F22"/>
<path d="M191.359 161.681C188.437 134.25 165.234 112.881 137.028 112.881C108.822 112.881 85.608 134.258 82.697 161.693L43.042 318.725C43.042 327.065 55.255 333.823 70.331 333.823H203.718C218.786 333.823 231.007 327.062 231.007 318.725L191.359 161.681Z" fill="#F3F4F5"/>
<path d="M191.359 161.681L151.513 156.323H117.904L82.701 161.696L43.046 318.728C43.046 327.068 55.259 333.826 70.335 333.826H203.722C218.79 333.826 231.011 327.065 231.011 318.728L191.359 161.681Z" fill="#E9E9EA"/>
<path d="M117.904 156.323L82.701 161.696L43.046 318.728C43.046 327.068 55.259 333.826 70.335 333.826L117.904 156.323Z" fill="#DFDFDF"/>
<path d="M191.359 161.681L151.513 156.323L203.722 333.826C218.79 333.826 231.011 327.065 231.011 318.728L191.359 161.681Z" fill="#ECECEC"/>
<path d="M135.984 400.961C147.262 400.961 158.341 400.13 169.2 398.607L203.725 333.822H70.335L99.854 398.192C111.633 399.999 123.693 400.961 135.984 400.961Z" fill="#665C51"/>
<path d="M43.704 321.991L43.045 318.724C43.046 319.847 43.289 320.939 43.704 321.991Z" fill="#5B4F3F"/>
<path d="M70.335 333.822C57.291 333.822 46.406 328.756 43.705 321.99L56.876 387.382C70.668 392.269 85.025 395.921 99.854 398.196L70.335 333.822Z" fill="#5B4F3F"/>
<path d="M203.726 333.822L169.2 398.607C185.855 396.268 201.971 392.224 217.331 386.607L230.352 321.986C227.651 328.759 216.762 333.822 203.726 333.822Z" fill="#766959"/>
<path d="M230.356 321.991C230.771 320.94 231.015 319.847 231.015 318.724L230.356 321.991Z" fill="#766959"/>
<path d="M194.97 163.301C191.857 134.055 167.112 111.26 137.032 111.26C106.952 111.26 82.2 134.059 79.094 163.316L116.628 157.591L152.474 157.587L194.97 163.301Z" fill="#5B4F3F"/>
<path d="M135.921 146.912C141.738 146.912 146.454 142.196 146.454 136.379C146.454 130.562 141.738 125.846 135.921 125.846C130.104 125.846 125.388 130.562 125.388 136.379C125.388 142.196 130.104 146.912 135.921 146.912Z" fill="#3A2F22"/>
<path d="M253.054 247.776C252.96 247.159 252.68 246.556 252.205 246.081L251.831 245.714L168.939 162.818L138.084 131.956C136.894 130.77 134.971 130.77 133.788 131.949L132.071 133.678C130.881 134.86 130.881 136.78 132.071 137.966L159.558 165.457L145.167 179.844C143.311 181.704 143.311 184.727 145.174 186.587L228.07 269.483C229.933 271.346 232.953 271.346 234.809 269.483L251.838 252.454C253.106 251.188 253.499 249.389 253.054 247.776ZM230.217 251.593L225.495 246.863L231.201 241.157L235.931 245.887L230.217 251.593ZM224.208 245.576L219.478 240.846L225.184 235.14L229.914 239.866L224.208 245.576ZM218.195 239.563L212.822 234.19L218.528 228.484L223.901 233.857L218.195 239.563ZM211.527 232.899L206.588 227.964L212.302 222.258L217.234 227.19L211.527 232.899ZM205.301 226.672L200.579 221.946L206.285 216.236L211.007 220.962L205.301 226.672ZM199.295 220.659L194.135 215.503L199.841 209.797L205.001 214.953L199.295 220.659ZM192.848 214.216L188.118 209.486L193.824 203.78L198.554 208.506L192.848 214.216ZM186.835 208.203L181.675 203.047L187.389 197.341L192.541 202.497L186.835 208.203ZM180.388 201.756L175.666 197.034L181.372 191.324L186.094 196.05L180.388 201.756ZM174.375 195.743L169.223 190.591L174.929 184.881L180.081 190.037L174.375 195.743ZM167.928 189.299L163.206 184.573L168.912 178.867L173.642 183.593L167.928 189.299ZM161.922 183.286L156.141 177.509L159.292 174.358C160.71 172.947 163.217 173.168 164.897 174.848L167.625 177.576L161.922 183.286ZM237.218 247.166L239.804 249.755C241.492 251.435 241.705 253.942 240.294 255.356L237.143 258.51L231.508 252.875L237.218 247.166ZM151.543 182.111L154.847 178.8L160.636 184.574L154.761 190.441L152.029 187.713C150.345 186.033 150.124 183.526 151.543 182.111ZM161.922 185.861L166.644 190.591L160.777 196.458L156.047 191.732L161.922 185.861ZM167.928 191.877L173.088 197.033L167.213 202.904L162.061 197.748L167.928 191.877ZM174.375 198.321L179.105 203.043L173.238 208.918L168.508 204.192L174.375 198.321ZM180.388 204.338L185.54 209.49L179.673 215.361L174.521 210.209L180.388 204.338ZM186.835 210.773L191.557 215.503L185.686 221.37L180.964 216.648L186.835 210.773ZM192.848 216.794L198.008 221.95L192.133 227.817L186.973 222.665L192.848 216.794ZM199.288 223.234L204.018 227.964L198.143 233.831L193.421 229.101L199.288 223.234ZM205.301 229.25L210.24 234.189L204.38 240.06L199.433 235.121L205.301 229.25ZM211.535 235.48L216.901 240.849L211.034 246.724L205.668 241.351L211.535 235.48ZM218.195 242.137L222.917 246.863L217.05 252.73L212.328 248.008L218.195 242.137ZM224.208 248.154L228.93 252.88L223.063 258.747L218.333 254.025L224.208 248.154ZM232.541 263.11C231.123 264.524 228.623 264.307 226.936 262.627L224.35 260.038L230.217 254.167L235.852 259.802L232.541 263.11Z" fill="#51473A"/>
<path d="M18.694 23.598C18.78 24.219 19.061 24.818 19.528 25.293L19.902 25.667L102.798 108.563L133.66 139.425C134.842 140.607 136.766 140.607 137.948 139.425L139.673 137.7C140.863 136.518 140.863 134.594 139.673 133.412L112.186 105.917L126.569 91.534C128.432 89.671 128.432 86.651 126.569 84.791L43.673 1.895C41.81 0.035 38.79 0.035 36.934 1.895L19.905 18.928C18.638 20.193 18.234 21.989 18.694 23.598ZM41.519 19.789L46.241 24.519L40.542 30.221L35.812 25.495L41.519 19.789ZM47.532 25.806L52.262 30.532L46.556 36.238L41.826 31.512L47.532 25.806ZM53.549 31.819L58.922 37.188L53.216 42.898L47.843 37.525L53.549 31.819ZM60.213 38.475L65.152 43.414L59.438 49.12L54.506 44.181L60.213 38.475ZM66.432 44.705L71.162 49.435L65.456 55.141L60.734 50.411L66.432 44.705ZM72.449 50.718L77.609 55.874L71.903 61.584L66.743 56.424L72.449 50.718ZM78.892 57.162L83.622 61.888L77.916 67.594L73.179 62.872L78.892 57.162ZM84.909 63.175L90.061 68.331L84.355 74.037L79.203 68.885L84.909 63.175ZM91.352 69.622L96.074 74.348L90.368 80.054L85.646 75.328L91.352 69.622ZM97.369 75.631L102.514 80.791L96.815 86.497L91.655 81.341L97.369 75.631ZM103.812 82.078L108.534 86.808L102.82 92.514L98.098 87.784L103.812 82.078ZM109.814 88.091L115.595 93.865L112.444 97.016C111.033 98.427 108.526 98.213 106.839 96.53L104.119 93.802L109.814 88.091ZM34.518 24.212L31.94 21.623C30.26 19.947 30.039 17.432 31.45 16.022L34.601 12.871L40.236 18.502L34.518 24.212ZM120.198 89.266L116.879 92.581L111.105 86.804L116.98 80.933L119.708 83.665C121.399 85.345 121.608 87.852 120.198 89.266ZM109.822 85.513L105.092 80.791L110.967 74.916L115.697 79.646L109.822 85.513ZM103.805 79.497L98.653 74.345L104.528 68.478L109.673 73.63L103.805 79.497ZM97.369 73.057L92.639 68.331L98.506 62.464L103.236 67.186L97.369 73.057ZM91.352 67.04L86.2 61.884L92.067 56.017L97.219 61.169L91.352 67.04ZM84.909 60.601L80.187 55.871L86.054 50.004L90.776 54.73L84.909 60.601ZM78.892 54.584L73.732 49.432L79.607 43.561L84.767 48.717L78.892 54.584ZM72.449 48.14L67.727 43.418L73.594 37.547L78.316 42.273L72.449 48.14ZM66.432 42.124L61.5 37.192L67.367 31.317L72.306 36.256L66.432 42.124ZM60.206 35.897L54.84 30.528L60.707 24.657L66.073 30.03L60.206 35.897ZM53.549 29.241L48.819 24.519L54.694 18.644L59.416 23.374L53.549 29.241ZM47.532 23.224L42.81 18.502L48.677 12.627L53.399 17.357L47.532 23.224ZM39.203 8.264C40.614 6.853 43.128 7.074 44.808 8.754L47.386 11.34L41.519 17.207L35.891 11.579L39.203 8.264Z" fill="#51473A"/>
<path d="M23.776 252.869C24.405 252.779 25.003 252.499 25.479 252.02L25.853 251.653L108.749 168.757L139.604 137.895C140.786 136.713 140.786 134.789 139.604 133.607L137.879 131.882C136.697 130.7 134.781 130.7 133.595 131.882L106.1 159.377L91.717 144.99C89.854 143.13 86.834 143.13 84.978 144.99L2.07901 227.889C0.216013 229.749 0.223014 232.768 2.07901 234.632L19.115 251.661C20.371 252.921 22.167 253.321 23.776 252.869ZM19.966 230.04L24.703 225.31L30.402 231.02L25.672 235.746L19.966 230.04ZM25.983 224.023L30.713 219.293L36.419 225.007L31.697 229.729L25.983 224.023ZM32.004 218.01L37.37 212.637L43.076 218.343L37.71 223.716L32.004 218.01ZM38.66 211.353L43.592 206.414L49.306 212.12L44.367 217.059L38.66 211.353ZM44.887 205.123L49.609 200.397L55.315 206.103L50.593 210.833L44.887 205.123ZM50.904 199.107L56.056 193.951L61.762 199.661L56.602 204.817L50.904 199.107ZM57.339 192.667L62.069 187.937L67.775 193.647L63.045 198.373L57.339 192.667ZM63.364 186.65L68.509 181.498L74.223 187.204L69.063 192.356L63.364 186.65ZM69.8 180.203L74.522 175.481L80.228 181.187L75.506 185.913L69.8 180.203ZM75.816 174.19L80.968 169.038L86.682 174.744L81.522 179.9L75.816 174.19ZM82.263 167.75L86.985 163.02L92.699 168.73L87.969 173.456L82.263 167.75ZM88.276 161.737L94.05 155.963L97.201 159.114C98.612 160.525 98.391 163.035 96.711 164.715L93.983 167.443L88.276 161.737ZM24.389 237.037L21.811 239.623C20.123 241.303 17.616 241.528 16.206 240.109L13.055 236.958L18.683 231.323L24.389 237.037ZM89.451 151.358L92.755 154.669L86.981 160.45L81.114 154.579L83.846 151.851C85.53 150.168 88.037 149.951 89.451 151.358ZM85.698 161.737L80.968 166.467L75.101 160.592L79.831 155.87L85.698 161.737ZM79.682 167.75L74.522 172.902L68.655 167.035L73.815 161.883L79.682 167.75ZM73.234 174.197L68.512 178.919L62.637 173.052L67.367 168.326L73.234 174.197ZM67.229 180.207L62.069 185.363L56.202 179.496L61.354 174.34L67.229 180.207ZM60.782 186.65L56.052 191.38L50.185 185.513L54.915 180.783L60.782 186.65ZM54.769 192.667L49.617 197.823L43.75 191.952L48.902 186.8L54.769 192.667ZM48.322 199.11L43.592 203.836L37.725 197.965L42.455 193.243L48.322 199.11ZM42.309 205.127L37.37 210.066L31.503 204.199L36.442 199.26L42.309 205.127ZM36.082 211.353L30.709 216.726L24.842 210.859L30.215 205.486L36.082 211.353ZM29.422 218.01L24.7 222.74L18.825 216.869L23.547 212.143L29.422 218.01ZM23.409 224.023L18.679 228.753L12.812 222.878L17.542 218.156L23.409 224.023ZM8.44901 232.36C7.03101 230.946 7.25901 228.439 8.93901 226.759L11.525 224.173L17.392 230.04L11.757 235.675L8.44901 232.36Z" fill="#51473A"/>
<path d="M247.969 18.509C247.34 18.599 246.742 18.879 246.266 19.355L245.892 19.725L162.996 102.621L132.141 133.483C130.951 134.665 130.951 136.589 132.141 137.771L133.858 139.5C135.048 140.682 136.964 140.682 138.146 139.5L165.641 112.005L180.024 126.388C181.887 128.251 184.907 128.251 186.77 126.388L269.658 43.492C271.529 41.632 271.521 38.613 269.658 36.753L252.629 19.72C251.374 18.461 249.566 18.053 247.969 18.509ZM251.766 41.334L247.036 46.064L241.337 40.358L246.059 35.636L251.766 41.334ZM245.753 47.351L241.031 52.081L235.325 46.375L240.047 41.649L245.753 47.351ZM239.74 53.364L234.367 58.737L228.661 53.031L234.034 47.662L239.74 53.364ZM233.08 60.024L228.141 64.959L222.435 59.253L227.382 54.318L233.08 60.024ZM226.854 66.251L222.132 70.977L216.418 65.271L221.148 60.549L226.854 66.251ZM220.848 72.267L215.688 77.423L209.982 71.717L215.142 66.565L220.848 72.267ZM214.393 78.707L209.671 83.437L203.965 77.731L208.687 73.001L214.393 78.707ZM208.38 84.724L203.228 89.884L197.522 84.174L202.682 79.022L208.38 84.724ZM201.941 91.171L197.211 95.893L191.512 90.194L196.234 85.464L201.941 91.171ZM195.92 97.184L190.775 102.336L185.061 96.63L190.221 91.478L195.92 97.184ZM189.481 103.624L184.751 108.354L179.045 102.652L183.782 97.926L189.481 103.624ZM183.464 109.637L177.69 115.411L174.539 112.268C173.128 110.854 173.349 108.343 175.029 106.663L177.757 103.935L183.464 109.637ZM247.355 34.341L249.941 31.755C251.621 30.075 254.128 29.854 255.539 31.269L258.69 34.416L253.062 40.051L247.355 34.341ZM182.289 120.016L178.978 116.701L184.752 110.927L190.627 116.794L187.895 119.526C186.214 121.214 183.707 121.427 182.289 120.016ZM186.046 109.64L190.776 104.914L196.643 110.781L191.913 115.511L186.046 109.64ZM192.059 103.631L197.211 98.471L203.086 104.342L197.926 109.498L192.059 103.631ZM198.506 97.184L203.228 92.458L209.103 98.325L204.381 103.051L198.506 97.184ZM204.511 91.171L209.671 86.019L215.538 91.886L210.386 97.038L204.511 91.171ZM210.958 84.728L215.688 80.002L221.555 85.869L216.833 90.595L210.958 84.728ZM216.975 78.707L222.135 73.555L228.002 79.422L222.842 84.582L216.975 78.707ZM223.419 72.271L228.149 67.541L234.016 73.412L229.286 78.138L223.419 72.271ZM229.435 66.254L234.374 61.315L240.241 67.182L235.302 72.121L229.435 66.254ZM235.662 60.028L241.035 54.655L246.902 60.522L241.529 65.895L235.662 60.028ZM242.318 53.368L247.04 48.642L252.915 54.509L248.185 59.239L242.318 53.368ZM248.331 47.355L253.061 42.629L258.928 48.496L254.198 53.226L248.331 47.355ZM263.291 39.018C264.702 40.432 264.481 42.943 262.801 44.623L260.215 47.209L254.348 41.342L259.976 35.707L263.291 39.018Z" fill="#51473A"/>
<path d="M135.921 145.041C140.705 145.041 144.583 141.163 144.583 136.379C144.583 131.595 140.705 127.717 135.921 127.717C131.137 127.717 127.259 131.595 127.259 136.379C127.259 141.163 131.137 145.041 135.921 145.041Z" fill="#3A2F22"/>
<path d="M135.921 141.85C138.943 141.85 141.392 139.401 141.392 136.379C141.392 133.357 138.943 130.908 135.921 130.908C132.899 130.908 130.45 133.357 130.45 136.379C130.45 139.401 132.899 141.85 135.921 141.85Z" fill="#423528"/>
<path d="M132.718 138.916C131.124 137.326 131.131 134.751 132.718 133.161C134.312 131.567 136.883 131.563 138.484 133.157C140.07 134.752 134.312 140.51 132.718 138.916Z" fill="#4C3E30"/>
<path d="M146.458 229.55C146.458 232.203 144.31 234.351 141.665 234.351H129.13C126.477 234.351 124.329 232.203 124.329 229.55V208.222C124.329 205.573 126.477 203.425 129.13 203.425H141.665C144.31 203.425 146.458 205.573 146.458 208.222V229.55Z" fill="#665C51"/>
<path d="M146.458 293.65C146.458 296.303 144.31 298.451 141.665 298.451H129.13C126.477 298.451 124.329 296.303 124.329 293.65V272.318C124.329 269.669 126.477 267.521 129.13 267.521H141.665C144.31 267.521 146.458 269.669 146.458 272.318V293.65Z" fill="#665C51"/>
</svg>
